<?xml version="1.0" encoding="UTF-8" standalone="no"?>
<svg
   version="1.1"
   id="aboutWordmark"
   x="0px"
   y="0px"
   width="130px"
   height="38px"
   viewBox="0 0 130 38"
   xml:space="preserve"
   inkscape:version="1.2 (1:1.2.1+202207142221+cd75a1ee6d)"
   sodipodi:docname="about-wordmark.svg"
   xmlns:inkscape="http://www.inkscape.org/namespaces/inkscape"
   xmlns:sodipodi="http://sodipodi.sourceforge.net/DTD/sodipodi-0.dtd"
   xmlns="http://www.w3.org/2000/svg"
   xmlns:svg="http://www.w3.org/2000/svg"
   xmlns:rdf="http://www.w3.org/1999/02/22-rdf-syntax-ns#"
   xmlns:cc="http://creativecommons.org/ns#"
   xmlns:dc="http://purl.org/dc/elements/1.1/"><metadata
   id="metadata9"><rdf:RDF><cc:Work
       rdf:about=""><dc:format>image/svg+xml</dc:format><dc:type
         rdf:resource="http://purl.org/dc/dcmitype/StillImage" /></cc:Work></rdf:RDF></metadata><defs
   id="defs7" /><sodipodi:namedview
   pagecolor="#ffffff"
   bordercolor="#666666"
   borderopacity="1"
   objecttolerance="10"
   gridtolerance="10"
   guidetolerance="10"
   inkscape:pageopacity="0"
   inkscape:pageshadow="2"
   inkscape:window-width="1918"
   inkscape:window-height="1008"
   id="namedview5"
   showgrid="false"
   inkscape:zoom="4.8940365"
   inkscape:cx="68.450654"
   inkscape:cy="28.810574"
   inkscape:window-x="1366"
   inkscape:window-y="0"
   inkscape:window-maximized="1"
   inkscape:current-layer="aboutWordmark"
   inkscape:showpageshadow="2"
   inkscape:pagecheckerboard="0"
   inkscape:deskcolor="#d1d1d1" />
<g
   aria-label="Icedove"
   id="text1936-3-9"
   style="font-weight:bold;font-size:33.6271px;font-family:'Liberation Sans';-inkscape-font-specification:'Liberation Sans, Bold';text-align:end;text-anchor:end;fill:#6f6f6f;stroke-width:0.452261"
   transform="matrix(0.73871871,0,0,0.73871871,-0.40396669,-9.5617209)"><path
     d="M 0.54684779,37.310169 V 14.175117 H 5.3905954 v 23.135052 z"
     id="path1988-6-1" /><path
     d="m 17.393237,37.638559 q -4.039193,0 -6.239403,-2.397245 -2.2002111,-2.413664 -2.2002111,-6.715568 0,-4.400422 2.2166301,-6.846925 2.21663,-2.462922 6.288662,-2.462922 3.136122,0 5.188557,1.57627 2.052435,1.57627 2.577859,4.351163 l -4.646714,0.229873 q -0.197034,-1.362817 -0.985169,-2.167372 -0.788135,-0.820974 -2.23305,-0.820974 -3.563027,0 -3.563027,5.960272 0,6.140887 3.628705,6.140887 1.313559,0 2.200211,-0.820974 0.886652,-0.837394 1.100106,-2.479342 l 4.630294,0.213453 q -0.246292,1.822563 -1.313559,3.251058 -1.050847,1.428495 -2.774893,2.21663 -1.724045,0.771716 -3.874998,0.771716 z"
     id="path1990-7-2" /><path
     d="m 35.963673,37.638559 q -4.006354,0 -6.157306,-2.364406 -2.150952,-2.380825 -2.150952,-6.929022 0,-4.400421 2.183791,-6.764827 2.183791,-2.364405 6.190145,-2.364405 3.82574,0 5.845336,2.545019 2.019597,2.528601 2.019597,7.421607 v 0.131356 H 32.499162 q 0,2.594278 0.95233,3.924256 0.96875,1.313559 2.742054,1.313559 2.446503,0 3.086863,-2.118113 l 4.351163,0.377648 q -1.888241,4.827328 -7.667899,4.827328 z m 0,-15.516412 q -1.625529,0 -2.512181,1.132944 -0.870232,1.132945 -0.919491,3.168961 h 6.896183 q -0.131356,-2.150953 -1.034427,-3.218219 -0.903072,-1.083686 -2.430084,-1.083686 z"
     id="path1992-5-7" /><path
     d="m 58.901692,37.310169 q -0.06568,-0.246292 -0.164195,-1.231461 -0.0821,-1.001589 -0.0821,-1.658368 h -0.06568 q -1.494173,3.218219 -5.681142,3.218219 -3.103282,0 -4.794489,-2.413664 -1.691207,-2.430084 -1.691207,-6.781247 0,-4.416841 1.773305,-6.814085 1.789723,-2.413664 5.0572,-2.413664 1.888241,0 3.251058,0.788135 1.379237,0.788135 2.118114,2.347986 h 0.03284 l -0.03284,-2.922668 v -6.485696 h 4.613874 v 20.491515 q 0,1.641948 0.131356,3.874998 z m -0.213454,-8.981457 q 0,-2.87341 -0.968749,-4.416841 -0.95233,-1.559851 -2.824151,-1.559851 -1.855402,0 -2.758473,1.510592 -0.903072,1.494173 -0.903072,4.581036 0,6.04237 3.628706,6.04237 1.822562,0 2.824151,-1.59269 1.001588,-1.609109 1.001588,-4.564616 z"
     id="path1994-3-0" /><path
     d="m 84.811634,28.410809 q 0,4.318324 -2.397244,6.781247 -2.397245,2.446503 -6.633472,2.446503 -4.154129,0 -6.518534,-2.462923 -2.364406,-2.462922 -2.364406,-6.764827 0,-4.285485 2.364406,-6.731988 2.364405,-2.462922 6.617051,-2.462922 4.351163,0 6.633472,2.380825 2.298727,2.364405 2.298727,6.814085 z m -4.827328,0 q 0,-3.16896 -1.034427,-4.597455 -1.034428,-1.428495 -3.004766,-1.428495 -4.203387,0 -4.203387,6.02595 0,2.971927 1.018008,4.531778 1.034427,1.543431 2.971926,1.543431 4.252646,0 4.252646,-6.075209 z"
     id="path1996-5-9" /><path
     d="m 98.127841,37.310169 h -5.516947 l -6.35434,-17.765881 h 4.876587 l 3.103282,9.933788 q 0.246292,0.820974 1.165783,4.10487 0.164195,-0.673198 0.673199,-2.364405 0.509004,-1.691207 3.776481,-11.674253 h 4.827324 z"
     id="path1998-6-3" /><path
     d="m 114.44881,37.638559 q -4.00636,0 -6.15731,-2.364406 -2.15095,-2.380825 -2.15095,-6.929022 0,-4.400421 2.18379,-6.764827 2.18379,-2.364405 6.19014,-2.364405 3.82574,0 5.84534,2.545019 2.0196,2.528601 2.0196,7.421607 v 0.131356 h -11.39513 q 0,2.594278 0.95233,3.924256 0.96875,1.313559 2.74206,1.313559 2.4465,0 3.08686,-2.118113 l 4.35116,0.377648 q -1.88824,4.827328 -7.66789,4.827328 z m 0,-15.516412 q -1.62553,0 -2.51219,1.132944 -0.87023,1.132945 -0.91949,3.168961 h 6.89619 q -0.13136,-2.150953 -1.03443,-3.218219 -0.90307,-1.083686 -2.43008,-1.083686 z"
     id="path2000-2-6" /></g></svg>
