<?xml version="1.0" encoding="UTF-8" standalone="no"?>
<!-- Created with Inkscape (http://www.inkscape.org/) -->

<svg
   xmlns:dc="http://purl.org/dc/elements/1.1/"
   xmlns:cc="http://creativecommons.org/ns#"
   xmlns:rdf="http://www.w3.org/1999/02/22-rdf-syntax-ns#"
   xmlns:svg="http://www.w3.org/2000/svg"
   xmlns="http://www.w3.org/2000/svg"
   xmlns:xlink="http://www.w3.org/1999/xlink"
   xmlns:sodipodi="http://sodipodi.sourceforge.net/DTD/sodipodi-0.dtd"
   xmlns:inkscape="http://www.inkscape.org/namespaces/inkscape"
   width="22"
   height="22"
   id="svg1328"
   sodipodi:version="0.32"
   inkscape:version="0.47 r22583"
   sodipodi:docname="trisquel22.svg"
   inkscape:output_extension="org.inkscape.output.svg.inkscape"
   version="1.1"
   style="display:inline"
   inkscape:export-filename="/home/ru/Escritorio/trisquel22.png"
   inkscape:export-xdpi="90"
   inkscape:export-ydpi="90">
  <sodipodi:namedview
     inkscape:cy="-5.2111562"
     inkscape:cx="-243.31653"
     inkscape:zoom="1"
     inkscape:window-height="839"
     inkscape:window-width="1092"
     inkscape:pageshadow="2"
     inkscape:pageopacity="0.0"
     guidetolerance="10.0"
     gridtolerance="10.0"
     objecttolerance="10.0"
     borderopacity="0.31764706"
     bordercolor="#666"
     pagecolor="#ffffff"
     id="base"
     inkscape:showpageshadow="false"
     showgrid="false"
     inkscape:window-x="0"
     inkscape:window-y="0"
     inkscape:current-layer="layer3"
     showguides="true"
     inkscape:guide-bbox="true"
     inkscape:window-maximized="0"
     showborder="true" />
  <defs
     id="defs1330">
    <linearGradient
       id="linearGradient3654">
      <stop
         id="stop3656"
         offset="0"
         style="stop-color:#ffffff;stop-opacity:0;" />
      <stop
         style="stop-color:#ffffff;stop-opacity:1;"
         offset="0.02531646"
         id="stop3660" />
      <stop
         id="stop3658"
         offset="1"
         style="stop-color:#386ea6;stop-opacity:0;" />
    </linearGradient>
    <linearGradient
       id="linearGradient3860">
      <stop
         style="stop-color:#001355;stop-opacity:1;"
         offset="0"
         id="stop3862" />
      <stop
         style="stop-color:#002455;stop-opacity:0;"
         offset="1"
         id="stop3864" />
    </linearGradient>
    <linearGradient
       inkscape:collect="always"
       id="linearGradient3741">
      <stop
         style="stop-color:#ffffff;stop-opacity:1;"
         offset="0"
         id="stop3743" />
      <stop
         style="stop-color:#ffffff;stop-opacity:0;"
         offset="1"
         id="stop3745" />
    </linearGradient>
    <inkscape:perspective
       sodipodi:type="inkscape:persp3d"
       inkscape:vp_x="0 : 24 : 1"
       inkscape:vp_y="0 : 1000 : 0"
       inkscape:vp_z="48 : 24 : 1"
       inkscape:persp3d-origin="24 : 16 : 1"
       id="perspective58" />
    <linearGradient
       inkscape:collect="always"
       id="linearGradient8112">
      <stop
         style="stop-color:#ffffff;stop-opacity:1;"
         offset="0"
         id="stop8114" />
      <stop
         style="stop-color:#ffffff;stop-opacity:0;"
         offset="1"
         id="stop8116" />
    </linearGradient>
    <linearGradient
       id="linearGradient7108">
      <stop
         style="stop-color:#000000;stop-opacity:1;"
         offset="0"
         id="stop7110" />
      <stop
         style="stop-color:#ffffff;stop-opacity:1;"
         offset="1"
         id="stop7112" />
    </linearGradient>
    <linearGradient
       id="linearGradient7100">
      <stop
         style="stop-color:#000000;stop-opacity:1;"
         offset="0"
         id="stop7102" />
      <stop
         style="stop-color:#ffffff;stop-opacity:1;"
         offset="1"
         id="stop7104" />
    </linearGradient>
    <linearGradient
       id="linearGradient2804">
      <stop
         style="stop-color:black;stop-opacity:0;"
         offset="0"
         id="stop2806" />
      <stop
         id="stop2812"
         offset="0.5"
         style="stop-color:black;stop-opacity:1;" />
      <stop
         style="stop-color:black;stop-opacity:0;"
         offset="1"
         id="stop2808" />
    </linearGradient>
    <linearGradient
       inkscape:collect="always"
       id="linearGradient2781">
      <stop
         style="stop-color:black;stop-opacity:1;"
         offset="0"
         id="stop2783" />
      <stop
         style="stop-color:black;stop-opacity:0;"
         offset="1"
         id="stop2785" />
    </linearGradient>
    <linearGradient
       inkscape:collect="always"
       id="linearGradient2782">
      <stop
         style="stop-color:white;stop-opacity:1;"
         offset="0"
         id="stop2784" />
      <stop
         style="stop-color:white;stop-opacity:0;"
         offset="1"
         id="stop2786" />
    </linearGradient>
    <linearGradient
       id="linearGradient5106">
      <stop
         style="stop-color:#ffffff;stop-opacity:1;"
         offset="0"
         id="stop5108" />
      <stop
         style="stop-color:#386ea6;stop-opacity:1;"
         offset="1"
         id="stop5110" />
    </linearGradient>
    <linearGradient
       inkscape:collect="always"
       xlink:href="#linearGradient5106"
       id="linearGradient2780"
       gradientUnits="userSpaceOnUse"
       gradientTransform="matrix(3.137165,0,0,3.184122,-1.606682,-4.861064)"
       x1="8.1771841"
       y1="5.7791729"
       x2="8.1771841"
       y2="15.676654" />
    <linearGradient
       inkscape:collect="always"
       xlink:href="#linearGradient2782"
       id="linearGradient2788"
       x1="26.0625"
       y1="23.265625"
       x2="29.03125"
       y2="55.265625"
       gradientUnits="userSpaceOnUse" />
    <radialGradient
       inkscape:collect="always"
       xlink:href="#linearGradient2781"
       id="radialGradient2827"
       gradientUnits="userSpaceOnUse"
       gradientTransform="matrix(2,0,0,0.8,-13,-79.2)"
       cx="1"
       cy="44"
       fx="1"
       fy="44"
       r="5" />
    <radialGradient
       inkscape:collect="always"
       xlink:href="#linearGradient2781"
       id="radialGradient2829"
       gradientUnits="userSpaceOnUse"
       gradientTransform="matrix(2,0,0,0.8,36,8.8)"
       cx="1"
       cy="44"
       fx="1"
       fy="44"
       r="5" />
    <linearGradient
       inkscape:collect="always"
       xlink:href="#linearGradient2804"
       id="linearGradient2831"
       gradientUnits="userSpaceOnUse"
       x1="21.875"
       y1="48.000977"
       x2="21.875"
       y2="40" />
    <linearGradient
       inkscape:collect="always"
       xlink:href="#linearGradient5106"
       id="linearGradient8141"
       gradientUnits="userSpaceOnUse"
       gradientTransform="matrix(3.3087682,0,0,3.3582938,-5.969971,-6.3358833)"
       x1="8.1771841"
       y1="5.7791729"
       x2="8.1771841"
       y2="15.676654" />
    <linearGradient
       inkscape:collect="always"
       xlink:href="#linearGradient2782"
       id="linearGradient15953"
       x1="77.297218"
       y1="16.647184"
       x2="77.480881"
       y2="52.45615"
       gradientUnits="userSpaceOnUse"
       gradientTransform="translate(-0.8601477,-1.863416)" />
    <radialGradient
       inkscape:collect="always"
       xlink:href="#linearGradient2781"
       id="radialGradient19858"
       cx="73.570084"
       cy="23.145077"
       fx="73.570084"
       fy="23.145077"
       r="20.928947"
       gradientTransform="matrix(1,0,0,0.9887118,-0.4220719,11.235137)"
       gradientUnits="userSpaceOnUse" />
    <radialGradient
       inkscape:collect="always"
       xlink:href="#linearGradient2781"
       id="radialGradient19868"
       gradientUnits="userSpaceOnUse"
       gradientTransform="matrix(2,0,0,0.8,-25.240086,-80.929141)"
       cx="1"
       cy="44"
       fx="1"
       fy="44"
       r="5" />
    <radialGradient
       inkscape:collect="always"
       xlink:href="#linearGradient2781"
       id="radialGradient19870"
       gradientUnits="userSpaceOnUse"
       gradientTransform="matrix(2,0,0,0.8,21.227482,10.529141)"
       cx="1"
       cy="44"
       fx="1"
       fy="44"
       r="5" />
    <linearGradient
       inkscape:collect="always"
       xlink:href="#linearGradient2804"
       id="linearGradient19872"
       gradientUnits="userSpaceOnUse"
       x1="21.875"
       y1="48.000977"
       x2="21.875"
       y2="40"
       gradientTransform="matrix(1,0,0,0.1481438,0,40.8891)" />
    <radialGradient
       inkscape:collect="always"
       xlink:href="#linearGradient2781"
       id="radialGradient19882"
       gradientUnits="userSpaceOnUse"
       gradientTransform="matrix(2,0,0,0.8,-13,-79.2)"
       cx="1"
       cy="44"
       fx="1"
       fy="44"
       r="5" />
    <radialGradient
       inkscape:collect="always"
       xlink:href="#linearGradient2781"
       id="radialGradient19884"
       gradientUnits="userSpaceOnUse"
       gradientTransform="matrix(2,0,0,0.8,36,8.8)"
       cx="1"
       cy="44"
       fx="1"
       fy="44"
       r="5" />
    <linearGradient
       inkscape:collect="always"
       xlink:href="#linearGradient2804"
       id="linearGradient19886"
       gradientUnits="userSpaceOnUse"
       x1="21.875"
       y1="48.000977"
       x2="21.875"
       y2="40" />
    <linearGradient
       inkscape:collect="always"
       xlink:href="#linearGradient8112"
       id="linearGradient8118"
       x1="33.111675"
       y1="43.542542"
       x2="25.368185"
       y2="2.4395995"
       gradientUnits="userSpaceOnUse" />
    <linearGradient
       inkscape:collect="always"
       xlink:href="#linearGradient8112"
       id="linearGradient8126"
       x1="29.854376"
       y1="50.395214"
       x2="21.795116"
       y2="15.465387"
       gradientUnits="userSpaceOnUse" />
    <inkscape:perspective
       id="perspective3642"
       inkscape:persp3d-origin="0.5 : 0.33333333 : 1"
       inkscape:vp_z="1 : 0.5 : 1"
       inkscape:vp_y="0 : 1000 : 0"
       inkscape:vp_x="0 : 0.5 : 1"
       sodipodi:type="inkscape:persp3d" />
    <inkscape:perspective
       id="perspective3664"
       inkscape:persp3d-origin="0.5 : 0.33333333 : 1"
       inkscape:vp_z="1 : 0.5 : 1"
       inkscape:vp_y="0 : 1000 : 0"
       inkscape:vp_x="0 : 0.5 : 1"
       sodipodi:type="inkscape:persp3d" />
    <inkscape:perspective
       id="perspective3687"
       inkscape:persp3d-origin="0.5 : 0.33333333 : 1"
       inkscape:vp_z="1 : 0.5 : 1"
       inkscape:vp_y="0 : 1000 : 0"
       inkscape:vp_x="0 : 0.5 : 1"
       sodipodi:type="inkscape:persp3d" />
    <inkscape:perspective
       id="perspective3709"
       inkscape:persp3d-origin="0.5 : 0.33333333 : 1"
       inkscape:vp_z="1 : 0.5 : 1"
       inkscape:vp_y="0 : 1000 : 0"
       inkscape:vp_x="0 : 0.5 : 1"
       sodipodi:type="inkscape:persp3d" />
    <radialGradient
       inkscape:collect="always"
       xlink:href="#linearGradient3741"
       id="radialGradient3749"
       cx="17.822229"
       cy="10.598286"
       fx="17.822229"
       fy="10.598286"
       r="23.300945"
       gradientTransform="matrix(0.38644928,0.44164143,-0.51230727,0.44828392,6.8127215,18.07262)"
       gradientUnits="userSpaceOnUse" />
    <linearGradient
       inkscape:collect="always"
       xlink:href="#linearGradient5106"
       id="linearGradient3781"
       x1="16.757011"
       y1="-4.3910275"
       x2="30.149065"
       y2="39.755077"
       gradientUnits="userSpaceOnUse"
       gradientTransform="matrix(0.44563018,0,0,0.44563018,0.32840784,25.904051)" />
    <inkscape:perspective
       id="perspective3804"
       inkscape:persp3d-origin="0.5 : 0.33333333 : 1"
       inkscape:vp_z="1 : 0.5 : 1"
       inkscape:vp_y="0 : 1000 : 0"
       inkscape:vp_x="0 : 0.5 : 1"
       sodipodi:type="inkscape:persp3d" />
    <linearGradient
       inkscape:collect="always"
       xlink:href="#linearGradient3860"
       id="linearGradient3866"
       x1="30.784439"
       y1="-3.2016251"
       x2="48.248177"
       y2="74.1007"
       gradientUnits="userSpaceOnUse"
       gradientTransform="matrix(0.42477836,0,0,0.42477836,0.64026557,26.923199)" />
    <linearGradient
       inkscape:collect="always"
       xlink:href="#linearGradient3654"
       id="linearGradient2880"
       gradientUnits="userSpaceOnUse"
       gradientTransform="matrix(0.44563018,0,0,0.44563018,0.32840784,25.904051)"
       x1="27.46454"
       y1="25.741779"
       x2="34.410751"
       y2="47.199356" />
  </defs>
  <sodipodi:namedview
     id="namedview21"
     pagecolor="#ffffff"
     bordercolor="#666666"
     borderopacity="1.0"
     inkscape:pageopacity="0.0"
     inkscape:pageshadow="2"
     inkscape:zoom="9.8994949"
     inkscape:cx="24"
     inkscape:cy="24"
     inkscape:current-layer="layer1"
     showgrid="true"
     inkscape:grid-bbox="true"
     inkscape:document-units="px"
     inkscape:window-width="736"
     inkscape:window-height="851"
     inkscape:window-x="214"
     inkscape:window-y="28" />
  <metadata
     id="metadata1333">
    <rdf:RDF>
      <cc:Work
         rdf:about="">
        <dc:format>image/svg+xml</dc:format>
        <dc:type
           rdf:resource="http://purl.org/dc/dcmitype/StillImage" />
        <dc:title />
        <dc:subject>
          <rdf:Bag>
            <rdf:li>go</rdf:li>
            <rdf:li>seek</rdf:li>
            <rdf:li>home</rdf:li>
          </rdf:Bag>
        </dc:subject>
        <dc:creator>
          <cc:Agent>
            <dc:title>Rodney Dawes</dc:title>
          </cc:Agent>
        </dc:creator>
        <dc:contributor>
          <cc:Agent>
            <dc:title>Jakub Steiner</dc:title>
          </cc:Agent>
        </dc:contributor>
        <cc:license
           rdf:resource="http://creativecommons.org/licenses/GPL/2.0/" />
      </cc:Work>
      <cc:License
         rdf:about="http://creativecommons.org/licenses/GPL/2.0/">
        <cc:permits
           rdf:resource="http://web.resource.org/cc/Reproduction" />
        <cc:permits
           rdf:resource="http://web.resource.org/cc/Distribution" />
        <cc:requires
           rdf:resource="http://web.resource.org/cc/Notice" />
        <cc:permits
           rdf:resource="http://web.resource.org/cc/DerivativeWorks" />
        <cc:requires
           rdf:resource="http://web.resource.org/cc/ShareAlike" />
        <cc:requires
           rdf:resource="http://web.resource.org/cc/SourceCode" />
      </cc:License>
    </rdf:RDF>
  </metadata>
  <g
     inkscape:groupmode="layer"
     id="layer3"
     inkscape:label="shadow"
     style="opacity:0.85;display:inline"
     transform="translate(0,-26)">
    <path
       style="color:#000000;fill:#000000;fill-opacity:1;fill-rule:nonzero;stroke:none;stroke-width:1.00000024000000010;marker:none;visibility:visible;display:inline;overflow:visible;enable-background:accumulate"
       d="M 13.042356,47.891154 C 12.49018,47.816364 11.882828,47.668076 11.613281,47.542266 10.990252,47.251472 10.39409,46.838504 10.181646,46.550552 10.125982,46.475103 9.9878157,46.340398 9.8746093,46.251215 9.4245684,45.89666 9.1616724,45.523375 8.6252152,44.477189 8.5642667,44.358325 8.0865744,43.263303 8.0164824,42.719867 c -0.055384,-0.429443 0.2363211,-1.154848 0.2959821,-1.547566 0.074028,-0.48729 0.2252387,-1.128151 0.2984937,-1.265021 0.061648,-0.115192 0.2148255,-0.611357 0.2624382,-0.850096 0.017988,-0.0902 0.058345,-0.19562 0.089673,-0.234276 0.031329,-0.03866 0.095987,-0.207335 0.1436815,-0.374842 0.0477,-0.167506 0.1588774,-0.45055 0.247075,-0.628984 0.1975269,-0.399631 0.2903572,-0.697387 0.2910214,-0.933451 2.841e-4,-0.09912 0.035149,-0.299376 0.077494,-0.445024 C 9.8260178,36.083978 9.5429799,35.101867 9.4099947,34.72175 9.3089913,34.433065 9.305398,33.92615 9.046225,33.506905 8.5092393,32.638252 6.9743602,31.569502 6.0609408,31.428222 c -0.3501448,-0.05415 -1.5090377,0.0058 -2.0071933,0.103797 -0.4264896,0.08392 -0.8282146,0.270566 -1.0341617,0.480484 -0.5282502,0.53842 -0.9042888,0.877446 -0.9586042,1.129432 -0.1754532,0.81398 -0.2842533,0.830737 -0.3141084,1.451904 -0.033922,0.705913 -0.00442,0.853479 0.308643,1.543935 0.2642059,0.582687 0.9747162,1.171376 1.7563767,1.455225 0.3648627,0.132496 0.4382207,-0.367471 0.9652442,-0.34219 0.7267969,0.03485 1.0365624,-0.01783 1.3623367,-0.231704 0.1269052,-0.08333 0.3256258,-0.207223 0.441588,-0.275333 C 7.110396,36.432888 7.4524356,36.371128 7.450184,35.564243 7.4487842,35.064106 7.2705554,34.61221 6.9685066,34.342988 6.7806855,34.175576 6.1180203,33.776856 5.9254618,33.715395 5.5899828,33.608319 5.1460006,33.55309 4.6841774,33.785287 4.4593573,33.898323 4.229868,34.084694 4.1810369,34.151548 c -0.048824,0.06686 -0.2318833,0.359499 -0.3832761,0.166614 -0.2830368,-0.360609 0.2458344,-0.08926 -0.075495,0.02945 -0.409348,0.151221 0.1358885,0.332519 0.23636,0.05297 0.1437263,-0.399876 -0.094888,-0.923315 0.189796,-1.140909 C 4.46935,33.014371 5.0438076,32.66528 5.469162,32.62291 c 0.5530401,-0.05509 0.7843456,0.280208 1.2627052,0.519826 0.5565246,0.278763 0.5392636,0.814097 0.814007,1.347972 0.3279612,0.637283 0.5670075,0.193943 0.2954219,1.289681 -0.1319256,0.532266 -0.2684325,1.089901 -0.4847096,1.42907 -0.1971973,0.30925 -0.5648347,0.590958 -1.2253583,0.938957 -0.4737343,0.249585 -0.6354884,0.293158 -1.265093,0.340778 -0.6890024,0.05212 -1.0906636,0.0073 -1.6164999,-0.180059 C 3.0177018,38.226466 2.7292412,38.13059 2.608614,38.096087 2.4478273,38.050089 2.2398152,37.90736 1.8291345,37.561216 1.1242891,36.967136 0.49412628,35.652844 0.48971817,34.576037 c -0.001283,-0.313387 0.28529688,0.651502 0.27717368,0.46632 -0.00812,-0.185184 -0.0279131,-0.357972 -0.0439851,-0.383975 -0.0336171,-0.05439 0.0443921,-0.996478 0.12267918,-1.48152 0.0645368,-0.399864 0.0940561,-0.460664 0.55527907,-1.143676 0.2737229,-0.405339 0.4536989,-0.615284 0.7094908,-0.827627 0.8270855,-0.686588 1.3674275,-0.971272 2.3067061,-1.2153 0.6512521,-0.1692 0.6529619,-0.169375 1.4525087,-0.148133 0.8455782,0.02247 1.2956644,0.07527 1.5996155,0.187691 2.0554839,0.760213 2.8662829,1.425774 3.9194079,3.217328 0.336769,0.572904 0.658281,0.982446 1.239401,1.578755 0.427635,0.438815 0.564491,0.548871 0.837601,0.673577 0.440169,0.200994 0.955089,0.274182 1.943096,0.276185 0.940919,0.0018 1.296968,-0.06934 1.707151,-0.341622 0.130455,-0.08659 0.342351,-0.203947 0.470882,-0.260783 0.128532,-0.05684 0.276124,-0.14148 0.327985,-0.188096 0.05187,-0.04661 0.210257,-0.145647 0.351999,-0.220064 0.32548,-0.170894 0.705342,-0.551598 0.844063,-0.845931 0.167064,-0.35449 0.422637,-0.775561 0.564304,-0.929726 0.09657,-0.105087 0.141077,-0.218856 0.176317,-0.450767 0.02594,-0.17061 0.09138,-0.396897 0.145435,-0.50286 0.135846,-0.266279 0.181793,-0.828892 0.08325,-1.019445 -0.04015,-0.07764 -0.103221,-0.301197 -0.140149,-0.496811 -0.131117,-0.69441 -0.818082,-1.504312 -1.606453,-1.893948 -0.285939,-0.141317 -0.407203,-0.171405 -0.853902,-0.211868 -0.928349,-0.0841 -1.607945,0.05916 -2.143261,0.451806 -0.505886,0.371054 -0.724306,0.554097 -0.724306,0.606989 0,0.05541 -0.233092,0.327685 -0.307352,0.359016 -0.102873,0.04341 -0.301765,0.373937 -0.301765,0.501491 0,0.07576 -0.04122,0.230921 -0.0916,0.344817 -0.192114,0.434309 -0.158432,0.786078 0.145081,1.515043 0.172666,0.414701 0.323909,0.01975 0.495115,0.234495 0.229532,0.287889 0.403417,0.387218 0.83085,0.462563 0.497369,0.08767 0.653595,0.236011 0.968406,0.127694 0.622442,-0.214149 0.90111,-0.301046 1.125109,-0.800422 0.100775,-0.224659 0.329708,-0.216113 0.313293,-0.564285 -0.0165,-0.349973 -0.03862,-0.434024 -0.178911,-0.679401 -0.08805,-0.154009 -0.154838,-0.638052 -0.254863,-0.74667 -0.10002,-0.108621 -0.174536,-0.219472 -0.165579,-0.246335 0.02598,-0.07793 0.785781,0.446489 0.934547,0.651857 0.228155,0.314961 0.235173,0.498693 -0.01924,1.421761 -0.15355,0.557118 -0.282513,0.737071 -0.72776,1.192466 -0.343524,0.351353 -0.688642,0.520314 -1.264504,0.619062 -0.468702,0.08037 -1.063831,-0.02908 -1.439611,-0.264775 -0.455551,-0.285723 -0.739371,-0.578584 -0.998202,-1.029981 -0.212633,-0.370838 -0.429375,-0.662343 -0.52771,-1.184183 -0.117149,-0.621702 0.05986,-0.952335 0.17737,-1.091488 0.03265,-0.03866 0.08416,-0.191732 0.114497,-0.340168 0.03033,-0.148438 0.102485,-0.327659 0.160355,-0.398269 0.05787,-0.07062 0.172865,-0.270571 0.255565,-0.444356 0.121654,-0.255659 0.185887,-0.3341 0.336497,-0.410935 0.10237,-0.05223 0.186141,-0.115959 0.186141,-0.141623 0,-0.02566 0.07216,-0.08107 0.16034,-0.123122 0.08818,-0.04205 0.170635,-0.115808 0.18321,-0.1639 0.01349,-0.05161 0.135009,-0.136618 0.296493,-0.207441 0.150502,-0.06599 0.388387,-0.173767 0.52865,-0.239477 0.140255,-0.06571 0.530328,-0.187555 0.866819,-0.270771 0.581709,-0.143857 0.639464,-0.149657 1.174062,-0.117905 0.536858,0.03189 0.574733,0.04104 0.838151,0.20252 0.151734,0.09303 0.352043,0.193787 0.445124,0.223927 0.09309,0.03015 0.334084,0.173138 0.535569,0.317772 0.201482,0.144634 0.436818,0.305603 0.522973,0.357711 0.08616,0.05211 0.295697,0.237267 0.465663,0.411466 0.352743,0.361531 0.722861,1.035625 0.844648,1.538331 0.03973,0.16402 0.114314,0.445813 0.165734,0.626206 0.07998,0.280651 0.177808,0.434608 0.153618,0.935773 -0.07526,1.560894 -0.694472,2.740173 -1.722438,3.67621 -0.128846,0.117327 -0.387366,0.365492 -0.574486,0.551475 -0.378645,0.376346 -0.830435,0.687199 -1.393429,0.958754 -0.206162,0.09944 -0.49199,0.242282 -0.635181,0.317425 -0.437633,0.229671 -1.106952,0.330933 -2.187396,0.330933 -1.056791,0 -1.174127,0.01602 -2.387296,0.325925 -0.433989,0.110864 -0.576515,0.171165 -0.82699,0.349903 -0.423592,0.302269 -0.667331,0.685001 -1.227553,1.313376 -0.104578,0.05483 -0.434359,1.78882 -0.414168,1.939743 0.03038,0.227109 -0.116024,-0.760401 -0.124206,-0.453653 -0.02014,0.755504 0.01091,2.095585 0.05249,2.264461 0.06447,0.261875 0.184583,0.537337 0.306443,0.702826 0.158018,0.214588 0.422128,0.697121 0.483734,0.883793 0.03308,0.100209 0.144186,0.241427 0.278318,0.353729 0.122796,0.102811 0.283718,0.274163 0.357605,0.380781 0.160586,0.231724 0.741275,0.546568 1.08916,0.590534 0.121847,0.0154 0.264555,0.05469 0.31713,0.08731 0.05258,0.03263 0.210708,0.08315 0.351416,0.112281 0.305079,0.06316 0.995776,-0.02347 1.394294,-0.174894 0.244997,-0.0931 0.823002,-0.430915 1.130773,-0.660894 0.230674,-0.172369 0.544955,-0.618655 0.63734,-0.905025 0.04364,-0.135254 0.105109,-0.288087 0.136611,-0.339629 0.162277,-0.265483 0.200397,-0.80548 0.122878,-1.740566 -0.0297,-0.358245 -0.06804,-0.531533 -0.155508,-0.702828 -0.06385,-0.12504 -0.164872,-0.328981 -0.224498,-0.453198 -0.182525,-0.380253 -1.061313,-1.016347 -1.414188,-1.023637 -0.05873,-0.0012 -0.248197,-0.03162 -0.42103,-0.06757 -0.331873,-0.06903 -0.816317,-0.03421 -1.016799,0.07307 -0.246474,0.131911 -0.561267,0.367713 -0.762832,0.571418 -0.179112,0.181014 -0.241798,0.292064 -0.339576,0.60159 -0.112245,0.355308 -0.117228,0.410586 -0.07786,0.863926 0.04811,0.554092 0.297219,0.470176 0.560722,0.761842 0.210168,0.23263 0.234533,0.189188 0.708855,0.330163 0.344453,0.10238 0.934708,-0.51616 1.236911,-0.605263 0.177466,-0.05231 0.0827,0.840917 -0.30623,0.930474 -0.299894,0.06905 -0.920799,0.252397 -1.358155,0.07349 C 12.716187,44.09032 12.272879,43.882707 12.070087,43.4682 11.924069,43.16974 11.62278,42.576652 11.62278,42.03741 c 0,-0.536267 0.301771,-0.01792 0.439669,-0.286064 0.07953,-0.154623 0.193239,-0.375956 0.252681,-0.491855 0.05944,-0.115897 0.231943,-0.330062 0.383335,-0.475923 0.223471,-0.215294 0.423404,-1.196963 0.717517,-1.298715 0.809625,-0.280102 1.761425,0.329791 2.366911,0.714199 0.553698,0.351524 0.992747,1.131384 1.177414,1.401921 0.339228,0.496967 0.584457,1.084486 0.620146,1.485745 0.0172,0.193278 0.148729,0.274169 0.172092,0.500316 0.04005,0.387674 -0.06513,0.7102 -0.217787,1.316512 -0.238396,0.946882 -0.368799,1.198598 -0.831866,1.605711 -0.209367,0.184076 -0.459152,0.374998 -0.555073,0.424274 -0.09593,0.04927 -0.243519,0.149063 -0.327987,0.22175 -0.229028,0.197072 -0.663635,0.429531 -0.80305,0.429531 -0.06746,0 -0.254657,0.05031 -0.415998,0.111788 -0.31871,0.121456 -0.91029,0.266489 -1.049718,0.257351 -0.04786,-0.0031 -0.276775,-0.03141 -0.508706,-0.06282 l 7e-6,3e-6 -1.1e-5,5e-6 0,1.5e-5 z"
       id="path2243-84"
       sodipodi:nodetypes="cssssssssssssssssssssssssssssssssssssssssssssssssssssssssssssssssssssssssssssssssssssssssssssssssssssssssssssssssssssscssssssssssssssssssssssssssssssssssssssssssssscccc" />
  </g>
  <g
     id="layer1"
     inkscape:label="color"
     inkscape:groupmode="layer"
     style="display:inline"
     transform="translate(0,-26)">
    <path
       style="color:#000000;fill:#004db1;fill-opacity:1;fill-rule:nonzero;stroke:none;stroke-width:1.00000024;marker:none;visibility:visible;display:inline;overflow:visible;enable-background:accumulate"
       d="m 12.943889,46.830316 c -0.552175,-0.07479 -1.159533,-0.223063 -1.42908,-0.348873 -0.623028,-0.290794 -1.21919,-0.703762 -1.431635,-0.991714 C 10.02751,45.41428 9.8893447,45.279574 9.7761378,45.190391 9.3260967,44.835837 9.0632015,44.462551 8.5267435,43.416366 8.465795,43.297501 8.2753655,42.335064 8.2052728,41.791628 c -0.055384,-0.429444 -0.050933,-1.287433 0.00872,-1.680151 0.074028,-0.487289 0.2252389,-1.12815 0.2984931,-1.265019 0.061648,-0.115193 0.2148254,-0.611357 0.2624374,-0.850097 0.017988,-0.0902 0.058345,-0.195621 0.089676,-0.234276 0.031329,-0.03866 0.095987,-0.207335 0.1436815,-0.374842 0.047693,-0.167507 0.1588783,-0.450549 0.2470757,-0.628984 C 9.4528828,36.35863 9.5457131,36.060871 9.546378,35.824808 9.5466622,35.725688 9.581527,35.525431 9.623871,35.379783 9.7275465,35.023154 9.6875767,34.018946 9.5545915,33.63883 9.453581,33.350144 9.2069189,32.865326 8.9477465,32.446081 8.4107602,31.577429 6.8758803,30.508679 5.9624618,30.367399 c -0.3501447,-0.05415 -1.5090375,0.0058 -2.0071931,0.103797 -0.4264896,0.08392 -0.8282147,0.270566 -1.0341618,0.480483 -0.5282501,0.538423 -0.8369703,0.902161 -0.9586042,1.129434 -0.1754531,0.327843 -0.2842533,0.830735 -0.3141083,1.451903 -0.033922,0.705912 -0.00442,0.853479 0.3086429,1.543933 0.264206,0.582688 0.9747162,1.171376 1.7563768,1.455227 0.3648627,0.132496 0.5037887,0.157073 1.030812,0.182353 0.726797,0.03487 1.0365625,-0.01783 1.3623368,-0.231705 C 6.2334707,36.3995 6.4321917,36.275604 6.548154,36.207494 7.0774883,35.896608 7.3539598,35.310304 7.3517075,34.50342 7.3503076,34.003282 7.1720796,33.551386 6.8700309,33.282164 6.6822106,33.114752 6.0195445,32.716033 5.826986,32.654573 5.4915072,32.547496 5.0587206,32.615422 4.5968976,32.847618 4.3720774,32.960656 4.148186,33.107841 4.0993548,33.174696 c -0.048824,0.06686 -0.1594122,0.309331 -0.2457388,0.538835 -0.086333,0.229503 -0.1742789,0.41728 -0.1954361,0.41728 -0.083946,0 -0.06242,-0.363984 0.038049,-0.643526 0.1437266,-0.399874 0.2880731,-0.607929 0.5727581,-0.825523 0.3209283,-0.245303 0.6355794,-0.366591 1.0609331,-0.408961 0.5530403,-0.05509 0.6396568,-0.03958 1.1180169,0.200021 0.5565238,0.278764 0.7247186,0.44319 0.9994606,0.977064 0.3279619,0.637282 0.3681344,0.812661 0.2954226,1.289681 -0.082636,0.542108 -0.2684324,1.089899 -0.4847095,1.429068 C 7.0609134,36.457884 6.6932759,36.739594 6.032752,37.087593 5.5590181,37.337177 5.3972639,37.38075 4.7676593,37.42837 4.078658,37.48049 3.676997,37.43577 3.1511605,37.248311 2.91923,37.165641 2.6307696,37.069765 2.5101425,37.035263 2.3493555,36.989263 2.1413435,36.846536 1.7306628,36.500393 1.0258173,35.906313 0.91256538,35.71423 0.77557464,34.880492 0.72476244,34.571247 0.67654344,34.166717 0.66842021,33.981533 c -0.008124,-0.185184 -0.0279128,-0.357971 -0.0439856,-0.383974 -0.0336171,-0.05439 0.0443924,-0.996477 0.12267904,-1.48152 0.0645368,-0.399865 0.0940561,-0.460664 0.55527915,-1.143677 0.2737229,-0.405338 0.4536988,-0.615284 0.7094906,-0.827625 0.8270855,-0.68659 1.3674276,-0.971273 2.3067062,-1.215302 0.6512519,-0.169199 0.6529617,-0.169374 1.4525085,-0.148133 0.8455782,0.02247 1.2956642,0.07527 1.599616,0.187693 2.0554833,0.760211 2.8662829,1.425771 3.9194089,3.217325 0.336769,0.572906 0.658279,0.982449 1.2394,1.578756 0.427637,0.438818 0.564493,0.548871 0.837603,0.673579 0.440167,0.200992 0.955086,0.274181 1.943095,0.276183 0.940918,0.0018 1.296967,-0.06934 1.707151,-0.341622 0.130455,-0.08659 0.342351,-0.203946 0.470882,-0.260782 0.128531,-0.05684 0.276123,-0.14148 0.327985,-0.188095 0.05187,-0.04661 0.210257,-0.145646 0.351999,-0.220066 0.325479,-0.170893 0.705342,-0.551598 0.844061,-0.84593 0.167064,-0.354491 0.422639,-0.775561 0.564305,-0.929726 0.09657,-0.105087 0.141077,-0.218856 0.176317,-0.450766 0.02592,-0.17061 0.09138,-0.396897 0.145433,-0.50286 0.135847,-0.26628 0.181794,-0.828893 0.08325,-1.019448 -0.04015,-0.07764 -0.10322,-0.301196 -0.140149,-0.496809 -0.131118,-0.69441 -0.818083,-1.504311 -1.606453,-1.893948 -0.285938,-0.141318 -0.407204,-0.171406 -0.853901,-0.211869 -0.928349,-0.0841 -1.607947,0.05916 -2.143262,0.451807 -0.505887,0.371053 -0.724306,0.554097 -0.724306,0.606989 0,0.05541 -0.233091,0.327684 -0.307353,0.359016 -0.102873,0.0434 -0.301765,0.373936 -0.301765,0.501491 0,0.07576 -0.04122,0.23092 -0.0916,0.344816 -0.192114,0.434309 -0.158432,0.786079 0.145082,1.515044 0.172666,0.4147 0.225556,0.511512 0.396763,0.726255 0.229531,0.287889 0.470836,0.421311 0.898269,0.496658 0.497369,0.08767 0.746391,0.08134 1.061203,-0.02697 0.622442,-0.214151 1.055771,-0.579437 1.279771,-1.078812 0.100776,-0.22466 0.113181,-0.308911 0.09676,-0.657085 -0.0165,-0.349972 -0.03863,-0.434024 -0.178911,-0.6794 -0.08806,-0.15401 -0.24192,-0.368888 -0.341945,-0.477508 -0.10002,-0.10862 -0.174537,-0.21947 -0.16558,-0.246334 0.02598,-0.07793 0.497214,0.265713 0.64598,0.471082 0.228154,0.314961 0.301464,0.631278 0.268024,1.156596 -0.0367,0.576725 -0.194124,0.913849 -0.639371,1.369243 -0.343526,0.351353 -0.688644,0.520313 -1.264506,0.619064 -0.468702,0.08037 -1.063831,-0.02908 -1.439611,-0.264777 -0.45555,-0.285724 -0.739371,-0.578583 -0.998201,-1.02998 -0.212633,-0.370838 -0.252599,-0.485567 -0.350934,-1.007408 -0.117148,-0.621702 -0.116916,-1.129111 5.94e-4,-1.268264 0.03265,-0.03866 0.08417,-0.191732 0.114497,-0.340168 0.03034,-0.148438 0.102486,-0.327659 0.160354,-0.398269 0.05787,-0.07062 0.172867,-0.27057 0.255566,-0.444356 0.121654,-0.255659 0.185886,-0.334101 0.336498,-0.410934 0.10237,-0.05223 0.186139,-0.11596 0.186139,-0.141624 0,-0.02566 0.07216,-0.08107 0.160342,-0.123123 0.08819,-0.04205 0.170633,-0.115809 0.183208,-0.163898 0.01349,-0.05161 0.13501,-0.136619 0.296494,-0.207442 0.150502,-0.06599 0.388388,-0.173768 0.52865,-0.239477 0.140255,-0.06571 0.530327,-0.187555 0.866819,-0.27077 0.581708,-0.143859 0.639464,-0.149658 1.174062,-0.117907 0.536857,0.03189 0.574733,0.04104 0.838151,0.202521 0.151734,0.09303 0.352043,0.193786 0.445124,0.223927 0.09308,0.03015 0.334084,0.173138 0.535569,0.317771 0.201481,0.144634 0.436819,0.305605 0.522974,0.357712 0.08616,0.0521 0.295695,0.237267 0.465663,0.411466 0.352743,0.361532 0.72286,1.035625 0.844646,1.538331 0.03973,0.16402 0.114315,0.445812 0.165735,0.626205 0.07999,0.280651 0.08941,0.412511 0.06523,0.913676 -0.07526,1.560895 -0.606086,2.762271 -1.63405,3.698309 -0.128846,0.117327 -0.387368,0.36549 -0.574487,0.551474 -0.378645,0.376346 -0.830437,0.687199 -1.393428,0.958753 -0.206163,0.09944 -0.491991,0.242281 -0.635182,0.317427 -0.437634,0.22967 -1.106952,0.330931 -2.187396,0.330931 -1.05679,0 -1.174127,0.01602 -2.387297,0.325926 -0.433988,0.110863 -0.576513,0.171166 -0.826988,0.349902 -0.423593,0.302269 -0.912323,0.931927 -1.293844,1.66693 -0.0602,0.115965 -0.147135,0.253017 -0.193199,0.304559 -0.152683,0.17085 -0.2707034,0.521229 -0.2788848,0.827979 -0.020143,0.755503 0.010911,2.095584 0.052494,2.264459 0.06447,0.261877 0.184584,0.537338 0.306442,0.702829 0.15802,0.214586 0.422129,0.697119 0.483736,0.88379 0.03308,0.100209 0.144186,0.241428 0.278318,0.35373 0.122795,0.102811 0.283717,0.274163 0.357603,0.38078 0.160586,0.231725 0.741275,0.546568 1.089161,0.590536 0.121847,0.0154 0.264556,0.05469 0.317129,0.0873 0.05258,0.03263 0.210709,0.08315 0.351416,0.112281 0.305081,0.06317 0.995777,-0.02346 1.394296,-0.174894 0.244996,-0.0931 0.823,-0.430915 1.130774,-0.660895 0.230671,-0.172368 0.544953,-0.618655 0.637339,-0.905024 0.04363,-0.135255 0.105109,-0.288086 0.13661,-0.339628 0.162277,-0.265484 0.200398,-0.80548 0.122878,-1.740566 -0.0297,-0.358246 -0.06803,-0.531533 -0.155508,-0.702827 -0.06385,-0.125042 -0.164872,-0.328983 -0.224498,-0.453201 -0.182526,-0.380253 -1.061314,-1.016346 -1.414188,-1.023636 -0.05873,-0.0012 -0.248197,-0.03162 -0.421031,-0.06757 -0.331871,-0.06903 -0.816315,-0.03422 -1.016798,0.07307 -0.246474,0.131911 -0.561267,0.367714 -0.762833,0.571418 -0.179111,0.181014 -0.241796,0.292065 -0.339575,0.601592 -0.112245,0.355306 -0.117227,0.410585 -0.07786,0.863925 0.04811,0.554092 0.142559,0.810432 0.406061,1.102097 0.210166,0.232632 0.389195,0.330347 0.863516,0.471325 0.344454,0.102381 0.670105,0.109067 0.972308,0.01996 0.177467,-0.05231 0.117066,0.05408 -0.08153,0.143634 -0.280536,0.126506 -0.94319,0.07813 -1.380544,-0.100776 -0.437466,-0.178953 -0.818472,-0.53211 -1.021264,-0.946616 -0.146017,-0.298459 -0.152251,-0.33422 -0.152251,-0.873462 0,-0.536269 0.0068,-0.57526 0.144612,-0.843394 0.07953,-0.154622 0.193242,-0.375955 0.252681,-0.491853 0.05944,-0.115899 0.231944,-0.330064 0.383337,-0.475924 0.223469,-0.215295 0.343453,-0.28879 0.637564,-0.390544 0.809626,-0.280098 1.795014,-0.207467 2.4005,0.176936 0.553698,0.351525 1.03911,0.760476 1.223777,1.031011 0.339227,0.496968 0.584458,1.084488 0.620145,1.485747 0.01719,0.193279 0.05038,0.536441 0.07374,0.762588 0.04005,0.387674 0.03323,0.447929 -0.119434,1.054241 -0.238397,0.94688 -0.368799,1.198597 -0.831866,1.605711 -0.209369,0.184074 -0.459152,0.374996 -0.555075,0.424273 -0.09593,0.04927 -0.243517,0.149063 -0.327985,0.221748 -0.22903,0.197073 -0.663634,0.429533 -0.803052,0.429533 -0.06746,0 -0.254656,0.05031 -0.415997,0.111787 -0.318709,0.121457 -0.910289,0.266489 -1.049718,0.257353 -0.04786,-0.0031 -0.276776,-0.03141 -0.508706,-0.06282 z"
       id="path2243" />
  </g>
  <g
     style="opacity:0.39189189;display:inline"
     inkscape:groupmode="layer"
     inkscape:label="shade"
     id="g3737"
     transform="translate(0,-26)">
    <path
       id="path3739"
       d="m 12.943889,46.830316 c -0.552175,-0.07479 -1.159533,-0.223063 -1.42908,-0.348873 -0.623028,-0.290794 -1.21919,-0.703762 -1.431635,-0.991714 C 10.02751,45.41428 9.8893447,45.279574 9.7761378,45.190391 9.3260967,44.835837 9.0632015,44.462551 8.5267435,43.416366 8.465795,43.297501 8.2753655,42.335064 8.2052728,41.791628 c -0.055384,-0.429444 -0.050933,-1.287433 0.00872,-1.680151 0.074028,-0.487289 0.2252389,-1.12815 0.2984931,-1.265019 0.061648,-0.115193 0.2148254,-0.611357 0.2624374,-0.850097 0.017988,-0.0902 0.058345,-0.195621 0.089676,-0.234276 0.031329,-0.03866 0.095987,-0.207335 0.1436815,-0.374842 0.047693,-0.167507 0.1588783,-0.450549 0.2470757,-0.628984 C 9.4528828,36.35863 9.5457131,36.060871 9.546378,35.824808 9.5466622,35.725688 9.581527,35.525431 9.623871,35.379783 9.7275465,35.023154 9.6875767,34.018946 9.5545915,33.63883 9.453581,33.350144 9.2069189,32.865326 8.9477465,32.446081 8.4107602,31.577429 6.8758803,30.508679 5.9624618,30.367399 c -0.3501447,-0.05415 -1.5090375,0.0058 -2.0071931,0.103797 -0.4264896,0.08392 -0.8282147,0.270566 -1.0341618,0.480483 -0.5282501,0.538423 -0.8369703,0.902161 -0.9586042,1.129434 -0.1754531,0.327843 -0.2842533,0.830735 -0.3141083,1.451903 -0.033922,0.705912 -0.00442,0.853479 0.3086429,1.543933 0.264206,0.582688 0.9747162,1.171376 1.7563768,1.455227 0.3648627,0.132496 0.5037887,0.157073 1.030812,0.182353 0.726797,0.03487 1.0365625,-0.01783 1.3623368,-0.231705 C 6.2334707,36.3995 6.4321917,36.275604 6.548154,36.207494 7.0774883,35.896608 7.3539598,35.310304 7.3517075,34.50342 7.3503076,34.003282 7.1720796,33.551386 6.8700309,33.282164 6.6822106,33.114752 6.0195445,32.716033 5.826986,32.654573 5.4915072,32.547496 5.0587206,32.615422 4.5968976,32.847618 4.3720774,32.960656 4.148186,33.107841 4.0993548,33.174696 c -0.048824,0.06686 -0.1594122,0.309331 -0.2457388,0.538835 -0.086333,0.229503 -0.1742789,0.41728 -0.1954361,0.41728 -0.083946,0 -0.06242,-0.363984 0.038049,-0.643526 0.1437266,-0.399874 0.2880731,-0.607929 0.5727581,-0.825523 0.3209283,-0.245303 0.6355794,-0.366591 1.0609331,-0.408961 0.5530403,-0.05509 0.6396568,-0.03958 1.1180169,0.200021 0.5565238,0.278764 0.7247186,0.44319 0.9994606,0.977064 0.3279619,0.637282 0.3681344,0.812661 0.2954226,1.289681 -0.082636,0.542108 -0.2684324,1.089899 -0.4847095,1.429068 C 7.0609134,36.457884 6.6932759,36.739594 6.032752,37.087593 5.5590181,37.337177 5.3972639,37.38075 4.7676593,37.42837 4.078658,37.48049 3.676997,37.43577 3.1511605,37.248311 2.91923,37.165641 2.6307696,37.069765 2.5101425,37.035263 2.3493555,36.989263 2.1413435,36.846536 1.7306628,36.500393 1.0258173,35.906313 0.91256538,35.71423 0.77557464,34.880492 0.72476244,34.571247 0.67654344,34.166717 0.66842021,33.981533 c -0.008124,-0.185184 -0.0279128,-0.357971 -0.0439856,-0.383974 -0.0336171,-0.05439 0.0443924,-0.996477 0.12267904,-1.48152 0.0645368,-0.399865 0.0940561,-0.460664 0.55527915,-1.143677 0.2737229,-0.405338 0.4536988,-0.615284 0.7094906,-0.827625 0.8270855,-0.68659 1.3674276,-0.971273 2.3067062,-1.215302 0.6512519,-0.169199 0.6529617,-0.169374 1.4525085,-0.148133 0.8455782,0.02247 1.2956642,0.07527 1.599616,0.187693 2.0554833,0.760211 2.8662829,1.425771 3.9194089,3.217325 0.336769,0.572906 0.658279,0.982449 1.2394,1.578756 0.427637,0.438818 0.564493,0.548871 0.837603,0.673579 0.440167,0.200992 0.955086,0.274181 1.943095,0.276183 0.940918,0.0018 1.296967,-0.06934 1.707151,-0.341622 0.130455,-0.08659 0.342351,-0.203946 0.470882,-0.260782 0.128531,-0.05684 0.276123,-0.14148 0.327985,-0.188095 0.05187,-0.04661 0.210257,-0.145646 0.351999,-0.220066 0.325479,-0.170893 0.705342,-0.551598 0.844061,-0.84593 0.167064,-0.354491 0.422639,-0.775561 0.564305,-0.929726 0.09657,-0.105087 0.141077,-0.218856 0.176317,-0.450766 0.02592,-0.17061 0.09138,-0.396897 0.145433,-0.50286 0.135847,-0.26628 0.181794,-0.828893 0.08325,-1.019448 -0.04015,-0.07764 -0.10322,-0.301196 -0.140149,-0.496809 -0.131118,-0.69441 -0.818083,-1.504311 -1.606453,-1.893948 -0.285938,-0.141318 -0.407204,-0.171406 -0.853901,-0.211869 -0.928349,-0.0841 -1.607947,0.05916 -2.143262,0.451807 -0.505887,0.371053 -0.724306,0.554097 -0.724306,0.606989 0,0.05541 -0.233091,0.327684 -0.307353,0.359016 -0.102873,0.0434 -0.301765,0.373936 -0.301765,0.501491 0,0.07576 -0.04122,0.23092 -0.0916,0.344816 -0.192114,0.434309 -0.158432,0.786079 0.145082,1.515044 0.172666,0.4147 0.225556,0.511512 0.396763,0.726255 0.229531,0.287889 0.470836,0.421311 0.898269,0.496658 0.497369,0.08767 0.746391,0.08134 1.061203,-0.02697 0.622442,-0.214151 1.055771,-0.579437 1.279771,-1.078812 0.100776,-0.22466 0.113181,-0.308911 0.09676,-0.657085 -0.0165,-0.349972 -0.03863,-0.434024 -0.178911,-0.6794 -0.08806,-0.15401 -0.24192,-0.368888 -0.341945,-0.477508 -0.10002,-0.10862 -0.174537,-0.21947 -0.16558,-0.246334 0.02598,-0.07793 0.497214,0.265713 0.64598,0.471082 0.228154,0.314961 0.301464,0.631278 0.268024,1.156596 -0.0367,0.576725 -0.194124,0.913849 -0.639371,1.369243 -0.343526,0.351353 -0.688644,0.520313 -1.264506,0.619064 -0.468702,0.08037 -1.063831,-0.02908 -1.439611,-0.264777 -0.45555,-0.285724 -0.739371,-0.578583 -0.998201,-1.02998 -0.212633,-0.370838 -0.252599,-0.485567 -0.350934,-1.007408 -0.117148,-0.621702 -0.116916,-1.129111 5.94e-4,-1.268264 0.03265,-0.03866 0.08417,-0.191732 0.114497,-0.340168 0.03034,-0.148438 0.102486,-0.327659 0.160354,-0.398269 0.05787,-0.07062 0.172867,-0.27057 0.255566,-0.444356 0.121654,-0.255659 0.185886,-0.334101 0.336498,-0.410934 0.10237,-0.05223 0.186139,-0.11596 0.186139,-0.141624 0,-0.02566 0.07216,-0.08107 0.160342,-0.123123 0.08819,-0.04205 0.170633,-0.115809 0.183208,-0.163898 0.01349,-0.05161 0.13501,-0.136619 0.296494,-0.207442 0.150502,-0.06599 0.388388,-0.173768 0.52865,-0.239477 0.140255,-0.06571 0.530327,-0.187555 0.866819,-0.27077 0.581708,-0.143859 0.639464,-0.149658 1.174062,-0.117907 0.536857,0.03189 0.574733,0.04104 0.838151,0.202521 0.151734,0.09303 0.352043,0.193786 0.445124,0.223927 0.09308,0.03015 0.334084,0.173138 0.535569,0.317771 0.201481,0.144634 0.436819,0.305605 0.522974,0.357712 0.08616,0.0521 0.295695,0.237267 0.465663,0.411466 0.352743,0.361532 0.72286,1.035625 0.844646,1.538331 0.03973,0.16402 0.114315,0.445812 0.165735,0.626205 0.07999,0.280651 0.08941,0.412511 0.06523,0.913676 -0.07526,1.560895 -0.606086,2.762271 -1.63405,3.698309 -0.128846,0.117327 -0.387368,0.36549 -0.574487,0.551474 -0.378645,0.376346 -0.830437,0.687199 -1.393428,0.958753 -0.206163,0.09944 -0.491991,0.242281 -0.635182,0.317427 -0.437634,0.22967 -1.106952,0.330931 -2.187396,0.330931 -1.05679,0 -1.174127,0.01602 -2.387297,0.325926 -0.433988,0.110863 -0.576513,0.171166 -0.826988,0.349902 -0.423593,0.302269 -0.912323,0.931927 -1.293844,1.66693 -0.0602,0.115965 -0.147135,0.253017 -0.193199,0.304559 -0.152683,0.17085 -0.2707034,0.521229 -0.2788848,0.827979 -0.020143,0.755503 0.010911,2.095584 0.052494,2.264459 0.06447,0.261877 0.184584,0.537338 0.306442,0.702829 0.15802,0.214586 0.422129,0.697119 0.483736,0.88379 0.03308,0.100209 0.144186,0.241428 0.278318,0.35373 0.122795,0.102811 0.283717,0.274163 0.357603,0.38078 0.160586,0.231725 0.741275,0.546568 1.089161,0.590536 0.121847,0.0154 0.264556,0.05469 0.317129,0.0873 0.05258,0.03263 0.210709,0.08315 0.351416,0.112281 0.305081,0.06317 0.995777,-0.02346 1.394296,-0.174894 0.244996,-0.0931 0.823,-0.430915 1.130774,-0.660895 0.230671,-0.172368 0.544953,-0.618655 0.637339,-0.905024 0.04363,-0.135255 0.105109,-0.288086 0.13661,-0.339628 0.162277,-0.265484 0.200398,-0.80548 0.122878,-1.740566 -0.0297,-0.358246 -0.06803,-0.531533 -0.155508,-0.702827 -0.06385,-0.125042 -0.164872,-0.328983 -0.224498,-0.453201 -0.182526,-0.380253 -1.061314,-1.016346 -1.414188,-1.023636 -0.05873,-0.0012 -0.248197,-0.03162 -0.421031,-0.06757 -0.331871,-0.06903 -0.816315,-0.03422 -1.016798,0.07307 -0.246474,0.131911 -0.561267,0.367714 -0.762833,0.571418 -0.179111,0.181014 -0.241796,0.292065 -0.339575,0.601592 -0.112245,0.355306 -0.117227,0.410585 -0.07786,0.863925 0.04811,0.554092 0.142559,0.810432 0.406061,1.102097 0.210166,0.232632 0.389195,0.330347 0.863516,0.471325 0.344454,0.102381 0.670105,0.109067 0.972308,0.01996 0.177467,-0.05231 0.117066,0.05408 -0.08153,0.143634 -0.280536,0.126506 -0.94319,0.07813 -1.380544,-0.100776 -0.437466,-0.178953 -0.818472,-0.53211 -1.021264,-0.946616 -0.146017,-0.298459 -0.152251,-0.33422 -0.152251,-0.873462 0,-0.536269 0.0068,-0.57526 0.144612,-0.843394 0.07953,-0.154622 0.193242,-0.375955 0.252681,-0.491853 0.05944,-0.115899 0.231944,-0.330064 0.383337,-0.475924 0.223469,-0.215295 0.343453,-0.28879 0.637564,-0.390544 0.809626,-0.280098 1.795014,-0.207467 2.4005,0.176936 0.553698,0.351525 1.03911,0.760476 1.223777,1.031011 0.339227,0.496968 0.584458,1.084488 0.620145,1.485747 0.01719,0.193279 0.05038,0.536441 0.07374,0.762588 0.04005,0.387674 0.03323,0.447929 -0.119434,1.054241 -0.238397,0.94688 -0.368799,1.198597 -0.831866,1.605711 -0.209369,0.184074 -0.459152,0.374996 -0.555075,0.424273 -0.09593,0.04927 -0.243517,0.149063 -0.327985,0.221748 -0.22903,0.197073 -0.663634,0.429533 -0.803052,0.429533 -0.06746,0 -0.254656,0.05031 -0.415997,0.111787 -0.318709,0.121457 -0.910289,0.266489 -1.049718,0.257353 -0.04786,-0.0031 -0.276776,-0.03141 -0.508706,-0.06282 z"
       style="color:#000000;fill:url(#radialGradient3749);fill-opacity:1;fill-rule:nonzero;stroke:none;stroke-width:1.00000024000000010;marker:none;visibility:visible;display:inline;overflow:visible;enable-background:accumulate" />
  </g>
  <g
     inkscape:groupmode="layer"
     id="layer2"
     inkscape:label="border"
     style="display:inline"
     transform="translate(0,-26)">
    <path
       style="color:#000000;fill:#000000;fill-opacity:0;stroke:url(#linearGradient3781);stroke-width:1;stroke-linejoin:round;stroke-miterlimit:4;stroke-opacity:1;stroke-dasharray:none;marker:none;visibility:visible;display:inline;overflow:visible;enable-background:accumulate"
       d="m 12.922999,46.607502 c -0.552174,-0.07479 -1.069012,-0.209138 -1.33856,-0.33495 -0.623028,-0.290794 -1.114745,-0.620205 -1.327191,-0.908156 -0.05566,-0.07545 -0.193829,-0.210156 -0.3070362,-0.299339 -0.4500409,-0.354553 -0.7129361,-0.727839 -1.2493934,-1.774025 -0.060948,-0.118865 -0.2096013,-0.93508 -0.2796926,-1.478516 -0.055384,-0.429442 -0.050933,-1.287431 0.00872,-1.68015 0.074028,-0.487289 0.225239,-1.128152 0.2984931,-1.265019 0.061648,-0.115193 0.207862,-0.576543 0.2554755,-0.815283 0.017988,-0.0902 0.065302,-0.223472 0.096638,-0.262128 0.031329,-0.03866 0.095986,-0.207334 0.1436808,-0.374841 0.0477,-0.167508 0.1588775,-0.450548 0.247075,-0.628984 0.197527,-0.399629 0.2903566,-0.697388 0.2910215,-0.933452 2.842e-4,-0.09912 0.035149,-0.299376 0.077493,-0.445023 0.1036726,-0.35663 0.028888,-1.527949 -0.1040985,-1.908065 C 9.6346175,33.210886 9.3813434,32.750973 9.1287825,32.32771 8.5984839,31.438994 6.8581029,30.253031 5.920683,30.151547 c -0.3388356,-0.03669 -1.507238,0.004 -2.007193,0.103797 -0.4262545,0.08511 -0.9117703,0.291454 -1.1177174,0.501372 -0.5282502,0.538422 -0.9135631,1.006606 -1.0351969,1.233878 -0.1754531,0.327844 -0.2981793,0.914292 -0.3280343,1.535459 -0.033922,0.705912 0.016465,0.97185 0.3295318,1.662305 0.2642059,0.582687 1.0791609,1.261894 1.8608213,1.545744 0.3648628,0.132496 0.6151964,0.177962 1.1422197,0.203243 0.7267968,0.03487 1.1410068,-0.06656 1.4667813,-0.280446 C 6.358801,36.573576 6.5992994,36.414863 6.7152618,36.346753 7.2445953,36.035868 7.5141041,35.289416 7.5118517,34.48253 7.5104519,33.982394 7.2347426,33.342498 6.9326939,33.073275 6.744872,32.905863 6.033465,32.562848 5.8409063,32.501387 c -0.335479,-0.107076 -0.8378949,-0.03915 -1.299718,0.193045 -0.2248202,0.113037 -0.4278227,0.32289 -0.4766539,0.389746 -0.048824,0.06686 -0.20119,0.309331 -0.2875167,0.538834 -0.086333,0.229504 -0.06287,0.201427 -0.1188433,0.507799 0.048351,-0.306372 0.048987,-0.315243 0.1494573,-0.594785 0.1437266,-0.399874 0.2671842,-0.524374 0.5518692,-0.741967 0.3209279,-0.245303 0.5729122,-0.310888 0.998266,-0.353259 0.5530402,-0.05509 0.5491382,-0.01871 1.0274984,0.220911 0.5565241,0.278763 0.6481253,0.331782 0.922868,0.865657 0.3279618,0.637283 0.2915415,0.708216 0.218829,1.185236 -0.082636,0.542109 -0.2405796,0.985454 -0.4568567,1.324624 -0.1971981,0.30925 -0.4464645,0.486515 -1.1069883,0.834513 -0.4737307,0.249585 -0.5728181,0.286195 -1.2024228,0.333813 -0.6890008,0.05212 -1.0140693,0.02826 -1.5399056,-0.159169 C 2.9888602,36.963714 2.7003997,36.867841 2.5797725,36.833337 2.4189858,36.78734 2.2304535,36.623986 1.8142188,36.284541 1.213818,35.794906 1.1353809,35.679415 0.99839015,34.845678 c -0.0508122,-0.309244 -0.0990311,-0.713776 -0.10715444,-0.89896 -0.00812,-0.185182 -0.0279131,-0.35797 -0.0439862,-0.383974 -0.033617,-0.05439 0.0443921,-0.947736 0.12267907,-1.43278 0.0645368,-0.399863 0.0731677,-0.370144 0.53439022,-1.053158 0.2737229,-0.405338 0.4188839,-0.573505 0.674676,-0.785848 0.8270854,-0.686589 1.2490569,-0.901642 2.1883355,-1.145671 0.6512519,-0.169199 0.604221,-0.162411 1.4037676,-0.141169 0.8455783,0.02247 1.2608498,0.06831 1.5648016,0.180728 2.0554832,0.760213 2.7757645,1.404884 3.8288905,3.196438 0.336768,0.572904 0.630426,0.954596 1.211547,1.550904 0.427637,0.438817 0.666581,0.601479 0.93969,0.726187 0.440169,0.200992 0.985746,0.274181 1.973755,0.276183 0.940918,0.0018 1.404272,-0.08468 1.814456,-0.356951 0.130454,-0.08659 0.342351,-0.203946 0.470882,-0.260783 0.128531,-0.05684 0.378319,-0.207906 0.430181,-0.254522 0.05187,-0.04661 0.164269,-0.109877 0.30601,-0.184295 0.32548,-0.170895 0.746221,-0.607807 0.88494,-0.90214 0.167064,-0.35449 0.453297,-0.806219 0.594964,-0.960383 0.09656,-0.105089 0.141076,-0.275064 0.176318,-0.506975 0.02593,-0.17061 0.101594,-0.386676 0.155652,-0.49264 0.135847,-0.266281 0.166465,-0.956636 0.06792,-1.147191 -0.04014,-0.07764 -0.10322,-0.275648 -0.140148,-0.471261 -0.131118,-0.69441 -0.884511,-1.616728 -1.67288,-2.006363 -0.285939,-0.14132 -0.494072,-0.212284 -0.940768,-0.252748 -0.92835,-0.0841 -1.725471,0.04384 -2.260788,0.436477 -0.505885,0.371055 -0.857159,0.656294 -0.857159,0.709184 0,0.05541 -0.171774,0.276588 -0.246035,0.30792 -0.102873,0.04341 -0.388632,0.48124 -0.388632,0.608795 0,0.07576 -0.03611,0.230923 -0.08649,0.344817 -0.192113,0.434309 -0.173761,0.862725 0.129752,1.59169 0.172666,0.4147 0.256215,0.608598 0.427422,0.823341 0.229531,0.28789 0.511714,0.503067 0.939147,0.578416 0.497369,0.08767 0.853697,0.157995 1.332021,-0.01674 0.618286,-0.22587 1.035332,-0.7174 1.259333,-1.216776 0.100775,-0.224661 0.14895,-0.400887 0.132534,-0.749061 -0.0165,-0.34997 -0.05906,-0.454461 -0.19935,-0.699837 -0.08805,-0.15401 -0.267468,-0.35356 -0.367493,-0.462179 -0.10002,-0.108621 -0.179647,-0.153043 -0.247337,-0.205456 0.112841,0.07025 0.379689,0.32703 0.528454,0.532398 0.228157,0.314961 0.311684,0.55974 0.278244,1.085059 -0.0367,0.576726 -0.260551,0.872972 -0.705797,1.328366 -0.343526,0.351353 -0.852158,0.458997 -1.141871,0.501538 -0.470498,0.0691 -0.992293,-0.04441 -1.368073,-0.280105 -0.455544,-0.285724 -0.570743,-0.501936 -0.829573,-0.953333 -0.212633,-0.370838 -0.221939,-0.383372 -0.320273,-0.905211 -0.11715,-0.621702 -0.122027,-1.062685 -0.0046,-1.201838 0.03264,-0.03865 0.08928,-0.23261 0.119607,-0.381046 0.03033,-0.148438 0.08205,-0.251012 0.139917,-0.321623 0.05787,-0.07062 0.183084,-0.301229 0.265784,-0.475014 0.121654,-0.255658 0.119461,-0.226795 0.270071,-0.30363 0.10237,-0.05223 0.221908,-0.146617 0.221908,-0.172281 0,-0.02566 0.07216,-0.08108 0.160341,-0.123124 0.08818,-0.04205 0.170635,-0.115807 0.18321,-0.163897 0.01349,-0.05161 0.04814,-0.0753 0.209626,-0.146124 0.150502,-0.066 0.444596,-0.204428 0.584858,-0.270136 0.140256,-0.06571 0.448571,-0.146678 0.785064,-0.229893 0.581707,-0.143858 0.588364,-0.144547 1.122963,-0.112796 0.536857,0.03189 0.472539,0.03082 0.735957,0.192301 0.151732,0.09303 0.362262,0.188677 0.455342,0.218817 0.09309,0.03014 0.252327,0.127151 0.453813,0.271785 0.201481,0.144632 0.503246,0.35159 0.5894,0.403698 0.08616,0.05211 0.249709,0.201499 0.419675,0.375698 0.352743,0.36153 0.651324,0.923209 0.77311,1.425915 0.03973,0.16402 0.109205,0.435594 0.160626,0.615987 0.07998,0.280651 0.07919,0.351193 0.05502,0.852358 -0.07526,1.560894 -0.580536,2.675404 -1.6085,3.611441 -0.128846,0.117328 -0.341379,0.304175 -0.528498,0.490157 -0.378646,0.376347 -0.784449,0.656542 -1.347441,0.928096 -0.206163,0.09944 -0.4971,0.247391 -0.640292,0.322535 -0.437632,0.229671 -1.004755,0.300274 -2.0852,0.300274 -1.056791,0 -1.194566,0.02113 -2.407737,0.331035 -0.433986,0.110864 -0.671188,0.204738 -0.921663,0.383476 -0.423592,0.302269 -0.961062,0.980667 -1.342585,1.71567 -0.0602,0.115966 -0.147133,0.253018 -0.193198,0.30456 -0.1526816,0.170849 -0.3264065,0.6396 -0.3345885,0.946349 -0.020143,0.755503 0.024833,2.186102 0.066415,2.354978 0.064483,0.261876 0.2124355,0.572152 0.3342955,0.737643 0.158018,0.214587 0.449978,0.731934 0.511586,0.918606 0.03308,0.100209 0.144185,0.241427 0.278317,0.353729 0.122796,0.102811 0.283718,0.274162 0.357604,0.380781 0.160586,0.231723 0.859646,0.623161 1.207533,0.667126 0.121846,0.01541 0.264553,0.05469 0.317128,0.08731 0.05258,0.03263 0.210708,0.08315 0.351415,0.112282 0.305082,0.06317 1.121111,-0.04436 1.519629,-0.195782 0.244996,-0.0931 0.823001,-0.430916 1.130773,-0.660895 0.230674,-0.172369 0.670291,-0.74399 0.762674,-1.030357 0.04364,-0.135256 0.105111,-0.288088 0.13661,-0.33963 0.162277,-0.265485 0.200398,-0.909925 0.122879,-1.84501 -0.02969,-0.358246 -0.06804,-0.566349 -0.155509,-0.737643 -0.06385,-0.125043 -0.185759,-0.391648 -0.245386,-0.515867 -0.182524,-0.380253 -1.200572,-1.106865 -1.553447,-1.114154 -0.05873,-0.0012 -0.289975,-0.02466 -0.462809,-0.06061 -0.331871,-0.06903 -0.748702,0.05454 -1.086428,0.163594 -0.407172,0.13148 -0.547342,0.353786 -0.748908,0.55749 -0.17911,0.181015 -0.311425,0.368658 -0.409204,0.678183 -0.112246,0.355309 -0.179893,0.48718 -0.140528,0.94052 0.04811,0.554091 0.198263,0.859172 0.461765,1.150838 0.210167,0.23263 0.479713,0.344273 0.954035,0.485251 0.344453,0.10238 0.725808,0.03944 1.028012,-0.04967 -0.592137,0.206301 -0.96752,0.06719 -1.455121,-0.08248 -0.437464,-0.178956 -0.630472,-0.427669 -0.833262,-0.842174 -0.146018,-0.29846 -0.152251,-0.334221 -0.152251,-0.873464 0,-0.536266 -0.02813,-0.435998 0.109796,-0.704132 0.07953,-0.154622 0.193242,-0.375955 0.252681,-0.491853 0.05944,-0.115898 0.218018,-0.302213 0.36941,-0.448074 0.223472,-0.215292 0.204194,-0.219158 0.498308,-0.320912 0.809625,-0.2801 1.662716,-0.249246 2.268203,0.135157 0.553696,0.351525 0.934665,0.656033 1.119332,0.926569 0.339227,0.496967 0.57053,0.973078 0.606218,1.374337 0.0172,0.193277 0.0643,0.501627 0.08766,0.727773 0.04004,0.387675 0.03323,0.44793 -0.119434,1.054242 -0.238396,0.946881 -0.215614,1.031485 -0.678681,1.438599 -0.209368,0.184074 -0.459152,0.374997 -0.555074,0.424274 -0.09593,0.04927 -0.243517,0.149063 -0.327986,0.221749 -0.229029,0.197072 -0.628818,0.436494 -0.768236,0.436494 -0.06746,0 -0.254657,0.05031 -0.415998,0.111788 -0.318709,0.121456 -0.910288,0.266489 -1.049719,0.257353 -0.04786,-0.0031 -0.276773,-0.03141 -0.508705,-0.06282 l 8e-6,3e-6 z"
       id="path2243-8"
       sodipodi:nodetypes="cssssssssssssssssssssssssssssssscsssssssssssssssssssssssssssssssssssssssssssssssssscssssssssssssssssssssssssssssssssssssssssssssssssssssssssssssccssssssssssssssssscc" />
  </g>
  <g
     style="display:inline"
     inkscape:label="border detail"
     id="g2876"
     inkscape:groupmode="layer"
     transform="translate(0,-26)">
    <path
       sodipodi:nodetypes="cssssssssssssssccsssssssssssssssccc"
       id="path2878"
       d="m 14.681339,45.703023 c 0.244997,-0.0931 0.823001,-0.430915 1.130774,-0.660895 0.230672,-0.172368 0.670287,-0.743989 0.762673,-1.030356 0.04364,-0.135257 0.105108,-0.288088 0.13661,-0.339629 0.162277,-0.265486 0.200398,-0.909926 0.122878,-1.845012 -0.02969,-0.358246 -0.06803,-0.566348 -0.155508,-0.737642 -0.06385,-0.125044 -0.185761,-0.391649 -0.245388,-0.515867 -0.182523,-0.380253 -1.200572,-1.106866 -1.553446,-1.114154 -0.05873,-0.0012 -0.289975,-0.02466 -0.462809,-0.06061 -0.331872,-0.06903 -0.748701,0.05454 -1.086427,0.163593 -0.407173,0.13148 -0.547342,0.353787 -0.748907,0.557491 -0.179112,0.181014 -0.311427,0.368658 -0.409206,0.678183 -0.112246,0.355308 -0.179893,0.48718 -0.140527,0.94052 0.04811,0.55409 0.198262,0.859172 0.461764,1.150837 0.210166,0.232631 0.479715,0.344273 0.954034,0.485251 0.344455,0.10238 0.725809,0.03944 1.028015,-0.04967 -0.592138,0.206302 -0.967521,0.06719 -1.455121,-0.08248 -0.437467,-0.178956 -0.630473,-0.427669 -0.833265,-0.842174 -0.146017,-0.29846 -0.15225,-0.334222 -0.15225,-0.873464 0,-0.536266 -0.02813,-0.435998 0.109797,-0.704132 0.07953,-0.154622 0.193241,-0.375955 0.252682,-0.491853 0.05944,-0.115898 0.218015,-0.302213 0.369409,-0.448073 0.223471,-0.215293 0.204194,-0.21916 0.498306,-0.320913 0.809625,-0.2801 1.662717,-0.249247 2.268204,0.135157 0.553697,0.351525 0.934666,0.656033 1.119333,0.926568 0.339227,0.496967 0.57053,0.973079 0.606218,1.374338 0.0172,0.193277 0.0643,0.501627 0.08766,0.727773 0.04005,0.387675 0.03323,0.447929 -0.119434,1.054242 -0.238396,0.946881 -0.215613,1.031484 -0.678681,1.438599 -0.209368,0.184074 -0.459153,0.374996 -0.555074,0.424274 -0.09593,0.04927 -0.243519,0.149063 -0.327986,0.221749 -0.229028,0.197071 -0.628819,0.436494 -0.768236,0.436494 -0.06746,0 -0.254656,0.05031 -0.415997,0.111787 -1.303558,0.215026 -0.879632,-0.544131 0.199901,-0.709944 l 4e-6,1.2e-5 z"
       style="color:#000000;fill:none;stroke:url(#linearGradient2880);stroke-width:1;stroke-linejoin:round;stroke-miterlimit:4;stroke-opacity:1;stroke-dasharray:none;marker:none;visibility:visible;display:inline;overflow:visible;enable-background:accumulate" />
  </g>
</svg>
