<?xml version="1.0" encoding="UTF-8" standalone="no"?>
<!-- Created with Inkscape (http://www.inkscape.org/) -->

<svg
   xmlns:dc="http://purl.org/dc/elements/1.1/"
   xmlns:cc="http://creativecommons.org/ns#"
   xmlns:rdf="http://www.w3.org/1999/02/22-rdf-syntax-ns#"
   xmlns:svg="http://www.w3.org/2000/svg"
   xmlns="http://www.w3.org/2000/svg"
   xmlns:xlink="http://www.w3.org/1999/xlink"
   xmlns:sodipodi="http://sodipodi.sourceforge.net/DTD/sodipodi-0.dtd"
   xmlns:inkscape="http://www.inkscape.org/namespaces/inkscape"
   width="48"
   height="48"
   id="svg1328"
   sodipodi:version="0.32"
   inkscape:version="0.47 r22583"
   sodipodi:docname="trisquel48.svg"
   inkscape:output_extension="org.inkscape.output.svg.inkscape"
   version="1.1"
   inkscape:export-filename="/home/ru/Escritorio/trisquel48.png"
   inkscape:export-xdpi="90"
   inkscape:export-ydpi="90"
   style="display:inline">
  <sodipodi:namedview
     inkscape:cy="26.535222"
     inkscape:cx="19.997567"
     inkscape:zoom="16"
     inkscape:window-height="934"
     inkscape:window-width="723"
     inkscape:pageshadow="2"
     inkscape:pageopacity="0.0"
     guidetolerance="10.0"
     gridtolerance="10.0"
     objecttolerance="10.0"
     borderopacity="0.31764706"
     bordercolor="#666"
     pagecolor="#ffffff"
     id="base"
     inkscape:showpageshadow="false"
     showgrid="false"
     inkscape:window-x="0"
     inkscape:window-y="0"
     inkscape:current-layer="g3737"
     showguides="true"
     inkscape:guide-bbox="true"
     inkscape:window-maximized="0"
     showborder="true"
     inkscape:snap-global="false" />
  <defs
     id="defs1330">
    <linearGradient
       id="linearGradient3654">
      <stop
         id="stop3656"
         offset="0"
         style="stop-color:#ffffff;stop-opacity:0;" />
      <stop
         style="stop-color:#ffffff;stop-opacity:1;"
         offset="0.02531646"
         id="stop3660" />
      <stop
         id="stop3658"
         offset="1"
         style="stop-color:#386ea6;stop-opacity:0;" />
    </linearGradient>
    <linearGradient
       id="linearGradient3860">
      <stop
         style="stop-color:#001355;stop-opacity:1;"
         offset="0"
         id="stop3862" />
      <stop
         style="stop-color:#002455;stop-opacity:0;"
         offset="1"
         id="stop3864" />
    </linearGradient>
    <linearGradient
       inkscape:collect="always"
       id="linearGradient3741">
      <stop
         style="stop-color:#ffffff;stop-opacity:1;"
         offset="0"
         id="stop3743" />
      <stop
         style="stop-color:#ffffff;stop-opacity:0;"
         offset="1"
         id="stop3745" />
    </linearGradient>
    <inkscape:perspective
       sodipodi:type="inkscape:persp3d"
       inkscape:vp_x="0 : 24 : 1"
       inkscape:vp_y="0 : 1000 : 0"
       inkscape:vp_z="48 : 24 : 1"
       inkscape:persp3d-origin="24 : 16 : 1"
       id="perspective58" />
    <linearGradient
       inkscape:collect="always"
       id="linearGradient8112">
      <stop
         style="stop-color:#ffffff;stop-opacity:1;"
         offset="0"
         id="stop8114" />
      <stop
         style="stop-color:#ffffff;stop-opacity:0;"
         offset="1"
         id="stop8116" />
    </linearGradient>
    <linearGradient
       id="linearGradient7108">
      <stop
         style="stop-color:#000000;stop-opacity:1;"
         offset="0"
         id="stop7110" />
      <stop
         style="stop-color:#ffffff;stop-opacity:1;"
         offset="1"
         id="stop7112" />
    </linearGradient>
    <linearGradient
       id="linearGradient7100">
      <stop
         style="stop-color:#000000;stop-opacity:1;"
         offset="0"
         id="stop7102" />
      <stop
         style="stop-color:#ffffff;stop-opacity:1;"
         offset="1"
         id="stop7104" />
    </linearGradient>
    <linearGradient
       id="linearGradient2804">
      <stop
         style="stop-color:black;stop-opacity:0;"
         offset="0"
         id="stop2806" />
      <stop
         id="stop2812"
         offset="0.5"
         style="stop-color:black;stop-opacity:1;" />
      <stop
         style="stop-color:black;stop-opacity:0;"
         offset="1"
         id="stop2808" />
    </linearGradient>
    <linearGradient
       inkscape:collect="always"
       id="linearGradient2781">
      <stop
         style="stop-color:black;stop-opacity:1;"
         offset="0"
         id="stop2783" />
      <stop
         style="stop-color:black;stop-opacity:0;"
         offset="1"
         id="stop2785" />
    </linearGradient>
    <linearGradient
       inkscape:collect="always"
       id="linearGradient2782">
      <stop
         style="stop-color:white;stop-opacity:1;"
         offset="0"
         id="stop2784" />
      <stop
         style="stop-color:white;stop-opacity:0;"
         offset="1"
         id="stop2786" />
    </linearGradient>
    <linearGradient
       id="linearGradient5106">
      <stop
         style="stop-color:#ffffff;stop-opacity:1;"
         offset="0"
         id="stop5108" />
      <stop
         style="stop-color:#386ea6;stop-opacity:1;"
         offset="1"
         id="stop5110" />
    </linearGradient>
    <linearGradient
       inkscape:collect="always"
       xlink:href="#linearGradient5106"
       id="linearGradient2780"
       gradientUnits="userSpaceOnUse"
       gradientTransform="matrix(3.137165,0,0,3.184122,-1.606682,-4.861064)"
       x1="8.1771841"
       y1="5.7791729"
       x2="8.1771841"
       y2="15.676654" />
    <linearGradient
       inkscape:collect="always"
       xlink:href="#linearGradient2782"
       id="linearGradient2788"
       x1="26.0625"
       y1="23.265625"
       x2="29.03125"
       y2="55.265625"
       gradientUnits="userSpaceOnUse" />
    <radialGradient
       inkscape:collect="always"
       xlink:href="#linearGradient2781"
       id="radialGradient2827"
       gradientUnits="userSpaceOnUse"
       gradientTransform="matrix(2,0,0,0.8,-13,-79.2)"
       cx="1"
       cy="44"
       fx="1"
       fy="44"
       r="5" />
    <radialGradient
       inkscape:collect="always"
       xlink:href="#linearGradient2781"
       id="radialGradient2829"
       gradientUnits="userSpaceOnUse"
       gradientTransform="matrix(2,0,0,0.8,36,8.8)"
       cx="1"
       cy="44"
       fx="1"
       fy="44"
       r="5" />
    <linearGradient
       inkscape:collect="always"
       xlink:href="#linearGradient2804"
       id="linearGradient2831"
       gradientUnits="userSpaceOnUse"
       x1="21.875"
       y1="48.000977"
       x2="21.875"
       y2="40" />
    <linearGradient
       inkscape:collect="always"
       xlink:href="#linearGradient5106"
       id="linearGradient8141"
       gradientUnits="userSpaceOnUse"
       gradientTransform="matrix(3.3087682,0,0,3.3582938,-5.969971,-6.3358833)"
       x1="8.1771841"
       y1="5.7791729"
       x2="8.1771841"
       y2="15.676654" />
    <linearGradient
       inkscape:collect="always"
       xlink:href="#linearGradient2782"
       id="linearGradient15953"
       x1="77.297218"
       y1="16.647184"
       x2="77.480881"
       y2="52.45615"
       gradientUnits="userSpaceOnUse"
       gradientTransform="translate(-0.8601477,-1.863416)" />
    <radialGradient
       inkscape:collect="always"
       xlink:href="#linearGradient2781"
       id="radialGradient19858"
       cx="73.570084"
       cy="23.145077"
       fx="73.570084"
       fy="23.145077"
       r="20.928947"
       gradientTransform="matrix(1,0,0,0.9887118,-0.4220719,11.235137)"
       gradientUnits="userSpaceOnUse" />
    <radialGradient
       inkscape:collect="always"
       xlink:href="#linearGradient2781"
       id="radialGradient19868"
       gradientUnits="userSpaceOnUse"
       gradientTransform="matrix(2,0,0,0.8,-25.240086,-80.929141)"
       cx="1"
       cy="44"
       fx="1"
       fy="44"
       r="5" />
    <radialGradient
       inkscape:collect="always"
       xlink:href="#linearGradient2781"
       id="radialGradient19870"
       gradientUnits="userSpaceOnUse"
       gradientTransform="matrix(2,0,0,0.8,21.227482,10.529141)"
       cx="1"
       cy="44"
       fx="1"
       fy="44"
       r="5" />
    <linearGradient
       inkscape:collect="always"
       xlink:href="#linearGradient2804"
       id="linearGradient19872"
       gradientUnits="userSpaceOnUse"
       x1="21.875"
       y1="48.000977"
       x2="21.875"
       y2="40"
       gradientTransform="matrix(1,0,0,0.1481438,0,40.8891)" />
    <radialGradient
       inkscape:collect="always"
       xlink:href="#linearGradient2781"
       id="radialGradient19882"
       gradientUnits="userSpaceOnUse"
       gradientTransform="matrix(2,0,0,0.8,-13,-79.2)"
       cx="1"
       cy="44"
       fx="1"
       fy="44"
       r="5" />
    <radialGradient
       inkscape:collect="always"
       xlink:href="#linearGradient2781"
       id="radialGradient19884"
       gradientUnits="userSpaceOnUse"
       gradientTransform="matrix(2,0,0,0.8,36,8.8)"
       cx="1"
       cy="44"
       fx="1"
       fy="44"
       r="5" />
    <linearGradient
       inkscape:collect="always"
       xlink:href="#linearGradient2804"
       id="linearGradient19886"
       gradientUnits="userSpaceOnUse"
       x1="21.875"
       y1="48.000977"
       x2="21.875"
       y2="40" />
    <linearGradient
       inkscape:collect="always"
       xlink:href="#linearGradient8112"
       id="linearGradient8118"
       x1="33.111675"
       y1="43.542542"
       x2="25.368185"
       y2="2.4395995"
       gradientUnits="userSpaceOnUse" />
    <linearGradient
       inkscape:collect="always"
       xlink:href="#linearGradient8112"
       id="linearGradient8126"
       x1="29.854376"
       y1="50.395214"
       x2="21.795116"
       y2="15.465387"
       gradientUnits="userSpaceOnUse" />
    <inkscape:perspective
       id="perspective3642"
       inkscape:persp3d-origin="0.5 : 0.33333333 : 1"
       inkscape:vp_z="1 : 0.5 : 1"
       inkscape:vp_y="0 : 1000 : 0"
       inkscape:vp_x="0 : 0.5 : 1"
       sodipodi:type="inkscape:persp3d" />
    <inkscape:perspective
       id="perspective3664"
       inkscape:persp3d-origin="0.5 : 0.33333333 : 1"
       inkscape:vp_z="1 : 0.5 : 1"
       inkscape:vp_y="0 : 1000 : 0"
       inkscape:vp_x="0 : 0.5 : 1"
       sodipodi:type="inkscape:persp3d" />
    <inkscape:perspective
       id="perspective3687"
       inkscape:persp3d-origin="0.5 : 0.33333333 : 1"
       inkscape:vp_z="1 : 0.5 : 1"
       inkscape:vp_y="0 : 1000 : 0"
       inkscape:vp_x="0 : 0.5 : 1"
       sodipodi:type="inkscape:persp3d" />
    <inkscape:perspective
       id="perspective3709"
       inkscape:persp3d-origin="0.5 : 0.33333333 : 1"
       inkscape:vp_z="1 : 0.5 : 1"
       inkscape:vp_y="0 : 1000 : 0"
       inkscape:vp_x="0 : 0.5 : 1"
       sodipodi:type="inkscape:persp3d" />
    <radialGradient
       inkscape:collect="always"
       xlink:href="#linearGradient3741"
       id="radialGradient3749"
       cx="17.822229"
       cy="10.598286"
       fx="17.822229"
       fy="10.598286"
       r="23.300945"
       gradientTransform="matrix(0.88048386,1.0062333,-1.167238,1.0213675,14.491412,-18.730075)"
       gradientUnits="userSpaceOnUse" />
    <linearGradient
       inkscape:collect="always"
       xlink:href="#linearGradient5106"
       id="linearGradient3781"
       x1="14.922568"
       y1="-5.0622511"
       x2="30.737608"
       y2="47.111855"
       gradientUnits="userSpaceOnUse"
       gradientTransform="matrix(1.0153213,0,0,1.0153213,-0.28241112,-0.88698615)" />
    <inkscape:perspective
       id="perspective3804"
       inkscape:persp3d-origin="0.5 : 0.33333333 : 1"
       inkscape:vp_z="1 : 0.5 : 1"
       inkscape:vp_y="0 : 1000 : 0"
       inkscape:vp_x="0 : 0.5 : 1"
       sodipodi:type="inkscape:persp3d" />
    <linearGradient
       inkscape:collect="always"
       xlink:href="#linearGradient3860"
       id="linearGradient3866"
       x1="30.784439"
       y1="-3.2016251"
       x2="48.248177"
       y2="74.1007"
       gradientUnits="userSpaceOnUse"
       gradientTransform="matrix(0.97817657,0,0,0.97817657,0.6109991,0.52531201)" />
    <linearGradient
       inkscape:collect="always"
       xlink:href="#linearGradient3654"
       id="linearGradient2880"
       gradientUnits="userSpaceOnUse"
       gradientTransform="matrix(1.0153213,0,0,1.0153213,-0.28241112,-0.88698615)"
       x1="28.044146"
       y1="26.106741"
       x2="35.709599"
       y2="44.29953" />
  </defs>
  <sodipodi:namedview
     id="namedview21"
     pagecolor="#ffffff"
     bordercolor="#666666"
     borderopacity="1.0"
     inkscape:pageopacity="0.0"
     inkscape:pageshadow="2"
     inkscape:zoom="9.8994949"
     inkscape:cx="24"
     inkscape:cy="24"
     inkscape:current-layer="layer1"
     showgrid="true"
     inkscape:grid-bbox="true"
     inkscape:document-units="px"
     inkscape:window-width="736"
     inkscape:window-height="851"
     inkscape:window-x="214"
     inkscape:window-y="28" />
  <metadata
     id="metadata1333">
    <rdf:RDF>
      <cc:Work
         rdf:about="">
        <dc:format>image/svg+xml</dc:format>
        <dc:type
           rdf:resource="http://purl.org/dc/dcmitype/StillImage" />
        <dc:title />
        <dc:subject>
          <rdf:Bag>
            <rdf:li>go</rdf:li>
            <rdf:li>seek</rdf:li>
            <rdf:li>home</rdf:li>
          </rdf:Bag>
        </dc:subject>
        <dc:creator>
          <cc:Agent>
            <dc:title>Rodney Dawes</dc:title>
          </cc:Agent>
        </dc:creator>
        <dc:contributor>
          <cc:Agent>
            <dc:title>Jakub Steiner</dc:title>
          </cc:Agent>
        </dc:contributor>
        <cc:license
           rdf:resource="http://creativecommons.org/licenses/GPL/2.0/" />
      </cc:Work>
      <cc:License
         rdf:about="http://creativecommons.org/licenses/GPL/2.0/">
        <cc:permits
           rdf:resource="http://web.resource.org/cc/Reproduction" />
        <cc:permits
           rdf:resource="http://web.resource.org/cc/Distribution" />
        <cc:requires
           rdf:resource="http://web.resource.org/cc/Notice" />
        <cc:permits
           rdf:resource="http://web.resource.org/cc/DerivativeWorks" />
        <cc:requires
           rdf:resource="http://web.resource.org/cc/ShareAlike" />
        <cc:requires
           rdf:resource="http://web.resource.org/cc/SourceCode" />
      </cc:License>
    </rdf:RDF>
  </metadata>
  <g
     inkscape:groupmode="layer"
     id="layer3"
     inkscape:label="shadow"
     style="opacity:0.7;display:inline">
    <path
       style="color:#000000;fill:#000000;fill-opacity:1;fill-rule:nonzero;stroke:none;stroke-width:1.00000024000000010;marker:none;visibility:visible;display:inline;overflow:visible;enable-background:accumulate"
       d="m 28.552403,47.823337 c -1.258075,-0.170409 -2.641871,-0.508229 -3.256008,-0.794875 -1.419505,-0.662542 -2.777796,-1.603447 -3.261829,-2.259514 -0.126826,-0.171911 -0.441619,-0.478815 -0.69955,-0.68201 -1.02537,-0.807814 -1.62435,-1.658306 -2.846612,-4.04193 -0.138866,-0.270819 -0.572739,-2.463631 -0.732436,-3.701793 -0.126194,-0.978442 -0.116051,-2.933278 0.01987,-3.828044 0.168665,-1.110238 0.513183,-2.570374 0.680085,-2.882214 0.140453,-0.262456 0.489457,-1.392914 0.597937,-1.936858 0.04099,-0.205503 0.132927,-0.445701 0.204315,-0.533773 0.07138,-0.08807 0.218693,-0.472389 0.327363,-0.854035 0.108676,-0.381648 0.361985,-1.02653 0.562934,-1.433074 0.450044,-0.910514 0.661548,-1.588924 0.663062,-2.126772 6.47e-4,-0.225823 0.08009,-0.682097 0.176559,-1.01394 0.236218,-0.812541 0.145159,-3.100522 -0.157844,-3.966576 -0.230131,-0.65774 -0.792123,-1.762346 -1.382621,-2.717554 -1.223467,-1.979134 -4.720527,-4.414168 -6.801655,-4.736058 -0.797768,-0.123391 -3.4381826,0.01315 -4.5731776,0.236481 -0.9717114,0.191203 -1.8869992,0.616457 -2.356228,1.094731 -1.2035621,1.226736 -1.9069488,2.055478 -2.1840784,2.573293 -0.3997514,0.746959 -0.6476412,1.892745 -0.7156627,3.308009 -0.077284,1.608346 -0.010079,1.944562 0.7032103,3.517691 0.6019652,1.327593 2.2207878,2.668855 4.0017188,3.315578 0.8313012,0.301878 1.1478296,0.357874 2.3485971,0.415475 1.6559295,0.07943 2.3616975,-0.04061 3.1039395,-0.527915 0.28914,-0.189837 0.741904,-0.472123 1.006112,-0.627304 1.206031,-0.708319 1.835942,-2.04415 1.830813,-3.882553 -0.0031,-1.139509 -0.409265,-2.169106 -1.097451,-2.782501 -0.427933,-0.381431 -1.937747,-1.289871 -2.376471,-1.429902 -0.764353,-0.243962 -1.77592,-0.369796 -2.8281346,0.159244 -0.5122289,0.257545 -1.035096,0.682169 -1.1463527,0.834492 -0.1112421,0.152324 -0.4524825,0.641008 -0.6491688,1.163906 -0.1966999,0.5229 -0.4225841,0.440563 -0.4707886,0.440563 -0.1912612,0 0.010831,-0.06404 0.2397415,-0.700956 0.3274661,-0.911071 0.5798197,-1.805989 1.2284443,-2.301754 0.7312009,-0.558894 1.5118689,-0.720453 2.4809929,-0.81699 1.260044,-0.125514 1.470145,0.215899 2.560037,0.761828 1.267982,0.635134 1.651195,1.009763 2.277168,2.226138 0.747225,1.451982 0.838753,1.851562 0.673087,2.9384 -0.188277,1.235137 -0.611594,2.483221 -1.104359,3.255982 -0.449293,0.704593 -1.286916,1.346439 -2.79185,2.139315 -1.079353,0.568652 -1.447893,0.667929 -2.8823795,0.776425 C 8.3539101,26.520727 7.4387676,26.418788 6.2407051,25.991748 5.7122784,25.803389 5.0550515,25.584953 4.7802153,25.50634 4.4138796,25.401541 3.9399461,25.076348 3.0042534,24.287695 1.3983377,22.934149 1.1403049,22.496507 0.8281861,20.596924 0.71241574,19.892344 0.60255383,18.970661 0.58404593,18.54874 0.56553679,18.12682 0.52044878,17.73314 0.48382846,17.673895 0.40723526,17.549974 0.5849717,15.403527 0.76333986,14.298408 0.91037928,13.387361 0.97763778,13.248833 2.0284848,11.692662 2.6521335,10.76914 3.0621895,10.290804 3.6449844,9.807002 5.5294112,8.2426836 6.7605233,7.5940624 8.9005705,7.0380679 10.384379,6.6525662 10.388275,6.6521695 12.209957,6.700565 c 1.926561,0.051183 2.952034,0.1715067 3.644557,0.4276359 4.683202,1.7320621 6.530523,3.2484721 8.929958,7.3303391 0.767292,1.305301 1.499817,2.238402 2.82384,3.597027 0.974327,0.999797 1.286137,1.250542 1.908389,1.534677 1.002876,0.457939 2.176066,0.624693 4.427139,0.629254 2.143783,0.0043 2.955002,-0.157991 3.889564,-0.77835 0.297226,-0.197296 0.780009,-0.46467 1.072854,-0.594165 0.292846,-0.129496 0.629119,-0.322347 0.747279,-0.428556 0.11816,-0.106212 0.479049,-0.331838 0.801992,-0.501393 0.741573,-0.389364 1.607048,-1.256759 1.923105,-1.927365 0.380638,-0.807668 0.962938,-1.767032 1.28571,-2.118281 0.220032,-0.239431 0.321428,-0.498642 0.401721,-1.027025 0.05908,-0.388717 0.208184,-0.904287 0.331352,-1.145712 0.309512,-0.606692 0.414199,-1.888545 0.18969,-2.3227019 C 44.495636,9.1990743 44.35194,8.6897047 44.267795,8.2440197 43.969057,6.6618807 42.40388,4.8166041 40.607661,3.9288593 39.956181,3.6068813 39.67989,3.5383297 38.662136,3.446137 36.546991,3.2545397 34.998601,3.5809455 33.778941,4.4755325 c -1.152608,0.845407 -1.650254,1.2624511 -1.650254,1.3829602 0,0.1262402 -0.531076,0.7465959 -0.70027,0.8179814 -0.234378,0.098899 -0.68754,0.8519723 -0.68754,1.1425921 0,0.1725976 -0.09393,0.5261305 -0.20871,0.7856283 -0.437711,0.9895265 -0.36097,1.7909985 0.330553,3.4518665 0.3934,0.944851 0.513905,1.165427 0.903983,1.654696 0.522961,0.655926 1.139042,0.783134 2.112901,0.954807 1.133201,0.199759 1.590089,0.185343 2.307355,-0.06144 1.418167,-0.487919 2.449657,-1.143409 2.960018,-2.281183 0.2296,-0.511865 0.257871,-0.703821 0.220471,-1.497097 -0.0376,-0.797375 0.08876,-1.0993634 -0.230853,-1.6584259 C 38.935983,8.817026 38.607037,7.8246727 38.379141,7.5771934 38.151246,7.3297138 37.981478,7.0771543 38.001882,7.015948 c 0.05919,-0.1775667 0.934444,1.2186578 1.273391,1.6865685 0.519827,0.7176046 0.753144,1.4162015 0.676956,2.6130855 -0.08362,1.314007 -0.508584,2.104204 -1.523032,3.141774 -0.782685,0.80052 -1.569001,1.185478 -2.88104,1.410469 -1.067887,0.18312 -2.423825,-0.06626 -3.280001,-0.603264 -1.037924,-0.650992 -1.68458,-1.318243 -2.2743,-2.346702 -0.484458,-0.844917 -0.575517,-1.106314 -0.799561,-2.295272 -0.266912,-1.4164807 -0.266383,-2.5725606 0.0013,-2.8896056 0.07437,-0.088069 0.19176,-0.4368397 0.260871,-0.7750378 0.06916,-0.3381992 0.233561,-0.7465347 0.3654,-0.9074136 0.131838,-0.1608788 0.393856,-0.616466 0.582279,-1.012417 0.277174,-0.5824909 0.423523,-0.7612118 0.766674,-0.9362715 0.233249,-0.1189999 0.424098,-0.2642024 0.424098,-0.3226743 0,-0.058472 0.164402,-0.1847052 0.365322,-0.2805219 0.200934,-0.095817 0.388769,-0.2638566 0.417421,-0.3734257 0.03073,-0.1175666 0.307606,-0.3112732 0.675529,-0.4726336 0.342903,-0.1503808 0.884901,-0.3959104 1.204473,-0.5456208 0.319558,-0.1497106 1.208296,-0.4273263 1.974956,-0.6169238 1.325361,-0.3277669 1.45695,-0.3409802 2.674978,-0.2686359 1.223173,0.072648 1.309467,0.0935 1.909639,0.4614211 0.345708,0.2119354 0.802094,0.4415218 1.014166,0.5101943 0.212074,0.068674 0.761175,0.394477 1.220239,0.7240095 0.459053,0.3295302 0.995244,0.6962843 1.191536,0.8150073 0.196283,0.1187208 0.673716,0.5405872 1.060966,0.9374798 0.803687,0.8237113 1.646961,2.3595629 1.92444,3.5049245 0.09052,0.3737027 0.260453,1.0157376 0.377607,1.426744 0.182242,0.639435 0.203709,0.939862 0.148636,2.081712 -0.171481,3.556335 -1.380901,6.293544 -3.72301,8.426206 -0.293563,0.267317 -0.882577,0.832732 -1.308906,1.256475 -0.862705,0.857465 -1.892063,1.565713 -3.174779,2.18442 -0.469722,0.226563 -1.120951,0.552013 -1.447196,0.723223 -0.997101,0.523279 -2.522072,0.753992 -4.98375,0.753992 -2.407786,0 -2.675125,0.03649 -5.439204,0.742587 -0.988795,0.252591 -1.313526,0.389981 -1.884207,0.797216 -0.965111,0.688687 -2.078629,2.123296 -2.947888,3.797922 -0.137146,0.264216 -0.335228,0.576474 -0.440179,0.693904 -0.347871,0.389265 -0.616769,1.187568 -0.63541,1.886463 -0.0459,1.721335 0.02486,4.774567 0.119594,5.159335 0.146906,0.596655 0.420553,1.224266 0.698197,1.601317 0.360029,0.488913 0.961774,1.588313 1.102139,2.013625 0.07537,0.228314 0.32851,0.550067 0.634117,0.805935 0.279776,0.234244 0.646419,0.624651 0.814762,0.86757 0.365879,0.527958 1.688918,1.245297 2.48154,1.345469 0.277614,0.03509 0.602759,0.124604 0.722544,0.198927 0.119784,0.07432 0.480076,0.189446 0.800662,0.25582 0.695097,0.14392 2.268773,-0.05348 3.176755,-0.398477 0.558199,-0.212101 1.875121,-0.981794 2.576347,-1.505778 0.525564,-0.392723 1.241624,-1.409541 1.452112,-2.062001 0.09941,-0.308166 0.239482,-0.656377 0.311251,-0.773809 0.369733,-0.604879 0.456586,-1.835201 0.279969,-3.965696 -0.06767,-0.816224 -0.155024,-1.211042 -0.354312,-1.601318 -0.145466,-0.284895 -0.486127,-0.68326 -0.621979,-0.966276 -0.415863,-0.866366 -2.373896,-2.249348 -3.177883,-2.265954 -0.133823,-0.0027 -0.499199,-0.09414 -0.892983,-0.176053 -0.756135,-0.157286 -1.859891,-0.03377 -2.316667,0.210686 -0.561566,0.300546 -1.278788,0.683116 -1.738035,1.147233 -0.408086,0.412423 -0.550908,0.665439 -0.773687,1.370662 -0.255739,0.80953 -0.267089,0.935476 -0.177397,1.968364 0.109624,1.262438 0.324803,1.846485 0.925166,2.511013 0.478843,0.530024 0.886739,-0.344193 1.96743,-0.02299 0.784801,0.233258 1.814027,0.204301 2.502565,0.0013 0.404339,-0.119213 -0.117381,1.400099 -1.003519,1.604146 -0.683275,0.157335 -2.208427,0.06412 -3.204895,-0.343504 -0.996717,-0.407729 -1.495822,-1.035433 -1.957862,-1.979841 -0.332686,-0.680009 -0.125915,-0.960359 -0.125915,-2.188966 0,-1.22183 0.01523,-1.310666 0.32948,-1.92158 0.181206,-0.352291 0.440281,-0.856577 0.575708,-1.120638 0.135427,-0.26406 0.52846,-0.752015 0.873391,-1.084343 0.509156,-0.490523 0.859047,-1.142632 1.529151,-1.374466 1.844646,-0.638179 4.013224,0.01196 5.392758,0.887784 1.261543,0.800913 2.367504,1.732665 2.788248,2.349052 0.772895,1.132289 1.331623,2.470888 1.412935,3.385115 0.03918,0.440363 0.114772,1.222226 0.168004,1.737476 0.09124,0.883275 0.07569,1.02056 -0.272117,2.401977 -0.543161,2.157368 -0.84027,2.730874 -1.89532,3.658442 -0.47702,0.419394 -1.04613,0.854392 -1.264675,0.966662 -0.21856,0.112272 -0.554833,0.339626 -0.747284,0.505233 -0.521815,0.449007 -1.51202,0.978642 -1.829665,0.978642 -0.1537,0 -0.580208,0.114613 -0.947808,0.254695 -0.726145,0.276727 -2.073997,0.607169 -2.391673,0.586352 -0.109038,-0.0071 -0.630602,-0.07155 -1.159031,-0.143131 l 1.8e-5,8e-6 -2.9e-5,6e-6 z"
       id="path2243-84"
       sodipodi:nodetypes="csssssssssssssssssssssssssssssssssssssssssssssssssssssssssssssssssssssssssssssssssssssssssssssssssssssssssssssssssssssssssssssssssssssssssssssssssssssssssssssssssssccc" />
  </g>
  <g
     id="layer1"
     inkscape:label="color"
     inkscape:groupmode="layer"
     style="display:inline">
    <path
       style="color:#000000;fill:#004db1;fill-opacity:1;fill-rule:nonzero;stroke:none;stroke-width:1.00000024;marker:none;visibility:visible;display:inline;overflow:visible;enable-background:accumulate"
       d="m 28.460629,46.791296 c -1.258074,-0.170408 -2.641871,-0.508229 -3.256008,-0.794873 -1.419504,-0.662543 -2.777795,-1.603447 -3.261828,-2.259514 -0.126826,-0.171911 -0.44162,-0.478815 -0.69955,-0.682011 -1.025371,-0.807814 -1.62435,-1.658305 -2.846613,-4.041929 -0.138866,-0.270819 -0.572738,-2.463632 -0.732436,-3.701794 -0.126193,-0.978441 -0.11605,-2.933277 0.01987,-3.828043 0.168665,-1.110239 0.513184,-2.570375 0.680085,-2.882214 0.140453,-0.262457 0.489457,-1.392915 0.597937,-1.936858 0.04099,-0.205503 0.132927,-0.445701 0.204316,-0.533773 0.07138,-0.08807 0.218693,-0.472389 0.327362,-0.854036 0.108676,-0.381647 0.361986,-1.026529 0.562935,-1.433073 0.450043,-0.910514 0.661547,-1.588925 0.663062,-2.126772 6.47e-4,-0.225824 0.08009,-0.682097 0.17656,-1.01394 0.236216,-0.812542 0.145158,-3.100523 -0.157846,-3.966576 -0.23013,-0.657741 -0.792123,-1.762346 -1.38262,-2.717554 C 18.132384,12.039202 14.635324,9.604167 12.554196,9.2822772 11.756428,9.158887 9.1160135,9.2954283 7.9810185,9.518759 7.009307,9.709962 6.0940193,10.135215 5.6247904,10.613488 c -1.2035621,1.226738 -1.9069487,2.05548 -2.1840784,2.573294 -0.3997514,0.746959 -0.6476412,1.892746 -0.7156626,3.308009 -0.077284,1.608346 -0.010079,1.944561 0.7032102,3.517691 0.6019653,1.327594 2.2207878,2.668856 4.0017189,3.315579 0.8313011,0.301877 1.1478295,0.357873 2.3485964,0.415475 1.6559301,0.07943 2.3616981,-0.04061 3.1039401,-0.527916 0.28914,-0.189837 0.741905,-0.472122 1.006113,-0.627303 1.206031,-0.708319 1.835942,-2.044152 1.830812,-3.882553 -0.0031,-1.139509 -0.409264,-2.169106 -1.09745,-2.782502 -0.427933,-0.38143 -1.937748,-1.289871 -2.376472,-1.429902 -0.764353,-0.243962 -1.750411,-0.0892 -2.8026262,0.439834 -0.512229,0.257546 -1.022342,0.592892 -1.1335987,0.745214 -0.1112421,0.152324 -0.3632038,0.704778 -0.5598902,1.227677 -0.1966999,0.5229 -0.3970758,0.950728 -0.4452803,0.950728 -0.1912612,0 -0.1422179,-0.829296 0.086693,-1.466204 0.3274661,-0.91107 0.6563443,-1.385103 1.3049689,-1.880868 0.731201,-0.558895 1.4480995,-0.835239 2.4172235,-0.931776 1.260044,-0.125515 1.45739,-0.0902 2.547283,0.455729 1.267981,0.635134 1.651195,1.009762 2.277167,2.226136 0.747225,1.451984 0.838754,1.851563 0.673088,2.938401 -0.188278,1.235138 -0.611595,2.483221 -1.104359,3.255983 -0.449294,0.704593 -1.286917,1.346438 -2.791851,2.139315 -1.079353,0.568652 -1.447893,0.667928 -2.8823798,0.776424 -1.5698166,0.118735 -2.484959,0.0168 -3.6830215,-0.410245 C 5.6205044,24.771349 4.9632775,24.552914 4.6884414,24.474301 4.3221056,24.369502 3.8481721,24.044308 2.9124794,23.255656 1.3065637,21.90211 1.0485309,21.464468 0.73641212,19.564885 0.62064176,18.860304 0.51077995,17.938622 0.49227195,17.516701 0.47376291,17.09478 0.4286749,16.701101 0.39205458,16.641855 0.31546138,16.517935 0.49319772,14.371488 0.67156598,13.266369 0.8186054,12.355321 0.88586379,12.216794 1.9367109,10.660622 2.5603595,9.737101 2.9704155,9.258765 3.5532105,8.7749624 5.4376373,7.2106436 6.6687493,6.5620224 8.8087966,6.0060279 10.292605,5.6205263 10.296501,5.6201295 12.118184,5.6685251 c 1.92656,0.051183 2.952034,0.1715067 3.644556,0.4276359 4.683202,1.7320621 6.530524,3.2484714 8.929958,7.330338 0.767293,1.305303 1.499818,2.238403 2.82384,3.597028 0.974328,0.999797 1.286138,1.250543 1.90839,1.534678 1.002876,0.457939 2.176065,0.624692 4.427138,0.629253 2.143784,0.0043 2.955003,-0.157992 3.889565,-0.778349 0.297226,-0.197296 0.780008,-0.464671 1.072854,-0.594165 0.292845,-0.129497 0.629118,-0.322347 0.747278,-0.428556 0.118161,-0.106212 0.479051,-0.331838 0.801992,-0.501394 0.741573,-0.389363 1.607048,-1.256758 1.923105,-1.927365 0.380638,-0.807668 0.962938,-1.767031 1.285711,-2.11828 0.220031,-0.239432 0.321427,-0.498644 0.40172,-1.027025 0.05908,-0.388717 0.208184,-0.904289 0.331352,-1.145712 C 44.615155,10.05992 44.719842,8.7780672 44.495335,8.3439098 44.403863,8.1670346 44.260166,7.6576647 44.176021,7.2119797 43.877283,5.6298407 42.312106,3.7845642 40.515887,2.8968193 39.864407,2.5748413 39.588116,2.5062896 38.570363,2.4140969 36.455217,2.2224998 34.906827,2.5489056 33.687169,3.4434925 c -1.15261,0.8454071 -1.650256,1.2624512 -1.650256,1.3829602 0,0.1262402 -0.531076,0.7465959 -0.70027,0.8179814 -0.234378,0.098899 -0.68754,0.8519723 -0.68754,1.1425921 0,0.1725977 -0.09393,0.5261306 -0.20871,0.7856283 -0.43771,0.9895269 -0.36097,1.7909988 0.330553,3.4518675 0.3934,0.94485 0.513905,1.165427 0.903983,1.654694 0.522961,0.655928 1.072751,0.959913 2.04661,1.131586 1.133202,0.199758 1.700575,0.185342 2.417841,-0.06144 1.418166,-0.487919 2.405462,-1.320186 2.915823,-2.457961 0.2296,-0.511866 0.257872,-0.70382 0.220473,-1.497097 C 39.23807,8.9969321 39.187655,8.8054291 38.868044,8.2463658 38.667432,7.8954713 38.316857,7.405892 38.088961,7.1584127 37.861065,6.9109332 37.691296,6.6583738 37.711702,6.5971674 c 0.05918,-0.1775667 1.13285,0.6053984 1.471797,1.0733091 0.519828,0.7176047 0.686854,1.4382993 0.610665,2.6351835 -0.08362,1.314007 -0.442293,2.082107 -1.45674,3.119676 -0.782684,0.800521 -1.569001,1.185477 -2.881041,1.41047 -1.067887,0.183119 -2.423825,-0.06626 -3.28,-0.603264 -1.037925,-0.650992 -1.684581,-1.318243 -2.2743,-2.346704 -0.484458,-0.844915 -0.575518,-1.106312 -0.799561,-2.29527 -0.266912,-1.4164819 -0.266384,-2.5725615 0.0013,-2.8896066 0.07437,-0.088069 0.191761,-0.4368396 0.260871,-0.7750377 0.06911,-0.3381993 0.233512,-0.7465349 0.365351,-0.9074136 0.131838,-0.1608788 0.393857,-0.616466 0.58228,-1.0124171 0.277174,-0.5824908 0.423523,-0.7612118 0.766675,-0.9362714 0.233247,-0.1189999 0.424096,-0.2642024 0.424096,-0.3226744 0,-0.058472 0.164402,-0.1847052 0.365323,-0.2805219 0.200934,-0.095817 0.388769,-0.2638565 0.417421,-0.3734257 0.03073,-0.1175666 0.307605,-0.3112731 0.67553,-0.4726336 0.342901,-0.1503807 0.8849,-0.3959103 1.204472,-0.5456208 0.319557,-0.1497105 1.208295,-0.4273263 1.974956,-0.61692372 1.325361,-0.32776689 1.45695,-0.34098008 2.674977,-0.26863593 1.223173,0.0726478 1.309468,0.0934996 1.909639,0.46142115 0.345709,0.2119353 0.802094,0.4415218 1.014167,0.5101942 0.212073,0.068674 0.761174,0.394477 1.220238,0.7240095 0.459053,0.3295302 0.995244,0.6962843 1.191537,0.8150073 0.196282,0.1187208 0.673716,0.5405873 1.060965,0.9374799 0.803688,0.8237113 1.646961,2.3595629 1.92444,3.5049245 0.09052,0.3737026 0.260453,1.0157376 0.377608,1.4267438 0.182242,0.6394349 0.203708,0.9398631 0.148635,2.0817121 -0.17148,3.556336 -1.380901,6.293545 -3.723009,8.426206 -0.293563,0.267318 -0.882578,0.832733 -1.308906,1.256475 -0.862705,0.857466 -1.892064,1.565714 -3.174779,2.184421 -0.469723,0.226562 -1.12095,0.552013 -1.447197,0.723222 -0.9971,0.523279 -2.522071,0.753992 -4.98375,0.753992 -2.407786,0 -2.675124,0.0365 -5.439204,0.742587 -0.988794,0.252591 -1.313526,0.389982 -1.884206,0.797217 -0.965111,0.688687 -2.078628,2.123295 -2.947887,3.797922 -0.137147,0.264216 -0.33523,0.576474 -0.440181,0.693904 -0.347871,0.389265 -0.616768,1.187568 -0.635409,1.886462 -0.0459,1.721336 0.02486,4.774568 0.119593,5.159336 0.146907,0.596655 0.420554,1.224265 0.698198,1.601316 0.360029,0.488914 0.961773,1.588314 1.102138,2.013625 0.07537,0.228314 0.32851,0.550068 0.634118,0.805936 0.279775,0.234243 0.646418,0.624651 0.814761,0.867569 0.365881,0.527958 1.688918,1.245297 2.48154,1.34547 0.277615,0.03509 0.60276,0.124603 0.722544,0.198927 0.119784,0.07432 0.480076,0.189445 0.800662,0.25582 0.695097,0.14392 2.268773,-0.05348 3.176756,-0.398477 0.558198,-0.212101 1.875121,-0.981795 2.576347,-1.505778 0.525563,-0.392724 1.241623,-1.409542 1.452112,-2.062003 0.09941,-0.308165 0.239481,-0.656376 0.311251,-0.773807 0.369733,-0.604879 0.456586,-1.835201 0.279968,-3.965697 -0.06767,-0.816224 -0.155024,-1.211042 -0.35431,-1.601318 -0.145468,-0.284895 -0.375643,-0.74955 -0.511495,-1.032566 -0.415864,-0.866367 -2.418091,-2.31564 -3.222078,-2.332248 -0.133823,-0.0027 -0.56549,-0.07203 -0.959273,-0.153953 -0.756135,-0.157287 -1.859892,-0.07797 -2.316668,0.166491 -0.561566,0.300545 -1.278788,0.837795 -1.738034,1.301912 -0.408087,0.412424 -0.550908,0.66544 -0.773688,1.370662 -0.255739,0.809531 -0.267088,0.935477 -0.177397,1.968365 0.109625,1.262437 0.324805,1.846484 0.925166,2.511012 0.478843,0.530025 0.88674,0.75266 1.96743,1.073863 0.784803,0.233258 1.526765,0.248495 2.215303,0.04548 0.404339,-0.119212 0.266722,0.123208 -0.185776,0.327256 -0.639174,0.288228 -2.148959,0.178016 -3.145426,-0.229608 -0.996718,-0.407728 -1.864801,-1.212361 -2.326841,-2.156768 -0.332685,-0.680009 -0.346886,-0.761486 -0.346886,-1.990092 0,-1.22183 0.01523,-1.310666 0.329481,-1.921581 0.181205,-0.35229 0.440281,-0.856576 0.575708,-1.120637 0.135426,-0.264061 0.528459,-0.752015 0.87339,-1.084343 0.509156,-0.490524 0.782523,-0.657977 1.452627,-0.88981 1.844646,-0.63818 4.089749,-0.472695 5.469283,0.403128 1.261542,0.800913 2.367503,1.732664 2.788248,2.349052 0.772894,1.132289 1.331623,2.470888 1.412934,3.385115 0.03918,0.440362 0.114772,1.222226 0.168004,1.737476 0.09124,0.883275 0.07569,1.020559 -0.272116,2.401976 -0.543161,2.157369 -0.840269,2.730875 -1.895321,3.658442 -0.47702,0.419395 -1.046128,0.854392 -1.264675,0.966663 -0.21856,0.112271 -0.554832,0.339626 -0.747283,0.505233 -0.521816,0.449007 -1.512019,0.978641 -1.829666,0.978641 -0.1537,0 -0.580208,0.114613 -0.947807,0.254695 -0.726146,0.276728 -2.073998,0.60717 -2.391673,0.586352 -0.109039,-0.0071 -0.630602,-0.07155 -1.159032,-0.14313 z"
       id="path2243" />
  </g>
  <g
     style="opacity:0.5;display:inline"
     inkscape:groupmode="layer"
     inkscape:label="shine"
     id="g3737">
    <path
       id="path3739"
       d="m 28.460629,46.791296 c -1.258074,-0.170408 -2.641871,-0.508229 -3.256008,-0.794873 -1.419504,-0.662543 -2.777795,-1.603447 -3.261828,-2.259514 -0.126826,-0.171911 -0.44162,-0.478815 -0.69955,-0.682011 -1.025371,-0.807814 -1.62435,-1.658305 -2.846613,-4.041929 -0.138866,-0.270819 -0.572738,-2.463632 -0.732436,-3.701794 -0.126193,-0.978441 -0.11605,-2.933277 0.01987,-3.828043 0.168665,-1.110239 0.513184,-2.570375 0.680085,-2.882214 0.140453,-0.262457 0.489457,-1.392915 0.597937,-1.936858 0.04099,-0.205503 0.132927,-0.445701 0.204316,-0.533773 0.07138,-0.08807 0.218693,-0.472389 0.327362,-0.854036 0.108676,-0.381647 0.361986,-1.026529 0.562935,-1.433073 0.450043,-0.910514 0.661547,-1.588925 0.663062,-2.126772 6.47e-4,-0.225824 0.08009,-0.682097 0.17656,-1.01394 0.236216,-0.812542 0.145158,-3.100523 -0.157846,-3.966576 -0.23013,-0.657741 -0.792123,-1.762346 -1.38262,-2.717554 C 18.132384,12.039202 14.635324,9.604167 12.554196,9.2822772 11.756428,9.158887 9.1160135,9.2954283 7.9810185,9.518759 7.009307,9.709962 6.0940193,10.135215 5.6247904,10.613488 c -1.2035621,1.226738 -1.9069487,2.05548 -2.1840784,2.573294 -0.3997514,0.746959 -0.6476412,1.892746 -0.7156626,3.308009 -0.077284,1.608346 -0.010079,1.944561 0.7032102,3.517691 0.6019653,1.327594 2.2207878,2.668856 4.0017189,3.315579 0.8313011,0.301877 1.1478295,0.357873 2.3485964,0.415475 1.6559301,0.07943 2.3616981,-0.04061 3.1039401,-0.527916 0.28914,-0.189837 0.741905,-0.472122 1.006113,-0.627303 1.206031,-0.708319 1.835942,-2.044152 1.830812,-3.882553 -0.0031,-1.139509 -0.409264,-2.169106 -1.09745,-2.782502 -0.427933,-0.38143 -1.937748,-1.289871 -2.376472,-1.429902 -0.764353,-0.243962 -1.750411,-0.0892 -2.8026262,0.439834 -0.512229,0.257546 -1.022342,0.592892 -1.1335987,0.745214 -0.1112421,0.152324 -0.3632038,0.704778 -0.5598902,1.227677 -0.1966999,0.5229 -0.3970758,0.950728 -0.4452803,0.950728 -0.1912612,0 -0.1422179,-0.829296 0.086693,-1.466204 0.3274661,-0.91107 0.6563443,-1.385103 1.3049689,-1.880868 0.731201,-0.558895 1.4480995,-0.835239 2.4172235,-0.931776 1.260044,-0.125515 1.45739,-0.0902 2.547283,0.455729 1.267981,0.635134 1.651195,1.009762 2.277167,2.226136 0.747225,1.451984 0.838754,1.851563 0.673088,2.938401 -0.188278,1.235138 -0.611595,2.483221 -1.104359,3.255983 -0.449294,0.704593 -1.286917,1.346438 -2.791851,2.139315 -1.079353,0.568652 -1.447893,0.667928 -2.8823798,0.776424 -1.5698166,0.118735 -2.484959,0.0168 -3.6830215,-0.410245 C 5.6205044,24.771349 4.9632775,24.552914 4.6884414,24.474301 4.3221056,24.369502 3.8481721,24.044308 2.9124794,23.255656 1.3065637,21.90211 1.0485309,21.464468 0.73641212,19.564885 0.62064176,18.860304 0.51077995,17.938622 0.49227195,17.516701 0.47376291,17.09478 0.4286749,16.701101 0.39205458,16.641855 0.31546138,16.517935 0.49319772,14.371488 0.67156598,13.266369 0.8186054,12.355321 0.88586379,12.216794 1.9367109,10.660622 2.5603595,9.737101 2.9704155,9.258765 3.5532105,8.7749624 5.4376373,7.2106436 6.6687493,6.5620224 8.8087966,6.0060279 10.292605,5.6205263 10.296501,5.6201295 12.118184,5.6685251 c 1.92656,0.051183 2.952034,0.1715067 3.644556,0.4276359 4.683202,1.7320621 6.530524,3.2484714 8.929958,7.330338 0.767293,1.305303 1.499818,2.238403 2.82384,3.597028 0.974328,0.999797 1.286138,1.250543 1.90839,1.534678 1.002876,0.457939 2.176065,0.624692 4.427138,0.629253 2.143784,0.0043 2.955003,-0.157992 3.889565,-0.778349 0.297226,-0.197296 0.780008,-0.464671 1.072854,-0.594165 0.292845,-0.129497 0.629118,-0.322347 0.747278,-0.428556 0.118161,-0.106212 0.479051,-0.331838 0.801992,-0.501394 0.741573,-0.389363 1.607048,-1.256758 1.923105,-1.927365 0.380638,-0.807668 0.962938,-1.767031 1.285711,-2.11828 0.220031,-0.239432 0.321427,-0.498644 0.40172,-1.027025 0.05908,-0.388717 0.208184,-0.904289 0.331352,-1.145712 C 44.615155,10.05992 44.719842,8.7780672 44.495335,8.3439098 44.403863,8.1670346 44.260166,7.6576647 44.176021,7.2119797 43.877283,5.6298407 42.312106,3.7845642 40.515887,2.8968193 39.864407,2.5748413 39.588116,2.5062896 38.570363,2.4140969 36.455217,2.2224998 34.906827,2.5489056 33.687169,3.4434925 c -1.15261,0.8454071 -1.650256,1.2624512 -1.650256,1.3829602 0,0.1262402 -0.531076,0.7465959 -0.70027,0.8179814 -0.234378,0.098899 -0.68754,0.8519723 -0.68754,1.1425921 0,0.1725977 -0.09393,0.5261306 -0.20871,0.7856283 -0.43771,0.9895269 -0.36097,1.7909988 0.330553,3.4518675 0.3934,0.94485 0.513905,1.165427 0.903983,1.654694 0.522961,0.655928 1.072751,0.959913 2.04661,1.131586 1.133202,0.199758 1.700575,0.185342 2.417841,-0.06144 1.418166,-0.487919 2.405462,-1.320186 2.915823,-2.457961 0.2296,-0.511866 0.257872,-0.70382 0.220473,-1.497097 C 39.23807,8.9969321 39.187655,8.8054291 38.868044,8.2463658 38.667432,7.8954713 38.316857,7.405892 38.088961,7.1584127 37.861065,6.9109332 37.691296,6.6583738 37.711702,6.5971674 c 0.05918,-0.1775667 1.13285,0.6053984 1.471797,1.0733091 0.519828,0.7176047 0.686854,1.4382993 0.610665,2.6351835 -0.08362,1.314007 -0.442293,2.082107 -1.45674,3.119676 -0.782684,0.800521 -1.569001,1.185477 -2.881041,1.41047 -1.067887,0.183119 -2.423825,-0.06626 -3.28,-0.603264 -1.037925,-0.650992 -1.684581,-1.318243 -2.2743,-2.346704 -0.484458,-0.844915 -0.575518,-1.106312 -0.799561,-2.29527 -0.266912,-1.4164819 -0.266384,-2.5725615 0.0013,-2.8896066 0.07437,-0.088069 0.191761,-0.4368396 0.260871,-0.7750377 0.06911,-0.3381993 0.233512,-0.7465349 0.365351,-0.9074136 0.131838,-0.1608788 0.393857,-0.616466 0.58228,-1.0124171 0.277174,-0.5824908 0.423523,-0.7612118 0.766675,-0.9362714 0.233247,-0.1189999 0.424096,-0.2642024 0.424096,-0.3226744 0,-0.058472 0.164402,-0.1847052 0.365323,-0.2805219 0.200934,-0.095817 0.388769,-0.2638565 0.417421,-0.3734257 0.03073,-0.1175666 0.307605,-0.3112731 0.67553,-0.4726336 0.342901,-0.1503807 0.8849,-0.3959103 1.204472,-0.5456208 0.319557,-0.1497105 1.208295,-0.4273263 1.974956,-0.61692372 1.325361,-0.32776689 1.45695,-0.34098008 2.674977,-0.26863593 1.223173,0.0726478 1.309468,0.0934996 1.909639,0.46142115 0.345709,0.2119353 0.802094,0.4415218 1.014167,0.5101942 0.212073,0.068674 0.761174,0.394477 1.220238,0.7240095 0.459053,0.3295302 0.995244,0.6962843 1.191537,0.8150073 0.196282,0.1187208 0.673716,0.5405873 1.060965,0.9374799 0.803688,0.8237113 1.646961,2.3595629 1.92444,3.5049245 0.09052,0.3737026 0.260453,1.0157376 0.377608,1.4267438 0.182242,0.6394349 0.203708,0.9398631 0.148635,2.0817121 -0.17148,3.556336 -1.380901,6.293545 -3.723009,8.426206 -0.293563,0.267318 -0.882578,0.832733 -1.308906,1.256475 -0.862705,0.857466 -1.892064,1.565714 -3.174779,2.184421 -0.469723,0.226562 -1.12095,0.552013 -1.447197,0.723222 -0.9971,0.523279 -2.522071,0.753992 -4.98375,0.753992 -2.407786,0 -2.675124,0.0365 -5.439204,0.742587 -0.988794,0.252591 -1.313526,0.389982 -1.884206,0.797217 -0.965111,0.688687 -2.078628,2.123295 -2.947887,3.797922 -0.137147,0.264216 -0.33523,0.576474 -0.440181,0.693904 -0.347871,0.389265 -0.616768,1.187568 -0.635409,1.886462 -0.0459,1.721336 0.02486,4.774568 0.119593,5.159336 0.146907,0.596655 0.420554,1.224265 0.698198,1.601316 0.360029,0.488914 0.961773,1.588314 1.102138,2.013625 0.07537,0.228314 0.32851,0.550068 0.634118,0.805936 0.279775,0.234243 0.646418,0.624651 0.814761,0.867569 0.365881,0.527958 1.688918,1.245297 2.48154,1.34547 0.277615,0.03509 0.60276,0.124603 0.722544,0.198927 0.119784,0.07432 0.480076,0.189445 0.800662,0.25582 0.695097,0.14392 2.268773,-0.05348 3.176756,-0.398477 0.558198,-0.212101 1.875121,-0.981795 2.576347,-1.505778 0.525563,-0.392724 1.241623,-1.409542 1.452112,-2.062003 0.09941,-0.308165 0.239481,-0.656376 0.311251,-0.773807 0.369733,-0.604879 0.456586,-1.835201 0.279968,-3.965697 -0.06767,-0.816224 -0.155024,-1.211042 -0.35431,-1.601318 -0.145468,-0.284895 -0.375643,-0.74955 -0.511495,-1.032566 -0.415864,-0.866367 -2.418091,-2.31564 -3.222078,-2.332248 -0.133823,-0.0027 -0.56549,-0.07203 -0.959273,-0.153953 -0.756135,-0.157287 -1.859892,-0.07797 -2.316668,0.166491 -0.561566,0.300545 -1.278788,0.837795 -1.738034,1.301912 -0.408087,0.412424 -0.550908,0.66544 -0.773688,1.370662 -0.255739,0.809531 -0.267088,0.935477 -0.177397,1.968365 0.109625,1.262437 0.324805,1.846484 0.925166,2.511012 0.478843,0.530025 0.88674,0.75266 1.96743,1.073863 0.784803,0.233258 1.526765,0.248495 2.215303,0.04548 0.404339,-0.119212 0.266722,0.123208 -0.185776,0.327256 -0.639174,0.288228 -2.148959,0.178016 -3.145426,-0.229608 -0.996718,-0.407728 -1.864801,-1.212361 -2.326841,-2.156768 -0.332685,-0.680009 -0.346886,-0.761486 -0.346886,-1.990092 0,-1.22183 0.01523,-1.310666 0.329481,-1.921581 0.181205,-0.35229 0.440281,-0.856576 0.575708,-1.120637 0.135426,-0.264061 0.528459,-0.752015 0.87339,-1.084343 0.509156,-0.490524 0.782523,-0.657977 1.452627,-0.88981 1.844646,-0.63818 4.089749,-0.472695 5.469283,0.403128 1.261542,0.800913 2.367503,1.732664 2.788248,2.349052 0.772894,1.132289 1.331623,2.470888 1.412934,3.385115 0.03918,0.440362 0.114772,1.222226 0.168004,1.737476 0.09124,0.883275 0.07569,1.020559 -0.272116,2.401976 -0.543161,2.157369 -0.840269,2.730875 -1.895321,3.658442 -0.47702,0.419395 -1.046128,0.854392 -1.264675,0.966663 -0.21856,0.112271 -0.554832,0.339626 -0.747283,0.505233 -0.521816,0.449007 -1.512019,0.978641 -1.829666,0.978641 -0.1537,0 -0.580208,0.114613 -0.947807,0.254695 -0.726146,0.276728 -2.073998,0.60717 -2.391673,0.586352 -0.109039,-0.0071 -0.630602,-0.07155 -1.159032,-0.14313 z"
       style="color:#000000;fill:url(#radialGradient3749);fill-opacity:1;fill-rule:nonzero;stroke:none;stroke-width:1.00000024000000010;marker:none;visibility:visible;display:inline;overflow:visible;enable-background:accumulate" />
  </g>
  <g
     inkscape:groupmode="layer"
     id="layer2"
     inkscape:label="int border"
     style="display:inline">
    <path
       style="color:#000000;fill:#000000;fill-opacity:0;stroke:url(#linearGradient3781);stroke-width:1;stroke-linejoin:round;stroke-miterlimit:4;stroke-opacity:1;stroke-dasharray:none;marker:none;visibility:visible;display:inline;overflow:visible;enable-background:accumulate"
       d="m 28.413035,46.283636 c -1.258074,-0.170408 -2.435633,-0.4765 -3.049769,-0.763146 -1.419505,-0.662542 -2.53983,-1.413073 -3.023863,-2.06914 -0.126826,-0.171911 -0.441621,-0.478816 -0.699551,-0.682011 -1.02537,-0.807814 -1.624349,-1.658305 -2.846612,-4.041929 -0.138866,-0.270819 -0.477552,-2.13048 -0.637249,-3.368641 -0.126194,-0.978442 -0.116051,-2.933278 0.01987,-3.828044 0.168664,-1.110238 0.513183,-2.570374 0.680085,-2.882214 0.140453,-0.262457 0.473592,-1.313592 0.582073,-1.857536 0.04099,-0.205503 0.14879,-0.509158 0.220179,-0.59723 0.07138,-0.08807 0.218693,-0.472389 0.327363,-0.854037 0.108676,-0.381647 0.361985,-1.026528 0.562934,-1.433072 0.450044,-0.910515 0.661547,-1.588925 0.663062,-2.126773 6.47e-4,-0.225823 0.08009,-0.682097 0.176559,-1.01394 0.236218,-0.812541 0.06583,-3.481267 -0.237166,-4.347321 -0.230131,-0.657741 -0.807188,-1.705603 -1.382621,-2.66996 C 18.560097,11.723793 14.594822,9.0217043 12.459009,8.7904806 11.687008,8.706903 9.0249271,8.7995317 7.8858321,9.0269617 6.9146565,9.2208686 5.8084601,9.691011 5.3392313,10.169286 4.1356692,11.396023 3.2577742,12.46273 2.9806446,12.980545 c -0.3997514,0.746958 -0.67937,2.083119 -0.7473915,3.498382 -0.077284,1.608346 0.037511,2.214257 0.7508034,3.787386 0.6019653,1.327593 2.4587538,2.875092 4.2396848,3.521815 0.8313012,0.301878 1.4016598,0.405467 2.6024267,0.463068 1.65593,0.07943 2.599664,-0.151653 3.341906,-0.638966 0.289141,-0.189837 0.837091,-0.551444 1.101299,-0.706625 1.206031,-0.70832 1.820078,-2.409033 1.814947,-4.247434 -0.0031,-1.139509 -0.631364,-2.597445 -1.31955,-3.210841 -0.427934,-0.38143 -2.048799,-1.162955 -2.487523,-1.302986 -0.764353,-0.243962 -1.909055,-0.0892 -2.9612704,0.439834 -0.512229,0.257544 -0.9747487,0.73567 -1.0860055,0.887992 -0.1112421,0.152325 -0.4583902,0.704779 -0.6550765,1.227678 -0.1966999,0.5229 -0.1432454,0.458931 -0.270772,1.156965 0.1101623,-0.698034 0.1116124,-0.718246 0.3405226,-1.355154 0.3274661,-0.911069 0.6087511,-1.19473 1.2573757,-1.690495 0.7312003,-0.558895 1.3053201,-0.708323 2.2744441,-0.80486 1.260043,-0.125515 1.251153,-0.04261 2.341046,0.503322 1.267981,0.635133 1.476685,0.755932 2.102658,1.972306 0.747226,1.451983 0.664245,1.613597 0.498579,2.700435 -0.188277,1.235138 -0.548136,2.245255 -1.040901,3.018016 -0.449294,0.704594 -1.017222,1.108473 -2.522156,1.90135 -1.079353,0.568652 -1.305113,0.652063 -2.7396007,0.760559 -1.5698155,0.118735 -2.3104495,0.06439 -3.508512,-0.362651 C 5.7791484,24.311282 5.1219215,24.092847 4.8470854,24.014233 4.4807496,23.909435 4.0511988,23.53725 3.1028521,22.76386 1.7349024,21.648278 1.5561916,21.385146 1.2440728,19.485563 1.1283024,18.780982 1.0184406,17.8593 0.99993261,17.437379 0.98142346,17.015458 0.93633556,16.621779 0.89971523,16.562533 0.82312203,16.438613 1.0008584,14.403217 1.1792266,13.298098 1.3262661,12.38705 1.3459313,12.45476 2.3967783,10.898589 3.020427,9.975066 3.351161,9.591917 3.933956,9.1081146 5.8183827,7.5437964 6.7798001,7.053819 8.9198473,6.4978245 10.403656,6.1123228 10.296501,6.1277906 12.118184,6.1761861 c 1.92656,0.051184 2.872712,0.1556424 3.565234,0.4117716 4.683202,1.7320621 6.324286,3.2008783 8.723721,7.2827453 0.767292,1.305301 1.436359,2.174945 2.760382,3.53357 0.974327,0.999797 1.518734,1.370407 2.140986,1.654542 1.002876,0.457939 2.245918,0.624692 4.49699,0.629253 2.143784,0.0043 3.199487,-0.192918 4.134049,-0.813276 0.297226,-0.197295 0.780008,-0.46467 1.072854,-0.594165 0.292845,-0.129496 0.86196,-0.473693 0.980121,-0.579903 0.11816,-0.106211 0.37427,-0.250343 0.697213,-0.419898 0.741572,-0.389364 1.700185,-1.384823 2.016241,-2.055429 0.380639,-0.807667 1.03279,-1.836883 1.355564,-2.188133 0.22003,-0.239431 0.321427,-0.626706 0.401719,-1.155089 0.05908,-0.388717 0.231469,-0.881002 0.354637,-1.122427 C 45.127407,10.153056 45.197168,8.5801521 44.97266,8.1459947 44.881189,7.9691196 44.737493,7.5179601 44.653346,7.072275 44.354608,5.490136 42.638085,3.3887335 40.841865,2.5009887 c -0.65148,-0.321978 -1.125687,-0.4836662 -2.14344,-0.5758589 -2.115146,-0.1915973 -3.931303,0.099882 -5.150963,0.9944691 -1.152608,0.845407 -1.952949,1.495293 -1.952949,1.615802 0,0.1262402 -0.39137,0.630175 -0.560564,0.7015606 -0.234379,0.098899 -0.885456,1.0964561 -0.885456,1.3870759 0,0.1725977 -0.08228,0.5261306 -0.197068,0.7856283 -0.43771,0.9895269 -0.395895,1.9656284 0.295628,3.6264973 0.3934,0.944851 0.583757,1.386627 0.973835,1.875896 0.522962,0.655926 1.165887,1.146185 2.139746,1.317859 1.133202,0.199758 1.945059,0.359973 3.034871,-0.03816 1.408698,-0.514622 2.358894,-1.634524 2.869255,-2.772298 0.229601,-0.511866 0.339367,-0.913378 0.301967,-1.706654 C 39.52912,8.9154387 39.432142,8.6773675 39.112528,8.1183043 38.911917,7.7674087 38.503131,7.3127557 38.275234,7.0652764 38.04734,6.8177968 37.865928,6.7165846 37.711702,6.5971678 c 0.257099,0.1600537 0.865083,0.7451035 1.204029,1.2130143 0.519828,0.7176046 0.710138,1.2753098 0.633949,2.4721929 -0.08362,1.314007 -0.59364,1.988971 -1.608087,3.02654 -0.782685,0.800521 -1.941549,1.045773 -2.601631,1.142701 -1.071978,0.157412 -2.260835,-0.101181 -3.117011,-0.638189 -1.037924,-0.650993 -1.300393,-1.143613 -1.890111,-2.172073 -0.484458,-0.844915 -0.505664,-0.87347 -0.729709,-2.062428 -0.266911,-1.4164816 -0.278025,-2.4212141 -0.01028,-2.7382592 0.07437,-0.088069 0.203403,-0.5299763 0.272514,-0.8681743 0.06911,-0.3381993 0.186943,-0.5719036 0.318782,-0.7327823 0.131839,-0.1608788 0.417141,-0.6863186 0.605565,-1.0822697 0.277173,-0.5824908 0.272175,-0.5167279 0.615326,-0.6917874 0.233248,-0.119 0.505593,-0.3340551 0.505593,-0.392527 0,-0.058472 0.164403,-0.1847052 0.365323,-0.2805219 0.200935,-0.095817 0.388769,-0.2638567 0.417421,-0.3734258 0.03073,-0.1175666 0.10969,-0.1715681 0.477614,-0.3329285 0.342902,-0.1503808 1.012964,-0.4657628 1.332536,-0.6154732 0.319557,-0.1497105 1.022021,-0.3341896 1.788683,-0.5237872 1.32536,-0.3277668 1.340528,-0.329338 2.558557,-0.2569937 1.223172,0.072648 1.076625,0.070216 1.676796,0.4381369 0.345709,0.2119352 0.825379,0.4298797 1.037451,0.4985522 0.212074,0.068674 0.574901,0.2896983 1.033964,0.6192307 0.459053,0.3295302 1.146592,0.801063 1.342885,0.9197861 0.196282,0.1187208 0.568936,0.4590926 0.956187,0.8559852 0.803687,0.8237113 1.483972,2.103437 1.76145,3.2487986 0.09052,0.3737026 0.248811,0.9924535 0.365966,1.4034595 0.182243,0.639435 0.180424,0.800158 0.12535,1.942008 -0.17148,3.556334 -1.322689,6.095627 -3.664798,8.22829 -0.293563,0.267318 -0.777799,0.693028 -1.204126,1.11677 -0.862706,0.857465 -1.787287,1.49586 -3.070002,2.114567 -0.469722,0.226562 -1.132592,0.563656 -1.458838,0.734865 -0.9971,0.523279 -2.28923,0.684139 -4.750908,0.684139 -2.407786,0 -2.721692,0.04815 -5.485772,0.75423 -0.988794,0.252591 -1.529233,0.466474 -2.099914,0.87371 -0.96511,0.688687 -2.189678,2.234346 -3.058938,3.908972 -0.137147,0.264217 -0.335229,0.576474 -0.44018,0.693904 -0.347871,0.389265 -0.743683,1.457263 -0.762325,2.156158 -0.0459,1.721335 0.05658,4.980804 0.151323,5.365572 0.146906,0.596655 0.48401,1.303588 0.761655,1.680639 0.360029,0.488913 1.025231,1.667635 1.165596,2.092946 0.07537,0.228315 0.32851,0.550068 0.634116,0.805936 0.279777,0.234244 0.64642,0.624651 0.814763,0.867569 0.365879,0.527958 1.958612,1.419806 2.751235,1.519978 0.277614,0.03509 0.602759,0.124604 0.722543,0.198927 0.119784,0.07432 0.480076,0.189446 0.800663,0.255821 0.695096,0.143919 2.554331,-0.101067 3.462314,-0.446071 0.558198,-0.212101 1.875122,-0.981794 2.576347,-1.505778 0.525564,-0.392723 1.527182,-1.695101 1.737672,-2.34756 0.09941,-0.308166 0.239481,-0.656377 0.311251,-0.773809 0.369732,-0.604879 0.456585,-2.073167 0.279967,-4.203662 -0.06765,-0.816224 -0.155023,-1.290364 -0.35431,-1.68064 -0.145467,-0.284896 -0.423236,-0.89233 -0.559088,-1.175346 -0.415863,-0.866366 -2.735378,-2.521878 -3.539365,-2.538485 -0.133824,-0.0027 -0.660677,-0.05616 -1.05446,-0.138089 -0.756135,-0.157287 -1.705837,0.124258 -2.475312,0.372729 -0.927698,0.299562 -1.247059,0.806066 -1.706305,1.270182 -0.408087,0.412424 -0.709552,0.839948 -0.932332,1.545171 -0.255739,0.809531 -0.409868,1.109985 -0.320176,2.142873 0.109625,1.262437 0.451719,1.957535 1.052081,2.622063 0.478843,0.530025 1.092977,0.784389 2.173667,1.105593 0.784802,0.233257 1.653679,0.08986 2.342218,-0.113158 -1.34912,0.470038 -2.204392,0.153069 -3.315338,-0.187911 -0.996718,-0.407729 -1.436463,-0.974395 -1.898502,-1.918803 -0.332685,-0.680008 -0.346887,-0.761485 -0.346887,-1.990092 0,-1.221829 -0.06408,-0.993378 0.250159,-1.604292 0.181207,-0.352291 0.440282,-0.856577 0.575709,-1.120638 0.135426,-0.264059 0.49673,-0.688557 0.841661,-1.020885 0.509156,-0.490524 0.465235,-0.499332 1.135339,-0.731165 1.844646,-0.63818 3.788325,-0.567883 5.16786,0.30794 1.261542,0.800913 2.129537,1.4947 2.550282,2.111087 0.772894,1.132289 1.299894,2.217057 1.381205,3.131284 0.03918,0.440363 0.146501,1.142905 0.199733,1.658155 0.09124,0.883274 0.07569,1.020559 -0.272116,2.401976 -0.543162,2.157369 -0.491253,2.35013 -1.546304,3.277697 -0.47702,0.419394 -1.046129,0.854391 -1.264675,0.966662 -0.21856,0.112272 -0.554832,0.339626 -0.747284,0.505232 -0.521815,0.449007 -1.432697,0.994506 -1.750344,0.994506 -0.1537,0 -0.580207,0.114614 -0.947807,0.254696 -0.726145,0.276728 -2.073997,0.607169 -2.391672,0.586352 -0.109039,-0.0071 -0.630602,-0.07155 -1.159032,-0.143131 l 1.7e-5,7e-6 z"
       id="path2243-8"
       sodipodi:nodetypes="cssssssssssssssssssssssssssssssscsssssssssssssssssssssssssssssssssssssssssssssssssscssssssssssssssssssssssssssssssssssssssssssssssssssssssssssssccssssssssssssssssscc" />
  </g>
  <g
     style="display:inline"
     inkscape:label="int border small"
     id="g2876"
     inkscape:groupmode="layer">
    <path
       sodipodi:nodetypes="cssssssssssssssccssssssssssssssscc"
       id="path2878"
       d="m 32.419225,44.222875 c 0.558198,-0.212101 1.875122,-0.981794 2.576347,-1.505778 0.525564,-0.392723 1.527182,-1.695101 1.737672,-2.34756 0.09941,-0.308166 0.239481,-0.656377 0.311251,-0.773809 0.369732,-0.604879 0.456585,-2.073167 0.279967,-4.203662 -0.06765,-0.816224 -0.155023,-1.290364 -0.35431,-1.68064 -0.145467,-0.284896 -0.423236,-0.89233 -0.559088,-1.175346 -0.415863,-0.866366 -2.735378,-2.521878 -3.539365,-2.538485 -0.133824,-0.0027 -0.660677,-0.05616 -1.05446,-0.138089 -0.756135,-0.157287 -1.705837,0.124258 -2.475312,0.372729 -0.927698,0.299562 -1.247059,0.806066 -1.706305,1.270182 -0.408087,0.412424 -0.709552,0.839948 -0.932332,1.545171 -0.255739,0.809531 -0.409868,1.109985 -0.320176,2.142873 0.109625,1.262437 0.451719,1.957535 1.052081,2.622063 0.478843,0.530025 1.092977,0.784389 2.173667,1.105593 0.784802,0.233257 1.653679,0.08986 2.342218,-0.113158 -1.34912,0.470038 -2.204392,0.153069 -3.315338,-0.187911 -0.996718,-0.407729 -1.436463,-0.974395 -1.898502,-1.918803 -0.332685,-0.680008 -0.346887,-0.761485 -0.346887,-1.990092 0,-1.221829 -0.06408,-0.993378 0.250159,-1.604292 0.181207,-0.352291 0.440282,-0.856577 0.575709,-1.120638 0.135426,-0.264059 0.49673,-0.688557 0.841661,-1.020885 0.509156,-0.490524 0.465235,-0.499332 1.135339,-0.731165 1.844646,-0.63818 3.788325,-0.567883 5.16786,0.30794 1.261542,0.800913 2.129537,1.4947 2.550282,2.111087 0.772894,1.132289 1.299894,2.217057 1.381205,3.131284 0.03918,0.440363 0.146501,1.142905 0.199733,1.658155 0.09124,0.883274 0.07569,1.020559 -0.272116,2.401976 -0.543162,2.157369 -0.491253,2.35013 -1.546304,3.277697 -0.47702,0.419394 -1.046129,0.854391 -1.264675,0.966662 -0.21856,0.112272 -0.554832,0.339626 -0.747284,0.505232 -0.521815,0.449007 -1.432697,0.994506 -1.750344,0.994506 -0.1537,0 -0.580207,0.114614 -0.947807,0.254696 -0.932009,0.229278 -0.39302,-1.170455 0.455454,-1.617533 z"
       style="color:#000000;fill:none;stroke:url(#linearGradient2880);stroke-width:1;stroke-linejoin:round;stroke-miterlimit:4;stroke-opacity:1;stroke-dasharray:none;marker:none;visibility:visible;display:inline;overflow:visible;enable-background:accumulate" />
  </g>
</svg>
