<?xml version="1.0" encoding="UTF-8" standalone="no"?>
<!-- Created with Inkscape (http://www.inkscape.org/) -->

<svg
   xmlns:dc="http://purl.org/dc/elements/1.1/"
   xmlns:cc="http://creativecommons.org/ns#"
   xmlns:rdf="http://www.w3.org/1999/02/22-rdf-syntax-ns#"
   xmlns:svg="http://www.w3.org/2000/svg"
   xmlns="http://www.w3.org/2000/svg"
   xmlns:xlink="http://www.w3.org/1999/xlink"
   xmlns:sodipodi="http://sodipodi.sourceforge.net/DTD/sodipodi-0.dtd"
   xmlns:inkscape="http://www.inkscape.org/namespaces/inkscape"
   width="24"
   height="24"
   id="svg1328"
   sodipodi:version="0.32"
   inkscape:version="0.47 r22583"
   sodipodi:docname="trisquel24.svg"
   inkscape:output_extension="org.inkscape.output.svg.inkscape"
   version="1.1"
   style="display:inline"
   inkscape:export-filename="/home/ru/Escritorio/trisquel24.png"
   inkscape:export-xdpi="90"
   inkscape:export-ydpi="90">
  <sodipodi:namedview
     inkscape:cy="16.073733"
     inkscape:cx="-30.23983"
     inkscape:zoom="11.313709"
     inkscape:window-height="852"
     inkscape:window-width="1405"
     inkscape:pageshadow="2"
     inkscape:pageopacity="0.0"
     guidetolerance="10.0"
     gridtolerance="10.0"
     objecttolerance="10.0"
     borderopacity="0.31764706"
     bordercolor="#666"
     pagecolor="#ffffff"
     id="base"
     inkscape:showpageshadow="false"
     showgrid="false"
     inkscape:window-x="0"
     inkscape:window-y="0"
     inkscape:current-layer="layer1"
     showguides="true"
     inkscape:guide-bbox="true"
     inkscape:window-maximized="0"
     showborder="true" />
  <defs
     id="defs1330">
    <linearGradient
       id="linearGradient3654">
      <stop
         id="stop3656"
         offset="0"
         style="stop-color:#ffffff;stop-opacity:0;" />
      <stop
         style="stop-color:#ffffff;stop-opacity:1;"
         offset="0.02531646"
         id="stop3660" />
      <stop
         id="stop3658"
         offset="1"
         style="stop-color:#386ea6;stop-opacity:0;" />
    </linearGradient>
    <linearGradient
       id="linearGradient3860">
      <stop
         style="stop-color:#001355;stop-opacity:1;"
         offset="0"
         id="stop3862" />
      <stop
         style="stop-color:#002455;stop-opacity:0;"
         offset="1"
         id="stop3864" />
    </linearGradient>
    <linearGradient
       inkscape:collect="always"
       id="linearGradient3741">
      <stop
         style="stop-color:#ffffff;stop-opacity:1;"
         offset="0"
         id="stop3743" />
      <stop
         style="stop-color:#ffffff;stop-opacity:0;"
         offset="1"
         id="stop3745" />
    </linearGradient>
    <inkscape:perspective
       sodipodi:type="inkscape:persp3d"
       inkscape:vp_x="0 : 24 : 1"
       inkscape:vp_y="0 : 1000 : 0"
       inkscape:vp_z="48 : 24 : 1"
       inkscape:persp3d-origin="24 : 16 : 1"
       id="perspective58" />
    <linearGradient
       inkscape:collect="always"
       id="linearGradient8112">
      <stop
         style="stop-color:#ffffff;stop-opacity:1;"
         offset="0"
         id="stop8114" />
      <stop
         style="stop-color:#ffffff;stop-opacity:0;"
         offset="1"
         id="stop8116" />
    </linearGradient>
    <linearGradient
       id="linearGradient7108">
      <stop
         style="stop-color:#000000;stop-opacity:1;"
         offset="0"
         id="stop7110" />
      <stop
         style="stop-color:#ffffff;stop-opacity:1;"
         offset="1"
         id="stop7112" />
    </linearGradient>
    <linearGradient
       id="linearGradient7100">
      <stop
         style="stop-color:#000000;stop-opacity:1;"
         offset="0"
         id="stop7102" />
      <stop
         style="stop-color:#ffffff;stop-opacity:1;"
         offset="1"
         id="stop7104" />
    </linearGradient>
    <linearGradient
       id="linearGradient2804">
      <stop
         style="stop-color:black;stop-opacity:0;"
         offset="0"
         id="stop2806" />
      <stop
         id="stop2812"
         offset="0.5"
         style="stop-color:black;stop-opacity:1;" />
      <stop
         style="stop-color:black;stop-opacity:0;"
         offset="1"
         id="stop2808" />
    </linearGradient>
    <linearGradient
       inkscape:collect="always"
       id="linearGradient2781">
      <stop
         style="stop-color:black;stop-opacity:1;"
         offset="0"
         id="stop2783" />
      <stop
         style="stop-color:black;stop-opacity:0;"
         offset="1"
         id="stop2785" />
    </linearGradient>
    <linearGradient
       inkscape:collect="always"
       id="linearGradient2782">
      <stop
         style="stop-color:white;stop-opacity:1;"
         offset="0"
         id="stop2784" />
      <stop
         style="stop-color:white;stop-opacity:0;"
         offset="1"
         id="stop2786" />
    </linearGradient>
    <linearGradient
       id="linearGradient5106">
      <stop
         style="stop-color:#ffffff;stop-opacity:1;"
         offset="0"
         id="stop5108" />
      <stop
         style="stop-color:#386ea6;stop-opacity:1;"
         offset="1"
         id="stop5110" />
    </linearGradient>
    <linearGradient
       inkscape:collect="always"
       xlink:href="#linearGradient5106"
       id="linearGradient2780"
       gradientUnits="userSpaceOnUse"
       gradientTransform="matrix(3.137165,0,0,3.184122,-1.606682,-4.861064)"
       x1="8.1771841"
       y1="5.7791729"
       x2="8.1771841"
       y2="15.676654" />
    <linearGradient
       inkscape:collect="always"
       xlink:href="#linearGradient2782"
       id="linearGradient2788"
       x1="26.0625"
       y1="23.265625"
       x2="29.03125"
       y2="55.265625"
       gradientUnits="userSpaceOnUse" />
    <radialGradient
       inkscape:collect="always"
       xlink:href="#linearGradient2781"
       id="radialGradient2827"
       gradientUnits="userSpaceOnUse"
       gradientTransform="matrix(2,0,0,0.8,-13,-79.2)"
       cx="1"
       cy="44"
       fx="1"
       fy="44"
       r="5" />
    <radialGradient
       inkscape:collect="always"
       xlink:href="#linearGradient2781"
       id="radialGradient2829"
       gradientUnits="userSpaceOnUse"
       gradientTransform="matrix(2,0,0,0.8,36,8.8)"
       cx="1"
       cy="44"
       fx="1"
       fy="44"
       r="5" />
    <linearGradient
       inkscape:collect="always"
       xlink:href="#linearGradient2804"
       id="linearGradient2831"
       gradientUnits="userSpaceOnUse"
       x1="21.875"
       y1="48.000977"
       x2="21.875"
       y2="40" />
    <linearGradient
       inkscape:collect="always"
       xlink:href="#linearGradient5106"
       id="linearGradient8141"
       gradientUnits="userSpaceOnUse"
       gradientTransform="matrix(3.3087682,0,0,3.3582938,-5.969971,-6.3358833)"
       x1="8.1771841"
       y1="5.7791729"
       x2="8.1771841"
       y2="15.676654" />
    <linearGradient
       inkscape:collect="always"
       xlink:href="#linearGradient2782"
       id="linearGradient15953"
       x1="77.297218"
       y1="16.647184"
       x2="77.480881"
       y2="52.45615"
       gradientUnits="userSpaceOnUse"
       gradientTransform="translate(-0.8601477,-1.863416)" />
    <radialGradient
       inkscape:collect="always"
       xlink:href="#linearGradient2781"
       id="radialGradient19858"
       cx="73.570084"
       cy="23.145077"
       fx="73.570084"
       fy="23.145077"
       r="20.928947"
       gradientTransform="matrix(1,0,0,0.9887118,-0.4220719,11.235137)"
       gradientUnits="userSpaceOnUse" />
    <radialGradient
       inkscape:collect="always"
       xlink:href="#linearGradient2781"
       id="radialGradient19868"
       gradientUnits="userSpaceOnUse"
       gradientTransform="matrix(2,0,0,0.8,-25.240086,-80.929141)"
       cx="1"
       cy="44"
       fx="1"
       fy="44"
       r="5" />
    <radialGradient
       inkscape:collect="always"
       xlink:href="#linearGradient2781"
       id="radialGradient19870"
       gradientUnits="userSpaceOnUse"
       gradientTransform="matrix(2,0,0,0.8,21.227482,10.529141)"
       cx="1"
       cy="44"
       fx="1"
       fy="44"
       r="5" />
    <linearGradient
       inkscape:collect="always"
       xlink:href="#linearGradient2804"
       id="linearGradient19872"
       gradientUnits="userSpaceOnUse"
       x1="21.875"
       y1="48.000977"
       x2="21.875"
       y2="40"
       gradientTransform="matrix(1,0,0,0.1481438,0,40.8891)" />
    <radialGradient
       inkscape:collect="always"
       xlink:href="#linearGradient2781"
       id="radialGradient19882"
       gradientUnits="userSpaceOnUse"
       gradientTransform="matrix(2,0,0,0.8,-13,-79.2)"
       cx="1"
       cy="44"
       fx="1"
       fy="44"
       r="5" />
    <radialGradient
       inkscape:collect="always"
       xlink:href="#linearGradient2781"
       id="radialGradient19884"
       gradientUnits="userSpaceOnUse"
       gradientTransform="matrix(2,0,0,0.8,36,8.8)"
       cx="1"
       cy="44"
       fx="1"
       fy="44"
       r="5" />
    <linearGradient
       inkscape:collect="always"
       xlink:href="#linearGradient2804"
       id="linearGradient19886"
       gradientUnits="userSpaceOnUse"
       x1="21.875"
       y1="48.000977"
       x2="21.875"
       y2="40" />
    <linearGradient
       inkscape:collect="always"
       xlink:href="#linearGradient8112"
       id="linearGradient8118"
       x1="33.111675"
       y1="43.542542"
       x2="25.368185"
       y2="2.4395995"
       gradientUnits="userSpaceOnUse" />
    <linearGradient
       inkscape:collect="always"
       xlink:href="#linearGradient8112"
       id="linearGradient8126"
       x1="29.854376"
       y1="50.395214"
       x2="21.795116"
       y2="15.465387"
       gradientUnits="userSpaceOnUse" />
    <inkscape:perspective
       id="perspective3642"
       inkscape:persp3d-origin="0.5 : 0.33333333 : 1"
       inkscape:vp_z="1 : 0.5 : 1"
       inkscape:vp_y="0 : 1000 : 0"
       inkscape:vp_x="0 : 0.5 : 1"
       sodipodi:type="inkscape:persp3d" />
    <inkscape:perspective
       id="perspective3664"
       inkscape:persp3d-origin="0.5 : 0.33333333 : 1"
       inkscape:vp_z="1 : 0.5 : 1"
       inkscape:vp_y="0 : 1000 : 0"
       inkscape:vp_x="0 : 0.5 : 1"
       sodipodi:type="inkscape:persp3d" />
    <inkscape:perspective
       id="perspective3687"
       inkscape:persp3d-origin="0.5 : 0.33333333 : 1"
       inkscape:vp_z="1 : 0.5 : 1"
       inkscape:vp_y="0 : 1000 : 0"
       inkscape:vp_x="0 : 0.5 : 1"
       sodipodi:type="inkscape:persp3d" />
    <inkscape:perspective
       id="perspective3709"
       inkscape:persp3d-origin="0.5 : 0.33333333 : 1"
       inkscape:vp_z="1 : 0.5 : 1"
       inkscape:vp_y="0 : 1000 : 0"
       inkscape:vp_x="0 : 0.5 : 1"
       sodipodi:type="inkscape:persp3d" />
    <radialGradient
       inkscape:collect="always"
       xlink:href="#linearGradient3741"
       id="radialGradient3749"
       cx="17.822229"
       cy="10.598286"
       fx="17.822229"
       fy="10.598286"
       r="23.300945"
       gradientTransform="matrix(0.42182533,0.48206983,-0.5592045,0.48932038,7.4066183,15.373187)"
       gradientUnits="userSpaceOnUse" />
    <linearGradient
       inkscape:collect="always"
       xlink:href="#linearGradient5106"
       id="linearGradient3781"
       x1="17.388277"
       y1="-10.284358"
       x2="30.737608"
       y2="47.111855"
       gradientUnits="userSpaceOnUse"
       gradientTransform="matrix(0.48642371,0,0,0.48642371,0.32872262,23.921517)" />
    <inkscape:perspective
       id="perspective3804"
       inkscape:persp3d-origin="0.5 : 0.33333333 : 1"
       inkscape:vp_z="1 : 0.5 : 1"
       inkscape:vp_y="0 : 1000 : 0"
       inkscape:vp_x="0 : 0.5 : 1"
       sodipodi:type="inkscape:persp3d" />
    <linearGradient
       inkscape:collect="always"
       xlink:href="#linearGradient3860"
       id="linearGradient3866"
       x1="30.784439"
       y1="-3.2016251"
       x2="48.248177"
       y2="74.1007"
       gradientUnits="userSpaceOnUse"
       gradientTransform="matrix(0.47160704,0,0,0.47160704,0.68355141,24.643933)" />
    <linearGradient
       inkscape:collect="always"
       xlink:href="#linearGradient3654"
       id="linearGradient2880"
       gradientUnits="userSpaceOnUse"
       gradientTransform="matrix(0.48642371,0,0,0.48642371,0.32872262,23.921517)"
       x1="25.567499"
       y1="26.94343"
       x2="34.84626"
       y2="45.116119" />
  </defs>
  <sodipodi:namedview
     id="namedview21"
     pagecolor="#ffffff"
     bordercolor="#666666"
     borderopacity="1.0"
     inkscape:pageopacity="0.0"
     inkscape:pageshadow="2"
     inkscape:zoom="9.8994949"
     inkscape:cx="24"
     inkscape:cy="24"
     inkscape:current-layer="layer1"
     showgrid="true"
     inkscape:grid-bbox="true"
     inkscape:document-units="px"
     inkscape:window-width="736"
     inkscape:window-height="851"
     inkscape:window-x="214"
     inkscape:window-y="28" />
  <metadata
     id="metadata1333">
    <rdf:RDF>
      <cc:Work
         rdf:about="">
        <dc:format>image/svg+xml</dc:format>
        <dc:type
           rdf:resource="http://purl.org/dc/dcmitype/StillImage" />
        <dc:title />
        <dc:subject>
          <rdf:Bag>
            <rdf:li>go</rdf:li>
            <rdf:li>seek</rdf:li>
            <rdf:li>home</rdf:li>
          </rdf:Bag>
        </dc:subject>
        <dc:creator>
          <cc:Agent>
            <dc:title>Rodney Dawes</dc:title>
          </cc:Agent>
        </dc:creator>
        <dc:contributor>
          <cc:Agent>
            <dc:title>Jakub Steiner</dc:title>
          </cc:Agent>
        </dc:contributor>
        <cc:license
           rdf:resource="http://creativecommons.org/licenses/GPL/2.0/" />
      </cc:Work>
      <cc:License
         rdf:about="http://creativecommons.org/licenses/GPL/2.0/">
        <cc:permits
           rdf:resource="http://web.resource.org/cc/Reproduction" />
        <cc:permits
           rdf:resource="http://web.resource.org/cc/Distribution" />
        <cc:requires
           rdf:resource="http://web.resource.org/cc/Notice" />
        <cc:permits
           rdf:resource="http://web.resource.org/cc/DerivativeWorks" />
        <cc:requires
           rdf:resource="http://web.resource.org/cc/ShareAlike" />
        <cc:requires
           rdf:resource="http://web.resource.org/cc/SourceCode" />
      </cc:License>
    </rdf:RDF>
  </metadata>
  <g
     inkscape:groupmode="layer"
     id="layer3"
     inkscape:label="shadow"
     style="opacity:0.85;display:inline"
     transform="translate(0,-24)">
    <path
       style="color:#000000;fill:#000000;fill-opacity:1;fill-rule:nonzero;stroke:none;stroke-width:1.00000024;marker:none;visibility:visible;display:inline;overflow:visible;enable-background:accumulate"
       d="m 14.206525,47.85025 c -0.602723,-0.08164 -1.265676,-0.243473 -1.559899,-0.3808 -0.680061,-0.317412 -1.330797,-0.768185 -1.562688,-1.082496 -0.06076,-0.08236 -0.211574,-0.229393 -0.335143,-0.32674 -0.491238,-0.38701 -0.7782001,-0.794467 -1.3637651,-1.936422 -0.066528,-0.129744 -0.2743903,-1.180285 -0.3508986,-1.773469 -0.060454,-0.468754 -0.055604,-1.405284 0.00952,-1.833952 0.080805,-0.531898 0.2458576,-1.231423 0.3258183,-1.380821 0.067293,-0.125738 0.2344909,-0.667322 0.2864622,-0.927917 0.019634,-0.09845 0.063686,-0.213527 0.097884,-0.255721 0.034197,-0.0422 0.104773,-0.226315 0.1568344,-0.409155 0.052066,-0.182842 0.1734208,-0.491794 0.2696928,-0.686562 0.215608,-0.436214 0.316937,-0.761228 0.317662,-1.018902 3.11e-4,-0.108188 0.03837,-0.32678 0.08459,-0.485761 0.113167,-0.389276 0.06954,-1.48541 -0.07562,-1.900322 -0.110256,-0.315112 -0.379497,-0.844311 -0.6623957,-1.301935 -0.5861419,-0.948171 -2.2615258,-2.114756 -3.2585608,-2.268968 -0.3821975,-0.05911 -1.6471768,0.0063 -2.1909342,0.113294 -0.4655309,0.0916 -0.9040301,0.295334 -1.12883,0.524469 -0.5766069,0.587708 -0.9135878,0.984745 -1.046356,1.232821 -0.1915144,0.357855 -0.3102742,0.906784 -0.3428623,1.584813 -0.037026,0.770532 -0.00483,0.931608 0.3368966,1.685268 0.2883916,0.636028 1.0639428,1.278605 1.9171575,1.58844 0.3982628,0.144623 0.458741,-0.193211 1.0340089,-0.165614 0.7933287,0.03805 0.8123719,-0.06503 1.167968,-0.2985 0.1385223,-0.09095 0.4921821,-0.180602 0.6187596,-0.254946 0.5777902,-0.339345 1.153066,-0.614659 1.1506083,-1.495407 C 8.1009084,33.849025 7.9063628,33.355761 7.5766642,33.061894 7.3716496,32.879157 6.6483233,32.443938 6.4381376,32.376852 6.0719485,32.259973 5.5873238,32.199688 5.0832247,32.453146 4.8378243,32.576531 4.4505793,32.962293 4.397278,33.035268 c -0.053293,0.07297 -0.2167766,-0.28548 -0.3110062,-0.03497 -0.094235,0.250513 -0.202453,0.211067 -0.2255469,0.211067 -0.09163,0 0.1419359,0.379559 0.2516042,0.07443 0.1568835,-0.436479 0.00429,-1.184299 0.3150316,-1.42181 0.3503062,-0.267758 0.9522246,-0.70982 1.4165163,-0.756068 0.6036662,-0.06013 1.0689835,0.285763 1.5911327,0.547309 0.6074696,0.304282 0.4719811,0.98517 0.7718749,1.567915 0.3579831,0.695621 0.4018331,0.887053 0.3224652,1.40774 -0.090201,0.591733 -0.293005,1.189669 -0.5290803,1.559886 -0.215249,0.337559 -0.6165404,0.645056 -1.3375292,1.024911 C 6.1456399,37.488109 5.9690786,37.535671 5.2818392,37.58765 4.5297646,37.64453 4.091335,37.59565 3.5173629,37.391108 3.2641979,37.300867 2.9493312,37.196219 2.8176617,37.158556 2.6421563,37.108348 2.4151026,36.952554 1.9668276,36.574723 1.1974598,35.92626 1.0738406,35.716594 0.92430957,34.806535 0.86884592,34.468982 0.81621279,34.027419 0.80734601,33.825285 c -0.00887,-0.202136 -0.0304681,-0.390741 -0.0480125,-0.419125 -0.0366947,-0.05937 0.048456,-1.087697 0.13390933,-1.61714 0.0704448,-0.436469 0.10266626,-0.502834 0.60611006,-1.248371 0.2987799,-0.442443 0.4952309,-0.671606 0.7744384,-0.903387 0.9027979,-0.749441 1.4926033,-1.060184 2.5178649,-1.326552 0.7108684,-0.184687 0.7127347,-0.184878 1.585473,-0.161692 0.9229835,0.02453 1.4142711,0.08216 1.7460462,0.204873 2.2436456,0.829803 3.1286666,1.55629 4.2781976,3.511845 0.367597,0.625348 0.718537,1.072382 1.352855,1.723277 0.466784,0.478986 0.616167,0.599114 0.914277,0.735239 0.480461,0.21939 1.042518,0.29928 2.12097,0.301464 1.02705,0.002 1.415693,-0.07569 1.863426,-0.372894 0.142396,-0.09452 0.373689,-0.222616 0.513986,-0.284655 0.140299,-0.06204 0.301401,-0.15443 0.358009,-0.205315 0.05662,-0.05088 0.229505,-0.158977 0.384222,-0.240209 0.355275,-0.186537 0.769911,-0.602091 0.921328,-0.923368 0.182358,-0.38694 0.461327,-0.846555 0.615962,-1.014833 0.105413,-0.114708 0.153991,-0.238892 0.192458,-0.492032 0.0283,-0.186227 0.09974,-0.433229 0.158746,-0.548891 0.148282,-0.290656 0.198436,-0.904771 0.09088,-1.112768 -0.04383,-0.08474 -0.112663,-0.328769 -0.152976,-0.542289 -0.143121,-0.757977 -0.892972,-1.642018 -1.75351,-2.067323 -0.312114,-0.154253 -0.44448,-0.187096 -0.932069,-0.231263 -1.013332,-0.0918 -1.75514,0.06459 -2.339459,0.493166 -0.552195,0.40502 -0.790609,0.604819 -0.790609,0.662554 0,0.06048 -0.25443,0.357681 -0.335488,0.391881 -0.112287,0.04737 -0.329389,0.408166 -0.329389,0.547397 0,0.08269 -0.04499,0.25206 -0.09999,0.376381 -0.209699,0.474067 -0.172934,0.858039 0.158363,1.653733 0.188472,0.452663 0.428535,0.193676 0.615414,0.428076 0.250543,0.314244 0.36537,0.250552 0.83193,0.33279 0.542899,0.0957 0.713426,0.257614 1.057056,0.139383 0.679421,-0.233753 0.983598,-0.328605 1.228103,-0.873693 0.109998,-0.245226 0.35989,-0.235897 0.341972,-0.615942 -0.01802,-0.382009 -0.04216,-0.473755 -0.195289,-0.741593 -0.09611,-0.168108 -0.169011,-0.69646 -0.278192,-0.815023 -0.109182,-0.118564 -0.190514,-0.239561 -0.180738,-0.268884 0.02835,-0.08507 0.447676,0.583839 0.61006,0.808008 0.24904,0.343793 0.32906,0.689065 0.292559,1.262473 -0.04005,0.629517 -0.211895,0.997502 -0.697901,1.494585 -0.37497,0.383516 -0.751682,0.567944 -1.380259,0.675732 -0.511607,0.08773 -1.161214,-0.03175 -1.571394,-0.289013 -0.497253,-0.31188 -0.807054,-0.631549 -1.089579,-1.124266 -0.232097,-0.404786 -0.275721,-0.530017 -0.383057,-1.099627 -0.127872,-0.678613 -0.12762,-1.232472 6.46e-4,-1.384363 0.03564,-0.04219 0.09187,-0.209283 0.124979,-0.371308 0.03311,-0.162025 0.111872,-0.357652 0.175034,-0.434727 0.06315,-0.07708 0.188689,-0.295339 0.27896,-0.485032 0.13279,-0.279063 0.202904,-0.364684 0.367301,-0.448552 0.111746,-0.05702 0.203179,-0.126575 0.203179,-0.154588 0,-0.02801 0.07876,-0.08848 0.175018,-0.134394 0.09626,-0.04591 0.186255,-0.126409 0.199981,-0.178902 0.01472,-0.05633 0.14737,-0.149126 0.323635,-0.22643 0.164279,-0.07205 0.423941,-0.189675 0.577043,-0.261399 0.153094,-0.07172 0.578875,-0.204725 0.94617,-0.295559 0.634958,-0.157026 0.697999,-0.163356 1.281537,-0.128698 0.586002,0.03481 0.627344,0.0448 0.914876,0.221059 0.165623,0.101533 0.38427,0.211526 0.485871,0.244426 0.101605,0.0329 0.364666,0.188988 0.584595,0.346861 0.219926,0.157873 0.476806,0.333579 0.570846,0.390456 0.09404,0.05688 0.322767,0.258987 0.508292,0.449132 0.385033,0.394627 0.789031,1.130428 0.921967,1.679152 0.04336,0.179035 0.124779,0.486623 0.180906,0.683529 0.08731,0.306343 0.09759,0.450273 0.0712,0.997314 -0.08215,1.703782 -0.661568,3.015133 -1.783633,4.036857 -0.140642,0.128067 -0.422828,0.398948 -0.627075,0.601956 -0.413308,0.410797 -0.906456,0.750108 -1.520985,1.04652 -0.225036,0.108543 -0.537028,0.264461 -0.693327,0.346484 -0.477695,0.250695 -1.208284,0.361225 -2.387634,0.361225 -1.15353,0 -1.281608,0.01749 -2.605832,0.355761 -0.473716,0.121012 -0.629289,0.186834 -0.902693,0.381933 -0.462369,0.329939 -0.995836,1.017237 -1.412285,1.819523 -0.06571,0.126581 -0.160602,0.276178 -0.210882,0.332438 -0.16666,0.18649 -0.295484,0.568944 -0.304415,0.903773 -0.02199,0.824664 0.0119,2.287417 0.05729,2.471752 0.07037,0.285848 0.201481,0.586526 0.334495,0.767164 0.172484,0.234232 0.460771,0.760935 0.528017,0.964696 0.03611,0.109381 0.157384,0.263527 0.303795,0.38611 0.134036,0.112222 0.309689,0.29926 0.39034,0.415639 0.175287,0.252935 0.809132,0.5966 1.188864,0.644591 0.133,0.01681 0.288772,0.0597 0.346159,0.0953 0.05739,0.03561 0.229997,0.09076 0.383584,0.12256 0.333009,0.06895 1.086932,-0.02562 1.521931,-0.190904 0.267424,-0.101615 0.89834,-0.470361 1.234286,-0.721394 0.251789,-0.188147 0.594841,-0.675287 0.695683,-0.98787 0.04763,-0.147637 0.114731,-0.31446 0.149115,-0.370719 0.177133,-0.289787 0.218742,-0.879215 0.134128,-1.899901 -0.03242,-0.391039 -0.07427,-0.580189 -0.169745,-0.767164 -0.06969,-0.136485 -0.179957,-0.359094 -0.245042,-0.494682 -0.199233,-0.415062 -1.158467,-1.109385 -1.543645,-1.117342 -0.0641,-0.0013 -0.270917,-0.03451 -0.459571,-0.07376 -0.362253,-0.07536 -0.891044,-0.03735 -1.109878,0.07976 -0.269037,0.143987 -0.612645,0.401375 -0.832663,0.623726 -0.195508,0.197585 -0.263931,0.3188 -0.370661,0.656661 -0.12252,0.387833 -0.127958,0.448171 -0.08499,0.943011 0.05252,0.604814 0.324427,0.513217 0.612051,0.831581 0.229406,0.253926 0.256003,0.206506 0.773744,0.360387 0.375985,0.111751 1.004944,-0.245611 1.334811,-0.342867 0.193712,-0.05711 -0.05125,0.665777 -0.475783,0.763532 -0.327346,0.07538 -1.050672,0.209814 -1.528063,0.01452 -0.477512,-0.195337 -0.75897,-0.421955 -0.980326,-0.874406 -0.159383,-0.325782 -0.166187,-0.364816 -0.166187,-0.953421 0,-0.585357 0.0073,-0.627917 0.157849,-0.920597 0.08681,-0.168777 0.21093,-0.410371 0.275813,-0.536878 0.06488,-0.126508 0.253176,-0.360278 0.418426,-0.519491 0.243929,-0.235002 0.0469,-0.866495 0.367931,-0.977563 0.88374,-0.305741 2.287331,-0.26772 2.948241,0.151827 0.604385,0.383703 1.134234,1.422666 1.335805,1.717967 0.370281,0.542459 0.637958,1.183761 0.676914,1.621752 0.01877,0.210971 0.055,0.585549 0.08049,0.832396 0.04371,0.423163 0.03627,0.488933 -0.130367,1.150747 -0.26022,1.03356 -0.402559,1.308318 -0.908016,1.7527 -0.228533,0.200925 -0.501183,0.409326 -0.605886,0.463112 -0.104707,0.05379 -0.265811,0.162708 -0.358011,0.242049 -0.249994,0.215112 -0.724384,0.468851 -0.876563,0.468851 -0.07363,0 -0.277968,0.05491 -0.454079,0.12202 -0.347884,0.132575 -0.993617,0.290885 -1.145811,0.280911 -0.05224,-0.0034 -0.30211,-0.03428 -0.555273,-0.06857 l 9e-6,3e-6 -1.3e-5,6e-6 z"
       id="path2243-84"
       sodipodi:nodetypes="csssssssssssssssssssssssssssssssssssssssssssssssssssssssssssssssssssssssssssssssssssssssssssssssssssssssssssssssssssssssssssssssssssssssssssssssssssssssssssssssssssccc" />
  </g>
  <g
     id="layer1"
     inkscape:label="color"
     inkscape:groupmode="layer"
     style="display:inline"
     transform="translate(0,-24)">
    <path
       style="color:#000000;fill:#004db1;fill-opacity:1;fill-rule:nonzero;stroke:none;stroke-width:1.00000024;marker:none;visibility:visible;display:inline;overflow:visible;enable-background:accumulate"
       d="M 14.09904,46.763397 C 13.496318,46.681757 12.833363,46.519914 12.53914,46.382588 11.85908,46.065173 11.208344,45.614402 10.976452,45.30009 10.915692,45.21773 10.764879,45.070699 10.641309,44.973351 10.150071,44.586341 9.86311,44.178884 9.277544,43.03693 9.2110155,42.907184 9.0031546,41.856644 8.9266455,41.263461 8.866191,40.794705 8.87105,39.858176 8.9361655,39.429509 c 0.080804,-0.531898 0.2458574,-1.231425 0.3258174,-1.380821 0.067293,-0.12574 0.2344909,-0.667322 0.2864613,-0.927917 0.019635,-0.09846 0.063686,-0.213528 0.097884,-0.255723 0.034197,-0.04219 0.104773,-0.226313 0.1568344,-0.409155 0.052058,-0.18284 0.1734222,-0.491792 0.2696924,-0.686561 0.215608,-0.436213 0.316936,-0.761227 0.317662,-1.018901 3.1e-4,-0.108188 0.03837,-0.326782 0.08459,-0.485762 0.113169,-0.389276 0.06954,-1.485411 -0.07562,-1.900322 C 10.289231,32.049233 10.019989,31.520036 9.7370924,31.062411 9.1509497,30.114241 7.475565,28.947657 6.478531,28.793445 c -0.3821974,-0.05911 -1.6471765,0.0063 -2.1909339,0.113293 -0.4655311,0.0916 -0.9040304,0.295335 -1.1288302,0.524467 -0.5766068,0.587711 -0.9135877,0.984747 -1.0463561,1.232824 -0.1915143,0.357855 -0.3102742,0.906783 -0.3428621,1.584813 -0.037026,0.77053 -0.00483,0.931607 0.3368964,1.685267 0.2883917,0.636027 1.063943,1.278604 1.9171577,1.588439 0.3982628,0.144625 0.5499063,0.171451 1.1251739,0.199047 0.7933287,0.03805 1.1314506,-0.01945 1.4870466,-0.252916 0.1385223,-0.09095 0.3554346,-0.226184 0.4820121,-0.30053 C 7.6956222,34.828804 7.9974022,34.18883 7.9949437,33.308082 7.9934157,32.762162 7.7988724,32.268899 7.4691738,31.975031 7.2641601,31.792294 6.5408329,31.357075 6.3306473,31.289989 5.9644582,31.17311 5.492054,31.247252 4.9879551,31.500706 4.7425547,31.624091 4.498168,31.78475 4.4448667,31.857725 c -0.053293,0.07297 -0.174005,0.337648 -0.268234,0.58816 -0.094235,0.250512 -0.1902326,0.455479 -0.2133266,0.455479 -0.09163,0 -0.068135,-0.397303 0.041533,-0.702436 0.1568835,-0.436478 0.3144437,-0.663579 0.6251891,-0.901092 0.3503064,-0.267757 0.6937611,-0.400148 1.1580522,-0.446398 0.6036662,-0.06013 0.6982118,-0.04322 1.2203615,0.218332 0.6074687,0.304282 0.7910602,0.48376 1.0909525,1.066505 0.3579838,0.695621 0.4018338,0.887054 0.3224659,1.40774 -0.090201,0.591734 -0.2930049,1.18967 -0.5290802,1.559887 -0.2152491,0.337559 -0.6165406,0.645057 -1.3375297,1.02491 -0.5171001,0.272433 -0.6936614,0.319994 -1.3809008,0.371973 -0.7520733,0.05688 -1.190503,0.008 -1.764475,-0.196541 C 3.1567122,36.214003 2.8418458,36.109355 2.7101763,36.071692 2.5346708,36.021485 2.307617,35.86569 1.8593421,35.48786 1.0899743,34.839398 0.9663551,34.629731 0.81682412,33.719672 0.76136047,33.382119 0.70872744,32.940557 0.69986055,32.738421 c -0.00887,-0.202135 -0.0304681,-0.390741 -0.0480122,-0.419124 -0.0366944,-0.05937 0.0484561,-1.087696 0.13390924,-1.61714 0.0704448,-0.436468 0.10266626,-0.502834 0.60611021,-1.24837 0.2987798,-0.442444 0.4952309,-0.671607 0.7744382,-0.903389 0.9027981,-0.749439 1.4926035,-1.060183 2.517865,-1.326551 0.7108682,-0.184688 0.7127345,-0.184878 1.5854728,-0.161692 0.9229834,0.02453 1.4142709,0.08216 1.7460468,0.204872 2.2436444,0.829804 3.1286654,1.55629 4.2781944,3.511846 0.3676,0.625348 0.71854,1.072382 1.352857,1.723276 0.466784,0.478988 0.616168,0.599115 0.914278,0.735239 0.480461,0.219391 1.042517,0.29928 2.120969,0.301465 1.027051,0.002 1.415693,-0.07569 1.863427,-0.372894 0.142395,-0.09452 0.373689,-0.222616 0.513986,-0.284655 0.140298,-0.06204 0.3014,-0.15443 0.358009,-0.205314 0.05661,-0.05088 0.229505,-0.158978 0.384222,-0.240209 0.355275,-0.186538 0.76991,-0.602093 0.921327,-0.923369 0.182357,-0.38694 0.461327,-0.846556 0.615963,-1.014834 0.105413,-0.114707 0.153991,-0.23889 0.192457,-0.49203 0.0283,-0.186228 0.09974,-0.433229 0.158745,-0.548892 0.148283,-0.290656 0.198438,-0.904771 0.09088,-1.112768 -0.04382,-0.08474 -0.112665,-0.328769 -0.152978,-0.542289 -0.14312,-0.757978 -0.89297,-1.642018 -1.753508,-2.067323 -0.312114,-0.154254 -0.444481,-0.187096 -0.932069,-0.231263 -1.013332,-0.0918 -1.755141,0.06459 -2.339459,0.493166 -0.552197,0.40502 -0.79061,0.60482 -0.79061,0.662553 0,0.06047 -0.254429,0.357682 -0.335488,0.391881 -0.112286,0.04737 -0.329389,0.408166 -0.329389,0.547397 0,0.08269 -0.04499,0.252061 -0.09999,0.376382 -0.209699,0.474066 -0.172934,0.858038 0.158364,1.653732 0.188471,0.452664 0.246202,0.558338 0.433083,0.792738 0.250542,0.314244 0.513937,0.459878 0.980496,0.542124 0.542899,0.09571 0.814718,0.0888 1.158348,-0.02944 0.679421,-0.233754 1.152418,-0.632479 1.396923,-1.177568 0.109999,-0.245227 0.123542,-0.337189 0.105625,-0.717234 -0.01802,-0.38201 -0.04217,-0.473756 -0.195289,-0.741594 -0.09611,-0.168108 -0.264066,-0.402657 -0.373246,-0.52122 -0.109181,-0.118564 -0.190515,-0.239561 -0.180739,-0.268883 0.02835,-0.08507 0.54273,0.290036 0.705114,0.514203 0.24904,0.343794 0.329061,0.689067 0.29256,1.262474 -0.04006,0.629519 -0.211896,0.997503 -0.697901,1.494586 -0.37497,0.383516 -0.751682,0.567941 -1.380259,0.675732 -0.511608,0.08773 -1.161215,-0.03175 -1.571394,-0.289014 -0.497253,-0.31188 -0.807056,-0.631548 -1.089579,-1.124266 -0.232097,-0.404785 -0.275722,-0.530017 -0.383057,-1.099628 -0.127874,-0.678612 -0.12762,-1.232471 6.46e-4,-1.384362 0.03564,-0.04219 0.09187,-0.209283 0.124979,-0.371308 0.03311,-0.162025 0.111872,-0.357652 0.175034,-0.434726 0.06315,-0.07708 0.18869,-0.295339 0.278961,-0.485033 0.132789,-0.279062 0.202902,-0.364684 0.3673,-0.448552 0.111746,-0.05702 0.203178,-0.126575 0.203178,-0.154588 0,-0.028 0.07876,-0.08849 0.17502,-0.134393 0.09626,-0.04591 0.186254,-0.12641 0.19998,-0.178902 0.01472,-0.05633 0.14737,-0.149126 0.323635,-0.226432 0.164279,-0.07204 0.423941,-0.189674 0.577044,-0.261398 0.153093,-0.07173 0.578874,-0.204724 0.946169,-0.295558 0.634958,-0.157027 0.698,-0.163358 1.281536,-0.128699 0.586003,0.03481 0.627345,0.0448 0.914876,0.22106 0.165624,0.101532 0.384271,0.211526 0.485872,0.244425 0.101605,0.0329 0.364666,0.188988 0.584595,0.346861 0.219925,0.157873 0.476806,0.333578 0.570847,0.390456 0.09403,0.05688 0.322765,0.258987 0.508291,0.449132 0.385033,0.394627 0.789031,1.130428 0.921967,1.679152 0.04336,0.179035 0.124778,0.486623 0.180906,0.683529 0.08731,0.306343 0.09759,0.450274 0.0712,0.997315 -0.08215,1.703781 -0.661568,3.015133 -1.783632,4.036856 -0.140642,0.128068 -0.422829,0.398948 -0.627076,0.601957 -0.413308,0.410797 -0.906457,0.750107 -1.520985,1.046519 -0.225036,0.108543 -0.537028,0.26446 -0.693327,0.346484 -0.477695,0.250695 -1.208284,0.361226 -2.387634,0.361226 -1.15353,0 -1.281607,0.01749 -2.605834,0.35576 -0.473714,0.121013 -0.629287,0.186834 -0.902691,0.381934 -0.462369,0.329938 -0.995837,1.017236 -1.412284,1.819523 -0.06571,0.12658 -0.160603,0.276178 -0.210883,0.332438 -0.16666,0.186489 -0.295484,0.568943 -0.304415,0.903773 -0.02199,0.824663 0.01191,2.287417 0.05729,2.471752 0.07037,0.285847 0.201481,0.586525 0.334495,0.767164 0.172484,0.234231 0.46077,0.760935 0.528017,0.964695 0.03611,0.109382 0.157384,0.263528 0.303795,0.38611 0.134035,0.112222 0.309688,0.299261 0.390338,0.415639 0.175288,0.252935 0.809133,0.5966 1.188866,0.644592 0.133,0.01681 0.288772,0.0597 0.346158,0.0953 0.05739,0.0356 0.229998,0.09076 0.383585,0.122559 0.333009,0.06895 1.086932,-0.02562 1.521931,-0.190903 0.267424,-0.101615 0.89834,-0.470362 1.234287,-0.721394 0.251787,-0.188147 0.59484,-0.675288 0.695683,-0.987871 0.04763,-0.147637 0.11473,-0.314458 0.149114,-0.370718 0.177133,-0.289788 0.218743,-0.879215 0.134128,-1.899901 -0.03242,-0.391039 -0.07427,-0.580189 -0.169744,-0.767164 -0.06969,-0.136488 -0.179964,-0.359098 -0.245049,-0.494686 -0.199234,-0.415062 -1.158468,-1.109385 -1.543645,-1.117342 -0.0641,-0.0013 -0.270917,-0.03451 -0.459571,-0.07376 -0.362252,-0.07536 -0.891044,-0.03735 -1.109878,0.07976 -0.269037,0.143986 -0.612646,0.401374 -0.832664,0.623725 -0.195507,0.197585 -0.263931,0.318802 -0.370661,0.656662 -0.12252,0.387832 -0.127957,0.448171 -0.08499,0.943011 0.05252,0.604812 0.155609,0.88462 0.443232,1.202985 0.229405,0.253926 0.424822,0.360587 0.942563,0.514469 0.375985,0.111751 0.731448,0.11905 1.061315,0.02179 0.193712,-0.05711 0.127782,0.05903 -0.089,0.156783 -0.306219,0.138085 -1.029531,0.08529 -1.506922,-0.110002 -0.477511,-0.195336 -0.893396,-0.580821 -1.114752,-1.033272 -0.159383,-0.325782 -0.166187,-0.364814 -0.166187,-0.95342 0,-0.585359 0.0073,-0.627919 0.157848,-0.920598 0.08681,-0.168776 0.210932,-0.410372 0.275813,-0.536879 0.06488,-0.126508 0.253177,-0.360278 0.418427,-0.519491 0.243928,-0.235001 0.374894,-0.315226 0.695931,-0.426293 0.883738,-0.305741 1.959331,-0.22646 2.620242,0.193132 0.604384,0.383705 1.134233,0.830091 1.335804,1.125392 0.37028,0.542461 0.637959,1.183762 0.676914,1.621753 0.01877,0.21097 0.05499,0.585547 0.08049,0.832396 0.04371,0.423163 0.03627,0.488933 -0.130366,1.150748 -0.26022,1.033559 -0.402559,1.308316 -0.908016,1.7527 -0.228533,0.200924 -0.501183,0.409324 -0.605887,0.463111 -0.104707,0.05379 -0.265809,0.162709 -0.35801,0.242048 -0.249994,0.215112 -0.724384,0.468851 -0.876563,0.468851 -0.07363,0 -0.277968,0.05491 -0.454079,0.122021 -0.347884,0.132576 -0.993617,0.290885 -1.145811,0.280912 -0.05224,-0.0034 -0.302111,-0.03428 -0.555273,-0.06857 z"
       id="path2243" />
  </g>
  <g
     style="opacity:0.43457947;display:inline"
     inkscape:groupmode="layer"
     inkscape:label="shine"
     id="g3737"
     transform="translate(0,-24)">
    <path
       id="path3739"
       d="M 14.09904,46.763397 C 13.496318,46.681757 12.833363,46.519914 12.53914,46.382588 11.85908,46.065173 11.208344,45.614402 10.976452,45.30009 10.915692,45.21773 10.764879,45.070699 10.641309,44.973351 10.150071,44.586341 9.86311,44.178884 9.277544,43.03693 9.2110155,42.907184 9.0031546,41.856644 8.9266455,41.263461 8.866191,40.794705 8.87105,39.858176 8.9361655,39.429509 c 0.080804,-0.531898 0.2458574,-1.231425 0.3258174,-1.380821 0.067293,-0.12574 0.2344909,-0.667322 0.2864613,-0.927917 0.019635,-0.09846 0.063686,-0.213528 0.097884,-0.255723 0.034197,-0.04219 0.104773,-0.226313 0.1568344,-0.409155 0.052058,-0.18284 0.1734222,-0.491792 0.2696924,-0.686561 0.215608,-0.436213 0.316936,-0.761227 0.317662,-1.018901 3.1e-4,-0.108188 0.03837,-0.326782 0.08459,-0.485762 0.113169,-0.389276 0.06954,-1.485411 -0.07562,-1.900322 C 10.289231,32.049233 10.019989,31.520036 9.7370924,31.062411 9.1509497,30.114241 7.475565,28.947657 6.478531,28.793445 c -0.3821974,-0.05911 -1.6471765,0.0063 -2.1909339,0.113293 -0.4655311,0.0916 -0.9040304,0.295335 -1.1288302,0.524467 -0.5766068,0.587711 -0.9135877,0.984747 -1.0463561,1.232824 -0.1915143,0.357855 -0.3102742,0.906783 -0.3428621,1.584813 -0.037026,0.77053 -0.00483,0.931607 0.3368964,1.685267 0.2883917,0.636027 1.063943,1.278604 1.9171577,1.588439 0.3982628,0.144625 0.5499063,0.171451 1.1251739,0.199047 0.7933287,0.03805 1.1314506,-0.01945 1.4870466,-0.252916 0.1385223,-0.09095 0.3554346,-0.226184 0.4820121,-0.30053 C 7.6956222,34.828804 7.9974022,34.18883 7.9949437,33.308082 7.9934157,32.762162 7.7988724,32.268899 7.4691738,31.975031 7.2641601,31.792294 6.5408329,31.357075 6.3306473,31.289989 5.9644582,31.17311 5.492054,31.247252 4.9879551,31.500706 4.7425547,31.624091 4.498168,31.78475 4.4448667,31.857725 c -0.053293,0.07297 -0.174005,0.337648 -0.268234,0.58816 -0.094235,0.250512 -0.1902326,0.455479 -0.2133266,0.455479 -0.09163,0 -0.068135,-0.397303 0.041533,-0.702436 0.1568835,-0.436478 0.3144437,-0.663579 0.6251891,-0.901092 0.3503064,-0.267757 0.6937611,-0.400148 1.1580522,-0.446398 0.6036662,-0.06013 0.6982118,-0.04322 1.2203615,0.218332 0.6074687,0.304282 0.7910602,0.48376 1.0909525,1.066505 0.3579838,0.695621 0.4018338,0.887054 0.3224659,1.40774 -0.090201,0.591734 -0.2930049,1.18967 -0.5290802,1.559887 -0.2152491,0.337559 -0.6165406,0.645057 -1.3375297,1.02491 -0.5171001,0.272433 -0.6936614,0.319994 -1.3809008,0.371973 -0.7520733,0.05688 -1.190503,0.008 -1.764475,-0.196541 C 3.1567122,36.214003 2.8418458,36.109355 2.7101763,36.071692 2.5346708,36.021485 2.307617,35.86569 1.8593421,35.48786 1.0899743,34.839398 0.9663551,34.629731 0.81682412,33.719672 0.76136047,33.382119 0.70872744,32.940557 0.69986055,32.738421 c -0.00887,-0.202135 -0.0304681,-0.390741 -0.0480122,-0.419124 -0.0366944,-0.05937 0.0484561,-1.087696 0.13390924,-1.61714 0.0704448,-0.436468 0.10266626,-0.502834 0.60611021,-1.24837 0.2987798,-0.442444 0.4952309,-0.671607 0.7744382,-0.903389 0.9027981,-0.749439 1.4926035,-1.060183 2.517865,-1.326551 0.7108682,-0.184688 0.7127345,-0.184878 1.5854728,-0.161692 0.9229834,0.02453 1.4142709,0.08216 1.7460468,0.204872 2.2436444,0.829804 3.1286654,1.55629 4.2781944,3.511846 0.3676,0.625348 0.71854,1.072382 1.352857,1.723276 0.466784,0.478988 0.616168,0.599115 0.914278,0.735239 0.480461,0.219391 1.042517,0.29928 2.120969,0.301465 1.027051,0.002 1.415693,-0.07569 1.863427,-0.372894 0.142395,-0.09452 0.373689,-0.222616 0.513986,-0.284655 0.140298,-0.06204 0.3014,-0.15443 0.358009,-0.205314 0.05661,-0.05088 0.229505,-0.158978 0.384222,-0.240209 0.355275,-0.186538 0.76991,-0.602093 0.921327,-0.923369 0.182357,-0.38694 0.461327,-0.846556 0.615963,-1.014834 0.105413,-0.114707 0.153991,-0.23889 0.192457,-0.49203 0.0283,-0.186228 0.09974,-0.433229 0.158745,-0.548892 0.148283,-0.290656 0.198438,-0.904771 0.09088,-1.112768 -0.04382,-0.08474 -0.112665,-0.328769 -0.152978,-0.542289 -0.14312,-0.757978 -0.89297,-1.642018 -1.753508,-2.067323 -0.312114,-0.154254 -0.444481,-0.187096 -0.932069,-0.231263 -1.013332,-0.0918 -1.755141,0.06459 -2.339459,0.493166 -0.552197,0.40502 -0.79061,0.60482 -0.79061,0.662553 0,0.06047 -0.254429,0.357682 -0.335488,0.391881 -0.112286,0.04737 -0.329389,0.408166 -0.329389,0.547397 0,0.08269 -0.04499,0.252061 -0.09999,0.376382 -0.209699,0.474066 -0.172934,0.858038 0.158364,1.653732 0.188471,0.452664 0.246202,0.558338 0.433083,0.792738 0.250542,0.314244 0.513937,0.459878 0.980496,0.542124 0.542899,0.09571 0.814718,0.0888 1.158348,-0.02944 0.679421,-0.233754 1.152418,-0.632479 1.396923,-1.177568 0.109999,-0.245227 0.123542,-0.337189 0.105625,-0.717234 -0.01802,-0.38201 -0.04217,-0.473756 -0.195289,-0.741594 -0.09611,-0.168108 -0.264066,-0.402657 -0.373246,-0.52122 -0.109181,-0.118564 -0.190515,-0.239561 -0.180739,-0.268883 0.02835,-0.08507 0.54273,0.290036 0.705114,0.514203 0.24904,0.343794 0.329061,0.689067 0.29256,1.262474 -0.04006,0.629519 -0.211896,0.997503 -0.697901,1.494586 -0.37497,0.383516 -0.751682,0.567941 -1.380259,0.675732 -0.511608,0.08773 -1.161215,-0.03175 -1.571394,-0.289014 -0.497253,-0.31188 -0.807056,-0.631548 -1.089579,-1.124266 -0.232097,-0.404785 -0.275722,-0.530017 -0.383057,-1.099628 -0.127874,-0.678612 -0.12762,-1.232471 6.46e-4,-1.384362 0.03564,-0.04219 0.09187,-0.209283 0.124979,-0.371308 0.03311,-0.162025 0.111872,-0.357652 0.175034,-0.434726 0.06315,-0.07708 0.18869,-0.295339 0.278961,-0.485033 0.132789,-0.279062 0.202902,-0.364684 0.3673,-0.448552 0.111746,-0.05702 0.203178,-0.126575 0.203178,-0.154588 0,-0.028 0.07876,-0.08849 0.17502,-0.134393 0.09626,-0.04591 0.186254,-0.12641 0.19998,-0.178902 0.01472,-0.05633 0.14737,-0.149126 0.323635,-0.226432 0.164279,-0.07204 0.423941,-0.189674 0.577044,-0.261398 0.153093,-0.07173 0.578874,-0.204724 0.946169,-0.295558 0.634958,-0.157027 0.698,-0.163358 1.281536,-0.128699 0.586003,0.03481 0.627345,0.0448 0.914876,0.22106 0.165624,0.101532 0.384271,0.211526 0.485872,0.244425 0.101605,0.0329 0.364666,0.188988 0.584595,0.346861 0.219925,0.157873 0.476806,0.333578 0.570847,0.390456 0.09403,0.05688 0.322765,0.258987 0.508291,0.449132 0.385033,0.394627 0.789031,1.130428 0.921967,1.679152 0.04336,0.179035 0.124778,0.486623 0.180906,0.683529 0.08731,0.306343 0.09759,0.450274 0.0712,0.997315 -0.08215,1.703781 -0.661568,3.015133 -1.783632,4.036856 -0.140642,0.128068 -0.422829,0.398948 -0.627076,0.601957 -0.413308,0.410797 -0.906457,0.750107 -1.520985,1.046519 -0.225036,0.108543 -0.537028,0.26446 -0.693327,0.346484 -0.477695,0.250695 -1.208284,0.361226 -2.387634,0.361226 -1.15353,0 -1.281607,0.01749 -2.605834,0.35576 -0.473714,0.121013 -0.629287,0.186834 -0.902691,0.381934 -0.462369,0.329938 -0.995837,1.017236 -1.412284,1.819523 -0.06571,0.12658 -0.160603,0.276178 -0.210883,0.332438 -0.16666,0.186489 -0.295484,0.568943 -0.304415,0.903773 -0.02199,0.824663 0.01191,2.287417 0.05729,2.471752 0.07037,0.285847 0.201481,0.586525 0.334495,0.767164 0.172484,0.234231 0.46077,0.760935 0.528017,0.964695 0.03611,0.109382 0.157384,0.263528 0.303795,0.38611 0.134035,0.112222 0.309688,0.299261 0.390338,0.415639 0.175288,0.252935 0.809133,0.5966 1.188866,0.644592 0.133,0.01681 0.288772,0.0597 0.346158,0.0953 0.05739,0.0356 0.229998,0.09076 0.383585,0.122559 0.333009,0.06895 1.086932,-0.02562 1.521931,-0.190903 0.267424,-0.101615 0.89834,-0.470362 1.234287,-0.721394 0.251787,-0.188147 0.59484,-0.675288 0.695683,-0.987871 0.04763,-0.147637 0.11473,-0.314458 0.149114,-0.370718 0.177133,-0.289788 0.218743,-0.879215 0.134128,-1.899901 -0.03242,-0.391039 -0.07427,-0.580189 -0.169744,-0.767164 -0.06969,-0.136488 -0.179964,-0.359098 -0.245049,-0.494686 -0.199234,-0.415062 -1.158468,-1.109385 -1.543645,-1.117342 -0.0641,-0.0013 -0.270917,-0.03451 -0.459571,-0.07376 -0.362252,-0.07536 -0.891044,-0.03735 -1.109878,0.07976 -0.269037,0.143986 -0.612646,0.401374 -0.832664,0.623725 -0.195507,0.197585 -0.263931,0.318802 -0.370661,0.656662 -0.12252,0.387832 -0.127957,0.448171 -0.08499,0.943011 0.05252,0.604812 0.155609,0.88462 0.443232,1.202985 0.229405,0.253926 0.424822,0.360587 0.942563,0.514469 0.375985,0.111751 0.731448,0.11905 1.061315,0.02179 0.193712,-0.05711 0.127782,0.05903 -0.089,0.156783 -0.306219,0.138085 -1.029531,0.08529 -1.506922,-0.110002 -0.477511,-0.195336 -0.893396,-0.580821 -1.114752,-1.033272 -0.159383,-0.325782 -0.166187,-0.364814 -0.166187,-0.95342 0,-0.585359 0.0073,-0.627919 0.157848,-0.920598 0.08681,-0.168776 0.210932,-0.410372 0.275813,-0.536879 0.06488,-0.126508 0.253177,-0.360278 0.418427,-0.519491 0.243928,-0.235001 0.374894,-0.315226 0.695931,-0.426293 0.883738,-0.305741 1.959331,-0.22646 2.620242,0.193132 0.604384,0.383705 1.134233,0.830091 1.335804,1.125392 0.37028,0.542461 0.637959,1.183762 0.676914,1.621753 0.01877,0.21097 0.05499,0.585547 0.08049,0.832396 0.04371,0.423163 0.03627,0.488933 -0.130366,1.150748 -0.26022,1.033559 -0.402559,1.308316 -0.908016,1.7527 -0.228533,0.200924 -0.501183,0.409324 -0.605887,0.463111 -0.104707,0.05379 -0.265809,0.162709 -0.35801,0.242048 -0.249994,0.215112 -0.724384,0.468851 -0.876563,0.468851 -0.07363,0 -0.277968,0.05491 -0.454079,0.122021 -0.347884,0.132576 -0.993617,0.290885 -1.145811,0.280912 -0.05224,-0.0034 -0.302111,-0.03428 -0.555273,-0.06857 z"
       style="color:#000000;fill:url(#radialGradient3749);fill-opacity:1;fill-rule:nonzero;stroke:none;stroke-width:1.00000024;marker:none;visibility:visible;display:inline;overflow:visible;enable-background:accumulate" />
  </g>
  <g
     inkscape:groupmode="layer"
     id="layer2"
     inkscape:label="border"
     style="display:inline"
     transform="translate(0,-24)">
    <path
       style="color:#000000;fill:#000000;fill-opacity:0;stroke:url(#linearGradient3781);stroke-width:1;stroke-linejoin:round;stroke-miterlimit:4;stroke-opacity:1;stroke-dasharray:none;marker:none;visibility:visible;display:inline;overflow:visible;enable-background:accumulate"
       d="m 14.076239,46.520186 c -0.602723,-0.08164 -1.166873,-0.228282 -1.461095,-0.365611 -0.680061,-0.317413 -1.216791,-0.67698 -1.448682,-0.99129 -0.06076,-0.08236 -0.211574,-0.229393 -0.335144,-0.326741 -0.491238,-0.38701 -0.778199,-0.794466 -1.3637641,-1.936422 -0.066529,-0.129744 -0.2287885,-1.020678 -0.3052961,-1.61386 -0.060454,-0.468755 -0.055595,-1.405285 0.00951,-1.833953 0.080804,-0.531896 0.2458575,-1.231424 0.3258175,-1.38082 0.067293,-0.12574 0.2268899,-0.629321 0.2788619,-0.889916 0.019635,-0.09845 0.07128,-0.243929 0.1054842,-0.286124 0.034197,-0.04219 0.1047715,-0.226312 0.1568326,-0.409154 0.05207,-0.182841 0.173422,-0.491793 0.269693,-0.686562 0.215609,-0.436212 0.316936,-0.761227 0.317663,-1.018902 3.09e-4,-0.108187 0.03837,-0.326781 0.08459,-0.48576 0.113168,-0.389276 0.03154,-1.667819 -0.113623,-2.082731 -0.110253,-0.315113 -0.386712,-0.817126 -0.6623927,-1.279134 -0.5788427,-0.970071 -2.4785405,-2.264599 -3.5017729,-2.375373 -0.3698528,-0.04004 -1.6452123,0.0043 -2.1909339,0.113294 -0.4652742,0.0929 -0.9952348,0.318135 -1.2200345,0.547268 -0.5766069,0.58771 -0.9971918,1.098752 -1.1299602,1.346829 -0.1915142,0.357854 -0.3254749,0.997987 -0.3580628,1.676016 -0.037026,0.770533 0.017971,1.060814 0.3596974,1.814475 0.2883918,0.636027 1.1779486,1.377409 2.0311633,1.687243 0.3982627,0.144625 0.6715121,0.194253 1.2467797,0.221849 0.7933289,0.03805 1.2454562,-0.07265 1.6010522,-0.306118 C 6.9111453,35.567739 7.1736592,35.394501 7.300237,35.320156 7.8780264,34.980812 8.1722063,34.166028 8.1697478,33.28528 8.1682198,32.739361 7.8672717,32.040888 7.5375731,31.747019 7.3325578,31.564283 6.5560277,31.189867 6.345842,31.12278 5.9796529,31.005902 5.431245,31.080051 4.9271462,31.333498 4.6817456,31.456882 4.46016,31.685945 4.4068589,31.75892 c -0.053293,0.07297 -0.2196074,0.337648 -0.3138364,0.58816 -0.094235,0.250513 -0.068626,0.219866 -0.1297224,0.554284 0.052778,-0.334418 0.053472,-0.344101 0.1631388,-0.649233 0.1568835,-0.436479 0.2916426,-0.572375 0.602388,-0.809888 0.3503059,-0.267758 0.6253573,-0.339347 1.0896484,-0.385596 0.6036663,-0.06012 0.599407,-0.02041 1.1215569,0.241134 0.6074689,0.304282 0.7074555,0.362154 1.0073485,0.9449 0.3579838,0.695621 0.3182295,0.773047 0.2388608,1.293734 -0.090199,0.591733 -0.2626025,1.075664 -0.4986779,1.445881 -0.2152498,0.33756 -0.4873343,0.531052 -1.2083233,0.910905 -0.5170967,0.272432 -0.6252546,0.312393 -1.3124941,0.364371 -0.7520727,0.05689 -1.1068983,0.03085 -1.6808704,-0.17374 C 3.2327161,35.993593 2.9178495,35.888945 2.78618,35.851282 2.6106746,35.801075 2.4048838,35.622767 1.9505466,35.252249 1.2951844,34.717792 1.2095669,34.591729 1.060036,33.68167 1.0045723,33.344117 0.95193939,32.902555 0.94307239,32.700419 c -0.00887,-0.202134 -0.0304681,-0.39074 -0.0480125,-0.419124 -0.0366947,-0.05937 0.048456,-1.034493 0.13390921,-1.563938 0.070445,-0.436467 0.079866,-0.404028 0.583309,-1.149564 0.2987798,-0.442444 0.457229,-0.626006 0.7364366,-0.857787 0.9027978,-0.74944 1.363397,-0.984179 2.3886585,-1.250547 0.7108682,-0.184688 0.659532,-0.177277 1.5322702,-0.154093 0.9229835,0.02453 1.3762694,0.07456 1.7080452,0.197273 2.2436454,0.829803 3.0298614,1.533489 4.1793914,3.489044 0.367596,0.625349 0.688136,1.04198 1.322454,1.692876 0.466784,0.478986 0.7276,0.656539 1.02571,0.792663 0.480462,0.219391 1.075982,0.29928 2.154434,0.301465 1.027052,0.002 1.532822,-0.09243 1.980555,-0.389627 0.142396,-0.09452 0.37369,-0.222616 0.513987,-0.284655 0.140297,-0.06204 0.412951,-0.226937 0.469559,-0.277822 0.05662,-0.05088 0.179307,-0.119934 0.334025,-0.201166 0.355274,-0.186538 0.81453,-0.663446 0.965947,-0.984721 0.182357,-0.386941 0.494793,-0.880022 0.649428,-1.048299 0.105413,-0.114708 0.15399,-0.300245 0.192458,-0.553385 0.0283,-0.186227 0.110892,-0.422073 0.1699,-0.537735 0.148283,-0.290657 0.181703,-1.044209 0.07414,-1.252207 -0.04382,-0.08474 -0.112664,-0.300881 -0.152977,-0.514401 -0.143121,-0.757977 -0.965479,-1.764725 -1.826018,-2.190028 -0.312113,-0.154255 -0.539298,-0.231716 -1.026887,-0.275885 -1.013331,-0.09179 -1.883422,0.04785 -2.467742,0.476433 -0.552194,0.405022 -0.935626,0.716371 -0.935626,0.774104 0,0.06048 -0.187498,0.301907 -0.268556,0.336107 -0.112288,0.04737 -0.424208,0.525295 -0.424208,0.664526 0,0.08269 -0.03941,0.25206 -0.09442,0.376382 -0.209699,0.474065 -0.189667,0.941699 0.14163,1.737393 0.188472,0.452664 0.279669,0.664312 0.466549,0.898711 0.250542,0.314244 0.558557,0.549119 1.025117,0.631365 0.542898,0.09569 0.931846,0.172458 1.453956,-0.01828 0.674886,-0.246547 1.130108,-0.783072 1.374614,-1.328161 0.109997,-0.245228 0.162585,-0.437585 0.144667,-0.81763 -0.01802,-0.382008 -0.06447,-0.496064 -0.217599,-0.763902 -0.09611,-0.168109 -0.291953,-0.385926 -0.401135,-0.504488 -0.109179,-0.118564 -0.196091,-0.167053 -0.269978,-0.224262 0.123172,0.07667 0.414447,0.356965 0.57683,0.581134 0.249042,0.343792 0.340215,0.610979 0.303716,1.184386 -0.04006,0.62952 -0.284404,0.952885 -0.770408,1.449966 -0.374972,0.383517 -0.930165,0.501013 -1.246399,0.547449 -0.513568,0.07542 -1.08313,-0.04848 -1.493309,-0.305746 -0.49725,-0.311878 -0.622994,-0.547883 -0.905518,-1.040601 -0.232096,-0.404785 -0.242255,-0.418466 -0.349591,-0.988075 -0.127874,-0.678613 -0.133198,-1.159963 -0.005,-1.311855 0.03562,-0.04219 0.09745,-0.253903 0.130557,-0.415927 0.03311,-0.162027 0.08956,-0.27399 0.152724,-0.351065 0.06315,-0.07708 0.199845,-0.328804 0.290115,-0.518497 0.132788,-0.279063 0.130396,-0.247556 0.294793,-0.331425 0.111745,-0.05702 0.242221,-0.160039 0.242221,-0.188052 0,-0.02801 0.07876,-0.08848 0.175021,-0.134394 0.09626,-0.04591 0.186253,-0.12641 0.199979,-0.178902 0.01472,-0.05633 0.05255,-0.08219 0.228817,-0.159501 0.164279,-0.07204 0.485294,-0.223139 0.638396,-0.294863 0.153095,-0.07173 0.489633,-0.160104 0.856929,-0.250938 0.634958,-0.157028 0.642225,-0.15778 1.225761,-0.123121 0.586003,0.03481 0.515795,0.03363 0.803327,0.209904 0.165623,0.101532 0.395425,0.205948 0.497026,0.238848 0.101605,0.0329 0.275424,0.138791 0.495354,0.296663 0.219925,0.157873 0.549314,0.383776 0.643355,0.440654 0.09403,0.05688 0.272568,0.219945 0.458093,0.410089 0.385033,0.394626 0.710946,1.007722 0.843881,1.556445 0.04336,0.179036 0.119202,0.475469 0.17533,0.672375 0.08731,0.306344 0.08644,0.383343 0.06005,0.930384 -0.08215,1.703781 -0.633679,2.920315 -1.755744,3.942038 -0.140642,0.128068 -0.37263,0.332019 -0.576878,0.535027 -0.413307,0.410798 -0.856259,0.716642 -1.470787,1.013055 -0.225036,0.108542 -0.542606,0.270037 -0.698905,0.352061 -0.477695,0.250695 -1.096733,0.32776 -2.276081,0.32776 -1.153531,0 -1.303919,0.02306 -2.628145,0.361339 -0.473714,0.121012 -0.73263,0.22348 -1.006034,0.41858 -0.462368,0.329938 -1.049038,1.070438 -1.465486,1.872724 -0.0657,0.126582 -0.160602,0.27618 -0.210884,0.332438 -0.166658,0.186491 -0.356285,0.69815 -0.365217,1.03298 -0.02199,0.824664 0.02711,2.386222 0.0725,2.570557 0.07038,0.285848 0.231881,0.624527 0.364898,0.805166 0.172483,0.234231 0.49117,0.798937 0.558417,1.002697 0.03611,0.109382 0.157383,0.263528 0.303794,0.38611 0.134037,0.112222 0.309689,0.29926 0.390339,0.415639 0.175287,0.252935 0.93834,0.680205 1.318072,0.728196 0.133,0.01681 0.288772,0.0597 0.346159,0.0953 0.05739,0.03561 0.229996,0.09076 0.383584,0.12256 0.333009,0.06895 1.223738,-0.04841 1.658737,-0.213706 0.267424,-0.101615 0.89834,-0.47036 1.234286,-0.721393 0.25179,-0.188147 0.731648,-0.812094 0.83249,-1.124677 0.04763,-0.147638 0.114732,-0.314459 0.149115,-0.370718 0.177133,-0.289789 0.218743,-0.993221 0.134128,-2.013908 -0.03241,-0.391038 -0.07427,-0.618191 -0.169745,-0.805165 -0.06969,-0.13649 -0.202764,-0.427501 -0.267848,-0.56309 -0.199234,-0.415061 -1.310475,-1.20819 -1.695652,-1.216146 -0.0641,-0.0013 -0.31652,-0.02691 -0.505176,-0.06615 -0.362251,-0.07536 -0.817238,0.05953 -1.18588,0.17857 -0.444445,0.143514 -0.597446,0.386173 -0.817463,0.608523 -0.195508,0.197585 -0.339935,0.402405 -0.446664,0.740265 -0.122521,0.387834 -0.196361,0.531776 -0.153392,1.026617 0.05252,0.604811 0.216412,0.937822 0.504035,1.256186 0.229406,0.253925 0.523628,0.375788 1.041368,0.529672 0.375985,0.111748 0.792251,0.04304 1.122119,-0.05421 -0.646342,0.225188 -1.056089,0.07333 -1.588324,-0.09002 -0.477513,-0.195337 -0.688187,-0.466817 -0.909542,-0.919266 -0.159383,-0.325783 -0.166187,-0.364817 -0.166187,-0.953422 0,-0.585358 -0.03069,-0.47591 0.119846,-0.768589 0.08681,-0.168777 0.210932,-0.410372 0.275813,-0.53688 0.06488,-0.126505 0.237975,-0.329876 0.403226,-0.48909 0.243928,-0.235001 0.222886,-0.239221 0.543922,-0.350289 0.88374,-0.305741 1.814924,-0.272062 2.475838,0.14753 0.604383,0.383704 1.020225,0.716086 1.221797,1.011387 0.37028,0.542461 0.622758,1.062156 0.661713,1.500146 0.01877,0.210971 0.07019,0.547547 0.09568,0.794396 0.04371,0.423162 0.03627,0.488932 -0.130367,1.150746 -0.260219,1.033561 -0.235351,1.125909 -0.740808,1.570291 -0.228534,0.200925 -0.501184,0.409324 -0.605886,0.463113 -0.104708,0.05379 -0.265811,0.162709 -0.358011,0.242048 -0.249994,0.215112 -0.686381,0.476452 -0.838561,0.476452 -0.07363,0 -0.277968,0.0549 -0.454078,0.122019 -0.347885,0.132576 -0.993618,0.290886 -1.145811,0.280912 -0.05224,-0.0034 -0.302112,-0.03428 -0.555273,-0.06857 l 8e-6,5e-6 z"
       id="path2243-8"
       sodipodi:nodetypes="cssssssssssssssssssssssssssssssscsssssssssssssssssssssssssssssssssssssssssssssssssscssssssssssssssssssssssssssssssssssssssssssssssssssssssssssssccssssssssssssssssscc" />
  </g>
  <g
     style="display:inline"
     inkscape:label="border copia"
     id="g2876"
     inkscape:groupmode="layer"
     transform="translate(0,-24)">
    <path
       sodipodi:nodetypes="cssssssssssssssccssssssssssssssscc"
       id="path2878"
       d="m 15.995534,45.532913 c 0.267424,-0.101615 0.898344,-0.470364 1.23429,-0.721398 0.251789,-0.188146 0.731648,-0.812093 0.83249,-1.124676 0.04763,-0.147638 0.114731,-0.314461 0.149114,-0.370719 0.177134,-0.289788 0.218743,-0.99322 0.134129,-2.013907 -0.03241,-0.391038 -0.07427,-0.618191 -0.169744,-0.805166 -0.06969,-0.136489 -0.202766,-0.4275 -0.26785,-0.563089 -0.199233,-0.415061 -1.310474,-1.20819 -1.695652,-1.216146 -0.0641,-0.0013 -0.316519,-0.02691 -0.505174,-0.06616 -0.362252,-0.07535 -0.817239,0.05953 -1.185881,0.17857 -0.444446,0.143514 -0.597446,0.386173 -0.817463,0.608523 -0.195507,0.197585 -0.339935,0.402405 -0.446665,0.740266 -0.12252,0.387833 -0.196361,0.531775 -0.153391,1.026615 0.05252,0.604812 0.216411,0.937822 0.504035,1.256186 0.229405,0.253926 0.523627,0.375789 1.041367,0.529671 0.375986,0.11175 0.792251,0.04304 1.12212,-0.05421 -0.646343,0.225186 -1.056089,0.07333 -1.588325,-0.09002 -0.477512,-0.195337 -0.688186,-0.466817 -0.909541,-0.919266 -0.159384,-0.325783 -0.166189,-0.364817 -0.166189,-0.953422 0,-0.585358 -0.03069,-0.47591 0.119848,-0.768589 0.08681,-0.168778 0.210932,-0.410372 0.275812,-0.53688 0.06488,-0.126505 0.237975,-0.329876 0.403227,-0.489089 0.243927,-0.235002 0.222885,-0.239222 0.543922,-0.35029 0.883739,-0.305741 1.814923,-0.272062 2.475837,0.14753 0.604384,0.383704 1.020226,0.716086 1.221798,1.011387 0.370281,0.542461 0.622757,1.062156 0.661713,1.500146 0.01877,0.210972 0.07019,0.547547 0.09568,0.794396 0.04371,0.423162 0.03627,0.488932 -0.130367,1.150746 -0.260219,1.033561 -0.235351,1.125909 -0.740808,1.570292 -0.228533,0.200924 -0.501183,0.409323 -0.605886,0.463112 -0.104707,0.05379 -0.26581,0.162709 -0.358011,0.242047 -0.249993,0.215113 -0.686381,0.476452 -0.838561,0.476452 -0.07363,0 -0.277968,0.05491 -0.454078,0.122021 -0.460937,0.653336 0.07926,-0.312887 0.2182,-0.774935 z"
       style="color:#000000;fill:none;stroke:url(#linearGradient2880);stroke-width:1;stroke-linejoin:round;stroke-miterlimit:4;stroke-opacity:1;stroke-dasharray:none;marker:none;visibility:visible;display:inline;overflow:visible;enable-background:accumulate" />
  </g>
</svg>
