<?xml version="1.0" encoding="UTF-8" standalone="no"?>
<!-- Created with Inkscape (http://www.inkscape.org/) -->

<svg
   xmlns:dc="http://purl.org/dc/elements/1.1/"
   xmlns:cc="http://creativecommons.org/ns#"
   xmlns:rdf="http://www.w3.org/1999/02/22-rdf-syntax-ns#"
   xmlns:svg="http://www.w3.org/2000/svg"
   xmlns="http://www.w3.org/2000/svg"
   xmlns:xlink="http://www.w3.org/1999/xlink"
   xmlns:sodipodi="http://sodipodi.sourceforge.net/DTD/sodipodi-0.dtd"
   xmlns:inkscape="http://www.inkscape.org/namespaces/inkscape"
   width="16"
   height="16"
   id="svg1328"
   sodipodi:version="0.32"
   inkscape:version="0.47 r22583"
   sodipodi:docname="trisquel16.svg"
   inkscape:output_extension="org.inkscape.output.svg.inkscape"
   version="1.1"
   style="display:inline"
   inkscape:export-filename="/home/ru/Escritorio/trisquel16.png"
   inkscape:export-xdpi="90"
   inkscape:export-ydpi="90">
  <sodipodi:namedview
     inkscape:cy="7.3300652"
     inkscape:cx="5.9632812"
     inkscape:zoom="32"
     inkscape:window-height="905"
     inkscape:window-width="1200"
     inkscape:pageshadow="2"
     inkscape:pageopacity="0.0"
     guidetolerance="10.0"
     gridtolerance="10.0"
     objecttolerance="10.0"
     borderopacity="0.31764706"
     bordercolor="#666"
     pagecolor="#ffffff"
     id="base"
     inkscape:showpageshadow="false"
     showgrid="false"
     inkscape:window-x="-19"
     inkscape:window-y="32"
     inkscape:current-layer="g2876"
     showguides="true"
     inkscape:guide-bbox="true"
     inkscape:window-maximized="0"
     showborder="true" />
  <defs
     id="defs1330">
    <linearGradient
       id="linearGradient3654">
      <stop
         id="stop3656"
         offset="0"
         style="stop-color:#ffffff;stop-opacity:0;" />
      <stop
         style="stop-color:#ffffff;stop-opacity:1;"
         offset="0.02531646"
         id="stop3660" />
      <stop
         id="stop3658"
         offset="1"
         style="stop-color:#386ea6;stop-opacity:0;" />
    </linearGradient>
    <linearGradient
       id="linearGradient3860">
      <stop
         style="stop-color:#001355;stop-opacity:1;"
         offset="0"
         id="stop3862" />
      <stop
         style="stop-color:#002455;stop-opacity:0;"
         offset="1"
         id="stop3864" />
    </linearGradient>
    <linearGradient
       inkscape:collect="always"
       id="linearGradient3741">
      <stop
         style="stop-color:#ffffff;stop-opacity:1;"
         offset="0"
         id="stop3743" />
      <stop
         style="stop-color:#ffffff;stop-opacity:0;"
         offset="1"
         id="stop3745" />
    </linearGradient>
    <inkscape:perspective
       sodipodi:type="inkscape:persp3d"
       inkscape:vp_x="0 : 24 : 1"
       inkscape:vp_y="0 : 1000 : 0"
       inkscape:vp_z="48 : 24 : 1"
       inkscape:persp3d-origin="24 : 16 : 1"
       id="perspective58" />
    <linearGradient
       inkscape:collect="always"
       id="linearGradient8112">
      <stop
         style="stop-color:#ffffff;stop-opacity:1;"
         offset="0"
         id="stop8114" />
      <stop
         style="stop-color:#ffffff;stop-opacity:0;"
         offset="1"
         id="stop8116" />
    </linearGradient>
    <linearGradient
       id="linearGradient7108">
      <stop
         style="stop-color:#000000;stop-opacity:1;"
         offset="0"
         id="stop7110" />
      <stop
         style="stop-color:#ffffff;stop-opacity:1;"
         offset="1"
         id="stop7112" />
    </linearGradient>
    <linearGradient
       id="linearGradient7100">
      <stop
         style="stop-color:#000000;stop-opacity:1;"
         offset="0"
         id="stop7102" />
      <stop
         style="stop-color:#ffffff;stop-opacity:1;"
         offset="1"
         id="stop7104" />
    </linearGradient>
    <linearGradient
       id="linearGradient2804">
      <stop
         style="stop-color:black;stop-opacity:0;"
         offset="0"
         id="stop2806" />
      <stop
         id="stop2812"
         offset="0.5"
         style="stop-color:black;stop-opacity:1;" />
      <stop
         style="stop-color:black;stop-opacity:0;"
         offset="1"
         id="stop2808" />
    </linearGradient>
    <linearGradient
       inkscape:collect="always"
       id="linearGradient2781">
      <stop
         style="stop-color:black;stop-opacity:1;"
         offset="0"
         id="stop2783" />
      <stop
         style="stop-color:black;stop-opacity:0;"
         offset="1"
         id="stop2785" />
    </linearGradient>
    <linearGradient
       inkscape:collect="always"
       id="linearGradient2782">
      <stop
         style="stop-color:white;stop-opacity:1;"
         offset="0"
         id="stop2784" />
      <stop
         style="stop-color:white;stop-opacity:0;"
         offset="1"
         id="stop2786" />
    </linearGradient>
    <linearGradient
       id="linearGradient5106">
      <stop
         style="stop-color:#ffffff;stop-opacity:1;"
         offset="0"
         id="stop5108" />
      <stop
         style="stop-color:#386ea6;stop-opacity:1;"
         offset="1"
         id="stop5110" />
    </linearGradient>
    <linearGradient
       inkscape:collect="always"
       xlink:href="#linearGradient5106"
       id="linearGradient2780"
       gradientUnits="userSpaceOnUse"
       gradientTransform="matrix(3.137165,0,0,3.184122,-1.606682,-4.861064)"
       x1="8.1771841"
       y1="5.7791729"
       x2="8.1771841"
       y2="15.676654" />
    <linearGradient
       inkscape:collect="always"
       xlink:href="#linearGradient2782"
       id="linearGradient2788"
       x1="26.0625"
       y1="23.265625"
       x2="29.03125"
       y2="55.265625"
       gradientUnits="userSpaceOnUse" />
    <radialGradient
       inkscape:collect="always"
       xlink:href="#linearGradient2781"
       id="radialGradient2827"
       gradientUnits="userSpaceOnUse"
       gradientTransform="matrix(2,0,0,0.8,-13,-79.2)"
       cx="1"
       cy="44"
       fx="1"
       fy="44"
       r="5" />
    <radialGradient
       inkscape:collect="always"
       xlink:href="#linearGradient2781"
       id="radialGradient2829"
       gradientUnits="userSpaceOnUse"
       gradientTransform="matrix(2,0,0,0.8,36,8.8)"
       cx="1"
       cy="44"
       fx="1"
       fy="44"
       r="5" />
    <linearGradient
       inkscape:collect="always"
       xlink:href="#linearGradient2804"
       id="linearGradient2831"
       gradientUnits="userSpaceOnUse"
       x1="21.875"
       y1="48.000977"
       x2="21.875"
       y2="40" />
    <linearGradient
       inkscape:collect="always"
       xlink:href="#linearGradient5106"
       id="linearGradient8141"
       gradientUnits="userSpaceOnUse"
       gradientTransform="matrix(3.3087682,0,0,3.3582938,-5.969971,-6.3358833)"
       x1="8.1771841"
       y1="5.7791729"
       x2="8.1771841"
       y2="15.676654" />
    <linearGradient
       inkscape:collect="always"
       xlink:href="#linearGradient2782"
       id="linearGradient15953"
       x1="77.297218"
       y1="16.647184"
       x2="77.480881"
       y2="52.45615"
       gradientUnits="userSpaceOnUse"
       gradientTransform="translate(-0.8601477,-1.863416)" />
    <radialGradient
       inkscape:collect="always"
       xlink:href="#linearGradient2781"
       id="radialGradient19858"
       cx="73.570084"
       cy="23.145077"
       fx="73.570084"
       fy="23.145077"
       r="20.928947"
       gradientTransform="matrix(1,0,0,0.9887118,-0.4220719,11.235137)"
       gradientUnits="userSpaceOnUse" />
    <radialGradient
       inkscape:collect="always"
       xlink:href="#linearGradient2781"
       id="radialGradient19868"
       gradientUnits="userSpaceOnUse"
       gradientTransform="matrix(2,0,0,0.8,-25.240086,-80.929141)"
       cx="1"
       cy="44"
       fx="1"
       fy="44"
       r="5" />
    <radialGradient
       inkscape:collect="always"
       xlink:href="#linearGradient2781"
       id="radialGradient19870"
       gradientUnits="userSpaceOnUse"
       gradientTransform="matrix(2,0,0,0.8,21.227482,10.529141)"
       cx="1"
       cy="44"
       fx="1"
       fy="44"
       r="5" />
    <linearGradient
       inkscape:collect="always"
       xlink:href="#linearGradient2804"
       id="linearGradient19872"
       gradientUnits="userSpaceOnUse"
       x1="21.875"
       y1="48.000977"
       x2="21.875"
       y2="40"
       gradientTransform="matrix(1,0,0,0.1481438,0,40.8891)" />
    <radialGradient
       inkscape:collect="always"
       xlink:href="#linearGradient2781"
       id="radialGradient19882"
       gradientUnits="userSpaceOnUse"
       gradientTransform="matrix(2,0,0,0.8,-13,-79.2)"
       cx="1"
       cy="44"
       fx="1"
       fy="44"
       r="5" />
    <radialGradient
       inkscape:collect="always"
       xlink:href="#linearGradient2781"
       id="radialGradient19884"
       gradientUnits="userSpaceOnUse"
       gradientTransform="matrix(2,0,0,0.8,36,8.8)"
       cx="1"
       cy="44"
       fx="1"
       fy="44"
       r="5" />
    <linearGradient
       inkscape:collect="always"
       xlink:href="#linearGradient2804"
       id="linearGradient19886"
       gradientUnits="userSpaceOnUse"
       x1="21.875"
       y1="48.000977"
       x2="21.875"
       y2="40" />
    <linearGradient
       inkscape:collect="always"
       xlink:href="#linearGradient8112"
       id="linearGradient8118"
       x1="33.111675"
       y1="43.542542"
       x2="25.368185"
       y2="2.4395995"
       gradientUnits="userSpaceOnUse" />
    <linearGradient
       inkscape:collect="always"
       xlink:href="#linearGradient8112"
       id="linearGradient8126"
       x1="29.854376"
       y1="50.395214"
       x2="21.795116"
       y2="15.465387"
       gradientUnits="userSpaceOnUse" />
    <inkscape:perspective
       id="perspective3642"
       inkscape:persp3d-origin="0.5 : 0.33333333 : 1"
       inkscape:vp_z="1 : 0.5 : 1"
       inkscape:vp_y="0 : 1000 : 0"
       inkscape:vp_x="0 : 0.5 : 1"
       sodipodi:type="inkscape:persp3d" />
    <inkscape:perspective
       id="perspective3664"
       inkscape:persp3d-origin="0.5 : 0.33333333 : 1"
       inkscape:vp_z="1 : 0.5 : 1"
       inkscape:vp_y="0 : 1000 : 0"
       inkscape:vp_x="0 : 0.5 : 1"
       sodipodi:type="inkscape:persp3d" />
    <inkscape:perspective
       id="perspective3687"
       inkscape:persp3d-origin="0.5 : 0.33333333 : 1"
       inkscape:vp_z="1 : 0.5 : 1"
       inkscape:vp_y="0 : 1000 : 0"
       inkscape:vp_x="0 : 0.5 : 1"
       sodipodi:type="inkscape:persp3d" />
    <inkscape:perspective
       id="perspective3709"
       inkscape:persp3d-origin="0.5 : 0.33333333 : 1"
       inkscape:vp_z="1 : 0.5 : 1"
       inkscape:vp_y="0 : 1000 : 0"
       inkscape:vp_x="0 : 0.5 : 1"
       sodipodi:type="inkscape:persp3d" />
    <radialGradient
       inkscape:collect="always"
       xlink:href="#linearGradient3741"
       id="radialGradient3749"
       cx="17.822229"
       cy="10.598286"
       fx="17.822229"
       fy="10.598286"
       r="23.300945"
       gradientTransform="matrix(0.27591279,0.31531827,-0.36577149,0.3200608,4.9169066,26.531338)"
       gradientUnits="userSpaceOnUse" />
    <linearGradient
       inkscape:collect="always"
       xlink:href="#linearGradient5106"
       id="linearGradient3781"
       x1="14.533335"
       y1="-6.3957248"
       x2="30.149065"
       y2="39.755077"
       gradientUnits="userSpaceOnUse"
       gradientTransform="matrix(0.31816612,0,0,0.31816612,0.2873079,32.122736)" />
    <inkscape:perspective
       id="perspective3804"
       inkscape:persp3d-origin="0.5 : 0.33333333 : 1"
       inkscape:vp_z="1 : 0.5 : 1"
       inkscape:vp_y="0 : 1000 : 0"
       inkscape:vp_x="0 : 0.5 : 1"
       sodipodi:type="inkscape:persp3d" />
    <linearGradient
       inkscape:collect="always"
       xlink:href="#linearGradient3860"
       id="linearGradient3866"
       x1="30.784439"
       y1="-3.2016251"
       x2="48.248177"
       y2="74.1007"
       gradientUnits="userSpaceOnUse"
       gradientTransform="matrix(0.42477836,0,0,0.42477836,0.64026557,26.923199)" />
    <linearGradient
       inkscape:collect="always"
       xlink:href="#linearGradient3654"
       id="linearGradient2880"
       gradientUnits="userSpaceOnUse"
       gradientTransform="matrix(0.31816612,0,0,0.31816612,0.2873079,32.122736)"
       x1="27.266195"
       y1="23.758333"
       x2="34.410751"
       y2="47.199356" />
  </defs>
  <sodipodi:namedview
     id="namedview21"
     pagecolor="#ffffff"
     bordercolor="#666666"
     borderopacity="1.0"
     inkscape:pageopacity="0.0"
     inkscape:pageshadow="2"
     inkscape:zoom="9.8994949"
     inkscape:cx="24"
     inkscape:cy="24"
     inkscape:current-layer="layer1"
     showgrid="true"
     inkscape:grid-bbox="true"
     inkscape:document-units="px"
     inkscape:window-width="736"
     inkscape:window-height="851"
     inkscape:window-x="214"
     inkscape:window-y="28" />
  <metadata
     id="metadata1333">
    <rdf:RDF>
      <cc:Work
         rdf:about="">
        <dc:format>image/svg+xml</dc:format>
        <dc:type
           rdf:resource="http://purl.org/dc/dcmitype/StillImage" />
        <dc:title />
        <dc:subject>
          <rdf:Bag>
            <rdf:li>go</rdf:li>
            <rdf:li>seek</rdf:li>
            <rdf:li>home</rdf:li>
          </rdf:Bag>
        </dc:subject>
        <dc:creator>
          <cc:Agent>
            <dc:title>Rodney Dawes</dc:title>
          </cc:Agent>
        </dc:creator>
        <dc:contributor>
          <cc:Agent>
            <dc:title>Jakub Steiner</dc:title>
          </cc:Agent>
        </dc:contributor>
        <cc:license
           rdf:resource="http://creativecommons.org/licenses/GPL/2.0/" />
      </cc:Work>
      <cc:License
         rdf:about="http://creativecommons.org/licenses/GPL/2.0/">
        <cc:permits
           rdf:resource="http://web.resource.org/cc/Reproduction" />
        <cc:permits
           rdf:resource="http://web.resource.org/cc/Distribution" />
        <cc:requires
           rdf:resource="http://web.resource.org/cc/Notice" />
        <cc:permits
           rdf:resource="http://web.resource.org/cc/DerivativeWorks" />
        <cc:requires
           rdf:resource="http://web.resource.org/cc/ShareAlike" />
        <cc:requires
           rdf:resource="http://web.resource.org/cc/SourceCode" />
      </cc:License>
    </rdf:RDF>
  </metadata>
  <g
     id="layer1"
     inkscape:label="color"
     inkscape:groupmode="layer"
     style="display:inline"
     transform="translate(0,-32)">
    <path
       style="color:#000000;fill:#004db1;fill-opacity:1;fill-rule:nonzero;stroke:none;stroke-width:1.00000024;marker:none;visibility:visible;display:inline;overflow:visible;enable-background:accumulate"
       d="M 9.2943698,47.06344 C 8.900134,47.010042 8.4664993,46.90418 8.2740511,46.814356 7.8292284,46.606738 7.4035873,46.311891 7.2519081,46.106303 7.2121658,46.052434 7.11352,45.956258 7.0326938,45.892584 6.7113784,45.639444 6.5236794,45.372929 6.1406651,44.625986 6.0971497,44.54112 5.961189,43.85397 5.911145,43.465973 5.871602,43.159364 5.87478,42.546786 5.917375,42.266398 c 0.052854,-0.34791 0.1608136,-0.805465 0.2131148,-0.903185 0.044015,-0.08224 0.1533786,-0.43649 0.1873721,-0.606943 0.012843,-0.0644 0.041657,-0.139667 0.064026,-0.167265 0.022368,-0.0276 0.068532,-0.148031 0.1025841,-0.267626 0.034051,-0.119595 0.1134342,-0.321678 0.1764044,-0.449075 0.1410277,-0.285323 0.2073056,-0.497913 0.2077803,-0.666455 2.03e-4,-0.07077 0.025095,-0.213746 0.055328,-0.317734 0.074021,-0.254622 0.045484,-0.971595 -0.049463,-1.242986 C 6.8023983,37.439016 6.6262892,37.092871 6.4412481,36.793543 6.0578566,36.173352 4.962,35.410298 4.3098475,35.309428 c -0.2499924,-0.03866 -1.0774059,0.0041 -1.4330735,0.07411 -0.3045004,0.05992 -0.5913196,0.193176 -0.7383595,0.34305 -0.3771541,0.384417 -0.5975708,0.644115 -0.6844136,0.806381 -0.1252681,0.23407 -0.202948,0.593119 -0.2242636,1.036614 -0.024219,0.503999 -0.00316,0.609357 0.2203615,1.10232 0.1886348,0.416021 0.6959171,0.836326 1.2539985,1.038987 0.2605006,0.0946 0.3596895,0.112145 0.7359677,0.130194 0.5189105,0.0249 0.7400735,-0.01273 0.9726662,-0.16543 0.090608,-0.05949 0.2324889,-0.147949 0.3152824,-0.196577 0.3779282,-0.221965 0.5909453,-0.312443 0.5893372,-0.888533 -9.995e-4,-0.357083 -0.1282487,-0.679723 -0.3439021,-0.871939 -0.1340979,-0.119527 -0.6072209,-0.4042 -0.7447017,-0.44808 -0.2395214,-0.07645 -0.5485176,-0.02795 -0.8782449,0.137828 -0.1605147,0.08071 -0.3203662,0.185791 -0.3552301,0.233523 -0.034859,0.04774 -0.1138154,0.220853 -0.1754499,0.384712 -0.061639,0.163858 -0.1244297,0.297925 -0.1395353,0.297925 -0.059935,0 -0.044566,-0.259874 0.027166,-0.459458 0.1026163,-0.285498 0.2056752,-0.434042 0.4089315,-0.589398 0.2291328,-0.175138 0.4537839,-0.261734 0.7574733,-0.291985 0.3948536,-0.03933 0.4566951,-0.02826 0.7982293,0.142809 0.3973408,0.199028 0.5174266,0.316424 0.7135839,0.697593 0.2341546,0.455 0.2628365,0.580215 0.2109226,0.920792 -0.059,0.387048 -0.2072774,0.450029 -0.3616926,0.692185 -0.1407927,0.220795 -0.4032745,0.421927 -0.8748681,0.670387 -0.3382313,0.178195 -0.4537187,0.209305 -0.9032369,0.243304 -0.4919255,0.03721 -0.778699,0.0053 -1.1541299,-0.128556 C 2.1370747,40.163166 1.9311229,40.09471 1.8449989,40.070076 1.730202,40.037236 1.5816879,39.935331 1.2884746,39.688196 0.78523682,39.264041 0.70437846,39.1269 0.60657132,38.531637 c -0.0362783,-0.220792 -0.0707052,-0.509614 -0.0765049,-0.641829 -0.0058,-0.132216 -0.0199289,-0.25558 -0.0314044,-0.274146 -0.0240016,-0.03883 0.0316948,-0.711453 0.087589,-1.057759 0.0460773,-0.285491 0.0671531,-0.3289 0.39645207,-0.81655 C 1.1781328,35.451954 1.30663,35.302059 1.4892574,35.150455 2.0797707,34.660251 2.4655582,34.456996 3.136174,34.282767 3.6011476,34.161964 3.6023684,34.161839 4.17322,34.177004 c 0.6037166,0.01604 0.925064,0.05374 1.1420762,0.134007 1.4675512,0.542767 2.046437,1.017957 2.7983362,2.29707 0.2404427,0.409038 0.4699908,0.701439 0.8848932,1.127183 0.3053195,0.313303 0.4030305,0.391877 0.5980225,0.480915 0.3142656,0.143502 0.6819019,0.195756 1.3873099,0.197186 0.671786,0.0013 0.925994,-0.04951 1.218852,-0.243908 0.09314,-0.06182 0.244428,-0.145611 0.336196,-0.18619 0.09177,-0.04058 0.197143,-0.101012 0.234171,-0.134294 0.03703,-0.03328 0.150117,-0.103987 0.251316,-0.15712 0.232382,-0.122013 0.503592,-0.393824 0.602633,-0.603968 0.119279,-0.253096 0.301752,-0.553726 0.402897,-0.663795 0.06895,-0.07503 0.100724,-0.156257 0.125885,-0.321833 0.01851,-0.121811 0.06524,-0.283373 0.103834,-0.359027 0.09699,-0.190116 0.129795,-0.591804 0.05944,-0.727854 -0.02867,-0.05543 -0.0737,-0.215045 -0.100062,-0.354706 -0.09361,-0.495787 -0.584086,-1.074032 -1.146958,-1.35222 -0.20415,-0.100897 -0.290731,-0.122379 -0.609658,-0.151268 -0.662813,-0.06005 -1.148025,0.04224 -1.530223,0.322576 -0.361187,0.26492 -0.517132,0.395608 -0.517132,0.433371 0,0.03956 -0.16642,0.233956 -0.21944,0.256326 -0.07345,0.03099 -0.215451,0.266979 -0.215451,0.35805 0,0.05409 -0.02943,0.164869 -0.0654,0.246187 -0.1371634,0.310084 -0.1131155,0.561236 0.103584,1.081695 0.123278,0.296083 0.16104,0.365204 0.283277,0.518523 0.163878,0.205544 0.336162,0.300803 0.641336,0.354599 0.355106,0.06259 0.5329,0.05807 0.757666,-0.01926 0.444404,-0.152897 0.753788,-0.4137 0.913717,-0.770238 0.07195,-0.160401 0.08081,-0.220553 0.06908,-0.469139 -0.01178,-0.249869 -0.02758,-0.02863 -0.127737,-0.20382 -0.06287,-0.109958 -0.172723,-0.263375 -0.244138,-0.340926 -0.07141,-0.07755 -0.124614,-0.156695 -0.118219,-0.175875 0.01855,-0.05564 0.354996,0.189711 0.46121,0.336338 0.162895,0.224872 0.215236,0.169463 0.191361,0.544524 -0.0262,0.411764 -0.138599,0.65246 -0.456491,0.977597 -0.245267,0.250855 -0.491671,0.371487 -0.902818,0.441992 -0.334639,0.05738 -0.759543,-0.02076 -1.027838,-0.189042 C 10.133501,36.656666 9.930861,36.447573 9.7460644,36.12529 9.5942511,35.860523 9.5657166,35.77861 9.4955085,35.406032 c -0.08364,-0.443876 -0.083474,-0.80615 4.241e-4,-0.905501 0.023311,-0.0276 0.060095,-0.136891 0.081747,-0.24287 0.021662,-0.10598 0.073172,-0.233938 0.1144877,-0.284351 0.041317,-0.05042 0.1234217,-0.193179 0.1824662,-0.317257 0.086857,-0.182532 0.1327175,-0.238537 0.2402495,-0.293394 0.07309,-0.03729 0.132898,-0.08279 0.132898,-0.101115 0,-0.01832 0.05152,-0.05788 0.114479,-0.08791 0.06297,-0.03002 0.121827,-0.08268 0.130805,-0.117018 0.0096,-0.03685 0.09639,-0.09754 0.211687,-0.148107 0.107454,-0.04711 0.277297,-0.124065 0.37744,-0.170979 0.100138,-0.04691 0.378637,-0.133909 0.618882,-0.193322 0.415321,-0.102711 0.456557,-0.106851 0.838244,-0.08418 0.383299,0.02277 0.410341,0.0293 0.598413,0.144594 0.108334,0.06642 0.251348,0.138357 0.317805,0.159877 0.06646,0.02153 0.238526,0.123615 0.38238,0.226879 0.143851,0.103264 0.311875,0.218192 0.373387,0.255395 0.06151,0.0372 0.211117,0.169401 0.332469,0.293774 0.251847,0.258122 0.516099,0.739404 0.603051,1.09832 0.02837,0.117106 0.08162,0.318296 0.11833,0.447091 0.05711,0.200376 0.06383,0.29452 0.04657,0.652337 -0.05373,1.11443 -0.432727,1.972175 -1.166661,2.640477 -0.09199,0.08377 -0.276569,0.260949 -0.410166,0.393736 -0.270341,0.268699 -0.592906,0.490639 -0.994864,0.68452 -0.147194,0.071 -0.351267,0.172981 -0.453501,0.226633 -0.312457,0.163977 -0.790329,0.236274 -1.561733,0.236274 -0.7545155,0 -0.8382903,0.01144 -1.704456,0.232701 -0.309854,0.07915 -0.4116124,0.122207 -0.5904438,0.249819 -0.3024322,0.215811 -0.6513703,0.665367 -0.9237644,1.190137 -0.042981,0.08279 -0.1050499,0.180646 -0.1379381,0.217445 -0.109011,0.121982 -0.1932739,0.372142 -0.1991151,0.591152 -0.014381,0.539405 0.00779,1.496182 0.037479,1.616753 0.04603,0.186972 0.1317872,0.383643 0.21879,0.501798 0.1128214,0.153208 0.301387,0.497721 0.3453725,0.630999 0.023618,0.07155 0.1029444,0.172372 0.1987104,0.252552 0.087672,0.0734 0.2025652,0.195744 0.2553175,0.271865 0.1146534,0.165445 0.5292473,0.390233 0.7776271,0.421624 0.086995,0.011 0.1888848,0.03905 0.2264203,0.06233 0.03754,0.0233 0.1504397,0.05937 0.2509001,0.08017 0.2178184,0.0451 0.7109535,-0.01675 0.9954835,-0.124869 0.17492,-0.06647 0.587597,-0.30766 0.807338,-0.471858 0.164692,-0.123066 0.389079,-0.441701 0.45504,-0.646159 0.03115,-0.09657 0.07505,-0.205685 0.09754,-0.242484 0.115861,-0.189548 0.143078,-0.575088 0.08773,-1.24271 -0.02121,-0.255777 -0.04857,-0.379498 -0.111028,-0.501797 -0.04559,-0.08928 -0.117713,-0.234884 -0.160284,-0.323571 -0.130318,-0.271489 -0.757745,-0.72564 -1.009686,-0.730845 -0.04193,-8.56e-4 -0.177205,-0.02257 -0.300604,-0.04824 -0.236945,-0.04928 -0.5828227,-0.02443 -0.7259614,0.05217 -0.1759747,0.09418 -0.4007272,0.262536 -0.544639,0.407975 -0.1278797,0.129238 -0.1726349,0.208525 -0.242446,0.429518 -0.080139,0.253677 -0.083697,0.293145 -0.05559,0.616815 0.034349,0.395605 0.1017827,0.578624 0.289915,0.786864 0.150052,0.166092 0.2778731,0.235857 0.6165236,0.336511 0.2459295,0.0731 0.4784338,0.07787 0.6941978,0.01425 0.126706,-0.03735 0.08358,0.03861 -0.05821,0.10255 C 10.114723,44.74372 9.6416087,44.70918 9.3293515,44.58145 9.017013,44.453677 8.7449866,44.201534 8.6001994,43.90559 8.4959478,43.692499 8.4914969,43.666967 8.4914969,43.281965 c 0,-0.38288 0.00486,-0.410718 0.1032485,-0.602157 0.056782,-0.110396 0.1379688,-0.26842 0.1804064,-0.351168 0.042438,-0.08275 0.1656008,-0.235656 0.2736907,-0.339795 0.1595499,-0.153714 0.2452148,-0.206187 0.4552009,-0.278836 0.5780476,-0.199982 1.2815846,-0.148125 1.7138826,0.126326 0.395323,0.250978 0.741892,0.542957 0.873739,0.73611 0.242197,0.35482 0.417285,0.774291 0.442764,1.060778 0.01227,0.137995 0.03597,0.383002 0.05265,0.544464 0.02859,0.276787 0.02373,0.319807 -0.08527,0.752695 -0.170208,0.676043 -0.263311,0.855761 -0.593926,1.146428 -0.149483,0.131423 -0.327821,0.267735 -0.396307,0.302918 -0.06849,0.03518 -0.173863,0.106426 -0.234171,0.158321 -0.16352,0.140704 -0.473814,0.306673 -0.573354,0.306673 -0.04816,0 -0.181817,0.03592 -0.297009,0.07981 -0.227548,0.08672 -0.6499183,0.190264 -0.7494663,0.183742 -0.034171,-0.0022 -0.1976095,-0.02243 -0.3632003,-0.04485 l -5.6e-6,1.6e-5 z"
       id="path2243"
       sodipodi:nodetypes="cssssssssssssssssssssssssssssssssssssssssssssssssssssssssssssssssssssssssssssssssssssssssssssssssssssssssssssssssssssssssssssssssssssssssssssssssssssssssssssssssssscc" />
  </g>
  <g
     style="opacity:0.43457947;display:inline"
     inkscape:groupmode="layer"
     inkscape:label="color copia"
     id="g3737"
     transform="translate(0,-32)">
    <path
       id="path3739"
       d="M 9.2943698,47.06344 C 8.900134,47.010042 8.4664993,46.90418 8.2740511,46.814356 7.8292284,46.606738 7.4035873,46.311891 7.2519081,46.106303 7.2121658,46.052434 7.11352,45.956258 7.0326938,45.892584 6.7113784,45.639444 6.5236794,45.372929 6.1406651,44.625986 6.0971497,44.54112 5.961189,43.85397 5.911145,43.465973 5.871602,43.159364 5.87478,42.546786 5.917375,42.266398 c 0.052854,-0.34791 0.1608136,-0.805465 0.2131148,-0.903185 0.044015,-0.08224 0.1533786,-0.43649 0.1873721,-0.606943 0.012843,-0.0644 0.041657,-0.139667 0.064026,-0.167265 0.022368,-0.0276 0.068532,-0.148031 0.1025841,-0.267626 0.034051,-0.119595 0.1134342,-0.321678 0.1764044,-0.449075 0.1410277,-0.285323 0.2073056,-0.497913 0.2077803,-0.666455 2.03e-4,-0.07077 0.025095,-0.213746 0.055328,-0.317734 0.074021,-0.254622 0.045484,-0.971595 -0.049463,-1.242986 C 6.8023983,37.439016 6.6262892,37.092871 6.4412481,36.793543 6.0578566,36.173352 4.962,35.410298 4.3098475,35.309428 c -0.2499924,-0.03866 -1.0774059,0.0041 -1.4330735,0.07411 -0.3045004,0.05992 -0.5913196,0.193176 -0.7383595,0.34305 -0.3771541,0.384417 -0.5975708,0.644115 -0.6844136,0.806381 -0.1252681,0.23407 -0.202948,0.593119 -0.2242636,1.036614 -0.024219,0.503999 -0.00316,0.609357 0.2203615,1.10232 0.1886348,0.416021 0.6959171,0.836326 1.2539985,1.038987 0.2605006,0.0946 0.3596895,0.112145 0.7359677,0.130194 0.5189105,0.0249 0.7400735,-0.01273 0.9726662,-0.16543 0.090608,-0.05949 0.2324889,-0.147949 0.3152824,-0.196577 C 5.1059418,39.257112 5.3033339,38.838509 5.3017258,38.262419 5.3007263,37.905336 5.1734771,37.582696 4.9578237,37.39048 4.8237258,37.270953 4.3506028,36.98628 4.213122,36.9424 3.9736006,36.86595 3.6646044,36.91445 3.3348771,37.080228 c -0.1605147,0.08071 -0.3203662,0.185791 -0.3552301,0.233523 -0.034859,0.04774 -0.1138154,0.220853 -0.1754499,0.384712 -0.061639,0.163858 -0.1244297,0.297925 -0.1395353,0.297925 -0.059935,0 -0.044566,-0.259874 0.027166,-0.459458 0.1026163,-0.285498 0.2056752,-0.434042 0.4089315,-0.589398 0.2291328,-0.175138 0.4537839,-0.261734 0.7574733,-0.291985 0.3948536,-0.03933 0.4566951,-0.02826 0.7982293,0.142809 0.3973408,0.199028 0.5174266,0.316424 0.7135839,0.697593 0.2341546,0.455 0.2628365,0.580215 0.2109226,0.920792 -0.059,0.387048 -0.1916524,0.778154 -0.3460676,1.02031 -0.1407927,0.220795 -0.4032745,0.421927 -0.8748681,0.670387 -0.3382313,0.178195 -0.4537187,0.209305 -0.9032369,0.243304 -0.4919255,0.03721 -0.778699,0.0053 -1.1541299,-0.128556 C 2.1370747,40.163166 1.9311229,40.09471 1.8449989,40.070076 1.730202,40.037236 1.5816879,39.935331 1.2884746,39.688196 0.78523682,39.264041 0.70437846,39.1269 0.60657132,38.531637 c -0.0362783,-0.220792 -0.0707052,-0.509614 -0.0765049,-0.641829 -0.0058,-0.132216 -0.0199289,-0.25558 -0.0314044,-0.274146 -0.0240016,-0.03883 0.0316948,-0.711453 0.087589,-1.057759 0.0460773,-0.285491 0.0671531,-0.3289 0.39645207,-0.81655 C 1.1781328,35.451954 1.30663,35.302059 1.4892574,35.150455 2.0797707,34.660251 2.4655582,34.456996 3.136174,34.282767 3.6011476,34.161964 3.6023684,34.161839 4.17322,34.177004 c 0.6037166,0.01604 0.925064,0.05374 1.1420762,0.134007 1.4675512,0.542767 2.046437,1.017957 2.7983362,2.29707 0.2404427,0.409038 0.4699908,0.701439 0.8848932,1.127183 0.3053195,0.313303 0.4030305,0.391877 0.5980225,0.480915 0.3142656,0.143502 0.6819019,0.195756 1.3873099,0.197186 0.671786,0.0013 0.925994,-0.04951 1.218852,-0.243908 0.09314,-0.06182 0.244428,-0.145611 0.336196,-0.18619 0.09177,-0.04058 0.197143,-0.101012 0.234171,-0.134294 0.03703,-0.03328 0.150117,-0.103987 0.251316,-0.15712 0.232382,-0.122013 0.503592,-0.393824 0.602633,-0.603968 0.119279,-0.253096 0.301752,-0.553726 0.402897,-0.663795 0.06895,-0.07503 0.100724,-0.156257 0.125885,-0.321833 0.01851,-0.121811 0.06524,-0.283373 0.103834,-0.359027 0.09699,-0.190116 0.129795,-0.591804 0.05944,-0.727854 -0.02867,-0.05543 -0.0737,-0.215045 -0.100062,-0.354706 -0.09361,-0.495787 -0.584086,-1.074032 -1.146958,-1.35222 -0.20415,-0.100897 -0.290731,-0.122379 -0.609658,-0.151268 -0.662813,-0.06005 -1.148025,0.04224 -1.530223,0.322576 -0.361187,0.26492 -0.517132,0.395608 -0.517132,0.433371 0,0.03956 -0.16642,0.233956 -0.21944,0.256326 -0.07345,0.03099 -0.215451,0.266979 -0.215451,0.35805 0,0.05409 -0.02943,0.164869 -0.0654,0.246187 -0.1371634,0.310084 -0.1131155,0.561236 0.103584,1.081695 0.123278,0.296083 0.16104,0.365204 0.283277,0.518523 0.163878,0.205544 0.336162,0.300803 0.641336,0.354599 0.355106,0.06259 0.5329,0.05807 0.757666,-0.01926 0.444404,-0.152897 0.753788,-0.4137 0.913717,-0.770238 0.07195,-0.160401 0.08081,-0.220553 0.06908,-0.469139 -0.01178,-0.249869 -0.09008,-0.05988 -0.190237,-0.23507 -0.06287,-0.109958 -0.172723,-0.263375 -0.244138,-0.340926 -0.07141,-0.07755 -0.124614,-0.156695 -0.118219,-0.175875 0.01855,-0.05564 0.354996,0.189711 0.46121,0.336338 0.162895,0.224872 0.277736,0.200713 0.253861,0.575774 -0.0262,0.411764 -0.138599,0.65246 -0.456491,0.977597 -0.245267,0.250855 -0.491671,0.371487 -0.902818,0.441992 -0.334639,0.05738 -0.759543,-0.02076 -1.027838,-0.189042 C 10.133501,36.656666 9.930861,36.447573 9.7460644,36.12529 9.5942511,35.860523 9.5657166,35.77861 9.4955085,35.406032 c -0.08364,-0.443876 -0.083474,-0.80615 4.241e-4,-0.905501 0.023311,-0.0276 0.060095,-0.136891 0.081747,-0.24287 0.021662,-0.10598 0.073172,-0.233938 0.1144877,-0.284351 0.041317,-0.05042 0.1234217,-0.193179 0.1824662,-0.317257 0.086857,-0.182532 0.1327175,-0.238537 0.2402495,-0.293394 0.07309,-0.03729 0.132898,-0.08279 0.132898,-0.101115 0,-0.01832 0.05152,-0.05788 0.114479,-0.08791 0.06297,-0.03002 0.121827,-0.08268 0.130805,-0.117018 0.0096,-0.03685 0.09639,-0.09754 0.211687,-0.148107 0.107454,-0.04711 0.277297,-0.124065 0.37744,-0.170979 0.100138,-0.04691 0.378637,-0.133909 0.618882,-0.193322 0.415321,-0.102711 0.456557,-0.106851 0.838244,-0.08418 0.383299,0.02277 0.410341,0.0293 0.598413,0.144594 0.108334,0.06642 0.251348,0.138357 0.317805,0.159877 0.06646,0.02153 0.238526,0.123615 0.38238,0.226879 0.143851,0.103264 0.311875,0.218192 0.373387,0.255395 0.06151,0.0372 0.211117,0.169401 0.332469,0.293774 0.251847,0.258122 0.516099,0.739404 0.603051,1.09832 0.02837,0.117106 0.08162,0.318296 0.11833,0.447091 0.05711,0.200376 0.06383,0.29452 0.04657,0.652337 -0.05373,1.11443 -0.432727,1.972175 -1.166661,2.640477 -0.09199,0.08377 -0.276569,0.260949 -0.410166,0.393736 -0.270341,0.268699 -0.592906,0.490639 -0.994864,0.68452 -0.147194,0.071 -0.351267,0.172981 -0.453501,0.226633 -0.312457,0.163977 -0.790329,0.236274 -1.561733,0.236274 -0.7545155,0 -0.8382903,0.01144 -1.704456,0.232701 -0.309854,0.07915 -0.4116124,0.122207 -0.5904438,0.249819 -0.3024322,0.215811 -0.6513703,0.665367 -0.9237644,1.190137 -0.042981,0.08279 -0.1050499,0.180646 -0.1379381,0.217445 -0.109011,0.121982 -0.1932739,0.372142 -0.1991151,0.591152 -0.014381,0.539405 0.00779,1.496182 0.037479,1.616753 0.04603,0.186972 0.1317872,0.383643 0.21879,0.501798 0.1128214,0.153208 0.301387,0.497721 0.3453725,0.630999 0.023618,0.07155 0.1029444,0.172372 0.1987104,0.252552 0.087672,0.0734 0.2025652,0.195744 0.2553175,0.271865 0.1146534,0.165445 0.5292473,0.390233 0.7776271,0.421624 0.086995,0.011 0.1888848,0.03905 0.2264203,0.06233 0.03754,0.0233 0.1504397,0.05937 0.2509001,0.08017 0.2178184,0.0451 0.7109535,-0.01675 0.9954835,-0.124869 0.17492,-0.06647 0.587597,-0.30766 0.807338,-0.471858 0.164692,-0.123066 0.389079,-0.441701 0.45504,-0.646159 0.03115,-0.09657 0.07505,-0.205685 0.09754,-0.242484 0.115861,-0.189548 0.143078,-0.575088 0.08773,-1.24271 -0.02121,-0.255777 -0.04857,-0.379498 -0.111028,-0.501797 -0.04559,-0.08928 -0.117713,-0.234884 -0.160284,-0.323571 -0.130318,-0.271489 -0.757745,-0.72564 -1.009686,-0.730845 -0.04193,-8.56e-4 -0.177205,-0.02257 -0.300604,-0.04824 -0.236945,-0.04928 -0.5828227,-0.02443 -0.7259614,0.05217 -0.1759747,0.09418 -0.4007272,0.262536 -0.544639,0.407975 -0.1278797,0.129238 -0.1726349,0.208525 -0.242446,0.429518 -0.080139,0.253677 -0.083697,0.293145 -0.05559,0.616815 0.034349,0.395605 0.1017827,0.578624 0.289915,0.786864 0.150052,0.166092 0.2778731,0.235857 0.6165236,0.336511 0.2459295,0.0731 0.4784338,0.07787 0.6941978,0.01425 0.126706,-0.03735 0.08358,0.03861 -0.05821,0.10255 C 10.114723,44.74372 9.6416087,44.70918 9.3293515,44.58145 9.017013,44.453677 8.7449866,44.201534 8.6001994,43.90559 8.4959478,43.692499 8.4914969,43.666967 8.4914969,43.281965 c 0,-0.38288 0.00486,-0.410718 0.1032485,-0.602157 0.056782,-0.110396 0.1379688,-0.26842 0.1804064,-0.351168 0.042438,-0.08275 0.1656008,-0.235656 0.2736907,-0.339795 0.1595499,-0.153714 0.2452148,-0.206187 0.4552009,-0.278836 0.5780476,-0.199982 1.2815846,-0.148125 1.7138826,0.126326 0.395323,0.250978 0.741892,0.542957 0.873739,0.73611 0.242197,0.35482 0.417285,0.774291 0.442764,1.060778 0.01227,0.137995 0.03597,0.383002 0.05265,0.544464 0.02859,0.276787 0.02373,0.319807 -0.08527,0.752695 -0.170208,0.676043 -0.263311,0.855761 -0.593926,1.146428 -0.149483,0.131423 -0.327821,0.267735 -0.396307,0.302918 -0.06849,0.03518 -0.173863,0.106426 -0.234171,0.158321 -0.16352,0.140704 -0.473814,0.306673 -0.573354,0.306673 -0.04816,0 -0.181817,0.03592 -0.297009,0.07981 -0.227548,0.08672 -0.6499183,0.190264 -0.7494663,0.183742 -0.034171,-0.0022 -0.1976095,-0.02243 -0.3632003,-0.04485 l -5.6e-6,1.6e-5 z"
       style="color:#000000;fill:url(#radialGradient3749);fill-opacity:1;fill-rule:nonzero;stroke:none;stroke-width:1.00000024;marker:none;visibility:visible;display:inline;overflow:visible;enable-background:accumulate"
       sodipodi:nodetypes="cssssssssssssssssssssssssssssssssssssssssssssssssssssssssssssssssssssssssssssssssssssssssssssssssssssssssssssssssssssssssssssssssssssssssssssssssssssssssssssssssssscc" />
  </g>
  <g
     inkscape:groupmode="layer"
     id="layer2"
     inkscape:label="border"
     style="display:inline"
     transform="translate(0,-32)">
    <path
       style="color:#000000;fill:#000000;fill-opacity:0;stroke:url(#linearGradient3781);stroke-width:0.71396893;stroke-linejoin:round;stroke-miterlimit:4;stroke-opacity:1;stroke-dasharray:none;marker:none;visibility:visible;display:inline;overflow:visible;enable-background:accumulate"
       d="M 9.279455,46.904358 C 8.8852199,46.85096 8.5162136,46.75504 8.3237647,46.665214 7.8789421,46.457596 7.5278714,46.222407 7.3761916,46.016819 7.336452,45.96295 7.2378037,45.866774 7.1569772,45.8031 6.835662,45.54996 6.647963,45.283445 6.2649491,44.536501 6.2214342,44.451635 6.1153003,43.868883 6.0652573,43.480887 c -0.039542,-0.306609 -0.036365,-0.919186 0.00623,-1.199575 0.052854,-0.34791 0.1608137,-0.805466 0.2131148,-0.903185 0.044015,-0.08224 0.148407,-0.411633 0.1824016,-0.582086 0.012843,-0.0644 0.046624,-0.159552 0.068996,-0.187152 0.022368,-0.0276 0.068531,-0.14803 0.1025837,-0.267625 0.034056,-0.119595 0.1134336,-0.321677 0.1764038,-0.449075 0.1410282,-0.285322 0.2073056,-0.497913 0.2077804,-0.666455 2.029e-4,-0.07077 0.025095,-0.213745 0.055328,-0.317733 0.074019,-0.254623 0.020625,-1.090908 -0.074323,-1.362299 C 6.9316527,37.33959 6.7508229,37.011226 6.5705022,36.70903 6.1918855,36.074514 4.9493075,35.227773 4.2800188,35.155317 c -0.2419181,-0.0262 -1.0761212,0.0029 -1.4330735,0.07411 -0.3043325,0.06076 -0.6509757,0.208089 -0.7980156,0.357964 -0.3771542,0.384416 -0.6522557,0.718685 -0.7390984,0.88095 -0.1252681,0.234071 -0.2128908,0.652776 -0.2342063,1.09627 -0.024219,0.503999 0.011756,0.693871 0.2352754,1.186834 0.1886349,0.416021 0.7704874,0.900954 1.3285687,1.103614 0.2605007,0.0946 0.4392311,0.127059 0.8155094,0.145109 0.5189104,0.0249 0.8146434,-0.04752 1.0472363,-0.20023 0.090607,-0.05949 0.262315,-0.172806 0.3451086,-0.221435 C 5.225251,39.356541 5.277047,39.182973 5.2754388,38.606881 5.2744394,38.2498 5.2182165,37.667934 5.0025631,37.475717 4.8684641,37.35619 4.3605416,37.205038 4.2230607,37.161157 c -0.2395216,-0.07645 -0.582606,0.0033 -0.9123333,0.169078 -0.5262385,0.218801 -0.3596048,0.536055 -0.4429451,0.71303 -0.016994,-0.344547 0.2087056,-0.366541 0.3132254,-0.6419 0.2291326,-0.175138 0.3934165,-0.206339 0.6971059,-0.236591 0.3948536,-0.03933 0.3920675,-0.06023 0.733602,0.110849 0.022871,0.01146 0.044695,0.02248 0.065552,0.03316 0.3414977,0.174855 0.2678541,0.256911 0.4527216,0.61614 0.2341537,0.455 0.2081516,0.505644 0.1562371,0.846222 C 5.2272273,39.158194 5.098835,39.115353 4.9444198,39.35751 4.803627,39.578307 4.7819085,39.704869 4.310315,39.953329 3.972086,40.131525 3.9013407,40.157663 3.4518225,40.191661 2.9598973,40.228871 2.7278085,40.211841 2.3523777,40.078019 2.1867883,40.018992 1.9808364,39.950542 1.8947124,39.925907 1.7799156,39.893067 1.6453094,39.776437 1.3481308,39.534084 0.91946328,39.1845 0.86346162,39.102043 0.76565448,38.506781 c -0.0362783,-0.220791 -0.0707051,-0.509614 -0.0765049,-0.64183 -0.005797,-0.132214 -0.0199291,-0.255579 -0.0314048,-0.274146 -0.0240015,-0.03883 0.0316946,-0.676654 0.087589,-1.02296 0.0460773,-0.28549 0.0522395,-0.264271 0.38153802,-0.751922 0.1954297,-0.289399 0.2990701,-0.409465 0.4816977,-0.561071 0.5905133,-0.490203 0.8917879,-0.643745 1.5624036,-0.817974 0.4649737,-0.120803 0.4313951,-0.115956 1.0022465,-0.10079 0.6037167,0.01604 0.9002077,0.04877 1.1172198,0.129034 1.4675512,0.542769 1.9818097,1.003044 2.733709,2.282158 0.2404419,0.409035 0.4501046,0.681552 0.8650069,1.107297 0.3053196,0.313302 0.4759182,0.429437 0.6709095,0.518475 0.314267,0.143502 0.7037922,0.195757 1.4092002,0.197186 0.671786,0.0013 1.002606,-0.06046 1.295465,-0.254852 0.09314,-0.06182 0.244428,-0.145611 0.336195,-0.186191 0.09177,-0.04058 0.270108,-0.148438 0.307136,-0.181721 0.03703,-0.03328 0.117283,-0.07845 0.218482,-0.131581 0.232382,-0.122013 0.532778,-0.433955 0.631819,-0.6441 0.119279,-0.253094 0.32364,-0.575615 0.424786,-0.685683 0.06894,-0.07503 0.100724,-0.196387 0.125886,-0.361965 0.01851,-0.12181 0.07254,-0.276074 0.111131,-0.351729 0.09699,-0.190117 0.11885,-0.683009 0.04849,-0.819059 -0.02866,-0.05543 -0.0737,-0.196804 -0.100061,-0.336466 -0.09361,-0.495787 -0.631513,-1.154293 -1.194384,-1.432481 -0.204152,-0.100898 -0.352752,-0.151564 -0.67168,-0.180454 -0.662813,-0.06004 -1.231932,0.0313 -1.614132,0.311631 -0.361186,0.264922 -0.611985,0.468574 -0.611985,0.506336 0,0.03956 -0.122641,0.197475 -0.175661,0.219845 -0.07345,0.03099 -0.2774717,0.34359 -0.2774717,0.434661 0,0.05409 -0.025781,0.164871 -0.061751,0.246188 -0.1371628,0.310083 -0.12406,0.615959 0.092639,1.136417 0.1232775,0.296083 0.1829297,0.434521 0.3051657,0.58784 0.163878,0.205545 0.365348,0.359175 0.670522,0.412971 0.355106,0.06259 0.609513,0.112804 0.951022,-0.01195 0.441437,-0.161265 0.645445,-0.293452 0.805374,-0.649991 0.07195,-0.160401 0.106346,-0.286221 0.09463,-0.534806 -0.01178,-0.249868 0.08283,-0.105721 -0.01733,-0.280912 -0.06287,-0.109958 -0.222214,-0.408681 -0.293629,-0.486231 -0.07141,-0.07755 -0.128262,-0.109268 -0.176591,-0.14669 0.08057,0.05016 0.302336,0.38974 0.40855,0.536366 0.162897,0.224872 0.09753,0.180887 0.07366,0.555949 -0.0262,0.411764 -0.09228,0.404524 -0.410167,0.729662 -0.245267,0.250855 -0.608415,0.327709 -0.815261,0.358082 -0.335921,0.04933 -0.708466,-0.03171 -0.976762,-0.199986 C 10.148108,36.52534 10.06586,36.370971 9.881063,36.048688 9.7292497,35.783921 9.7226055,35.774972 9.6523981,35.402395 c -0.083641,-0.443876 -0.087123,-0.758724 -0.00328,-0.858075 0.023304,-0.0276 0.063743,-0.166076 0.085396,-0.272055 0.021655,-0.10598 0.058581,-0.179215 0.099896,-0.229629 0.041317,-0.05042 0.1307157,-0.215068 0.1897609,-0.339145 0.08686,-0.182532 0.08529,-0.161925 0.192823,-0.216782 0.07309,-0.03729 0.158435,-0.10468 0.158435,-0.123004 0,-0.01832 0.05152,-0.05789 0.114479,-0.08791 0.06296,-0.03002 0.121828,-0.08268 0.130806,-0.117018 0.0096,-0.03685 0.03437,-0.05376 0.149666,-0.104328 0.107454,-0.04712 0.317428,-0.145955 0.417571,-0.192868 0.100138,-0.04692 0.320266,-0.104724 0.560511,-0.164137 0.415321,-0.10271 0.420074,-0.103202 0.801761,-0.08053 0.383299,0.02277 0.337378,0.02201 0.52545,0.137297 0.108332,0.06642 0.258644,0.13471 0.3251,0.156229 0.06646,0.02152 0.180154,0.09078 0.324009,0.194046 0.143851,0.103263 0.359302,0.251024 0.420813,0.288228 0.06152,0.03721 0.178285,0.143864 0.299635,0.268236 0.251848,0.258122 0.465025,0.659143 0.551977,1.018059 0.02837,0.117106 0.07797,0.311001 0.114682,0.439796 0.0571,0.200376 0.05654,0.250741 0.03928,0.608557 -0.05373,1.11443 -0.414485,1.910156 -1.148419,2.578457 -0.09199,0.08377 -0.243734,0.217171 -0.377331,0.349957 -0.270342,0.2687 -0.560072,0.46875 -0.962031,0.662632 -0.147194,0.071 -0.354914,0.176629 -0.457149,0.23028 -0.312455,0.163978 -0.717364,0.214386 -1.488768,0.214386 -0.7545162,0 -0.8528827,0.01509 -1.7190492,0.236349 -0.3098525,0.07915 -0.4792074,0.146176 -0.6580387,0.27379 -0.3024316,0.21581 -0.6861685,0.700165 -0.9585641,1.224935 -0.042981,0.0828 -0.1050484,0.180647 -0.1379373,0.217446 -0.10901,0.121981 -0.2330441,0.456655 -0.2388858,0.675664 -0.014382,0.539406 0.01773,1.560809 0.047418,1.681381 0.046039,0.186971 0.1516724,0.408499 0.2386766,0.526654 0.11282,0.153209 0.3212703,0.522578 0.3652565,0.655856 0.023618,0.07155 0.1029437,0.172372 0.1987097,0.252552 0.087673,0.0734 0.2025659,0.195743 0.2553182,0.271866 0.1146534,0.165443 0.6137606,0.444917 0.8621411,0.476307 0.086994,0.011 0.1888826,0.03905 0.2264195,0.06234 0.037541,0.0233 0.150439,0.05937 0.2508994,0.08017 0.2178191,0.0451 0.8004381,-0.03167 1.0849681,-0.139783 0.174919,-0.06647 0.587597,-0.30766 0.807337,-0.471858 0.164694,-0.123066 0.478567,-0.531186 0.544525,-0.735643 0.03116,-0.09657 0.07505,-0.205686 0.09754,-0.242485 0.11586,-0.189549 0.143077,-0.649659 0.08773,-1.31728 -0.0212,-0.255777 -0.04858,-0.404356 -0.111028,-0.526655 -0.04559,-0.08928 -0.132626,-0.279624 -0.175198,-0.368313 -0.130317,-0.271488 -0.857171,-0.790267 -1.109113,-0.795471 -0.04193,-8.57e-4 -0.207033,-0.01761 -0.330431,-0.04327 -0.236946,-0.04929 -0.5345504,0.03894 -0.7756763,0.116801 -0.2907082,0.09387 -0.3907852,0.252593 -0.5346971,0.398031 -0.127879,0.129239 -0.2223478,0.26321 -0.2921589,0.484202 -0.08014,0.253679 -0.1284381,0.347831 -0.1003327,0.671502 0.034349,0.395603 0.1415537,0.613422 0.3296859,0.821662 0.1500527,0.166091 0.3425002,0.245801 0.6811514,0.346454 0.2459287,0.0731 0.5182047,0.02816 0.7339687,-0.03546 C 9.9653368,44.70811 9.6973247,44.608788 9.3491927,44.501928 9.0368498,44.374147 8.8990481,44.196574 8.7542623,43.90063 8.65001,43.687539 8.6455598,43.662007 8.6455598,43.277004 c 0,-0.382877 -0.020084,-0.311289 0.078391,-0.502728 0.056782,-0.110396 0.1379688,-0.26842 0.1804064,-0.351168 0.042438,-0.08275 0.155658,-0.215771 0.2637472,-0.319911 0.1595521,-0.153712 0.1457882,-0.156472 0.3557765,-0.229121 0.5780471,-0.199983 1.1871281,-0.177954 1.6194271,0.0965 0.395321,0.250978 0.667321,0.468387 0.799168,0.661541 0.242197,0.354819 0.407341,0.694748 0.432821,0.981234 0.01228,0.137994 0.04591,0.358146 0.06259,0.519608 0.02859,0.276788 0.02372,0.319808 -0.08527,0.752696 -0.170207,0.676043 -0.153942,0.736448 -0.484557,1.027115 -0.149482,0.131423 -0.32782,0.267736 -0.396306,0.302918 -0.06849,0.03518 -0.173863,0.106427 -0.234172,0.158322 -0.163519,0.140703 -0.448956,0.311643 -0.548496,0.311643 -0.04816,0 -0.181817,0.03592 -0.29701,0.07981 -0.227548,0.08672 -0.6499174,0.190265 -0.7494668,0.183742 -0.034171,-0.0022 -0.1976073,-0.02242 -0.3631996,-0.04485 l 5.7e-6,2e-6 3.97e-5,1e-6 z"
       id="path2243-8"
       sodipodi:nodetypes="csssssssssssssssssssssssssssscccssssssssssssssssssssssssssssssssssssssssssssssssscssssssssssssssssssssssssssssssssssssssssssssssssssssssssssssccsssssssssssssssssccc" />
  </g>
  <g
     style="display:inline"
     inkscape:label="border copia"
     id="g2876"
     inkscape:groupmode="layer"
     transform="translate(0,-32)">
    <path
       sodipodi:nodetypes="cssssssssssssssccssssssssssssssscc"
       id="path2878"
       d="m 10.534855,46.258588 c 0.174921,-0.06647 0.587598,-0.30766 0.807338,-0.471859 0.164693,-0.123065 0.478564,-0.531185 0.544525,-0.735642 0.03116,-0.09657 0.07504,-0.205686 0.09754,-0.242484 0.115861,-0.189549 0.143078,-0.649659 0.08773,-1.317282 -0.0212,-0.255776 -0.04857,-0.404355 -0.111028,-0.526653 -0.04559,-0.08928 -0.132627,-0.279625 -0.175199,-0.368313 -0.130316,-0.271489 -0.857171,-0.790268 -1.109112,-0.795472 -0.04193,-8.56e-4 -0.207034,-0.01761 -0.330432,-0.04327 -0.236946,-0.04929 -0.5345491,0.03894 -0.775675,0.1168 -0.2907089,0.09387 -0.3907852,0.252593 -0.5346963,0.398031 -0.1278804,0.129239 -0.2223492,0.263211 -0.2921604,0.484202 -0.08014,0.253679 -0.128438,0.347831 -0.1003319,0.671502 0.034349,0.395603 0.1415529,0.613422 0.3296851,0.821662 0.150052,0.166091 0.3425017,0.2458 0.6811507,0.346454 0.2459302,0.0731 0.5182058,0.02816 0.7339708,-0.03546 -0.4227682,0.147293 -0.69078,0.04797 -1.0389112,-0.05889 C 9.0369069,44.374141 8.8991066,44.196568 8.7543194,43.900624 8.6500678,43.687533 8.6456177,43.662 8.6456177,43.276998 c 0,-0.382878 -0.020084,-0.311289 0.078392,-0.502729 0.056782,-0.110395 0.1379681,-0.26842 0.1804071,-0.351167 0.042438,-0.08275 0.155656,-0.215771 0.2637466,-0.319911 0.1595513,-0.153712 0.1457882,-0.156473 0.355775,-0.229122 0.5780466,-0.199982 1.1871286,-0.177954 1.6194266,0.0965 0.395323,0.250978 0.667323,0.468388 0.799169,0.661541 0.242198,0.354819 0.407341,0.694748 0.432821,0.981235 0.01228,0.137994 0.04591,0.358146 0.06259,0.519607 0.02859,0.276788 0.02372,0.319808 -0.08527,0.752696 -0.170208,0.676044 -0.153941,0.736448 -0.484558,1.027115 -0.149482,0.131423 -0.327821,0.267736 -0.396305,0.302919 -0.06849,0.03518 -0.173865,0.106426 -0.234172,0.158322 -0.163519,0.140702 -0.448957,0.311643 -0.548497,0.311643 -0.04816,0 -0.181816,0.03592 -0.297009,0.07981 -3.5811738,-0.288223 -2.899865,0.242573 0.142724,-0.506878 z"
       style="color:#000000;fill:none;stroke:url(#linearGradient2880);stroke-width:0.71396893;stroke-linejoin:round;stroke-miterlimit:4;stroke-opacity:1;stroke-dasharray:none;marker:none;visibility:visible;display:inline;overflow:visible;enable-background:accumulate" />
  </g>
</svg>
