<?xml version="1.0" encoding="UTF-8" standalone="no"?>
<!-- Created with Inkscape (http://www.inkscape.org/) -->

<svg
   xmlns:dc="http://purl.org/dc/elements/1.1/"
   xmlns:cc="http://creativecommons.org/ns#"
   xmlns:rdf="http://www.w3.org/1999/02/22-rdf-syntax-ns#"
   xmlns:svg="http://www.w3.org/2000/svg"
   xmlns="http://www.w3.org/2000/svg"
   xmlns:xlink="http://www.w3.org/1999/xlink"
   xmlns:sodipodi="http://sodipodi.sourceforge.net/DTD/sodipodi-0.dtd"
   xmlns:inkscape="http://www.inkscape.org/namespaces/inkscape"
   width="32"
   height="32"
   id="svg1328"
   sodipodi:version="0.32"
   inkscape:version="0.47 r22583"
   sodipodi:docname="trisquel32.svg"
   inkscape:output_extension="org.inkscape.output.svg.inkscape"
   version="1.1"
   style="display:inline"
   inkscape:export-filename="/home/ru/Escritorio/trisquel32.png"
   inkscape:export-xdpi="90"
   inkscape:export-ydpi="90">
  <sodipodi:namedview
     inkscape:cy="12.266445"
     inkscape:cx="-44.891608"
     inkscape:zoom="8"
     inkscape:window-height="704"
     inkscape:window-width="961"
     inkscape:pageshadow="2"
     inkscape:pageopacity="0.0"
     guidetolerance="10.0"
     gridtolerance="10.0"
     objecttolerance="10.0"
     borderopacity="0.31764706"
     bordercolor="#666"
     pagecolor="#ffffff"
     id="base"
     inkscape:showpageshadow="false"
     showgrid="false"
     inkscape:window-x="6"
     inkscape:window-y="144"
     inkscape:current-layer="layer2"
     showguides="true"
     inkscape:guide-bbox="true"
     inkscape:window-maximized="0"
     showborder="true"
     inkscape:snap-global="false" />
  <defs
     id="defs1330">
    <linearGradient
       id="linearGradient3654">
      <stop
         id="stop3656"
         offset="0"
         style="stop-color:#ffffff;stop-opacity:0;" />
      <stop
         style="stop-color:#ffffff;stop-opacity:1;"
         offset="0.02531646"
         id="stop3660" />
      <stop
         id="stop3658"
         offset="1"
         style="stop-color:#386ea6;stop-opacity:0;" />
    </linearGradient>
    <linearGradient
       id="linearGradient3860">
      <stop
         style="stop-color:#001355;stop-opacity:1;"
         offset="0"
         id="stop3862" />
      <stop
         style="stop-color:#002455;stop-opacity:0;"
         offset="1"
         id="stop3864" />
    </linearGradient>
    <linearGradient
       inkscape:collect="always"
       id="linearGradient3741">
      <stop
         style="stop-color:#ffffff;stop-opacity:1;"
         offset="0"
         id="stop3743" />
      <stop
         style="stop-color:#ffffff;stop-opacity:0;"
         offset="1"
         id="stop3745" />
    </linearGradient>
    <inkscape:perspective
       sodipodi:type="inkscape:persp3d"
       inkscape:vp_x="0 : 24 : 1"
       inkscape:vp_y="0 : 1000 : 0"
       inkscape:vp_z="48 : 24 : 1"
       inkscape:persp3d-origin="24 : 16 : 1"
       id="perspective58" />
    <linearGradient
       inkscape:collect="always"
       id="linearGradient8112">
      <stop
         style="stop-color:#ffffff;stop-opacity:1;"
         offset="0"
         id="stop8114" />
      <stop
         style="stop-color:#ffffff;stop-opacity:0;"
         offset="1"
         id="stop8116" />
    </linearGradient>
    <linearGradient
       id="linearGradient7108">
      <stop
         style="stop-color:#000000;stop-opacity:1;"
         offset="0"
         id="stop7110" />
      <stop
         style="stop-color:#ffffff;stop-opacity:1;"
         offset="1"
         id="stop7112" />
    </linearGradient>
    <linearGradient
       id="linearGradient7100">
      <stop
         style="stop-color:#000000;stop-opacity:1;"
         offset="0"
         id="stop7102" />
      <stop
         style="stop-color:#ffffff;stop-opacity:1;"
         offset="1"
         id="stop7104" />
    </linearGradient>
    <linearGradient
       id="linearGradient2804">
      <stop
         style="stop-color:black;stop-opacity:0;"
         offset="0"
         id="stop2806" />
      <stop
         id="stop2812"
         offset="0.5"
         style="stop-color:black;stop-opacity:1;" />
      <stop
         style="stop-color:black;stop-opacity:0;"
         offset="1"
         id="stop2808" />
    </linearGradient>
    <linearGradient
       inkscape:collect="always"
       id="linearGradient2781">
      <stop
         style="stop-color:black;stop-opacity:1;"
         offset="0"
         id="stop2783" />
      <stop
         style="stop-color:black;stop-opacity:0;"
         offset="1"
         id="stop2785" />
    </linearGradient>
    <linearGradient
       inkscape:collect="always"
       id="linearGradient2782">
      <stop
         style="stop-color:white;stop-opacity:1;"
         offset="0"
         id="stop2784" />
      <stop
         style="stop-color:white;stop-opacity:0;"
         offset="1"
         id="stop2786" />
    </linearGradient>
    <linearGradient
       id="linearGradient5106">
      <stop
         style="stop-color:#ffffff;stop-opacity:1;"
         offset="0"
         id="stop5108" />
      <stop
         style="stop-color:#386ea6;stop-opacity:1;"
         offset="1"
         id="stop5110" />
    </linearGradient>
    <linearGradient
       inkscape:collect="always"
       xlink:href="#linearGradient5106"
       id="linearGradient2780"
       gradientUnits="userSpaceOnUse"
       gradientTransform="matrix(3.137165,0,0,3.184122,-1.606682,-4.861064)"
       x1="8.1771841"
       y1="5.7791729"
       x2="8.1771841"
       y2="15.676654" />
    <linearGradient
       inkscape:collect="always"
       xlink:href="#linearGradient2782"
       id="linearGradient2788"
       x1="26.0625"
       y1="23.265625"
       x2="29.03125"
       y2="55.265625"
       gradientUnits="userSpaceOnUse" />
    <radialGradient
       inkscape:collect="always"
       xlink:href="#linearGradient2781"
       id="radialGradient2827"
       gradientUnits="userSpaceOnUse"
       gradientTransform="matrix(2,0,0,0.8,-13,-79.2)"
       cx="1"
       cy="44"
       fx="1"
       fy="44"
       r="5" />
    <radialGradient
       inkscape:collect="always"
       xlink:href="#linearGradient2781"
       id="radialGradient2829"
       gradientUnits="userSpaceOnUse"
       gradientTransform="matrix(2,0,0,0.8,36,8.8)"
       cx="1"
       cy="44"
       fx="1"
       fy="44"
       r="5" />
    <linearGradient
       inkscape:collect="always"
       xlink:href="#linearGradient2804"
       id="linearGradient2831"
       gradientUnits="userSpaceOnUse"
       x1="21.875"
       y1="48.000977"
       x2="21.875"
       y2="40" />
    <linearGradient
       inkscape:collect="always"
       xlink:href="#linearGradient5106"
       id="linearGradient8141"
       gradientUnits="userSpaceOnUse"
       gradientTransform="matrix(3.3087682,0,0,3.3582938,-5.969971,-6.3358833)"
       x1="8.1771841"
       y1="5.7791729"
       x2="8.1771841"
       y2="15.676654" />
    <linearGradient
       inkscape:collect="always"
       xlink:href="#linearGradient2782"
       id="linearGradient15953"
       x1="77.297218"
       y1="16.647184"
       x2="77.480881"
       y2="52.45615"
       gradientUnits="userSpaceOnUse"
       gradientTransform="translate(-0.8601477,-1.863416)" />
    <radialGradient
       inkscape:collect="always"
       xlink:href="#linearGradient2781"
       id="radialGradient19858"
       cx="73.570084"
       cy="23.145077"
       fx="73.570084"
       fy="23.145077"
       r="20.928947"
       gradientTransform="matrix(1,0,0,0.9887118,-0.4220719,11.235137)"
       gradientUnits="userSpaceOnUse" />
    <radialGradient
       inkscape:collect="always"
       xlink:href="#linearGradient2781"
       id="radialGradient19868"
       gradientUnits="userSpaceOnUse"
       gradientTransform="matrix(2,0,0,0.8,-25.240086,-80.929141)"
       cx="1"
       cy="44"
       fx="1"
       fy="44"
       r="5" />
    <radialGradient
       inkscape:collect="always"
       xlink:href="#linearGradient2781"
       id="radialGradient19870"
       gradientUnits="userSpaceOnUse"
       gradientTransform="matrix(2,0,0,0.8,21.227482,10.529141)"
       cx="1"
       cy="44"
       fx="1"
       fy="44"
       r="5" />
    <linearGradient
       inkscape:collect="always"
       xlink:href="#linearGradient2804"
       id="linearGradient19872"
       gradientUnits="userSpaceOnUse"
       x1="21.875"
       y1="48.000977"
       x2="21.875"
       y2="40"
       gradientTransform="matrix(1,0,0,0.1481438,0,40.8891)" />
    <radialGradient
       inkscape:collect="always"
       xlink:href="#linearGradient2781"
       id="radialGradient19882"
       gradientUnits="userSpaceOnUse"
       gradientTransform="matrix(2,0,0,0.8,-13,-79.2)"
       cx="1"
       cy="44"
       fx="1"
       fy="44"
       r="5" />
    <radialGradient
       inkscape:collect="always"
       xlink:href="#linearGradient2781"
       id="radialGradient19884"
       gradientUnits="userSpaceOnUse"
       gradientTransform="matrix(2,0,0,0.8,36,8.8)"
       cx="1"
       cy="44"
       fx="1"
       fy="44"
       r="5" />
    <linearGradient
       inkscape:collect="always"
       xlink:href="#linearGradient2804"
       id="linearGradient19886"
       gradientUnits="userSpaceOnUse"
       x1="21.875"
       y1="48.000977"
       x2="21.875"
       y2="40" />
    <linearGradient
       inkscape:collect="always"
       xlink:href="#linearGradient8112"
       id="linearGradient8118"
       x1="33.111675"
       y1="43.542542"
       x2="25.368185"
       y2="2.4395995"
       gradientUnits="userSpaceOnUse" />
    <linearGradient
       inkscape:collect="always"
       xlink:href="#linearGradient8112"
       id="linearGradient8126"
       x1="29.854376"
       y1="50.395214"
       x2="21.795116"
       y2="15.465387"
       gradientUnits="userSpaceOnUse" />
    <inkscape:perspective
       id="perspective3642"
       inkscape:persp3d-origin="0.5 : 0.33333333 : 1"
       inkscape:vp_z="1 : 0.5 : 1"
       inkscape:vp_y="0 : 1000 : 0"
       inkscape:vp_x="0 : 0.5 : 1"
       sodipodi:type="inkscape:persp3d" />
    <inkscape:perspective
       id="perspective3664"
       inkscape:persp3d-origin="0.5 : 0.33333333 : 1"
       inkscape:vp_z="1 : 0.5 : 1"
       inkscape:vp_y="0 : 1000 : 0"
       inkscape:vp_x="0 : 0.5 : 1"
       sodipodi:type="inkscape:persp3d" />
    <inkscape:perspective
       id="perspective3687"
       inkscape:persp3d-origin="0.5 : 0.33333333 : 1"
       inkscape:vp_z="1 : 0.5 : 1"
       inkscape:vp_y="0 : 1000 : 0"
       inkscape:vp_x="0 : 0.5 : 1"
       sodipodi:type="inkscape:persp3d" />
    <inkscape:perspective
       id="perspective3709"
       inkscape:persp3d-origin="0.5 : 0.33333333 : 1"
       inkscape:vp_z="1 : 0.5 : 1"
       inkscape:vp_y="0 : 1000 : 0"
       inkscape:vp_x="0 : 0.5 : 1"
       sodipodi:type="inkscape:persp3d" />
    <radialGradient
       inkscape:collect="always"
       xlink:href="#linearGradient3741"
       id="radialGradient3749"
       cx="17.822229"
       cy="10.598286"
       fx="17.822229"
       fy="10.598286"
       r="23.300945"
       gradientTransform="matrix(0.57511296,0.65724979,-0.76241453,0.66713512,9.7265194,3.9013506)"
       gradientUnits="userSpaceOnUse" />
    <linearGradient
       inkscape:collect="always"
       xlink:href="#linearGradient5106"
       id="linearGradient3781"
       x1="13.73888"
       y1="-10.63709"
       x2="30.737608"
       y2="47.111855"
       gradientUnits="userSpaceOnUse"
       gradientTransform="matrix(0.66318582,0,0,0.66318582,0.07657836,15.556069)" />
    <inkscape:perspective
       id="perspective3804"
       inkscape:persp3d-origin="0.5 : 0.33333333 : 1"
       inkscape:vp_z="1 : 0.5 : 1"
       inkscape:vp_y="0 : 1000 : 0"
       inkscape:vp_x="0 : 0.5 : 1"
       sodipodi:type="inkscape:persp3d" />
    <linearGradient
       inkscape:collect="always"
       xlink:href="#linearGradient3860"
       id="linearGradient3866"
       x1="30.784439"
       y1="-3.2016251"
       x2="48.248177"
       y2="74.1007"
       gradientUnits="userSpaceOnUse"
       gradientTransform="matrix(0.63668813,0,0,0.63668813,0.83614325,16.609033)" />
    <linearGradient
       inkscape:collect="always"
       xlink:href="#linearGradient3654"
       id="linearGradient2880"
       gradientUnits="userSpaceOnUse"
       gradientTransform="matrix(0.66318582,0,0,0.66318582,0.07657836,15.556069)"
       x1="26.772528"
       y1="24.716835"
       x2="37.474094"
       y2="47.574684" />
  </defs>
  <sodipodi:namedview
     id="namedview21"
     pagecolor="#ffffff"
     bordercolor="#666666"
     borderopacity="1.0"
     inkscape:pageopacity="0.0"
     inkscape:pageshadow="2"
     inkscape:zoom="9.8994949"
     inkscape:cx="24"
     inkscape:cy="24"
     inkscape:current-layer="layer1"
     showgrid="true"
     inkscape:grid-bbox="true"
     inkscape:document-units="px"
     inkscape:window-width="736"
     inkscape:window-height="851"
     inkscape:window-x="214"
     inkscape:window-y="28" />
  <metadata
     id="metadata1333">
    <rdf:RDF>
      <cc:Work
         rdf:about="">
        <dc:format>image/svg+xml</dc:format>
        <dc:type
           rdf:resource="http://purl.org/dc/dcmitype/StillImage" />
        <dc:title />
        <dc:subject>
          <rdf:Bag>
            <rdf:li>go</rdf:li>
            <rdf:li>seek</rdf:li>
            <rdf:li>home</rdf:li>
          </rdf:Bag>
        </dc:subject>
        <dc:creator>
          <cc:Agent>
            <dc:title>Rodney Dawes</dc:title>
          </cc:Agent>
        </dc:creator>
        <dc:contributor>
          <cc:Agent>
            <dc:title>Jakub Steiner</dc:title>
          </cc:Agent>
        </dc:contributor>
        <cc:license
           rdf:resource="http://creativecommons.org/licenses/GPL/2.0/" />
      </cc:Work>
      <cc:License
         rdf:about="http://creativecommons.org/licenses/GPL/2.0/">
        <cc:permits
           rdf:resource="http://web.resource.org/cc/Reproduction" />
        <cc:permits
           rdf:resource="http://web.resource.org/cc/Distribution" />
        <cc:requires
           rdf:resource="http://web.resource.org/cc/Notice" />
        <cc:permits
           rdf:resource="http://web.resource.org/cc/DerivativeWorks" />
        <cc:requires
           rdf:resource="http://web.resource.org/cc/ShareAlike" />
        <cc:requires
           rdf:resource="http://web.resource.org/cc/SourceCode" />
      </cc:License>
    </rdf:RDF>
  </metadata>
  <g
     inkscape:groupmode="layer"
     id="layer3"
     inkscape:label="shadow"
     style="opacity:0.7;display:inline"
     transform="translate(0,-16)">
    <path
       style="color:#000000;fill:#000000;fill-opacity:1;fill-rule:nonzero;stroke:none;stroke-width:1.00000024;marker:none;visibility:visible;display:inline;overflow:visible;enable-background:accumulate"
       d="m 18.997454,47.865864 c -0.821747,-0.111307 -1.725613,-0.331965 -2.126754,-0.519195 -0.92719,-0.432758 -1.814396,-1.047337 -2.130555,-1.475866 -0.08284,-0.112288 -0.288458,-0.312751 -0.456931,-0.445474 -0.66975,-0.527646 -1.060991,-1.083169 -1.859346,-2.640101 -0.0907,-0.176893 -0.374101,-1.60919 -0.478412,-2.417932 -0.08242,-0.639096 -0.07581,-1.915952 0.01298,-2.500395 0.110169,-0.725183 0.3352,-1.678912 0.444218,-1.882599 0.09174,-0.171431 0.319703,-0.909821 0.39056,-1.265113 0.02677,-0.13423 0.08683,-0.291122 0.133453,-0.348649 0.04662,-0.05753 0.142846,-0.308555 0.213826,-0.557838 0.07099,-0.249284 0.236441,-0.670507 0.367697,-0.936053 0.293959,-0.594729 0.432109,-1.037851 0.433097,-1.38916 4.23e-4,-0.147504 0.05231,-0.445532 0.115326,-0.662284 0.154292,-0.530735 0.09481,-2.025195 -0.103099,-2.590882 -0.150317,-0.429622 -0.517398,-1.151127 -0.903099,-1.775047 -0.799141,-1.292728 -3.083344,-2.883239 -4.4426931,-3.09349 -0.5210847,-0.08059 -2.2457465,0.0085 -2.9871005,0.154463 -0.6347008,0.12489 -1.232547,0.402656 -1.539037,0.715055 -0.7861407,0.801278 -1.2455777,1.342594 -1.4265927,1.680819 -0.2611091,0.487897 -0.4230252,1.2363 -0.4674554,2.16072 -0.050481,1.050536 -0.00658,1.270146 0.4593218,2.29768 0.3931906,0.867154 1.4505704,1.743238 2.6138358,2.165663 0.542988,0.19718 0.7497374,0.233755 1.5340526,0.271379 1.0816175,0.05187 1.1676097,-0.33902 1.6524264,-0.657322 0.1888599,-0.123998 0.6095956,-0.49588 0.7821704,-0.597241 0.7877537,-0.462659 1.4491987,-0.835195 1.4458477,-2.036 C 10.673091,28.7767 10.407868,28.104188 9.95836,27.703532 9.6788435,27.454391 8.6926666,26.861017 8.4061013,26.769552 7.9068423,26.610201 7.2461092,26.528009 6.5588248,26.873568 6.224248,27.04179 5.8827226,27.319146 5.8100522,27.418639 c -0.07266,0.09949 -0.4205519,0.231192 -0.5490231,0.572739 -0.1284801,0.341546 -0.2760227,0.287765 -0.3075088,0.287765 -0.1249277,0 0.00707,-0.04183 0.1565939,-0.457848 0.2138938,-0.595092 0.3162257,-1.179634 0.7398932,-1.503456 0.4776046,-0.365058 1.17502,-0.658084 1.8080312,-0.72114 0.8230333,-0.08197 0.960267,0.51602 1.6721606,0.872609 0.8282188,0.414856 1.0785238,0.659555 1.4873968,1.454065 0.48807,0.948403 0.547855,1.209401 0.439646,1.9193 -0.122979,0.806764 -0.399481,1.621986 -0.721344,2.126736 -0.293468,0.460225 -0.8405855,0.879464 -1.8235754,1.397355 -0.7050101,0.37143 -0.9457323,0.436276 -1.8827084,0.507144 -1.0253719,0.07756 -1.623123,0.01097 -2.4056715,-0.267964 C 4.0787797,33.48291 3.6494932,33.340235 3.4699762,33.288886 3.2306937,33.220433 2.9211306,33.008024 2.3099564,32.492893 1.2610071,31.608785 1.0924656,31.322928 0.8885964,30.082161 0.81297772,29.621945 0.74121826,29.019921 0.72912934,28.744332 0.71703928,28.468742 0.68758961,28.2116 0.6636699,28.172902 0.613641,28.091962 0.7297345,26.689946 0.84624075,25.968108 0.9422842,25.37303 0.9862155,25.282548 1.6726059,24.26609 c 0.4073538,-0.603224 0.6751935,-0.915662 1.0558625,-1.231671 1.2308667,-1.02178 2.0350024,-1.445445 3.4328349,-1.808609 0.9691919,-0.251801 0.9717364,-0.252061 2.1616201,-0.22045 1.2583876,0.03344 1.9282046,0.112025 2.3805446,0.279323 3.058966,1.131346 4.265596,2.121832 5.832855,4.788019 0.501179,0.852595 0.979648,1.462075 1.844472,2.3495 0.636408,0.653045 0.840076,0.816827 1.246517,1.002417 0.655057,0.299117 1.42136,0.408037 2.891712,0.411016 1.400272,0.0027 1.930144,-0.103193 2.540579,-0.508402 0.194142,-0.12887 0.509484,-0.303513 0.700764,-0.388095 0.191281,-0.08459 0.410927,-0.21055 0.488106,-0.279925 0.07718,-0.06937 0.312905,-0.216749 0.523845,-0.327499 0.484379,-0.254322 1.049689,-0.820885 1.25613,-1.258912 0.248625,-0.527551 0.62897,-1.154187 0.839798,-1.383614 0.14372,-0.156392 0.20995,-0.325703 0.262395,-0.670832 0.03859,-0.253901 0.135982,-0.590661 0.216433,-0.748354 0.202167,-0.396278 0.270545,-1.233556 0.123901,-1.517138 -0.05975,-0.115531 -0.153606,-0.44824 -0.208569,-0.739352 -0.195128,-1.033419 -1.217468,-2.238713 -2.390719,-2.818569 -0.425533,-0.210309 -0.606,-0.255085 -1.270775,-0.315303 -1.381567,-0.125148 -2.392942,0.08806 -3.189597,0.672378 -0.752859,0.552201 -1.077909,0.824606 -1.077909,0.90332 0,0.08245 -0.346888,0.48766 -0.457402,0.534287 -0.153091,0.06459 -0.449086,0.55649 -0.449086,0.746317 0,0.112737 -0.06134,0.343657 -0.136325,0.513155 -0.285903,0.646338 -0.235778,1.169841 0.21591,2.254684 0.256961,0.617157 0.335671,0.761233 0.590462,1.080811 0.341587,0.428438 0.74673,-0.155575 1.382834,-0.04344 0.740183,0.130479 0.97268,0.351229 1.441182,0.190033 0.926316,-0.318697 1.341029,-0.448016 1.674384,-1.191186 0.149971,-0.334338 0.490671,-0.321619 0.466242,-0.83977 -0.02456,-0.520828 -0.05749,-0.645912 -0.266255,-1.011081 -0.131035,-0.229196 -0.230429,-0.949547 -0.379286,-1.111195 -0.148856,-0.161649 -0.259745,-0.326615 -0.246416,-0.366593 0.03865,-0.115983 0.610358,0.796001 0.831751,1.10163 0.339539,0.468725 0.448637,0.939465 0.398872,1.721244 -0.05461,0.85828 -0.288896,1.359987 -0.951511,2.037705 -0.511233,0.522882 -1.024838,0.774329 -1.881833,0.921287 -0.697521,0.119612 -1.58319,-0.04328 -2.142427,-0.394037 -0.677949,-0.425214 -1.10033,-0.861049 -1.485522,-1.532815 -0.316438,-0.551882 -0.375915,-0.722621 -0.522257,-1.499223 -0.174339,-0.925214 -0.173995,-1.68034 8.83e-4,-1.887428 0.04858,-0.05753 0.125252,-0.285333 0.170394,-0.506237 0.04514,-0.220905 0.152525,-0.48762 0.23864,-0.592703 0.08611,-0.105083 0.257257,-0.402662 0.380332,-0.661289 0.181044,-0.380471 0.276637,-0.497207 0.500774,-0.611553 0.152354,-0.07774 0.277012,-0.17257 0.277012,-0.210763 0,-0.03818 0.107384,-0.120645 0.23862,-0.183231 0.131246,-0.06259 0.253937,-0.172345 0.272651,-0.243913 0.02007,-0.0768 0.200922,-0.203317 0.441241,-0.308714 0.223976,-0.09822 0.577998,-0.2586 0.786735,-0.356389 0.208728,-0.09779 0.789233,-0.279119 1.29,-0.402961 0.865697,-0.214089 0.951647,-0.22272 1.747237,-0.175467 0.79895,0.04746 0.855315,0.06107 1.247334,0.30139 0.225809,0.138432 0.52391,0.288393 0.662432,0.333248 0.138521,0.04486 0.497183,0.257664 0.797032,0.472907 0.299845,0.215243 0.650073,0.454799 0.778287,0.532345 0.128208,0.07755 0.440057,0.353101 0.693,0.612343 0.52495,0.538031 1.075759,1.541215 1.257002,2.289341 0.05912,0.244095 0.170122,0.663457 0.246645,0.931918 0.119037,0.417664 0.133059,0.613897 0.09708,1.359729 -0.112007,2.322921 -0.901974,4.110806 -2.431789,5.503815 -0.19175,0.174605 -0.57648,0.543922 -0.854949,0.820702 -0.5635,0.560077 -1.235854,1.02269 -2.073697,1.426816 -0.306812,0.147986 -0.73218,0.360563 -0.945277,0.472392 -0.651284,0.341796 -1.647362,0.492492 -3.255278,0.492492 -1.572713,0 -1.747333,0.02384 -3.55277,0.485042 -0.645859,0.164987 -0.857966,0.254728 -1.230722,0.520725 -0.630391,0.449835 -1.357716,1.38689 -1.925497,2.48072 -0.08959,0.17258 -0.218964,0.37654 -0.287516,0.453243 -0.227221,0.25426 -0.402859,0.775694 -0.415035,1.232196 -0.02998,1.124339 0.01623,3.118644 0.07812,3.369966 0.09595,0.389722 0.274695,0.799664 0.456047,1.045945 0.235163,0.319348 0.628211,1.037452 0.719893,1.315257 0.04923,0.14913 0.214576,0.359292 0.414192,0.526419 0.182743,0.153003 0.422227,0.408008 0.532186,0.566678 0.238984,0.344851 1.103164,0.813401 1.620886,0.878831 0.181333,0.02293 0.39371,0.08139 0.471951,0.129934 0.07825,0.04855 0.313575,0.123743 0.522976,0.167097 0.45402,0.09401 1.481912,-0.03493 2.074986,-0.260277 0.364604,-0.138539 1.224789,-0.641286 1.682814,-0.983541 0.343289,-0.256518 0.811002,-0.920681 0.948488,-1.346855 0.06493,-0.201286 0.156424,-0.428731 0.203303,-0.505435 0.241502,-0.395093 0.298231,-1.198714 0.182869,-2.590307 -0.0442,-0.53314 -0.101256,-0.791026 -0.231429,-1.045946 -0.09502,-0.186086 -0.24536,-0.48959 -0.334097,-0.67445 -0.271632,-0.565891 -1.579443,-1.512525 -2.10459,-1.523373 -0.0874,-0.0018 -0.369366,-0.04705 -0.626577,-0.100558 -0.493891,-0.102735 -1.21484,-0.05091 -1.513197,0.108747 -0.366803,0.196309 -0.835276,0.547231 -1.135246,0.850382 -0.266553,0.269385 -0.359842,0.434649 -0.505356,0.895286 -0.167043,0.528767 -0.174457,0.611032 -0.115872,1.285692 0.0716,0.824598 0.442322,0.699716 0.834466,1.133771 0.31277,0.346201 0.349032,0.281549 1.054915,0.491348 0.512616,0.15236 1.12225,-0.275187 1.571988,-0.40779 0.264105,-0.07786 0.05336,1.159482 -0.525444,1.292761 -0.4463,0.102766 -1.245329,0.16212 -1.896201,-0.104135 -0.651034,-0.266321 -1.097272,-0.76279 -1.399066,-1.379657 -0.217303,-0.444168 -0.226578,-0.497386 -0.226578,-1.299885 0,-0.798072 0.01,-0.856097 0.21521,-1.255134 0.118358,-0.230109 0.28758,-0.559497 0.37604,-0.731976 0.08845,-0.172479 0.345177,-0.4912 0.570479,-0.708269 0.33257,-0.3204 0.748612,-1.183844 1.186308,-1.335272 1.204883,-0.416845 2.621351,0.1953 3.522432,0.76738 0.824013,0.523139 1.358903,1.38174 1.633724,1.784352 0.504839,0.739585 0.869787,1.613929 0.922898,2.211082 0.02559,0.287636 0.07498,0.798332 0.109738,1.134882 0.05959,0.576936 0.04945,0.666608 -0.177742,1.568919 -0.354781,1.409146 -0.548845,1.783749 -1.237982,2.389615 -0.311579,0.273939 -0.683308,0.558071 -0.826058,0.631403 -0.142758,0.07333 -0.362405,0.221835 -0.48811,0.330007 -0.340839,0.293283 -0.987619,0.639228 -1.195098,0.639228 -0.100391,0 -0.378979,0.07486 -0.619087,0.166361 -0.474301,0.180752 -1.35469,0.39659 -1.562188,0.382991 -0.07123,-0.0046 -0.411896,-0.04674 -0.757054,-0.09349 l 1.1e-5,4e-6 -1.8e-5,9e-6 z"
       id="path2243-84"
       sodipodi:nodetypes="csssssssssssssssssssssssssssssssssssssssssssssssssssssssssssssssssssssssssssssssssssssssssssssssssssssssssssssssssssssssssssssssssssssssssssssssssssssssssssssssssssccc" />
  </g>
  <g
     id="layer1"
     inkscape:label="color"
     inkscape:groupmode="layer"
     style="display:inline"
     transform="translate(0,-16)">
    <path
       style="color:#000000;fill:#004db1;fill-opacity:1;fill-rule:nonzero;stroke:none;stroke-width:1.00000024;marker:none;visibility:visible;display:inline;overflow:visible;enable-background:accumulate"
       d="m 18.850909,46.698489 c -0.821746,-0.111307 -1.725613,-0.331964 -2.126754,-0.519194 -0.927189,-0.432759 -1.814395,-1.047338 -2.130556,-1.475866 -0.08284,-0.112288 -0.288456,-0.312752 -0.45693,-0.445474 -0.66975,-0.527647 -1.06099,-1.08317 -1.859346,-2.6401 -0.0907,-0.176894 -0.3741,-1.609192 -0.478412,-2.417932 -0.08242,-0.639097 -0.0758,-1.915953 0.01298,-2.500395 0.110168,-0.725184 0.3352,-1.678913 0.444216,-1.882599 0.09175,-0.171431 0.319703,-0.909822 0.390559,-1.265114 0.02677,-0.134231 0.08683,-0.291122 0.133455,-0.34865 0.04662,-0.05753 0.142846,-0.308554 0.213826,-0.557837 0.07098,-0.249283 0.236442,-0.670506 0.367697,-0.936052 0.293959,-0.594729 0.432108,-1.037851 0.433098,-1.389162 4.23e-4,-0.147502 0.05231,-0.445531 0.115325,-0.662283 0.154292,-0.530735 0.09481,-2.025195 -0.1031,-2.590882 -0.150322,-0.429623 -0.517404,-1.151127 -0.903103,-1.775048 -0.799142,-1.292727 -3.083347,-2.883238 -4.4426945,-3.09349 -0.5210845,-0.08059 -2.245746,0.0085 -2.9871001,0.154464 -0.6347009,0.12489 -1.2325471,0.402657 -1.5390371,0.715054 -0.7861407,0.801279 -1.2455775,1.342595 -1.4265927,1.680821 -0.261109,0.487897 -0.4230252,1.236299 -0.4674553,2.16072 -0.050481,1.050535 -0.00658,1.270144 0.4593216,2.297678 0.3931907,0.867155 1.4505705,1.743238 2.613836,2.165664 0.542988,0.19718 0.7497374,0.233755 1.5340523,0.271379 1.0816175,0.05187 1.5426098,-0.02652 2.0274264,-0.344822 0.18886,-0.123999 0.4845963,-0.30838 0.6571711,-0.409742 0.7877543,-0.462658 1.1991983,-1.335194 1.1958463,-2.535999 -0.0021,-0.744303 -0.267322,-1.416813 -0.71683,-1.817469 -0.2795138,-0.249143 -1.2656918,-0.842516 -1.552257,-0.933981 -0.499259,-0.159351 -1.1433308,-0.05827 -1.8306147,0.28729 -0.3345769,0.168223 -0.6677716,0.387263 -0.7404421,0.486757 -0.07266,0.0995 -0.2372368,0.460346 -0.365708,0.801891 -0.1284801,0.341548 -0.2593614,0.620996 -0.2908475,0.620996 -0.1249276,0 -0.092894,-0.541679 0.056625,-0.957693 0.2138937,-0.595091 0.4287098,-0.904719 0.8523773,-1.228542 0.4776048,-0.365058 0.9458679,-0.545559 1.5788783,-0.608615 0.8230333,-0.08198 0.9519359,-0.05891 1.6638303,0.297671 0.8282174,0.414857 1.0785254,0.659555 1.4873954,1.454065 0.488072,0.948403 0.547857,1.2094 0.439647,1.9193 -0.122978,0.806764 -0.39948,1.621985 -0.721343,2.126737 C 10.09588,31.262259 9.5487624,31.681499 8.5657723,32.199388 7.8607625,32.57082 7.6200403,32.635665 6.6830641,32.706532 5.6576939,32.784082 5.0599428,32.717502 4.2773943,32.43857 3.9322347,32.315537 3.5029485,32.172859 3.3234315,32.121512 3.0841488,32.053059 2.7745857,31.84065 2.1634116,31.325519 1.1144622,30.441412 0.9459209,30.155553 0.74205166,28.914787 0.666433,28.454569 0.59467364,27.852547 0.58258462,27.576958 c -0.0120901,-0.275589 -0.0415397,-0.532732 -0.0654594,-0.57143 -0.0500289,-0.08094 0.0660646,-1.482955 0.18257074,-2.204794 0.0960434,-0.595078 0.13997472,-0.68556 0.82636524,-1.702018 0.4073537,-0.603224 0.6751935,-0.915663 1.0558624,-1.231672 1.2308668,-1.021779 2.0350025,-1.445445 3.432835,-1.808608 0.9691915,-0.251802 0.9717361,-0.252061 2.1616198,-0.22045 1.2583875,0.03344 1.9282046,0.112025 2.3805446,0.279322 3.058966,1.131346 4.265596,2.121832 5.832854,4.788019 0.501181,0.852595 0.97965,1.462077 1.844472,2.3495 0.63641,0.653047 0.840078,0.816828 1.246519,1.002418 0.655057,0.299116 1.421359,0.408036 2.891711,0.411015 1.400273,0.0027 1.930143,-0.103193 2.540579,-0.5084 0.194141,-0.12887 0.509485,-0.303513 0.700765,-0.388096 0.19128,-0.08459 0.410926,-0.21055 0.488106,-0.279924 0.07718,-0.06937 0.312905,-0.216749 0.523844,-0.327499 0.484379,-0.254324 1.049689,-0.820888 1.25613,-1.258913 0.248625,-0.527551 0.62897,-1.154187 0.839798,-1.383615 0.14372,-0.156391 0.20995,-0.325702 0.262394,-0.67083 0.03858,-0.253902 0.135983,-0.590662 0.216433,-0.748355 0.202167,-0.396278 0.270547,-1.233557 0.123903,-1.517138 -0.05975,-0.115531 -0.153607,-0.448241 -0.208569,-0.739352 -0.195129,-1.033419 -1.217469,-2.238713 -2.390719,-2.81857 -0.425534,-0.210308 -0.606001,-0.255084 -1.270775,-0.315302 -1.381567,-0.125149 -2.392943,0.08806 -3.189597,0.672377 -0.75286,0.552202 -1.077911,0.824607 -1.077911,0.903321 0,0.08245 -0.346886,0.487659 -0.457401,0.534286 -0.153091,0.06459 -0.449086,0.556491 -0.449086,0.746318 0,0.112737 -0.06134,0.343656 -0.136325,0.513155 -0.285904,0.646337 -0.235778,1.169841 0.21591,2.254684 0.25696,0.617157 0.335671,0.761232 0.590462,1.080811 0.341587,0.428437 0.700697,0.626994 1.336801,0.739127 0.740184,0.130478 1.110779,0.121062 1.579281,-0.04013 0.926316,-0.318699 1.571196,-0.862317 1.904553,-1.605487 0.14997,-0.33434 0.168436,-0.45972 0.144008,-0.977871 -0.02456,-0.520829 -0.0575,-0.645914 -0.266256,-1.011082 -0.131035,-0.229197 -0.360024,-0.548978 -0.508881,-0.710627 -0.148856,-0.161648 -0.259745,-0.326615 -0.246417,-0.366593 0.03865,-0.115983 0.739953,0.395433 0.961346,0.701062 0.339539,0.468724 0.448638,0.939466 0.398873,1.721244 -0.05461,0.858281 -0.288896,1.359988 -0.951511,2.037705 -0.511232,0.522883 -1.024837,0.774328 -1.881834,0.921288 -0.69752,0.11961 -1.583189,-0.04328 -2.142425,-0.394039 -0.677949,-0.425214 -1.100332,-0.861047 -1.485522,-1.532815 -0.316438,-0.551881 -0.375916,-0.72262 -0.522257,-1.499222 -0.174341,-0.925214 -0.173995,-1.68034 8.81e-4,-1.887428 0.04858,-0.05753 0.125255,-0.285333 0.170395,-0.506238 0.04514,-0.220904 0.152526,-0.487619 0.23864,-0.592702 0.08611,-0.105083 0.257259,-0.402663 0.380334,-0.661289 0.181043,-0.380471 0.276634,-0.497207 0.500774,-0.611553 0.152352,-0.07774 0.27701,-0.172571 0.27701,-0.210763 0,-0.03819 0.107385,-0.120645 0.238621,-0.183231 0.131246,-0.06259 0.253936,-0.172346 0.27265,-0.243913 0.02007,-0.0768 0.200923,-0.203317 0.441242,-0.308714 0.223976,-0.09822 0.577998,-0.258601 0.786736,-0.356389 0.208727,-0.09779 0.789232,-0.279119 1.289998,-0.402961 0.865697,-0.214089 0.951649,-0.22272 1.747236,-0.175467 0.798951,0.04746 0.855317,0.06107 1.247335,0.30139 0.22581,0.138432 0.523911,0.288393 0.662433,0.333248 0.138521,0.04486 0.497183,0.257664 0.797032,0.472907 0.299843,0.215243 0.650073,0.454799 0.778288,0.532345 0.128206,0.07755 0.440054,0.3531 0.692999,0.612342 0.524951,0.538032 1.075759,1.541216 1.257001,2.289342 0.05912,0.244094 0.170123,0.663457 0.246646,0.931917 0.119037,0.417665 0.133057,0.613899 0.09708,1.35973 -0.112007,2.32292 -0.901976,4.110807 -2.431789,5.503815 -0.191749,0.174606 -0.57648,0.543922 -0.854949,0.820702 -0.5635,0.560078 -1.235856,1.02269 -2.073697,1.426816 -0.306812,0.147985 -0.732181,0.360562 -0.945277,0.472392 -0.651285,0.341796 -1.647363,0.492493 -3.255278,0.492493 -1.572713,0 -1.747332,0.02384 -3.552771,0.485041 -0.645858,0.164987 -0.857965,0.254727 -1.230721,0.520724 -0.63039,0.449836 -1.357715,1.386891 -1.925496,2.480721 -0.08959,0.17258 -0.218965,0.37654 -0.287517,0.453243 -0.227221,0.254259 -0.40286,0.775693 -0.415036,1.232197 -0.02998,1.124338 0.01624,3.118644 0.07812,3.369965 0.09595,0.389722 0.274696,0.799663 0.456047,1.045946 0.235163,0.319347 0.628209,1.037452 0.719893,1.315256 0.04923,0.149129 0.214576,0.359293 0.414192,0.526419 0.182742,0.153002 0.422226,0.408009 0.532184,0.566678 0.238985,0.34485 1.103164,0.8134 1.620888,0.878832 0.181332,0.02293 0.39371,0.08139 0.47195,0.129933 0.07825,0.04855 0.313576,0.123742 0.522976,0.167097 0.454021,0.09401 1.481913,-0.03493 2.074987,-0.260276 0.364603,-0.13854 1.224789,-0.641287 1.682815,-0.983541 0.343285,-0.25652 0.811001,-0.920683 0.948488,-1.346856 0.06494,-0.201287 0.156423,-0.42873 0.203302,-0.505434 0.241502,-0.395094 0.298232,-1.198714 0.182869,-2.590307 -0.0442,-0.533141 -0.101256,-0.791027 -0.231428,-1.045946 -0.09502,-0.186087 -0.245361,-0.489591 -0.334097,-0.674451 -0.271634,-0.565892 -1.579445,-1.512525 -2.104591,-1.523374 -0.0874,-0.0018 -0.369366,-0.04705 -0.626577,-0.100557 -0.493891,-0.102735 -1.21484,-0.05092 -1.513197,0.108748 -0.366803,0.196308 -0.835277,0.547229 -1.135247,0.850381 -0.266552,0.269385 -0.359841,0.43465 -0.505355,0.895286 -0.167043,0.528767 -0.174457,0.611033 -0.115872,1.285693 0.0716,0.824597 0.212155,1.206084 0.604298,1.640139 0.31277,0.346201 0.5792,0.491621 1.285083,0.701424 0.512616,0.152359 0.997249,0.162312 1.446988,0.02971 0.264105,-0.07786 0.174217,0.08049 -0.121346,0.213757 -0.417495,0.188264 -1.403653,0.116275 -2.054522,-0.149976 -0.651036,-0.266319 -1.218049,-0.791887 -1.519843,-1.408754 -0.217302,-0.444167 -0.226579,-0.497385 -0.226579,-1.299884 0,-0.798073 0.01,-0.8561 0.21521,-1.255136 0.118359,-0.230108 0.287582,-0.559497 0.376039,-0.731975 0.08845,-0.17248 0.345179,-0.4912 0.57048,-0.708269 0.33257,-0.3204 0.511127,-0.429777 0.948826,-0.581206 1.204881,-0.416844 2.671334,-0.308753 3.572416,0.263315 0.824012,0.523139 1.546402,1.131739 1.821223,1.534349 0.504837,0.739588 0.869788,1.613931 0.922898,2.211085 0.02559,0.287635 0.07498,0.79833 0.109737,1.134881 0.05959,0.576937 0.04945,0.666608 -0.177741,1.56892 -0.354781,1.409145 -0.548845,1.783748 -1.237982,2.389615 -0.31158,0.273938 -0.683309,0.558069 -0.826059,0.631403 -0.142758,0.07333 -0.362403,0.221835 -0.488109,0.330005 -0.340839,0.293283 -0.987618,0.639229 -1.195098,0.639229 -0.100391,0 -0.378979,0.07486 -0.619087,0.166361 -0.474302,0.180753 -1.35469,0.39659 -1.562188,0.382992 -0.07123,-0.0046 -0.411897,-0.04674 -0.757055,-0.09349 z"
       id="path2243" />
  </g>
  <g
     style="opacity:0.5;display:inline"
     inkscape:groupmode="layer"
     inkscape:label="shine"
     id="g3737"
     transform="translate(0,-16)">
    <path
       id="path3739"
       d="m 18.850909,46.698489 c -0.821746,-0.111307 -1.725613,-0.331964 -2.126754,-0.519194 -0.927189,-0.432759 -1.814395,-1.047338 -2.130556,-1.475866 -0.08284,-0.112288 -0.288456,-0.312752 -0.45693,-0.445474 -0.66975,-0.527647 -1.06099,-1.08317 -1.859346,-2.6401 -0.0907,-0.176894 -0.3741,-1.609192 -0.478412,-2.417932 -0.08242,-0.639097 -0.0758,-1.915953 0.01298,-2.500395 0.110168,-0.725184 0.3352,-1.678913 0.444216,-1.882599 0.09175,-0.171431 0.319703,-0.909822 0.390559,-1.265114 0.02677,-0.134231 0.08683,-0.291122 0.133455,-0.34865 0.04662,-0.05753 0.142846,-0.308554 0.213826,-0.557837 0.07098,-0.249283 0.236442,-0.670506 0.367697,-0.936052 0.293959,-0.594729 0.432108,-1.037851 0.433098,-1.389162 4.23e-4,-0.147502 0.05231,-0.445531 0.115325,-0.662283 0.154292,-0.530735 0.09481,-2.025195 -0.1031,-2.590882 -0.150322,-0.429623 -0.517404,-1.151127 -0.903103,-1.775048 -0.799142,-1.292727 -3.083347,-2.883238 -4.4426945,-3.09349 -0.5210845,-0.08059 -2.245746,0.0085 -2.9871001,0.154464 -0.6347009,0.12489 -1.2325471,0.402657 -1.5390371,0.715054 -0.7861407,0.801279 -1.2455775,1.342595 -1.4265927,1.680821 -0.261109,0.487897 -0.4230252,1.236299 -0.4674553,2.16072 -0.050481,1.050535 -0.00658,1.270144 0.4593216,2.297678 0.3931907,0.867155 1.4505705,1.743238 2.613836,2.165664 0.542988,0.19718 0.7497374,0.233755 1.5340523,0.271379 1.0816175,0.05187 1.5426098,-0.02652 2.0274264,-0.344822 0.18886,-0.123999 0.4845963,-0.30838 0.6571711,-0.409742 0.7877543,-0.462658 1.1991983,-1.335194 1.1958463,-2.535999 -0.0021,-0.744303 -0.267322,-1.416813 -0.71683,-1.817469 -0.2795138,-0.249143 -1.2656918,-0.842516 -1.552257,-0.933981 -0.499259,-0.159351 -1.1433308,-0.05827 -1.8306147,0.28729 -0.3345769,0.168223 -0.6677716,0.387263 -0.7404421,0.486757 -0.07266,0.0995 -0.2372368,0.460346 -0.365708,0.801891 -0.1284801,0.341548 -0.2593614,0.620996 -0.2908475,0.620996 -0.1249276,0 -0.092894,-0.541679 0.056625,-0.957693 0.2138937,-0.595091 0.4287098,-0.904719 0.8523773,-1.228542 0.4776048,-0.365058 0.9458679,-0.545559 1.5788783,-0.608615 0.8230333,-0.08198 0.9519359,-0.05891 1.6638303,0.297671 0.8282174,0.414857 1.0785254,0.659555 1.4873954,1.454065 0.488072,0.948403 0.547857,1.2094 0.439647,1.9193 -0.122978,0.806764 -0.39948,1.621985 -0.721343,2.126737 C 10.09588,31.262259 9.5487624,31.681499 8.5657723,32.199388 7.8607625,32.57082 7.6200403,32.635665 6.6830641,32.706532 5.6576939,32.784082 5.0599428,32.717502 4.2773943,32.43857 3.9322347,32.315537 3.5029485,32.172859 3.3234315,32.121512 3.0841488,32.053059 2.7745857,31.84065 2.1634116,31.325519 1.1144622,30.441412 0.9459209,30.155553 0.74205166,28.914787 0.666433,28.454569 0.59467364,27.852547 0.58258462,27.576958 c -0.0120901,-0.275589 -0.0415397,-0.532732 -0.0654594,-0.57143 -0.0500289,-0.08094 0.0660646,-1.482955 0.18257074,-2.204794 0.0960434,-0.595078 0.13997472,-0.68556 0.82636524,-1.702018 0.4073537,-0.603224 0.6751935,-0.915663 1.0558624,-1.231672 1.2308668,-1.021779 2.0350025,-1.445445 3.432835,-1.808608 0.9691915,-0.251802 0.9717361,-0.252061 2.1616198,-0.22045 1.2583875,0.03344 1.9282046,0.112025 2.3805446,0.279322 3.058966,1.131346 4.265596,2.121832 5.832854,4.788019 0.501181,0.852595 0.97965,1.462077 1.844472,2.3495 0.63641,0.653047 0.840078,0.816828 1.246519,1.002418 0.655057,0.299116 1.421359,0.408036 2.891711,0.411015 1.400273,0.0027 1.930143,-0.103193 2.540579,-0.5084 0.194141,-0.12887 0.509485,-0.303513 0.700765,-0.388096 0.19128,-0.08459 0.410926,-0.21055 0.488106,-0.279924 0.07718,-0.06937 0.312905,-0.216749 0.523844,-0.327499 0.484379,-0.254324 1.049689,-0.820888 1.25613,-1.258913 0.248625,-0.527551 0.62897,-1.154187 0.839798,-1.383615 0.14372,-0.156391 0.20995,-0.325702 0.262394,-0.67083 0.03858,-0.253902 0.135983,-0.590662 0.216433,-0.748355 0.202167,-0.396278 0.270547,-1.233557 0.123903,-1.517138 -0.05975,-0.115531 -0.153607,-0.448241 -0.208569,-0.739352 -0.195129,-1.033419 -1.217469,-2.238713 -2.390719,-2.81857 -0.425534,-0.210308 -0.606001,-0.255084 -1.270775,-0.315302 -1.381567,-0.125149 -2.392943,0.08806 -3.189597,0.672377 -0.75286,0.552202 -1.077911,0.824607 -1.077911,0.903321 0,0.08245 -0.346886,0.487659 -0.457401,0.534286 -0.153091,0.06459 -0.449086,0.556491 -0.449086,0.746318 0,0.112737 -0.06134,0.343656 -0.136325,0.513155 -0.285904,0.646337 -0.235778,1.169841 0.21591,2.254684 0.25696,0.617157 0.335671,0.761232 0.590462,1.080811 0.341587,0.428437 0.700697,0.626994 1.336801,0.739127 0.740184,0.130478 1.110779,0.121062 1.579281,-0.04013 0.926316,-0.318699 1.571196,-0.862317 1.904553,-1.605487 0.14997,-0.33434 0.168436,-0.45972 0.144008,-0.977871 -0.02456,-0.520829 -0.0575,-0.645914 -0.266256,-1.011082 -0.131035,-0.229197 -0.360024,-0.548978 -0.508881,-0.710627 -0.148856,-0.161648 -0.259745,-0.326615 -0.246417,-0.366593 0.03865,-0.115983 0.739953,0.395433 0.961346,0.701062 0.339539,0.468724 0.448638,0.939466 0.398873,1.721244 -0.05461,0.858281 -0.288896,1.359988 -0.951511,2.037705 -0.511232,0.522883 -1.024837,0.774328 -1.881834,0.921288 -0.69752,0.11961 -1.583189,-0.04328 -2.142425,-0.394039 -0.677949,-0.425214 -1.100332,-0.861047 -1.485522,-1.532815 -0.316438,-0.551881 -0.375916,-0.72262 -0.522257,-1.499222 -0.174341,-0.925214 -0.173995,-1.68034 8.81e-4,-1.887428 0.04858,-0.05753 0.125255,-0.285333 0.170395,-0.506238 0.04514,-0.220904 0.152526,-0.487619 0.23864,-0.592702 0.08611,-0.105083 0.257259,-0.402663 0.380334,-0.661289 0.181043,-0.380471 0.276634,-0.497207 0.500774,-0.611553 0.152352,-0.07774 0.27701,-0.172571 0.27701,-0.210763 0,-0.03819 0.107385,-0.120645 0.238621,-0.183231 0.131246,-0.06259 0.253936,-0.172346 0.27265,-0.243913 0.02007,-0.0768 0.200923,-0.203317 0.441242,-0.308714 0.223976,-0.09822 0.577998,-0.258601 0.786736,-0.356389 0.208727,-0.09779 0.789232,-0.279119 1.289998,-0.402961 0.865697,-0.214089 0.951649,-0.22272 1.747236,-0.175467 0.798951,0.04746 0.855317,0.06107 1.247335,0.30139 0.22581,0.138432 0.523911,0.288393 0.662433,0.333248 0.138521,0.04486 0.497183,0.257664 0.797032,0.472907 0.299843,0.215243 0.650073,0.454799 0.778288,0.532345 0.128206,0.07755 0.440054,0.3531 0.692999,0.612342 0.524951,0.538032 1.075759,1.541216 1.257001,2.289342 0.05912,0.244094 0.170123,0.663457 0.246646,0.931917 0.119037,0.417665 0.133057,0.613899 0.09708,1.35973 -0.112007,2.32292 -0.901976,4.110807 -2.431789,5.503815 -0.191749,0.174606 -0.57648,0.543922 -0.854949,0.820702 -0.5635,0.560078 -1.235856,1.02269 -2.073697,1.426816 -0.306812,0.147985 -0.732181,0.360562 -0.945277,0.472392 -0.651285,0.341796 -1.647363,0.492493 -3.255278,0.492493 -1.572713,0 -1.747332,0.02384 -3.552771,0.485041 -0.645858,0.164987 -0.857965,0.254727 -1.230721,0.520724 -0.63039,0.449836 -1.357715,1.386891 -1.925496,2.480721 -0.08959,0.17258 -0.218965,0.37654 -0.287517,0.453243 -0.227221,0.254259 -0.40286,0.775693 -0.415036,1.232197 -0.02998,1.124338 0.01624,3.118644 0.07812,3.369965 0.09595,0.389722 0.274696,0.799663 0.456047,1.045946 0.235163,0.319347 0.628209,1.037452 0.719893,1.315256 0.04923,0.149129 0.214576,0.359293 0.414192,0.526419 0.182742,0.153002 0.422226,0.408009 0.532184,0.566678 0.238985,0.34485 1.103164,0.8134 1.620888,0.878832 0.181332,0.02293 0.39371,0.08139 0.47195,0.129933 0.07825,0.04855 0.313576,0.123742 0.522976,0.167097 0.454021,0.09401 1.481913,-0.03493 2.074987,-0.260276 0.364603,-0.13854 1.224789,-0.641287 1.682815,-0.983541 0.343285,-0.25652 0.811001,-0.920683 0.948488,-1.346856 0.06494,-0.201287 0.156423,-0.42873 0.203302,-0.505434 0.241502,-0.395094 0.298232,-1.198714 0.182869,-2.590307 -0.0442,-0.533141 -0.101256,-0.791027 -0.231428,-1.045946 -0.09502,-0.186087 -0.245361,-0.489591 -0.334097,-0.674451 -0.271634,-0.565892 -1.579445,-1.512525 -2.104591,-1.523374 -0.0874,-0.0018 -0.369366,-0.04705 -0.626577,-0.100557 -0.493891,-0.102735 -1.21484,-0.05092 -1.513197,0.108748 -0.366803,0.196308 -0.835277,0.547229 -1.135247,0.850381 -0.266552,0.269385 -0.359841,0.43465 -0.505355,0.895286 -0.167043,0.528767 -0.174457,0.611033 -0.115872,1.285693 0.0716,0.824597 0.212155,1.206084 0.604298,1.640139 0.31277,0.346201 0.5792,0.491621 1.285083,0.701424 0.512616,0.152359 0.997249,0.162312 1.446988,0.02971 0.264105,-0.07786 0.174217,0.08049 -0.121346,0.213757 -0.417495,0.188264 -1.403653,0.116275 -2.054522,-0.149976 -0.651036,-0.266319 -1.218049,-0.791887 -1.519843,-1.408754 -0.217302,-0.444167 -0.226579,-0.497385 -0.226579,-1.299884 0,-0.798073 0.01,-0.8561 0.21521,-1.255136 0.118359,-0.230108 0.287582,-0.559497 0.376039,-0.731975 0.08845,-0.17248 0.345179,-0.4912 0.57048,-0.708269 0.33257,-0.3204 0.511127,-0.429777 0.948826,-0.581206 1.204881,-0.416844 2.671334,-0.308753 3.572416,0.263315 0.824012,0.523139 1.546402,1.131739 1.821223,1.534349 0.504837,0.739588 0.869788,1.613931 0.922898,2.211085 0.02559,0.287635 0.07498,0.79833 0.109737,1.134881 0.05959,0.576937 0.04945,0.666608 -0.177741,1.56892 -0.354781,1.409145 -0.548845,1.783748 -1.237982,2.389615 -0.31158,0.273938 -0.683309,0.558069 -0.826059,0.631403 -0.142758,0.07333 -0.362403,0.221835 -0.488109,0.330005 -0.340839,0.293283 -0.987618,0.639229 -1.195098,0.639229 -0.100391,0 -0.378979,0.07486 -0.619087,0.166361 -0.474302,0.180753 -1.35469,0.39659 -1.562188,0.382992 -0.07123,-0.0046 -0.411897,-0.04674 -0.757055,-0.09349 z"
       style="color:#000000;fill:url(#radialGradient3749);fill-opacity:1;fill-rule:nonzero;stroke:none;stroke-width:1.00000024000000010;marker:none;visibility:visible;display:inline;overflow:visible;enable-background:accumulate" />
  </g>
  <g
     inkscape:groupmode="layer"
     id="layer2"
     inkscape:label="border"
     style="display:inline"
     transform="translate(0,-16)">
    <path
       style="color:#000000;fill:#000000;fill-opacity:0;stroke:url(#linearGradient3781);stroke-width:1;stroke-linejoin:round;stroke-miterlimit:4;stroke-opacity:1;stroke-dasharray:none;marker:none;visibility:visible;display:inline;overflow:visible;enable-background:accumulate"
       d="m 18.819821,46.366897 c -0.821746,-0.111309 -1.590903,-0.31124 -1.992042,-0.498472 -0.927191,-0.432758 -1.658963,-0.922988 -1.975122,-1.351516 -0.08284,-0.112288 -0.288457,-0.312753 -0.456932,-0.445476 -0.66975,-0.527646 -1.06099,-1.083168 -1.859344,-2.6401 -0.0907,-0.176892 -0.311928,-1.391584 -0.416238,-2.200323 -0.08242,-0.639096 -0.0758,-1.915953 0.01297,-2.500396 0.110168,-0.725183 0.3352,-1.678913 0.444217,-1.882598 0.09175,-0.171432 0.30934,-0.85801 0.380198,-1.213303 0.02677,-0.13423 0.09718,-0.332571 0.143816,-0.390099 0.04662,-0.05753 0.142844,-0.308553 0.213825,-0.557837 0.07099,-0.249284 0.236442,-0.670506 0.367697,-0.936052 0.293959,-0.594729 0.432108,-1.037852 0.433097,-1.389162 4.23e-4,-0.147503 0.05231,-0.445531 0.115326,-0.662283 0.154292,-0.530735 0.043,-2.273889 -0.154912,-2.839577 -0.150316,-0.429622 -0.527238,-1.114062 -0.903099,-1.74396 C 12.384089,23.793157 9.7940578,22.02821 8.3989917,21.87718 7.8947374,21.82259 6.1559236,21.88308 5.4118915,22.031644 4.7775406,22.158301 4.0549971,22.465387 3.7485071,22.777785 2.9623664,23.579064 2.3889445,24.275814 2.2079293,24.61404 c -0.2611089,0.487896 -0.4437497,1.360647 -0.4881798,2.285066 -0.050481,1.050537 0.024502,1.446305 0.4904084,2.473839 0.3931907,0.867154 1.6060047,1.877948 2.7692702,2.300373 0.5429879,0.19718 0.9155338,0.264843 1.6998486,0.302466 1.0816176,0.05187 1.698044,-0.09906 2.1828605,-0.417359 0.1888607,-0.123997 0.5467699,-0.360191 0.7193448,-0.461552 0.787753,-0.462659 1.188835,-1.573528 1.185484,-2.774332 -0.0021,-0.744302 -0.412394,-1.696594 -0.861902,-2.097252 -0.2795161,-0.24914 -1.3382304,-0.759616 -1.6247958,-0.851081 -0.4992589,-0.159351 -1.2469534,-0.05826 -1.9342374,0.28729 -0.3345769,0.168221 -0.6366847,0.480523 -0.7093552,0.580017 -0.07266,0.0995 -0.2994106,0.460347 -0.4278818,0.801892 -0.1284801,0.341548 -0.093564,0.299764 -0.1768624,0.755705 0.071956,-0.455941 0.072903,-0.469143 0.222422,-0.885157 0.2138937,-0.595091 0.397623,-0.780372 0.8212906,-1.104195 0.4776041,-0.365059 0.8526067,-0.462662 1.4856172,-0.525718 0.8230332,-0.08198 0.8172263,-0.02783 1.5291207,0.32876 0.8282181,0.414856 0.9645391,0.493758 1.3734101,1.288268 0.488072,0.948404 0.433872,1.053966 0.325661,1.763866 -0.122978,0.806764 -0.35803,1.466551 -0.679893,1.971301 -0.2934699,0.460227 -0.6644276,0.724032 -1.6474176,1.241921 -0.705005,0.371431 -0.8524667,0.425914 -1.789443,0.49678 C 5.647328,32.452497 5.1635619,32.416999 4.3810135,32.138063 4.0358576,32.015031 3.6065713,31.872355 3.4270542,31.821005 3.1877718,31.752554 2.9071984,31.50945 2.287759,31.004289 1.3942438,30.275614 1.2775138,30.103742 1.0736446,28.862976 c -0.075619,-0.460217 -0.147378,-1.06224 -0.1594671,-1.33783 -0.01209,-0.275588 -0.0415398,-0.532731 -0.0654595,-0.57143 -0.0500289,-0.08094 0.0660647,-1.410418 0.1825708,-2.132258 0.096043,-0.595077 0.1088878,-0.55085 0.7952783,-1.567307 0.4073538,-0.603224 0.623382,-0.85349 1.0040511,-1.169499 1.2308667,-1.021779 1.8588437,-1.341822 3.2566761,-1.704985 0.9691917,-0.251801 0.8992003,-0.241698 2.089084,-0.210088 1.2583875,0.03344 1.8763937,0.101662 2.3287337,0.26896 3.058966,1.131346 4.130887,2.090745 5.698146,4.756932 0.501177,0.852595 0.938198,1.420627 1.803021,2.308051 0.63641,0.653047 0.992004,0.895121 1.398445,1.080711 0.655058,0.299116 1.466984,0.408035 2.937337,0.411015 1.400273,0.0027 2.089835,-0.12601 2.700271,-0.531215 0.194142,-0.128869 0.509484,-0.303511 0.700765,-0.388095 0.191279,-0.08459 0.563013,-0.309405 0.640193,-0.37878 0.07718,-0.06937 0.244465,-0.163519 0.455406,-0.274268 0.484377,-0.254324 1.110523,-0.904537 1.316964,-1.342561 0.248624,-0.527552 0.674596,-1.199814 0.885424,-1.429242 0.14372,-0.156391 0.209949,-0.40935 0.262396,-0.754479 0.03858,-0.253902 0.151189,-0.575451 0.231641,-0.733145 0.202166,-0.396278 0.247732,-1.423665 0.101078,-1.707247 -0.05975,-0.115531 -0.153605,-0.410219 -0.208567,-0.70133 -0.195129,-1.033419 -1.316326,-2.406011 -2.489577,-2.985865 -0.425533,-0.21031 -0.735275,-0.31592 -1.400049,-0.376139 -1.381567,-0.125147 -2.567841,0.06524 -3.364498,0.649566 -0.752857,0.552201 -1.275624,0.976693 -1.275624,1.055406 0,0.08245 -0.255634,0.411617 -0.366147,0.458245 -0.153092,0.06459 -0.578362,0.716181 -0.578362,0.906008 0,0.112736 -0.05374,0.343657 -0.12872,0.513155 -0.285902,0.646337 -0.25859,1.283906 0.193098,2.368749 0.25696,0.617157 0.381297,0.905715 0.636088,1.225295 0.341587,0.428437 0.761532,0.748663 1.397635,0.860796 0.740184,0.130477 1.27047,0.235128 1.982312,-0.02492 0.920132,-0.33614 1.540779,-1.067635 1.874135,-1.810804 0.149971,-0.334341 0.221668,-0.5966 0.197239,-1.11475 -0.02456,-0.520825 -0.0879,-0.676328 -0.296672,-1.041497 -0.131035,-0.229197 -0.398046,-0.526167 -0.546904,-0.687814 -0.148855,-0.161649 -0.267349,-0.227759 -0.368086,-0.305758 0.167931,0.104543 0.565053,0.486685 0.786446,0.792314 0.33954,0.468723 0.463846,0.833004 0.414081,1.614782 -0.05461,0.858281 -0.387753,1.299154 -1.050367,1.97687 -0.511233,0.522884 -1.268178,0.683078 -1.699329,0.746388 -0.700194,0.102818 -1.476729,-0.06609 -2.035964,-0.416851 -0.677949,-0.425216 -0.849389,-0.746983 -1.23458,-1.418751 -0.316438,-0.55188 -0.330288,-0.570532 -0.476629,-1.347134 -0.174341,-0.925214 -0.1816,-1.581483 -0.0068,-1.78857 0.04857,-0.05753 0.132858,-0.346169 0.178,-0.567073 0.04513,-0.220905 0.122107,-0.373555 0.208223,-0.478638 0.08611,-0.105082 0.272466,-0.448288 0.39554,-0.706915 0.181043,-0.38047 0.17778,-0.337515 0.401918,-0.451861 0.152353,-0.07774 0.330243,-0.218196 0.330243,-0.256389 0,-0.03819 0.107384,-0.120645 0.23862,-0.183231 0.131246,-0.06259 0.253936,-0.172346 0.272651,-0.243914 0.02007,-0.0768 0.07165,-0.112064 0.311967,-0.217461 0.223976,-0.09822 0.661646,-0.304227 0.870383,-0.402015 0.208729,-0.09779 0.667563,-0.218285 1.16833,-0.342126 0.865696,-0.214091 0.875604,-0.215116 1.671193,-0.167863 0.79895,0.04746 0.703228,0.04586 1.095248,0.286182 0.225809,0.138432 0.539118,0.280788 0.67764,0.325643 0.138522,0.04486 0.375513,0.189226 0.675363,0.404469 0.299843,0.215242 0.748929,0.523237 0.877144,0.600783 0.128207,0.07755 0.371617,0.29987 0.62456,0.559112 0.52495,0.53803 0.969297,1.373919 1.15054,2.122044 0.05912,0.244095 0.162519,0.64825 0.239042,0.91671 0.119036,0.417665 0.117849,0.522646 0.08187,1.268478 -0.112007,2.322919 -0.863952,3.981531 -2.393766,5.374539 -0.19175,0.174607 -0.508041,0.452672 -0.786509,0.729451 -0.563501,0.560078 -1.167417,0.977064 -2.005259,1.381189 -0.306813,0.147986 -0.739784,0.368168 -0.952881,0.479998 -0.651285,0.341795 -1.495275,0.446865 -3.10319,0.446865 -1.572714,0 -1.777751,0.03145 -3.583188,0.492646 -0.645858,0.164987 -0.998862,0.304692 -1.371618,0.570689 -0.630389,0.449835 -1.43025,1.459426 -1.998032,2.553256 -0.08958,0.172579 -0.218964,0.376541 -0.287517,0.453243 -0.22722,0.254259 -0.485757,0.951852 -0.497934,1.408356 -0.02998,1.124339 0.03696,3.253353 0.09884,3.504674 0.09596,0.389723 0.316145,0.851475 0.497498,1.097758 0.235162,0.319347 0.669657,1.089262 0.761342,1.367067 0.04923,0.14913 0.214575,0.359292 0.41419,0.526419 0.182744,0.153003 0.422228,0.408008 0.532185,0.566678 0.238985,0.34485 1.279324,0.927386 1.797048,0.992816 0.181331,0.02293 0.393708,0.08139 0.471949,0.129935 0.07825,0.04855 0.313575,0.123742 0.522976,0.167097 0.454022,0.09401 1.668434,-0.06601 2.261508,-0.291364 0.364603,-0.138539 1.224789,-0.641286 1.682814,-0.983542 0.343287,-0.256517 0.997523,-1.107203 1.13501,-1.533374 0.06493,-0.201289 0.156424,-0.428732 0.203302,-0.505435 0.241501,-0.395095 0.298233,-1.354148 0.182868,-2.745743 -0.04419,-0.533138 -0.101255,-0.842837 -0.231428,-1.097757 -0.09502,-0.186088 -0.276447,-0.58285 -0.365182,-0.767711 -0.271634,-0.565891 -1.78669,-1.647235 -2.311837,-1.658082 -0.0874,-0.0018 -0.431541,-0.03669 -0.688752,-0.09019 -0.49389,-0.102734 -1.114215,0.08116 -1.616819,0.24346 -0.605953,0.195667 -0.814552,0.526504 -1.114522,0.829655 -0.266553,0.269386 -0.463464,0.548636 -0.608978,1.009272 -0.167044,0.528769 -0.267717,0.725019 -0.209134,1.399679 0.0716,0.824596 0.295054,1.278618 0.687197,1.712673 0.31277,0.346201 0.71391,0.512347 1.419794,0.72215 0.512614,0.152358 1.080146,0.05868 1.529885,-0.07391 -0.881217,0.307018 -1.439862,0.09999 -2.165507,-0.122739 -0.651035,-0.26632 -0.938266,-0.636455 -1.24006,-1.25332 -0.217303,-0.444168 -0.226579,-0.497387 -0.226579,-1.299886 0,-0.798072 -0.04185,-0.648852 0.163398,-1.047889 0.11836,-0.230109 0.287582,-0.559497 0.376041,-0.731976 0.08845,-0.172477 0.324452,-0.449751 0.549754,-0.666821 0.33257,-0.320399 0.303881,-0.326152 0.741579,-0.477581 1.204884,-0.416845 2.474451,-0.370927 3.375535,0.201141 0.824011,0.523138 1.390968,0.976305 1.665788,1.378917 0.504837,0.739585 0.849063,1.448133 0.902174,2.045285 0.02559,0.287636 0.09569,0.746521 0.130461,1.083072 0.05959,0.576935 0.04945,0.666606 -0.17774,1.568918 -0.354782,1.409147 -0.320876,1.535053 -1.010013,2.140921 -0.31158,0.273939 -0.683308,0.558069 -0.826059,0.631403 -0.142758,0.07333 -0.362403,0.221836 -0.488108,0.330006 -0.34084,0.293282 -0.935807,0.64959 -1.143288,0.64959 -0.100391,0 -0.378979,0.07486 -0.619086,0.166362 -0.474302,0.180752 -1.35469,0.39659 -1.562189,0.382992 -0.07123,-0.0046 -0.411895,-0.04674 -0.757054,-0.09348 l 1.1e-5,5e-6 z"
       id="path2243-8"
       sodipodi:nodetypes="cssssssssssssssssssssssssssssssscsssssssssssssssssssssssssssssssssssssssssssssssssscssssssssssssssssssssssssssssssssssssssssssssssssssssssssssssccssssssssssssssssscc" />
  </g>
  <g
     style="display:inline"
     inkscape:label="border detail"
     id="g2876"
     inkscape:groupmode="layer"
     transform="translate(0,-16)">
    <path
       sodipodi:nodetypes="cssssssssssssssccssssssssssssssscc"
       id="path2878"
       d="m 21.436578,45.020861 c 0.364603,-0.138538 1.224789,-0.641295 1.682814,-0.983551 0.343287,-0.256518 0.997522,-1.107203 1.13501,-1.533375 0.06493,-0.201288 0.156423,-0.428732 0.203302,-0.505434 0.241501,-0.395095 0.298232,-1.354149 0.182868,-2.745743 -0.04418,-0.533139 -0.101256,-0.842837 -0.231428,-1.097757 -0.09502,-0.186088 -0.276448,-0.58285 -0.365184,-0.767711 -0.271632,-0.56589 -1.786688,-1.647236 -2.311835,-1.658082 -0.0874,-0.0018 -0.431541,-0.03669 -0.688752,-0.09019 -0.49389,-0.102735 -1.114215,0.08116 -1.616819,0.24346 -0.605953,0.195667 -0.814553,0.526504 -1.114522,0.829656 -0.266553,0.269385 -0.463464,0.548634 -0.608979,1.009271 -0.167043,0.528768 -0.267716,0.725019 -0.209133,1.399679 0.0716,0.824596 0.295054,1.278618 0.687197,1.712673 0.31277,0.3462 0.71391,0.512347 1.419792,0.72215 0.512616,0.152358 1.080148,0.05868 1.529887,-0.07391 -0.881217,0.307017 -1.439862,0.09999 -2.165507,-0.12274 -0.651035,-0.26632 -0.938266,-0.636454 -1.240061,-1.253319 -0.217302,-0.444168 -0.226579,-0.497388 -0.226579,-1.299887 0,-0.798072 -0.04185,-0.648852 0.163399,-1.047888 0.11836,-0.230109 0.287582,-0.559497 0.376041,-0.731976 0.08845,-0.172478 0.324452,-0.449751 0.549754,-0.66682 0.332569,-0.3204 0.303881,-0.326153 0.741579,-0.477582 1.204882,-0.416845 2.474451,-0.370928 3.375534,0.20114 0.824012,0.523138 1.390968,0.976306 1.665789,1.378917 0.504837,0.739586 0.849062,1.448134 0.902174,2.045286 0.02559,0.287636 0.09569,0.74652 0.130461,1.083071 0.05959,0.576936 0.04945,0.666607 -0.177741,1.568919 -0.354782,1.409147 -0.320876,1.535053 -1.010012,2.140921 -0.31158,0.273939 -0.683309,0.558068 -0.826059,0.631403 -0.142758,0.07333 -0.362404,0.221836 -0.488109,0.330006 -0.340839,0.293282 -0.935807,0.649589 -1.143287,0.649589 -0.100391,0 -0.378979,0.07486 -0.619086,0.166362 -1.402104,0.711726 -0.481982,-0.119381 0.297492,-1.056538 z"
       style="color:#000000;fill:none;stroke:url(#linearGradient2880);stroke-width:1;stroke-linejoin:round;stroke-miterlimit:4;stroke-opacity:1;stroke-dasharray:none;marker:none;visibility:visible;display:inline;overflow:visible;enable-background:accumulate" />
  </g>
</svg>
