<?xml version="1.0" encoding="UTF-8" standalone="no"?>
<svg
   width="16"
   height="16"
   enable-background="new"
   version="1.0"
   id="svg6"
   sodipodi:docname="logo-trisquel-dark.svg"
   inkscape:version="1.3 (1:1.3+202307231459+0e150ed6c4)"
   xmlns:inkscape="http://www.inkscape.org/namespaces/inkscape"
   xmlns:sodipodi="http://sodipodi.sourceforge.net/DTD/sodipodi-0.dtd"
   xmlns:xlink="http://www.w3.org/1999/xlink"
   xmlns="http://www.w3.org/2000/svg"
   xmlns:svg="http://www.w3.org/2000/svg">
  <defs
     id="defs10">
    <linearGradient
       id="vlpc"
       x1="33.110001"
       x2="25.370001"
       y1="43.540001"
       y2="2.4400001"
       gradientUnits="userSpaceOnUse"
       xlink:href="#vlpa" />
    <linearGradient
       id="vlpa">
      <stop
         style="stop-color:#fff"
         offset="0"
         id="stop497" />
      <stop
         style="stop-color:#fff;stop-opacity:0"
         offset="1"
         id="stop499" />
    </linearGradient>
    <linearGradient
       id="vlpb"
       x1="29.85"
       x2="21.799999"
       y1="50.400002"
       y2="15.47"
       gradientUnits="userSpaceOnUse"
       xlink:href="#vlpa" />
  </defs>
  <sodipodi:namedview
     id="namedview8"
     pagecolor="#ffffff"
     bordercolor="#000000"
     borderopacity="0.25"
     inkscape:showpageshadow="2"
     inkscape:pageopacity="0.0"
     inkscape:pagecheckerboard="0"
     inkscape:deskcolor="#d1d1d1"
     showgrid="false"
     inkscape:zoom="11.313709"
     inkscape:cx="2.1655145"
     inkscape:cy="0.8396893"
     inkscape:window-width="1918"
     inkscape:window-height="1008"
     inkscape:window-x="0"
     inkscape:window-y="0"
     inkscape:window-maximized="1"
     inkscape:current-layer="svg6" />
  <g
     id="g1"
     transform="translate(-3.9999985,-3.9999967)">
    <path
       d="m 13.44752,19.589321 c -0.410795,-0.05566 -0.862558,-0.165942 -1.062973,-0.259542 -0.463574,-0.216323 -0.906849,-0.523367 -1.065187,-0.737807 -0.04141,-0.05614 -0.144203,-0.156345 -0.228429,-0.222671 -0.334799,-0.26375 -0.530379,-0.541451 -0.929363,-1.319857 -0.04532,-0.08843 -0.1870163,-0.804243 -0.2391315,-1.208763 -0.04119,-0.319482 -0.037905,-0.957782 0.00649,-1.249731 0.055068,-0.362518 0.1675655,-0.839305 0.2220425,-0.941174 0.04588,-0.0857 0.159815,-0.454716 0.195248,-0.632247 0.01338,-0.0671 0.0434,-0.145531 0.06669,-0.174283 0.0233,-0.02876 0.07142,-0.154242 0.106888,-0.278846 0.03548,-0.124604 0.118182,-0.335169 0.183805,-0.468003 0.146934,-0.297301 0.215991,-0.518938 0.216507,-0.694254 2.11e-4,-0.07374 0.02615,-0.222708 0.05765,-0.331072 0.07714,-0.2653 0.04739,-1.012408 -0.05152,-1.2951291 C 10.851091,9.5611697 10.66758,9.2005341 10.474843,8.8886549 10.07549,8.2423823 8.9335323,7.4473672 8.2540417,7.3421772 7.9935765,7.3018728 7.1312767,7.3464697 6.7607126,7.4193904 6.4434448,7.4818031 6.1447052,7.6206539 5.9915337,7.7768519 5.5984553,8.1773121 5.3688827,8.4478534 5.2784562,8.6168956 5.1479468,8.8607888 5.0670058,9.2347485 5.0447867,9.6968464 c -0.025235,0.5252116 -0.00329,0.6348306 0.2296095,1.1486016 0.1965393,0.433309 0.7252575,0.871416 1.3065707,1.082534 0.2714271,0.09858 0.3746241,0.116853 0.7669644,0.13564 0.5407135,0.02593 0.7710243,-0.01326 1.0135149,-0.172364 0.094413,-0.06197 0.2422323,-0.154168 0.3285251,-0.204807 C 9.0837879,11.45518 9.2893698,11.01914 9.2878934,10.418634 9.28686,10.046594 9.1542468,9.710355 8.9295461,9.5099404 8.7898095,9.3854102 8.2969297,9.0888112 8.1537237,9.0430443 7.9041465,8.9633952 7.5823758,9.0139159 7.2387551,9.1866564 7.0715214,9.2707346 6.9049521,9.3802429 6.8685601,9.429996 6.8322381,9.479749 6.7499722,9.6601222 6.6857509,9.8308253 6.6215296,10.001565 6.5560904,10.141265 6.5403672,10.141265 c -0.06245,0 -0.046431,-0.2707628 0.028305,-0.4787069 C 6.6755973,9.3650734 6.7829649,9.2104256 6.9945999,9.0483961 7.2333627,8.8659191 7.4674013,8.7756772 7.7837095,8.7441571 8.1952423,8.7031883 8.2594636,8.7147039 8.6152642,8.8929733 9.0293807,9.1003637 9.1545014,9.2226794 9.358607,9.6197071 9.602574,10.093616 9.6324701,10.224273 9.5783618,10.578966 9.5168718,10.982379 9.3786853,11.389852 9.2177631,11.641939 9.0710507,11.871991 8.7977412,12.081522 8.3061163,12.340622 7.9537113,12.52631 7.8333149,12.558716 7.3649425,12.594148 6.8522796,12.632903 6.5536876,12.599633 6.1624546,12.460206 5.9899061,12.398716 5.7752815,12.327372 5.6855932,12.30172 5.5659719,12.267502 5.4112503,12.161319 5.1057563,11.903844 4.5812826,11.462046 4.4971306,11.318839 4.3952624,10.698772 4.3574678,10.46872 4.3215925,10.167655 4.3155394,10.029985 4.3094975,9.8922046 4.2947746,9.7636882 4.2828161,9.744348 4.2578067,9.703896 4.3158421,9.0032198 4.3740915,8.6422519 4.4221098,8.3447672 4.4440706,8.299554 4.7871007,7.7915047 4.9907264,7.48996 5.1246315,7.3338358 5.3148962,7.1758663 5.9301655,6.6650488 6.3321021,6.4531924 7.0307852,6.2716013 7.5153974,6.1457423 7.5165047,6.1455947 8.1114742,6.1613917 8.7403997,6.178104 9.0755314,6.2173823 9.3014131,6.3010176 10.830544,6.86646 11.433633,7.3617758 12.217206,8.6945517 c 0.250537,0.4262963 0.48978,0.7307937 0.921982,1.1744372 0.318116,0.3264581 0.420022,0.4082111 0.62302,0.5012211 0.327454,0.149518 0.710494,0.203958 1.445347,0.205471 0.699791,0.0014 0.964796,-0.0516 1.270031,-0.254154 0.09703,-0.0644 0.254671,-0.151732 0.350302,-0.193992 0.09563,-0.04226 0.205397,-0.105264 0.244004,-0.1399213 0.03857,-0.034679 0.156419,-0.1083641 0.261867,-0.1637273 0.242122,-0.1271138 0.524843,-0.4104256 0.627819,-0.6292946 0.124271,-0.2637132 0.314425,-0.5768842 0.419652,-0.6916705 0.07183,-0.078173 0.104932,-0.1628046 0.131174,-0.3353531 0.01929,-0.1269293 0.06799,-0.2952702 0.10818,-0.374255 C 18.72164,7.5952238 18.755818,7.1765675 18.682517,7.0348378 18.65265,6.9770756 18.605746,6.8107647 18.578249,6.665381 18.4807,6.1486581 17.969624,5.5463069 17.383143,5.256573 c -0.212705,-0.1051162 -0.30291,-0.1275198 -0.6352,-0.1576005 -0.690563,-0.06256 -1.196213,0.044032 -1.594459,0.3361283 -0.376469,0.2760407 -0.538868,0.412271 -0.538868,0.4513943 0,0.041227 -0.173397,0.2437825 -0.22865,0.2670719 -0.07651,0.032292 -0.224479,0.2781814 -0.224479,0.3731477 0,0.05636 -0.03067,0.1717735 -0.06813,0.256516 -0.14291,0.3230994 -0.117849,0.584635 0.107922,1.127194 0.128442,0.3085205 0.167787,0.3805295 0.295159,0.5403445 0.17074,0.2141816 0.350264,0.3134293 0.668418,0.3694569 0.369826,0.065218 0.555108,0.06053 0.789479,-0.02006 0.463205,-0.1592982 0.785418,-0.4310945 0.951877,-0.8023967 0.07496,-0.167123 0.08419,-0.2297941 0.07197,-0.4886722 C 16.965901,7.2487427 16.949436,7.1862192 16.845087,7.003816 16.779574,6.8892512 16.66512,6.7293993 16.590712,6.648569 16.516304,6.5677757 16.460867,6.4852846 16.467547,6.465317 16.486877,6.407333 16.837373,6.6630004 16.9481,6.8157658 17.117843,7.0500627 17.172357,7.2852454 17.147481,7.6761094 17.120172,8.1049893 17.003057,8.355969 16.671727,8.6947916 16.41617,8.9561795 16.159433,9.0819646 15.730922,9.1554131 15.382245,9.2152053 14.939598,9.1337772 14.659829,8.958431 14.320933,8.7458733 14.109888,8.5280746 13.917225,8.1922048 13.759034,7.9163117 13.729322,7.8309786 13.656169,7.4425875 c -0.08714,-0.4624669 -0.08699,-0.8400437 4.43e-4,-0.9433883 0.02428,-0.028756 0.0626,-0.1426155 0.08518,-0.2530465 0.02257,-0.1104311 0.07625,-0.2437456 0.119289,-0.2962668 0.04304,-0.052521 0.128591,-0.2013004 0.190118,-0.330555 0.0905,-0.1901909 0.138297,-0.2485437 0.250315,-0.3057154 0.07614,-0.038865 0.138482,-0.086256 0.138482,-0.1053745 0,-0.019119 0.05366,-0.060309 0.119289,-0.091608 0.06562,-0.031284 0.126929,-0.086145 0.136304,-0.1219466 0.01004,-0.038385 0.100429,-0.1016468 0.220567,-0.1543156 0.111944,-0.049089 0.288922,-0.1292545 0.393447,-0.1781587 0.104341,-0.048867 0.394555,-0.1395151 0.644797,-0.2014481 0.43257,-0.1070354 0.475754,-0.1113168 0.873261,-0.087695 0.399353,0.023721 0.427404,0.030527 0.623389,0.1506616 0.112867,0.069204 0.261905,0.1441657 0.331146,0.1665693 0.06924,0.022422 0.248544,0.1288116 0.398246,0.2364007 0.149886,0.1075891 0.324944,0.2273581 0.389018,0.2661123 0.06407,0.038754 0.219976,0.1764978 0.346426,0.3060845 0.262421,0.2689542 0.537761,0.7702861 0.628187,1.1445411 0.02956,0.1220204 0.08504,0.3316623 0.123312,0.4657888 0.0595,0.2087929 0.06651,0.3068595 0.04854,0.6798596 -0.05599,1.1611501 -0.451026,2.0550807 -1.215776,2.7511801 -0.09585,0.08729 -0.288183,0.271907 -0.427403,0.410426 -0.281688,0.27999 -0.617853,0.511186 -1.036768,0.713077 -0.153356,0.07397 -0.366024,0.180226 -0.472432,0.236143 -0.325572,0.170851 -0.823435,0.246181 -1.627308,0.246181 -0.786157,0 -0.873631,0.01192 -1.77605,0.242454 -0.322841,0.08249 -0.42888,0.127335 -0.61527,0.260318 -0.315127,0.224848 -0.678752,0.693146 -0.96258,1.240135 -0.04477,0.08625 -0.109472,0.188234 -0.143723,0.226583 -0.113569,0.127113 -0.201374,0.387911 -0.207464,0.616007 -0.01499,0.562121 0.0081,1.559027 0.03905,1.684517 0.04798,0.194804 0.137301,0.399722 0.227986,0.522997 0.117554,0.15963 0.314019,0.518568 0.35986,0.657345 0.0246,0.07456 0.107257,0.179598 0.207058,0.26316 0.09135,0.07647 0.211082,0.203958 0.266039,0.283275 0.119474,0.172401 0.551417,0.406734 0.810147,0.439214 0.09065,0.01146 0.196798,0.04067 0.235921,0.06496 0.03912,0.02427 0.156752,0.06186 0.261425,0.08352 0.226952,0.04698 0.740759,-0.01746 1.037137,-0.130103 0.182255,-0.06924 0.612316,-0.320553 0.841151,-0.491625 0.171589,-0.128221 0.405258,-0.460253 0.474278,-0.673216 0.03246,-0.100614 0.07821,-0.21433 0.101609,-0.252641 0.120729,-0.197499 0.149075,-0.599398 0.09142,-1.29476 -0.02209,-0.266518 -0.0506,-0.395293 -0.115672,-0.522997 -0.0475,-0.09301 -0.122647,-0.244742 -0.167012,-0.337162 -0.135787,-0.282869 -0.789479,-0.756261 -1.0519,-0.761428 -0.0437,-8.86e-4 -0.184655,-0.02352 -0.313208,-0.05027 -0.246883,-0.05134 -0.607149,-0.02546 -0.756261,0.05437 -0.183362,0.09814 -0.417438,0.273568 -0.567657,0.425189 -0.13324,0.134643 -0.179893,0.217282 -0.252603,0.447704 -0.08349,0.26434 -0.08722,0.305457 -0.05791,0.642581 0.03579,0.412271 0.106039,0.602721 0.302061,0.819744 0.156346,0.173066 0.28955,0.245739 0.642213,0.350634 0.256258,0.07618 0.498638,0.08112 0.723412,0.01485 0.132023,-0.03894 0.0871,0.04023 -0.06064,0.106851 -0.208682,0.09412 -0.701636,0.05813 -1.027171,-0.07496 -0.325425,-0.13313 -0.608995,-0.396031 -0.759583,-0.70422 -0.108623,-0.222043 -0.113273,-0.248617 -0.113273,-0.649963 0,-0.398984 0.005,-0.427773 0.107589,-0.627449 0.05917,-0.115045 0.14376,-0.279695 0.187976,-0.365914 0.04422,-0.08622 0.172549,-0.245554 0.285158,-0.354066 0.166237,-0.160147 0.255519,-0.214846 0.474277,-0.290546 0.602352,-0.208387 1.33536,-0.154352 1.785647,0.131617 0.411902,0.261499 0.77287,0.565812 0.91054,0.766964 0.252345,0.369826 0.434785,0.806826 0.461359,1.105418 0.01279,0.143797 0.03746,0.398984 0.05485,0.567288 0.02979,0.288405 0.02471,0.333213 -0.08884,0.784312 -0.177346,0.704588 -0.274343,0.891716 -0.61896,1.194368 -0.155755,0.136931 -0.341591,0.278956 -0.413009,0.315643 -0.07134,0.03666 -0.181148,0.110874 -0.244004,0.164983 -0.170371,0.146601 -0.493839,0.319556 -0.597553,0.319556 -0.0502,0 -0.189453,0.03742 -0.30948,0.08315 -0.237102,0.09035 -0.677276,0.198237 -0.78099,0.191446 -0.0356,-0.0023 -0.205914,-0.02336 -0.378315,-0.04673 z"
       style="opacity:0.5021;fill:#3c3c3c;fill-opacity:1;stroke:#000000;stroke-width:0.553632;stroke-linejoin:round;stroke-opacity:1"
       id="path506" />
    <path
       d="m 13.44752,19.589321 c -0.410795,-0.05566 -0.862558,-0.165942 -1.062973,-0.259542 -0.463574,-0.216323 -0.906849,-0.523367 -1.065187,-0.737807 -0.04141,-0.05614 -0.144203,-0.156345 -0.228429,-0.222671 -0.334799,-0.26375 -0.530379,-0.541451 -0.929363,-1.319857 -0.04532,-0.08843 -0.1870163,-0.804243 -0.2391315,-1.208763 -0.04119,-0.319482 -0.037905,-0.957782 0.00649,-1.249731 0.055068,-0.362518 0.1675655,-0.839305 0.2220425,-0.941174 0.04588,-0.0857 0.159815,-0.454716 0.195248,-0.632247 0.01338,-0.0671 0.0434,-0.145531 0.06669,-0.174283 0.0233,-0.02876 0.07142,-0.154242 0.106888,-0.278846 0.03548,-0.124604 0.118182,-0.335169 0.183805,-0.468003 0.146934,-0.297301 0.215991,-0.518938 0.216507,-0.694254 2.11e-4,-0.07374 0.02615,-0.222708 0.05765,-0.331072 0.07714,-0.2653 0.04739,-1.012408 -0.05152,-1.2951291 C 10.851091,9.5611697 10.66758,9.2005341 10.474843,8.8886549 10.07549,8.2423823 8.9335323,7.4473672 8.2540417,7.3421772 7.9935765,7.3018728 7.1312767,7.3464697 6.7607126,7.4193904 6.4434448,7.4818031 6.1447052,7.6206539 5.9915337,7.7768519 5.5984553,8.1773121 5.3688827,8.4478534 5.2784562,8.6168956 5.1479468,8.8607888 5.0670058,9.2347485 5.0447867,9.6968464 c -0.025235,0.5252116 -0.00329,0.6348306 0.2296095,1.1486016 0.1965393,0.433309 0.7252575,0.871416 1.3065707,1.082534 0.2714271,0.09858 0.3746241,0.116853 0.7669644,0.13564 0.5407135,0.02593 0.7710243,-0.01326 1.0135149,-0.172364 0.094413,-0.06197 0.2422323,-0.154168 0.3285251,-0.204807 C 9.0837879,11.45518 9.2893698,11.01914 9.2878934,10.418634 9.28686,10.046594 9.1542468,9.710355 8.9295461,9.5099404 8.7898095,9.3854102 8.2969297,9.0888112 8.1537237,9.0430443 7.9041465,8.9633952 7.5823758,9.0139159 7.2387551,9.1866564 7.0715214,9.2707346 6.9049521,9.3802429 6.8685601,9.429996 6.8322381,9.479749 6.7499722,9.6601222 6.6857509,9.8308253 6.6215296,10.001565 6.5560904,10.141265 6.5403672,10.141265 c -0.06245,0 -0.046431,-0.2707628 0.028305,-0.4787069 C 6.6755973,9.3650734 6.7829649,9.2104256 6.9945999,9.0483961 7.2333627,8.8659191 7.4674013,8.7756772 7.7837095,8.7441571 8.1952423,8.7031883 8.2594636,8.7147039 8.6152642,8.8929733 9.0293807,9.1003637 9.1545014,9.2226794 9.358607,9.6197071 9.602574,10.093616 9.6324701,10.224273 9.5783618,10.578966 9.5168718,10.982379 9.3786853,11.389852 9.2177631,11.641939 9.0710507,11.871991 8.7977412,12.081522 8.3061163,12.340622 7.9537113,12.52631 7.8333149,12.558716 7.3649425,12.594148 6.8522796,12.632903 6.5536876,12.599633 6.1624546,12.460206 5.9899061,12.398716 5.7752815,12.327372 5.6855932,12.30172 5.5659719,12.267502 5.4112503,12.161319 5.1057563,11.903844 4.5812826,11.462046 4.4971306,11.318839 4.3952624,10.698772 4.3574678,10.46872 4.3215925,10.167655 4.3155394,10.029985 4.3094975,9.8922046 4.2947746,9.7636882 4.2828161,9.744348 4.2578067,9.703896 4.3158421,9.0032198 4.3740915,8.6422519 4.4221098,8.3447672 4.4440706,8.299554 4.7871007,7.7915047 4.9907264,7.48996 5.1246315,7.3338358 5.3148962,7.1758663 5.9301655,6.6650488 6.3321021,6.4531924 7.0307852,6.2716013 7.5153974,6.1457423 7.5165047,6.1455947 8.1114742,6.1613917 8.7403997,6.178104 9.0755314,6.2173823 9.3014131,6.3010176 10.830544,6.86646 11.433633,7.3617758 12.217206,8.6945517 c 0.250537,0.4262963 0.48978,0.7307937 0.921982,1.1744372 0.318116,0.3264581 0.420022,0.4082111 0.62302,0.5012211 0.327454,0.149518 0.710494,0.203958 1.445347,0.205471 0.699791,0.0014 0.964796,-0.0516 1.270031,-0.254154 0.09703,-0.0644 0.254671,-0.151732 0.350302,-0.193992 0.09563,-0.04226 0.205397,-0.105264 0.244004,-0.1399213 0.03857,-0.034679 0.156419,-0.1083641 0.261867,-0.1637273 0.242122,-0.1271138 0.524843,-0.4104256 0.627819,-0.6292946 0.124271,-0.2637132 0.314425,-0.5768842 0.419652,-0.6916705 0.07183,-0.078173 0.104969,-0.1628046 0.131174,-0.3353531 0.01929,-0.1269293 0.06799,-0.2952702 0.10818,-0.374255 C 18.72164,7.5952238 18.755818,7.1765675 18.682517,7.0348378 18.65265,6.9770756 18.605746,6.8107647 18.578249,6.665381 18.4807,6.1486581 17.969624,5.5463069 17.383143,5.256573 17.170438,5.1514568 17.080196,5.1290532 16.747943,5.0989725 c -0.690563,-0.06256 -1.196213,0.044032 -1.594459,0.3361283 -0.376469,0.2760407 -0.538868,0.412271 -0.538868,0.4513943 0,0.041227 -0.173397,0.2437825 -0.22865,0.2670719 -0.07651,0.032292 -0.224479,0.2781814 -0.224479,0.3731477 0,0.05636 -0.03067,0.1717735 -0.06813,0.256516 -0.14291,0.3230994 -0.117849,0.584635 0.107922,1.127194 0.128442,0.3085205 0.167787,0.3805295 0.295159,0.5403445 0.17074,0.2141816 0.350264,0.3134293 0.668418,0.3694569 0.369826,0.065218 0.555108,0.06053 0.789479,-0.02006 0.463205,-0.1592982 0.785418,-0.4310945 0.951877,-0.8023967 0.07496,-0.167123 0.08419,-0.2297941 0.07197,-0.4886722 C 16.965901,7.2487427 16.949436,7.1862192 16.845087,7.003816 16.779574,6.8892512 16.66512,6.7293993 16.590712,6.648569 16.516304,6.5677757 16.460867,6.4852846 16.467547,6.465317 c 0.01933,-0.057984 0.369826,0.1976834 0.480553,0.3504488 0.169743,0.2342969 0.224257,0.4694796 0.199381,0.8603436 -0.0273,0.4288799 -0.144424,0.6798596 -0.475754,1.0186822 C 16.41617,8.9561795 16.159433,9.0819646 15.730922,9.1554131 15.382245,9.2152053 14.939598,9.1337772 14.659829,8.958431 14.320933,8.7458733 14.109888,8.5280746 13.917225,8.1922048 13.759034,7.9163117 13.729322,7.8309786 13.656169,7.4425875 c -0.08714,-0.4624669 -0.08699,-0.8400437 4.43e-4,-0.9433883 0.02428,-0.028756 0.0626,-0.1426155 0.08518,-0.2530465 0.02257,-0.1104311 0.07625,-0.2437456 0.119289,-0.2962668 0.04304,-0.052521 0.128591,-0.2013004 0.190118,-0.330555 0.0905,-0.1901909 0.138297,-0.2485437 0.250315,-0.3057154 0.07614,-0.038865 0.138482,-0.086256 0.138482,-0.1053745 0,-0.019119 0.05366,-0.060309 0.119289,-0.091608 0.06562,-0.031284 0.126929,-0.086145 0.136304,-0.1219466 0.01004,-0.038385 0.100429,-0.1016468 0.220567,-0.1543156 0.111944,-0.049089 0.288922,-0.1292545 0.393447,-0.1781587 0.104341,-0.048867 0.394555,-0.1395151 0.644797,-0.2014481 0.43257,-0.1070354 0.475754,-0.1113168 0.873261,-0.087695 0.399353,0.023721 0.427404,0.030527 0.623389,0.1506616 0.112867,0.069204 0.261905,0.1441657 0.331146,0.1665693 0.06924,0.022422 0.248544,0.1288116 0.398246,0.2364007 0.149886,0.1075891 0.324944,0.2273581 0.389018,0.2661123 0.06407,0.038754 0.219976,0.1764978 0.346426,0.3060845 0.262421,0.2689542 0.537761,0.7702861 0.628187,1.1445411 0.02956,0.1220204 0.08504,0.3316623 0.123276,0.4657888 0.0595,0.2087929 0.06651,0.3068595 0.04854,0.6798596 -0.05599,1.1611501 -0.451026,2.0550807 -1.215775,2.7511801 -0.09585,0.08729 -0.288184,0.271907 -0.427404,0.410426 -0.281688,0.27999 -0.617853,0.511186 -1.036768,0.713077 -0.153356,0.07397 -0.365987,0.180226 -0.472432,0.236143 -0.325572,0.170851 -0.823435,0.246181 -1.627308,0.246181 -0.786157,0 -0.873631,0.01192 -1.77605,0.242454 -0.322841,0.08249 -0.42888,0.127335 -0.615269,0.260318 -0.315128,0.224848 -0.678753,0.693146 -0.962581,1.240135 -0.04477,0.08625 -0.109472,0.188234 -0.143723,0.226583 -0.113568,0.127113 -0.201374,0.387911 -0.207464,0.616007 -0.01499,0.562121 0.0081,1.559027 0.03905,1.684517 0.04798,0.194804 0.137301,0.399722 0.227986,0.522997 0.117554,0.15963 0.31402,0.518568 0.35986,0.657345 0.0246,0.07456 0.107257,0.179598 0.207058,0.26316 0.09135,0.07647 0.211082,0.203958 0.266039,0.283275 0.119474,0.172401 0.551417,0.406734 0.810148,0.439214 0.09065,0.01146 0.196797,0.04067 0.23592,0.06496 0.03912,0.02427 0.156752,0.06186 0.261425,0.08352 0.226952,0.04698 0.740759,-0.01746 1.037137,-0.130103 0.182255,-0.06924 0.612316,-0.320553 0.841151,-0.491625 0.171589,-0.128221 0.405258,-0.460253 0.474278,-0.673216 0.03246,-0.100614 0.07821,-0.21433 0.10161,-0.252641 0.120728,-0.197499 0.149074,-0.599398 0.09142,-1.29476 -0.02209,-0.266518 -0.0506,-0.395293 -0.115673,-0.522997 -0.0475,-0.09301 -0.122647,-0.244742 -0.167012,-0.337162 -0.135787,-0.282869 -0.789478,-0.756261 -1.0519,-0.761428 -0.0437,-8.86e-4 -0.184654,-0.02352 -0.313208,-0.05027 -0.246883,-0.05134 -0.607149,-0.02546 -0.756261,0.05437 -0.183362,0.09814 -0.417438,0.273568 -0.567657,0.425189 -0.13324,0.134643 -0.179893,0.217282 -0.252603,0.447704 -0.08349,0.26434 -0.08722,0.305457 -0.05791,0.642581 0.03579,0.412271 0.106039,0.602721 0.302061,0.819744 0.156346,0.173066 0.28955,0.245739 0.642213,0.350634 0.256258,0.07618 0.498638,0.08112 0.723412,0.01485 0.132023,-0.03894 0.0871,0.04023 -0.06064,0.106851 -0.208682,0.09412 -0.701636,0.05813 -1.027171,-0.07496 -0.325425,-0.13313 -0.608995,-0.396031 -0.759583,-0.70422 -0.108622,-0.222043 -0.113273,-0.248617 -0.113273,-0.649963 0,-0.398984 0.005,-0.427773 0.107589,-0.627449 0.05917,-0.115045 0.14376,-0.279695 0.187977,-0.365914 0.04422,-0.08622 0.172548,-0.245554 0.285157,-0.354066 0.166237,-0.160147 0.255519,-0.214846 0.474278,-0.290546 0.602351,-0.208387 1.335359,-0.154352 1.785646,0.131617 0.411902,0.261499 0.77287,0.565812 0.91054,0.766964 0.252345,0.369826 0.434785,0.806826 0.461359,1.105418 0.01279,0.143797 0.03746,0.398984 0.05485,0.567288 0.02979,0.288405 0.02471,0.333213 -0.08884,0.784312 -0.177346,0.704588 -0.274343,0.891716 -0.61896,1.194368 -0.155755,0.136931 -0.341591,0.278956 -0.413009,0.315643 -0.07135,0.03666 -0.181148,0.110874 -0.244004,0.164983 -0.170371,0.146601 -0.493839,0.319556 -0.597553,0.319556 -0.0502,0 -0.189453,0.03742 -0.30948,0.08315 -0.237102,0.09035 -0.677276,0.198237 -0.78099,0.191446 -0.0356,-0.0023 -0.205914,-0.02336 -0.378315,-0.04673 z"
       style="fill:#3c3c3c;fill-opacity:1;stroke-width:0.369088"
       id="path508" />
    <path
       d="m 10.601853,12.358892 7.86526,-1.787861 c 0.0091,-0.0084 0.02673,-0.02743 0.0346,-0.0346 C 19.266463,9.8399622 19.656958,8.9526752 19.71269,7.791156 19.73067,7.4183774 19.72606,7.3194619 19.66655,7.1105582 19.628319,6.9763559 19.569228,6.7596645 19.539664,6.6377548 19.449053,6.2638689 19.17925,5.7648622 18.916644,5.4957972 18.790194,5.3662105 18.634698,5.2346677 18.570624,5.1959134 18.50655,5.1571592 18.328355,5.0266867 18.178653,4.9190976 18.028766,4.8115085 17.855738,4.7108583 17.786682,4.6884178 17.717441,4.6659957 17.565081,4.5961458 17.452214,4.5269419 17.256266,4.4068038 17.228769,4.3891983 16.829194,4.365466 16.431318,4.341844 16.385182,4.350717 15.952611,4.457738 c -0.250316,0.061896 -0.541452,0.1587447 -0.645904,0.2076119 -0.104341,0.048867 -0.280211,0.1239027 -0.391971,0.1730283 -0.120138,0.052669 -0.209125,0.1115383 -0.219164,0.1499235 -0.0094,0.035776 -0.07278,0.095594 -0.138408,0.1268923 -0.06559,0.031284 -0.11534,0.07319 -0.11534,0.092272 0,0.019093 -0.06227,0.064959 -0.138408,0.1037875 -0.112055,0.057172 -0.163248,0.1212453 -0.253748,0.3114362 -0.06153,0.1292915 -0.141508,0.2704306 -0.184544,0.3229518 -0.04303,0.052521 -0.104304,0.1894528 -0.126892,0.2998838 -0.02257,0.1104311 -0.05647,0.2249959 -0.08076,0.2537478 -0.0874,0.1035292 -0.08714,0.4831359 0,0.9456029 0.07315,0.3882803 0.09556,0.4739087 0.253748,0.7496172 0.192553,0.3357961 0.410795,0.5488335 0.749618,0.761059 0.279547,0.1753536 0.72415,0.2558516 1.072569,0.1960594 C 16.16192,9.078163 16.412162,8.9516398 16.667571,8.6902518 16.99879,8.3514662 17.12487,8.1041404 17.151814,7.6752605 17.17669,7.2843965 17.113945,7.0444895 16.944202,6.8101188 16.833549,6.6573533 16.490593,6.4059677 16.471401,6.464099 c -0.0067,0.019986 0.04093,0.1037506 0.115339,0.1845439 0.07441,0.080793 0.188235,0.2429704 0.253748,0.3575722 0.104341,0.1825508 0.126118,0.2356256 0.138408,0.4960539 0.01221,0.2590258 0.0058,0.3288203 -0.0692,0.496054 -0.166643,0.3716714 -0.494208,0.6366764 -0.957413,0.7957532 -0.234187,0.080572 -0.414486,0.088286 -0.784312,0.023068 C 14.849998,8.7610797 14.669699,8.662238 14.49918,8.4480564 14.371808,8.2883152 14.327739,8.2144608 14.199296,7.9058665 13.973488,7.3636766 13.952561,7.1101133 14.095509,6.7871615 c 0.03746,-0.084742 0.0692,-0.2089406 0.0692,-0.2653003 0,-0.094892 0.142615,-0.3367926 0.219164,-0.3690877 0.05525,-0.023308 0.23068,-0.2240732 0.23068,-0.2653003 0,-0.039345 0.165757,-0.1738034 0.54219,-0.449918 0.398246,-0.2920961 0.900943,-0.4085802 1.591506,-0.3460198 0.332327,0.030103 0.421498,0.05636 0.634462,0.1614759 0.586481,0.2898446 1.102096,0.8906088 1.199535,1.4069626 0.02748,0.1455313 0.07393,0.3113255 0.103788,0.3690877 0.0733,0.1417666 0.03186,0.5632279 -0.0692,0.761059 -0.04023,0.078837 -0.08452,0.2537109 -0.103788,0.3805295 -0.02622,0.1725116 -0.06655,0.2562945 -0.138408,0.3344673 -0.105374,0.1146756 -0.290951,0.4281418 -0.415223,0.6920395 -0.103197,0.2189429 -0.38053,0.4956849 -0.62302,0.6230202 -0.105449,0.055363 -0.226694,0.1267816 -0.265301,0.1614759 -0.03857,0.034679 -0.146601,0.09611 -0.242195,0.138408 -0.09563,0.0423 -0.260502,0.131653 -0.357572,0.196059 -0.305162,0.202556 -0.568765,0.255151 -1.268924,0.253748 -0.734854,-0.0015 -1.114276,-0.05809 -1.441657,-0.207612 -0.203183,-0.09279 -0.304719,-0.169522 -0.62302,-0.4960537 C 12.705524,9.4225588 12.465617,9.1158469 12.215007,8.6895505 11.431433,7.3567746 10.826129,6.8677334 9.2969988,6.3019218 9.0708957,6.2182865 8.7382,6.1802336 8.1089053,6.1635139 7.5139359,6.1477133 7.5091377,6.1414498 7.0245255,6.2673014 6.3258424,6.4488557 5.9327639,6.6677616 5.3174946,7.1785791 5.127193,7.3365486 4.9905567,7.4883544 4.7867464,7.7897884 4.4436424,8.2980222 4.419541,8.3460037 4.3715227,8.6431193 4.3132806,9.0039395 4.2542266,9.6983412 4.2792507,9.7389409 c 0.011958,0.019344 0.02856,0.1505878 0.034602,0.2883311 0.00604,0.137781 0.042925,0.438846 0.080756,0.668787 0.1019051,0.620068 0.179229,0.757737 0.7034813,1.199535 0.3055308,0.257513 0.4687414,0.369457 0.5883259,0.403782 0.089725,0.02567 0.3003636,0.09999 0.4728014,0.161476 0.391233,0.139442 0.6868723,0.165647 1.1995352,0.126893 0.4683724,-0.03543 0.5934931,-0.06806 0.9456029,-0.253748 C 8.7956112,12.075119 9.0687361,11.871899 9.215633,11.641957 9.3765188,11.389649 9.5117156,10.984243 9.5732057,10.58083 9.6273139,10.225952 9.5980379,10.085883 9.3540413,9.6119747 9.1496405,9.2148362 9.0298716,9.0926682 8.6158658,8.8852409 8.2599914,8.7069715 8.1969512,8.7058642 7.7854184,8.746833 7.4689994,8.7783531 7.2284649,8.8642398 6.9896652,9.0467168 6.7778826,9.2085987 6.6698137,9.3605521 6.5629997,9.6579261 c -0.07474,0.207944 -0.085518,0.4846119 -0.023068,0.4842429 0.015738,0 0.074187,-0.140696 0.1384079,-0.311436 C 6.7425606,9.659993 6.8265653,9.4767778 6.8628835,9.426951 6.8992095,9.377198 7.0647376,9.2688338 7.2319713,9.1847556 7.5755182,9.0120225 7.9051873,8.9551461 8.1546907,9.0348321 c 0.1432429,0.04573 0.6329855,0.3483451 0.7728697,0.4728015 0.2247007,0.200267 0.3565019,0.5392374 0.3575723,0.9112774 0.00166,0.600137 -0.2059879,1.037506 -0.5997677,1.268924 -0.086256,0.05068 -0.2285391,0.13409 -0.3229517,0.196059 C 8.1200702,12.043008 7.8881355,12.082833 7.3474219,12.056923 6.9554507,12.038114 6.8462007,12.028617 6.5745521,11.93003 5.9932389,11.718875 5.467658,11.279329 5.2713033,10.845651 5.0384089,10.33188 5.0153778,10.217463 5.0406234,9.6922513 5.0628351,9.2301534 5.1407938,8.8518384 5.2713033,8.6078714 5.3618036,8.4387923 5.5934431,8.1778842 5.9865953,7.777424 6.1398037,7.6212629 6.4420496,7.4823014 6.7594651,7.4198517 7.1300292,7.34692 7.987051,7.2988279 8.2472579,7.3390953 8.9267484,7.4442115 10.073873,8.2385622 10.473226,8.8848349 10.666038,9.196714 10.84785,9.558051 10.923144,9.77286 c 0.09895,0.282795 0.134791,1.026433 0.05765,1.291807 -0.0315,0.108364 -0.05747,0.260761 -0.05765,0.334468 -4.8e-4,0.175611 -0.07219,0.394923 -0.219164,0.692039 -0.03682,0.07448 -0.06758,0.170703 -0.103788,0.2653 z"
       style="opacity:0.7975;fill:#3c3c3c;fill-opacity:1;stroke-width:0.369088"
       id="path510" />
    <path
       d="m 10.601853,12.358892 c -0.02832,0.07393 -0.06518,0.152913 -0.08076,0.207612 -0.03548,0.124604 -0.0805,0.248064 -0.103788,0.276816 -0.02331,0.02876 -0.05581,0.105928 -0.0692,0.173028 -0.03542,0.177605 -0.150218,0.548833 -0.196059,0.634462 -0.05448,0.101831 -0.1640595,0.571717 -0.2191643,0.934161 -0.044364,0.29217 -0.052743,0.937852 -0.011534,1.257113 0.052152,0.404151 0.1968713,1.122765 0.2421953,1.210977 0.398984,0.778406 0.587957,1.051162 0.922719,1.31469 0.08423,0.06636 0.189269,0.163026 0.23068,0.219165 0.158044,0.214218 0.608995,0.52189 1.072569,0.738175 0.200526,0.0936 0.650333,0.209642 1.061128,0.2653 0.172548,0.02337 0.33347,0.04381 0.369087,0.04614 0.103714,0.0068 0.547358,-0.105706 0.784312,-0.196059 0.120027,-0.04573 0.26124,-0.08076 0.311436,-0.08076 0.103714,0 0.429249,-0.176351 0.599768,-0.322952 0.06285,-0.05407 0.17085,-0.124826 0.242195,-0.161476 0.07135,-0.03666 0.259469,-0.174468 0.415224,-0.311436 0.344469,-0.302874 0.434047,-0.494947 0.611209,-1.199536 0.113569,-0.451025 0.122058,-0.496054 0.09227,-0.784311 -0.01738,-0.16823 -0.04488,-0.421498 -0.05765,-0.565073 -0.02655,-0.298519 -0.209015,-0.737438 -0.46136,-1.107264 -0.137375,-0.201263 -0.499376,-0.499745 -0.911278,-0.761059 -0.450287,-0.285969 -1.174068,-0.346795 -1.77605,-0.138408 -0.218795,0.0757 -0.306638,0.128185 -0.472801,0.288332 -0.112609,0.108512 -0.244115,0.271316 -0.288332,0.357572 -0.04422,0.08626 -0.136894,0.254043 -0.196059,0.369088 -0.102607,0.199455 -0.103825,0.223888 -0.103788,0.62302 0,0.401198 0.0067,0.423713 0.11534,0.645903 0.150846,0.308373 0.435893,0.582052 0.761059,0.715293 0.325351,0.133093 0.817899,0.163321 1.026433,0.0692 0.147746,-0.06662 0.189674,-0.142727 0.05765,-0.103788 -0.224812,0.06629 -0.470218,0.05311 -0.726734,-0.02307 -0.352848,-0.104895 -0.477969,-0.172954 -0.634462,-0.34602 -0.196022,-0.216986 -0.264082,-0.406734 -0.299884,-0.819005 -0.02928,-0.337236 -0.02583,-0.381637 0.05765,-0.645904 0.07275,-0.230274 0.108955,-0.315164 0.242195,-0.449918 0.149961,-0.151547 0.393448,-0.317083 0.576515,-0.415224 0.149149,-0.07983 0.502698,-0.109028 0.749618,-0.05765 0.12859,0.02674 0.267736,0.04525 0.311436,0.04614 0.262495,0.0054 0.925303,0.478337 1.061127,0.761059 0.04436,0.09242 0.113974,0.241457 0.161476,0.334467 0.06507,0.127446 0.09323,0.264045 0.11534,0.530748 0.05765,0.695731 0.02845,1.094345 -0.09227,1.291807 -0.02343,0.03835 -0.07135,0.153135 -0.103788,0.253748 -0.06872,0.213038 -0.301286,0.540714 -0.472801,0.668787 -0.228945,0.171072 -0.65956,0.426666 -0.841889,0.496054 -0.296451,0.112646 -0.811255,0.173877 -1.037875,0.126893 -0.104673,-0.02167 -0.214624,-0.05647 -0.253748,-0.08076 -0.03912,-0.02427 -0.151584,-0.05776 -0.242195,-0.0692 -0.258804,-0.03271 -0.68798,-0.265891 -0.807564,-0.438476 -0.05496,-0.07932 -0.173914,-0.200341 -0.2653,-0.276816 -0.0998,-0.08356 -0.182994,-0.190744 -0.207612,-0.2653 -0.04584,-0.138888 -0.240018,-0.4979 -0.357573,-0.657345 -0.09065,-0.123128 -0.182698,-0.324207 -0.230679,-0.518938 -0.03093,-0.125637 -0.04961,-1.122027 -0.0346,-1.683778 0.0061,-0.228207 0.09404,-0.495685 0.207612,-0.62302 0.03427,-0.03835 0.09364,-0.132872 0.138407,-0.219165 0.283829,-0.546619 0.653655,-1.020896 0.968856,-1.245671 0.186352,-0.132982 0.288442,-0.182809 0.611209,-0.2653 0.90242,-0.230532 0.989893,-0.242232 1.77605,-0.242196 0.803874,0 1.300666,-0.07134 1.626201,-0.242195 0.106519,-0.05592 0.319519,-0.156715 0.472802,-0.23068 0.418914,-0.202002 0.75626,-0.435154 1.037874,-0.715292 0.127778,-0.127003 0.290546,-0.286707 0.391972,-0.380529 l -7.865261,1.787861 z"
       style="opacity:0.3629;fill:#3c3c3c;fill-opacity:1;stroke-width:0.369088"
       id="path512" />
  </g>
</svg>
