<?xml version="1.0" encoding="UTF-8" standalone="no"?>
<!-- Created with Inkscape (http://www.inkscape.org/) -->

<svg
   id="svg1328"
   width="48px"
   height="48px"
   version="1.1"
   sodipodi:docname="update-manager2.svg"
   inkscape:version="1.1.2 (0a00cf5339, 2022-02-04)"
   xmlns:inkscape="http://www.inkscape.org/namespaces/inkscape"
   xmlns:sodipodi="http://sodipodi.sourceforge.net/DTD/sodipodi-0.dtd"
   xmlns:xlink="http://www.w3.org/1999/xlink"
   xmlns="http://www.w3.org/2000/svg"
   xmlns:svg="http://www.w3.org/2000/svg"
   xmlns:rdf="http://www.w3.org/1999/02/22-rdf-syntax-ns#"
   xmlns:cc="http://creativecommons.org/ns#"
   xmlns:dc="http://purl.org/dc/elements/1.1/">
  <sodipodi:namedview
     id="namedview28"
     pagecolor="#ffffff"
     bordercolor="#666666"
     borderopacity="1.0"
     inkscape:pageshadow="2"
     inkscape:pageopacity="0.0"
     inkscape:pagecheckerboard="0"
     showgrid="false"
     inkscape:zoom="18.823426"
     inkscape:cx="10.837559"
     inkscape:cy="30.201728"
     inkscape:window-width="2558"
     inkscape:window-height="1530"
     inkscape:window-x="0"
     inkscape:window-y="0"
     inkscape:window-maximized="1"
     inkscape:current-layer="g6163" />
  <defs
     id="defs1330">
    <linearGradient
       inkscape:collect="always"
       id="linearGradient5626">
      <stop
         style="stop-color:#800000;stop-opacity:1;"
         offset="0"
         id="stop5622" />
      <stop
         style="stop-color:#800000;stop-opacity:0;"
         offset="1"
         id="stop5624" />
    </linearGradient>
    <linearGradient
       inkscape:collect="always"
       id="linearGradient2333">
      <stop
         style="stop-color:#c30000;stop-opacity:1;"
         offset="0"
         id="stop2329" />
      <stop
         style="stop-color:#c30000;stop-opacity:0;"
         offset="1"
         id="stop2331" />
    </linearGradient>
    <linearGradient
       id="linearGradient4360"
       x1="16.055"
       x2="13.824"
       y1="31.325001"
       y2="37.130001"
       gradientUnits="userSpaceOnUse"
       gradientTransform="matrix(0,-0.8055,-0.7466,0,51.051,34.887)"
       xlink:href="#linearGradient8933">
      <stop
         id="stop1915"
         style="stop-color:#73d216"
         offset="0" />
      <stop
         id="stop1917"
         style="stop-color:#8ae234;stop-opacity:0"
         offset="1" />
    </linearGradient>
    <linearGradient
       id="linearGradient4362"
       x1="21.552"
       x2="16.951"
       y1="29.205"
       y2="37.367"
       gradientUnits="userSpaceOnUse"
       gradientTransform="matrix(0,-0.8055,-0.7466,0,51.051,34.887)">
      <stop
         id="stop5134"
         style="stop-color:#fff"
         offset="0" />
      <stop
         id="stop5136"
         style="stop-color:#fff;stop-opacity:0"
         offset="1" />
    </linearGradient>
    <linearGradient
       id="linearGradient4364"
       x1="15.457"
       x2="25.561"
       y1="8.7344"
       y2="13.526"
       gradientTransform="matrix(0,1.1523483,-1.0677873,0,49.292906,-5.908353)"
       gradientUnits="userSpaceOnUse">
      <stop
         id="stop5893"
         style="stop-color:#fff"
         offset="0" />
      <stop
         id="stop5895"
         style="stop-color:#fff;stop-opacity:0"
         offset="1" />
    </linearGradient>
    <linearGradient
       id="linearGradient6341"
       x1="12.647776"
       x2="11.235267"
       y1="28.263895"
       y2="36.056484"
       gradientUnits="userSpaceOnUse"
       gradientTransform="matrix(0,-0.8055,-0.7466,0,51.051,34.887)"
       xlink:href="#linearGradient8933">
      <stop
         id="stop6337"
         style="stop-color:#4e9a06"
         offset="0" />
      <stop
         id="stop6339"
         style="stop-color:#4e9a06;stop-opacity:0"
         offset="1" />
    </linearGradient>
    <linearGradient
       id="linearGradient6349"
       x1="35.152302"
       x2="36.636032"
       y1="21.465509"
       y2="20.533232"
       gradientUnits="userSpaceOnUse">
      <stop
         id="stop6345"
         style="stop-color:#004db1"
         offset="0" />
      <stop
         id="stop6347"
         style="stop-color:#004db1;stop-opacity:0"
         offset="1" />
    </linearGradient>
    <linearGradient
       id="linearGradient8933">
      <stop
         style="stop-color:#a40000;stop-opacity:1"
         offset="0"
         id="stop8935" />
      <stop
         style="stop-color:#7c0000;stop-opacity:1;"
         offset="1"
         id="stop8937" />
    </linearGradient>
    <linearGradient
       inkscape:collect="always"
       xlink:href="#linearGradient2333"
       id="linearGradient2335"
       x1="29.949177"
       y1="24.699217"
       x2="24.131229"
       y2="25.836992"
       gradientUnits="userSpaceOnUse" />
    <linearGradient
       inkscape:collect="always"
       xlink:href="#linearGradient5626"
       id="linearGradient5628"
       x1="27.469458"
       y1="23.420488"
       x2="24.459328"
       y2="24.006557"
       gradientUnits="userSpaceOnUse" />
  </defs>
  <metadata
     id="metadata1333">
    <rdf:RDF>
      <cc:Work
         rdf:about="">
        <dc:format>image/svg+xml</dc:format>
        <dc:type
           rdf:resource="http://purl.org/dc/dcmitype/StillImage" />
        <dc:subject>
          <rdf:Bag>
            <rdf:li>go</rdf:li>
            <rdf:li>seek</rdf:li>
            <rdf:li>home</rdf:li>
          </rdf:Bag>
        </dc:subject>
        <dc:creator>
          <cc:Agent>
            <dc:title>Rodney Dawes</dc:title>
          </cc:Agent>
        </dc:creator>
        <dc:contributor>
          <cc:Agent>
            <dc:title>Jakub Steiner</dc:title>
          </cc:Agent>
        </dc:contributor>
        <cc:license
           rdf:resource="http://creativecommons.org/licenses/GPL/2.0/" />
      </cc:Work>
      <cc:License
         rdf:about="http://creativecommons.org/licenses/GPL/2.0/">
        <cc:permits
           rdf:resource="http://web.resource.org/cc/Reproduction" />
        <cc:permits
           rdf:resource="http://web.resource.org/cc/Distribution" />
        <cc:requires
           rdf:resource="http://web.resource.org/cc/Notice" />
        <cc:permits
           rdf:resource="http://web.resource.org/cc/DerivativeWorks" />
        <cc:requires
           rdf:resource="http://web.resource.org/cc/ShareAlike" />
        <cc:requires
           rdf:resource="http://web.resource.org/cc/SourceCode" />
      </cc:License>
    </rdf:RDF>
  </metadata>
  <g
     id="g6163"
     transform="matrix(1.361303,0,0,1.361303,-41.397275,-31.886495)"
     style="opacity:0.831782">
    <g
       id="g18455"
       transform="matrix(0.9,0,0,0.9,4.6206553,4.079612)">
      <g
         id="g2283"
         transform="matrix(0.70264298,0,0,0.76639808,29.028934,24.633234)">
        <path
           id="path4297"
           d="m 27.865,43.71 c -1.113,-0.15075 -2.3371,-0.4496 -2.8804,-0.70318 -1.2558,-0.58612 -2.4574,-1.4185 -2.8856,-1.9989 -0.1122,-0.15208 -0.39068,-0.42358 -0.61886,-0.60334 -0.90709,-0.71463 -1.437,-1.467 -2.5182,-3.5757 -0.12285,-0.23958 -0.50667,-2.1794 -0.64795,-3.2748 -0.11164,-0.86558 -0.10266,-2.5949 0.01758,-3.3865 0.14921,-0.98217 0.45399,-2.2739 0.60164,-2.5497 0.12425,-0.23218 0.433,-1.2322 0.52896,-1.7134 0.03626,-0.1818 0.11759,-0.39429 0.18075,-0.4722 0.06314,-0.07791 0.19347,-0.4179 0.2896,-0.75552 0.09614,-0.33762 0.32023,-0.90812 0.498,-1.2678 0.39813,-0.80548 0.58524,-1.4056 0.58658,-1.8814 5.72e-4,-0.19977 0.07085,-0.60342 0.15619,-0.89698 0.20897,-0.71881 0.12841,-2.7429 -0.13964,-3.509 -0.20358,-0.58187 -0.70075,-1.5591 -1.2231,-2.4041 -1.0823,-1.7508 -4.176,-3.905 -6.0171,-4.1897 -0.70574,-0.10916 -3.0416,0.01163 -4.0456,0.2092 -0.85962,0.16915 -1.6693,0.54535 -2.0844,0.96845 -1.0647,1.0852 -1.687,1.8184 -1.9321,2.2765 -0.35364,0.6608 -0.57293,1.6744 -0.63311,2.9264 -0.068369,1.4228 -0.00892,1.7203 0.62209,3.1119 0.53253,1.1745 1.9646,2.361 3.5401,2.9331 0.73541,0.26706 1.0154,0.31659 2.0777,0.36755 1.4649,0.07027 2.0893,-0.03592 2.7459,-0.46702 0.25579,-0.16794 0.65632,-0.41766 0.89005,-0.55494 1.0669,-0.62661 1.6242,-1.8084 1.6196,-3.4347 -0.0028,-1.0081 -0.36205,-1.9189 -0.97086,-2.4615 -0.37857,-0.33743 -1.7142,-1.1411 -2.1023,-1.265 -0.67618,-0.21582 -1.5485,-0.07892 -2.4793,0.3891 -0.45314,0.22784 -0.90441,0.5245 -1.0028,0.65925 -0.098411,0.13475 -0.32131,0.62348 -0.49531,1.0861 -0.17401,0.46258 -0.35127,0.84106 -0.39392,0.84106 -0.1692,0 -0.12581,-0.73363 0.076692,-1.2971 0.28969,-0.80598 0.58063,-1.2253 1.1544,-1.6639 0.64686,-0.49442 1.2811,-0.73889 2.1384,-0.82429 1.1147,-0.11104 1.2893,-0.0798 2.2534,0.40316 1.1217,0.56187 1.4607,0.89328 2.0145,1.9693 0.66103,1.2845 0.742,1.638 0.59545,2.5994 -0.16656,1.0927 -0.54104,2.1968 -0.97697,2.8804 -0.39747,0.62332 -1.1385,1.1911 -2.4698,1.8925 -0.95485,0.50306 -1.2809,0.59088 -2.5499,0.68686 -1.3887,0.10504 -2.1983,0.01486 -3.2582,-0.36292 -0.46747,-0.16663 -1.0489,-0.35987 -1.292,-0.42941 -0.32408,-0.09271 -0.74334,-0.38039 -1.5711,-1.0781 -1.4207,-1.1974 -1.6489,-1.5846 -1.9251,-3.265 -0.10242,-0.6233 -0.1996,-1.4387 -0.21598,-1.8119 C 3.106611,17.43898 3.066724,17.09071 3.034328,17.0383 2.96657,16.92867 3.123804,15.0298 3.281598,14.0522 c 0.13008,-0.80596 0.18958,-0.9285 1.1192,-2.3052 0.55171,-0.81699 0.91446,-1.2401 1.43,-1.6681 1.6671,-1.3839 2.7562,-1.9577 4.6493,-2.4495 1.3126,-0.34103 1.3161,-0.34138 2.9276,-0.29857 0.4091,0.010869 0.77227,0.025261 1.0965,0.043994 1.0264,0.059308 1.6621,0.16212 2.1277,0.33431 4.143,1.5323 5.7772,2.8738 7.8999,6.4848 0.67878,1.1547 2.8533,3.8982 4.0246,5.1001 4.9579,2.9855 0.17637,0.93849 1.8563,2.2463 2.3845,1.8563 4.8865,2.8309 2.724,3.2148 -5.2464,0.61229 -7.298,-1.4461 -10.32,3.5104 -0.12133,0.23374 -0.29656,0.50998 -0.3894,0.61386 -0.30774,0.34436 -0.54562,1.0506 -0.56211,1.6689 -0.04061,1.5228 0.02199,4.2238 0.1058,4.5642 0.12996,0.52783 0.37204,1.083 0.61766,1.4166 0.3185,0.43252 0.85083,1.4051 0.975,1.7813 0.06667,0.20198 0.29062,0.48662 0.56097,0.71297 0.2475,0.20722 0.57185,0.5526 0.72078,0.76749 0.32368,0.46706 1.4941,1.1016 2.1953,1.1903 0.24559,0.03104 0.53323,0.11023 0.6392,0.17598 0.10597,0.06575 0.4247,0.16759 0.7083,0.22631 0.61492,0.12732 2.0071,-0.04731 2.8103,-0.35251 0.49381,-0.18763 1.6588,-0.86854 2.2792,-1.3321 0.46494,-0.34742 1.0984,-1.2469 1.2846,-1.8241 0.08794,-0.27262 0.21186,-0.58066 0.27535,-0.68455 0.32708,-0.5351 0.40392,-1.6235 0.24767,-3.5082 -0.05986,-0.72207 -0.13714,-1.0713 -0.31344,-1.4166 -0.12869,-0.25203 -0.33231,-0.66309 -0.45249,-0.91346 -0.36789,-0.76643 -2.1392,-2.0485 -2.8504,-2.0632 -0.11839,-0.0024 -0.50026,-0.06373 -0.84862,-0.1362 -0.66891,-0.13914 -1.6453,-0.06897 -2.0494,0.14729 -0.49679,0.26588 -1.1313,0.74115 -1.5375,1.1517 -0.36101,0.36485 -0.48736,0.58868 -0.68444,1.2126 -0.22624,0.71615 -0.23628,0.82757 -0.15693,1.7413 0.09698,1.1168 0.28734,1.6335 0.81845,2.2214 0.42361,0.46888 0.78445,0.66584 1.7405,0.94999 0.69427,0.20635 1.3506,0.21983 1.9598,0.04024 0.3577,-0.10546 0.23596,0.109 -0.16435,0.28951 -0.56544,0.25498 -1.9011,0.15748 -2.7826,-0.20312 -0.88174,-0.3607 -1.6497,-1.0725 -2.0584,-1.908 -0.29431,-0.60157 -0.30687,-0.67364 -0.30687,-1.7605 0,-1.0809 0.01347,-1.1595 0.29147,-1.6999 0.1603,-0.31165 0.38949,-0.75777 0.5093,-0.99137 0.1198,-0.2336 0.4675,-0.66527 0.77264,-0.95926 0.45042,-0.43394 0.69226,-0.58208 1.2851,-0.78717 1.6319,-0.56456 3.618,-0.41817 4.8384,0.35663 1.116,0.70852 2.0944,1.5328 2.4666,2.0781 0.68374,1.0017 1.178,2.1859 1.2499,2.9946 0.03466,0.38957 0.10153,1.0812 0.14862,1.5371 0.08071,0.78139 0.06696,0.90284 -0.24073,2.1249 -0.48051,1.9085 -0.74334,2.4159 -1.6767,3.2364 -0.422,0.37102 -0.92546,0.75584 -1.1188,0.85516 -0.19335,0.09932 -0.49083,0.30045 -0.66108,0.44695 -0.46162,0.39721 -1.3376,0.86575 -1.6186,0.86575 -0.13597,0 -0.51328,0.10139 -0.83848,0.22532 -0.64238,0.24481 -1.8348,0.53713 -2.1158,0.51872 -0.09646,-0.0063 -0.55786,-0.0633 -1.0253,-0.12662 z"
           style="color:#000000;opacity:0.50211;fill:none;stroke:#002568;stroke-width:1.5;stroke-linejoin:round" />
        <path
           id="path2243"
           d="m 27.865,43.71 c -1.113,-0.15075 -2.3371,-0.4496 -2.8804,-0.70318 -1.2558,-0.58612 -2.4574,-1.4185 -2.8856,-1.9989 -0.1122,-0.15208 -0.39068,-0.42358 -0.61886,-0.60334 -0.90709,-0.71463 -1.437,-1.467 -2.5182,-3.5757 -0.12285,-0.23958 -0.50667,-2.1794 -0.64795,-3.2748 -0.11164,-0.86558 -0.10266,-2.5949 0.01758,-3.3865 0.14921,-0.98217 0.45399,-2.2739 0.60164,-2.5497 0.12425,-0.23218 0.433,-1.2322 0.52896,-1.7134 0.03626,-0.1818 0.11759,-0.39429 0.18075,-0.4722 0.06314,-0.07791 0.19347,-0.4179 0.2896,-0.75552 0.09614,-0.33762 0.32023,-0.90812 0.498,-1.2678 0.39813,-0.80548 0.58524,-1.4056 0.58658,-1.8814 5.72e-4,-0.19977 0.07085,-0.60342 0.15619,-0.89698 0.20897,-0.71881 0.12841,-2.7429 -0.13964,-3.509 -0.20358,-0.58187 -0.70075,-1.5591 -1.2231,-2.4041 -1.0823,-1.7508 -4.176,-3.905 -6.0171,-4.1897 -0.70574,-0.10916 -3.0416,0.01163 -4.0456,0.2092 -0.85962,0.16915 -1.6693,0.54535 -2.0844,0.96845 -1.0647,1.0852 -1.687,1.8184 -1.9321,2.2765 -0.35364,0.6608 -0.57293,1.6744 -0.63311,2.9264 -0.068369,1.4228 -0.00892,1.7203 0.62209,3.1119 0.53253,1.1745 1.9646,2.361 3.5401,2.9331 0.73541,0.26706 1.0154,0.31659 2.0777,0.36755 1.4649,0.07027 2.0893,-0.03592 2.7459,-0.46702 0.25579,-0.16794 0.65632,-0.41766 0.89005,-0.55494 1.0669,-0.62661 1.6242,-1.8084 1.6196,-3.4347 -0.0028,-1.0081 -0.36205,-1.9189 -0.97086,-2.4615 -0.37857,-0.33743 -1.7142,-1.1411 -2.1023,-1.265 -0.67618,-0.21582 -1.5485,-0.07892 -2.4793,0.3891 -0.45314,0.22784 -0.90441,0.5245 -1.0028,0.65925 -0.098411,0.13475 -0.32131,0.62348 -0.49531,1.0861 -0.17401,0.46258 -0.35127,0.84106 -0.39392,0.84106 -0.1692,0 -0.12581,-0.73363 0.076692,-1.2971 0.28969,-0.80598 0.58063,-1.2253 1.1544,-1.6639 0.64686,-0.49442 1.2811,-0.73889 2.1384,-0.82429 1.1147,-0.11104 1.2893,-0.0798 2.2534,0.40316 1.1217,0.56187 1.4607,0.89328 2.0145,1.9693 0.66103,1.2845 0.742,1.638 0.59545,2.5994 -0.16656,1.0927 -0.54104,2.1968 -0.97697,2.8804 -0.39747,0.62332 -1.1385,1.1911 -2.4698,1.8925 -0.95485,0.50306 -1.2809,0.59088 -2.5499,0.68686 -1.3887,0.10504 -2.1983,0.01486 -3.2582,-0.36292 -0.46747,-0.16663 -1.0489,-0.35987 -1.292,-0.42941 -0.32408,-0.09271 -0.74334,-0.38039 -1.5711,-1.0781 -1.4207,-1.1974 -1.6489,-1.5846 -1.9251,-3.265 -0.10242,-0.6233 -0.1996,-1.4387 -0.21598,-1.8119 C 3.106611,17.43898 3.066724,17.09071 3.034328,17.0383 2.96657,16.92867 3.123804,15.0298 3.281598,14.0522 c 0.13008,-0.80596 0.18958,-0.9285 1.1192,-2.3052 0.55171,-0.81699 0.91446,-1.2401 1.43,-1.6681 1.6671,-1.3839 2.7562,-1.9577 4.6493,-2.4495 1.3126,-0.34103 1.3161,-0.34138 2.9276,-0.29857 1.7043,0.045279 2.6115,0.15172 3.2241,0.37831 4.143,1.5323 5.7772,2.8738 7.8999,6.4848 0.67878,1.1547 1.3268,1.9802 2.4981,3.1821 4.7545,5.3986 6.822951,0.424885 8.533151,1.372585 2.6473,1.4669 0.299749,5.622615 -1.862781,6.006515 -5.2464,0.61229 -7.8615,-1.4461 -10.883,3.5104 -0.12133,0.23374 -0.29656,0.50998 -0.3894,0.61386 -0.30774,0.34436 -0.54562,1.0506 -0.56211,1.6689 -0.04061,1.5228 0.02199,4.2238 0.1058,4.5642 0.12996,0.52783 0.37204,1.083 0.61766,1.4166 0.3185,0.43252 0.85083,1.4051 0.975,1.7813 0.06667,0.20198 0.29062,0.48662 0.56097,0.71297 0.2475,0.20722 0.57185,0.5526 0.72078,0.76749 0.32368,0.46706 1.4941,1.1016 2.1953,1.1903 0.24559,0.03104 0.53323,0.11023 0.6392,0.17598 0.10597,0.06575 0.4247,0.16759 0.7083,0.22631 0.61492,0.12732 2.0071,-0.04731 2.8103,-0.35251 0.49381,-0.18763 1.6588,-0.86854 2.2792,-1.3321 0.46494,-0.34742 1.0984,-1.2469 1.2846,-1.8241 0.08794,-0.27262 0.21186,-0.58066 0.27535,-0.68455 0.32708,-0.5351 0.40392,-1.6235 0.24767,-3.5082 -0.05986,-0.72207 -0.13714,-1.0713 -0.31344,-1.4166 -0.12869,-0.25203 -0.33231,-0.66309 -0.45249,-0.91346 -0.36789,-0.76643 -2.1392,-2.0485 -2.8504,-2.0632 -0.11839,-0.0024 -0.50026,-0.06373 -0.84862,-0.1362 -0.66891,-0.13914 -1.6453,-0.06897 -2.0494,0.14729 -0.49679,0.26588 -1.1313,0.74115 -1.5375,1.1517 -0.36101,0.36485 -0.48736,0.58868 -0.68444,1.2126 -0.22624,0.71615 -0.23628,0.82757 -0.15693,1.7413 0.09698,1.1168 0.28734,1.6335 0.81845,2.2214 0.42361,0.46888 0.78445,0.66584 1.7405,0.94999 0.69427,0.20635 1.3506,0.21983 1.9598,0.04024 0.3577,-0.10546 0.23596,0.109 -0.16435,0.28951 -0.56544,0.25498 -1.9011,0.15748 -2.7826,-0.20312 -0.88174,-0.3607 -1.6497,-1.0725 -2.0584,-1.908 -0.29431,-0.60157 -0.30687,-0.67364 -0.30687,-1.7605 0,-1.0809 0.01347,-1.1595 0.29147,-1.6999 0.1603,-0.31165 0.38949,-0.75777 0.5093,-0.99137 0.1198,-0.2336 0.4675,-0.66527 0.77264,-0.95926 0.45042,-0.43394 0.69226,-0.58208 1.2851,-0.78717 1.6319,-0.56456 3.618,-0.41817 4.8384,0.35663 1.116,0.70852 2.0944,1.5328 2.4666,2.0781 0.68374,1.0017 1.178,2.1859 1.2499,2.9946 0.03466,0.38957 0.10153,1.0812 0.14862,1.5371 0.08071,0.78139 0.06696,0.90284 -0.24073,2.1249 -0.48051,1.9085 -0.74334,2.4159 -1.6767,3.2364 -0.422,0.37102 -0.92546,0.75584 -1.1188,0.85516 -0.19335,0.09932 -0.49083,0.30045 -0.66108,0.44695 -0.46162,0.39721 -1.3376,0.86575 -1.6186,0.86575 -0.13597,0 -0.51328,0.10139 -0.83848,0.22532 -0.64238,0.24481 -1.8348,0.53713 -2.1158,0.51872 -0.09646,-0.0063 -0.55786,-0.0633 -1.0253,-0.12662 z"
           style="color:#000000;fill:url(#linearGradient6349)"
           sodipodi:nodetypes="ccscssccsccccccccccccccsscccccccsccsccscsccsccccccccccscccccsscssccssscscssscccccscscsscsccccsccsccssssccc" />
      </g>
      <path
         id="path4344"
         d="m 19.773686,20.851162 c 1.424761,2.787845 -6.57558,7.268287 4.924109,7.037034 2.310638,-0.04647 4.110749,0.193867 6.230632,-0.146009 5.567939,-0.892694 10.80855,-6.462456 10.740797,-14.138591 h 6.022449 L 37.195971,0.6527667 26.188847,13.603596 h 6.517071 c -0.109207,8.171082 -5.405059,11.522091 -8.999306,5.406256 -1.302696,-2.067638 -5.782433,-0.296301 -3.932179,1.84123 z"
         style="color:#000000;display:block;fill:url(#linearGradient2335);fill-opacity:1;stroke:url(#linearGradient5628);stroke-width:0.775491"
         sodipodi:nodetypes="csscccccccc"
         transform="matrix(0.73459032,0,0,0.73459032,30.410037,23.42351)" />
      <path
         id="path4348"
         d="M 37.160507,1.32987 C 39.497365,16.271895 35.55569,24.604793 29.368989,27.746242 38.808253,27.870096 41.553501,17.304546 41.264567,13.174748 L 46.86892,13.187337 37.16088,1.329572 Z"
         style="opacity:0.45;fill:url(#linearGradient4364);fill-rule:evenodd;stroke-width:0.775491"
         transform="matrix(0.73459032,0,0,0.73459032,30.410037,23.42351)" />
      <path
         id="path4346"
         d="m 46.058112,12.785691 h -4.386274 c -0.409697,0.0068 -0.740307,0.363482 -0.7466,0.8055 0.05579,6.306904 -3.588129,11.016305 -7.886006,12.767462 -4.332374,1.284659 -3.798335,0.712477 -9.060619,0.799137 -1.260149,0.02075 -3.946775,-7.900712 -3.888368,-8.230323 0.05841,-0.32961 0.221785,-0.537759 0.443293,-0.67964 0.44301,-0.28377 1.623209,0.110564 2.061015,0.805453 1.196203,1.898724 2.004073,2.796259 3.351835,3.423422 1.347763,0.627162 2.728263,0.479008 3.906173,-0.142087 2.287548,-1.415886 3.420618,-4.559263 3.593013,-8.885471 -0.0185,-0.432166 -0.332177,-0.657176 -0.733123,-0.663411 H 27.906213 L 37.192424,1.8615403 46.058299,12.785731 Z"
         style="color:#000000;display:block;opacity:0.61798;fill:none;stroke:url(#linearGradient4362);stroke-width:0.775491"
         sodipodi:nodetypes="ccccssccsccccccc"
         transform="matrix(0.73459032,0,0,0.73459032,30.410037,23.42351)" />
      <path
         d="m 57.670011,33.617951 a 1.1138002,1.1138002 0 1 1 0,2.2276 1.1138002,1.1138002 0 0 1 0,-2.2276 z"
         id="path6043"
         style="fill:#ffffff;stroke-width:0.875629" />
      <path
         id="rect11922"
         style="opacity:1;vector-effect:none;fill:#ffffff;stroke-width:0.929305;stop-color:#000000;stop-opacity:1"
         d="m 56.68758,28.027679 h 1.966197 v 4.697488 H 56.68758 Z" />
    </g>
  </g>
</svg>
