<?xml version="1.0" encoding="UTF-8" standalone="no"?>
<!-- Created with Inkscape (http://www.inkscape.org/) -->

<svg
   id="svg1328"
   width="48px"
   height="48px"
   version="1.1"
   sodipodi:docname="update-manager.svg"
   inkscape:version="1.1.2 (0a00cf5339, 2022-02-04)"
   xmlns:inkscape="http://www.inkscape.org/namespaces/inkscape"
   xmlns:sodipodi="http://sodipodi.sourceforge.net/DTD/sodipodi-0.dtd"
   xmlns="http://www.w3.org/2000/svg"
   xmlns:svg="http://www.w3.org/2000/svg"
   xmlns:rdf="http://www.w3.org/1999/02/22-rdf-syntax-ns#"
   xmlns:cc="http://creativecommons.org/ns#"
   xmlns:dc="http://purl.org/dc/elements/1.1/">
  <sodipodi:namedview
     id="namedview28"
     pagecolor="#ffffff"
     bordercolor="#666666"
     borderopacity="1.0"
     inkscape:pageshadow="2"
     inkscape:pageopacity="0.0"
     inkscape:pagecheckerboard="0"
     showgrid="false"
     inkscape:zoom="13.319307"
     inkscape:cx="4.9552127"
     inkscape:cy="20.60918"
     inkscape:window-width="2558"
     inkscape:window-height="1530"
     inkscape:window-x="0"
     inkscape:window-y="0"
     inkscape:window-maximized="1"
     inkscape:current-layer="svg1328" />
  <defs
     id="defs1330">
    <linearGradient
       id="linearGradient4360"
       x1="14.965204"
       x2="13.824"
       y1="30.483149"
       y2="37.130001"
       gradientUnits="userSpaceOnUse"
       gradientTransform="matrix(0,-0.8055,-0.7466,0,51.051,34.887)">
      <stop
         id="stop1915"
         style="stop-color:#73d216"
         offset="0" />
      <stop
         id="stop1917"
         style="stop-color:#8ae234;stop-opacity:0"
         offset="1" />
    </linearGradient>
    <linearGradient
       id="linearGradient4362"
       x1="18.226788"
       x2="16.13081"
       y1="28.041166"
       y2="35.981106"
       gradientUnits="userSpaceOnUse"
       gradientTransform="matrix(0,-0.8055,-0.7466,0,51.051,34.887)">
      <stop
         id="stop5134"
         style="stop-color:#fff"
         offset="0" />
      <stop
         id="stop5136"
         style="stop-color:#fff;stop-opacity:0"
         offset="1" />
    </linearGradient>
    <linearGradient
       id="linearGradient4364"
       x1="15.457"
       x2="25.561"
       y1="8.7344"
       y2="13.526"
       gradientTransform="matrix(0,1.1523483,-1.0677873,0,49.292906,-5.908353)"
       gradientUnits="userSpaceOnUse">
      <stop
         id="stop5893"
         style="stop-color:#fff"
         offset="0" />
      <stop
         id="stop5895"
         style="stop-color:#fff;stop-opacity:0"
         offset="1" />
    </linearGradient>
    <linearGradient
       id="linearGradient6341"
       x1="14.965204"
       x2="13.824"
       y1="30.483149"
       y2="37.130001"
       gradientUnits="userSpaceOnUse"
       gradientTransform="matrix(0,-0.8055,-0.7466,0,51.051,34.887)">
      <stop
         id="stop6337"
         style="stop-color:#4e9a06"
         offset="0" />
      <stop
         id="stop6339"
         style="stop-color:#4e9a06;stop-opacity:0"
         offset="1" />
    </linearGradient>
    <linearGradient
       id="linearGradient6349"
       x1="30.945"
       x2="37.203"
       y1="23.746"
       y2="19.896"
       gradientUnits="userSpaceOnUse"
       gradientTransform="matrix(0.95651,0,0,1.0433,-1.8801,1.6468)">
      <stop
         id="stop6345"
         style="stop-color:#004db1"
         offset="0" />
      <stop
         id="stop6347"
         style="stop-color:#004db1;stop-opacity:0"
         offset="1" />
    </linearGradient>
  </defs>
  <metadata
     id="metadata1333">
    <rdf:RDF>
      <cc:Work
         rdf:about="">
        <dc:format>image/svg+xml</dc:format>
        <dc:type
           rdf:resource="http://purl.org/dc/dcmitype/StillImage" />
        <dc:title>Go Home</dc:title>
        <dc:subject>
          <rdf:Bag>
            <rdf:li>go</rdf:li>
            <rdf:li>seek</rdf:li>
            <rdf:li>home</rdf:li>
          </rdf:Bag>
        </dc:subject>
        <dc:creator>
          <cc:Agent>
            <dc:title>Rodney Dawes</dc:title>
          </cc:Agent>
        </dc:creator>
        <dc:contributor>
          <cc:Agent>
            <dc:title>Jakub Steiner</dc:title>
          </cc:Agent>
        </dc:contributor>
        <cc:license
           rdf:resource="http://creativecommons.org/licenses/GPL/2.0/" />
      </cc:Work>
      <cc:License
         rdf:about="http://creativecommons.org/licenses/GPL/2.0/">
        <cc:permits
           rdf:resource="http://web.resource.org/cc/Reproduction" />
        <cc:permits
           rdf:resource="http://web.resource.org/cc/Distribution" />
        <cc:requires
           rdf:resource="http://web.resource.org/cc/Notice" />
        <cc:permits
           rdf:resource="http://web.resource.org/cc/DerivativeWorks" />
        <cc:requires
           rdf:resource="http://web.resource.org/cc/ShareAlike" />
        <cc:requires
           rdf:resource="http://web.resource.org/cc/SourceCode" />
      </cc:License>
    </rdf:RDF>
  </metadata>
  <g
     id="g5224"
     transform="matrix(0.9,0,0,0.9,2.1806206,2.3632878)">
    <path
       id="path4297"
       d="m 24.773051,47.249443 c -1.064595,-0.157277 -2.235459,-0.469068 -2.755131,-0.733628 -1.201186,-0.611499 -2.350528,-1.479921 -2.760106,-2.085452 -0.10732,-0.158665 -0.373689,-0.441921 -0.591945,-0.629465 -0.867641,-0.745573 -1.374505,-1.530521 -2.408684,-3.730527 -0.117507,-0.249954 -0.484635,-2.273769 -0.61977,-3.416599 -0.106785,-0.90306 -0.0982,-2.70726 0.01681,-3.533136 0.142721,-1.024698 0.434246,-2.37236 0.575475,-2.660102 0.118846,-0.242233 0.414169,-1.285554 0.505955,-1.78759 0.03468,-0.189672 0.112476,-0.411363 0.172889,-0.492646 0.06039,-0.08128 0.185056,-0.435995 0.277006,-0.788234 0.09196,-0.352239 0.306303,-0.947442 0.476342,-1.322696 0.380815,-0.840357 0.559788,-1.466463 0.561069,-1.962865 5.47e-4,-0.20842 0.06777,-0.629548 0.149398,-0.935819 0.199882,-0.749934 0.122825,-2.861667 -0.133567,-3.66094 -0.194727,-0.607065 -0.670275,-1.626609 -1.169908,-2.508197 -1.035231,-1.82661 -3.994386,-4.074087 -5.755416,-4.371114 -0.675048,-0.113887 -2.909321,0.01213 -3.869657,0.218258 -0.8222351,0.176474 -1.5967021,0.568964 -1.9937494,1.010384 -1.0183962,1.132189 -1.6136324,1.897137 -1.848073,2.375073 -0.3382602,0.689412 -0.5480133,1.746901 -0.6055761,3.053113 -0.065396,1.484407 -0.00853,1.794789 0.5950353,3.246645 0.5093703,1.225356 1.8791596,2.463231 3.3861411,3.060103 0.703427,0.278624 0.9712403,0.330299 1.9873408,0.383465 1.4011913,0.07331 1.9984363,-0.03748 2.6264813,-0.487242 0.244665,-0.175212 0.627776,-0.435745 0.851341,-0.578969 1.020501,-0.653742 1.553564,-1.886703 1.549164,-3.583422 -0.0027,-1.051751 -0.346305,-2.001989 -0.928637,-2.568083 -0.362106,-0.352041 -1.63965,-1.19051 -2.010871,-1.319775 -0.646773,-0.225165 -1.4811561,-0.08234 -2.3714757,0.405948 -0.4334329,0.237706 -0.8650772,0.547211 -0.9591882,0.687796 -0.094131,0.140585 -0.3073362,0.650477 -0.473769,1.133128 -0.1664423,0.48261 -0.3359932,0.877478 -0.3767884,0.877478 -0.1618415,0 -0.1203385,-0.765396 0.073357,-1.353265 0.2770914,-0.840879 0.5553784,-1.278355 1.1041951,-1.735946 0.6187281,-0.515829 1.225385,-0.770884 2.0454012,-0.859982 1.066221,-0.115848 1.233228,-0.08326 2.155399,0.420617 1.072917,0.586199 1.397174,0.931959 1.92689,2.05457 0.632281,1.340119 0.70973,1.708926 0.569553,2.711954 -0.159316,1.140014 -0.51751,2.291922 -0.934481,3.005122 -0.380184,0.650309 -1.088987,1.242674 -2.362389,1.974445 -0.913323,0.524842 -1.225193,0.616465 -2.4390041,0.716601 C 7.6818025,27.588037 6.907412,27.493949 5.893607,27.099815 5.446472,26.925969 4.8903284,26.724362 4.6578008,26.651811 4.347815,26.555087 3.9467887,26.25495 3.1550279,25.527029 1.7961142,24.277782 1.5778386,23.873816 1.3136505,22.120655 1.2156848,21.470366 1.1227311,20.619659 1.1070635,20.2303 1.0914045,19.840888 1.0532522,19.477538 1.0222651,19.422858 0.95745387,19.308481 1.1078498,17.32739 1.2587813,16.30746 1.3832041,15.466602 1.4401165,15.338756 2.3293073,13.902445 2.8570234,13.050079 3.2039974,12.608649 3.6971166,12.162116 5.2917144,10.718294 6.3334495,10.119648 8.1442185,9.606553 9.3997336,9.2507564 9.4030813,9.2503913 10.944497,9.2950549 c 0.391308,0.01134 0.738684,0.026355 1.048813,0.045899 0.981762,0.061876 1.589816,0.1691398 2.035167,0.3487856 3.962821,1.5986485 5.525949,2.9982355 7.556333,6.7655915 0.64926,1.204699 2.72921,4.066992 3.84957,5.320935 5.627399,2.807161 6.313708,-3.924278 7.920578,-2.55984 2.280798,1.936678 -1.471022,7.856882 -3.539475,8.257405 -5.018234,0.638802 -6.98061,-1.508716 -9.871183,3.662401 -0.116054,0.243861 -0.283663,0.532062 -0.372465,0.64044 -0.294357,0.359271 -0.521891,1.096091 -0.537664,1.741163 -0.03884,1.588737 0.02103,4.406691 0.101199,4.76183 0.124308,0.550685 0.35586,1.129894 0.590798,1.477939 0.304648,0.451248 0.813827,1.465941 0.932597,1.85843 0.06377,0.210726 0.277981,0.507691 0.536573,0.743842 0.236737,0.216192 0.546981,0.576527 0.689434,0.800722 0.309603,0.487284 1.429121,1.149299 2.099826,1.24184 0.234909,0.03238 0.51004,0.115003 0.611401,0.1836 0.101362,0.0686 0.40623,0.174847 0.677496,0.236109 0.588177,0.132833 1.919811,-0.04936 2.68808,-0.367774 0.472335,-0.195754 1.586659,-0.906147 2.180078,-1.389779 0.44472,-0.362464 1.05063,-1.300891 1.228733,-1.903084 0.08412,-0.284424 0.202646,-0.605803 0.263375,-0.714191 0.312855,-0.55827 0.386353,-1.693798 0.236899,-3.660105 -0.05726,-0.753336 -0.131176,-1.117687 -0.299809,-1.477939 -0.123093,-0.262943 -0.317858,-0.691802 -0.432811,-0.953013 -0.351891,-0.799616 -2.046166,-2.1372 -2.726436,-2.152536 -0.113242,-0.0025 -0.478504,-0.06649 -0.811714,-0.142098 -0.639819,-0.145164 -1.573746,-0.07196 -1.960271,0.153668 -0.475185,0.277393 -1.0821,0.773242 -1.470635,1.201569 -0.345309,0.380648 -0.466164,0.614169 -0.654673,1.265105 -0.216401,0.747159 -0.226004,0.863404 -0.150105,1.816698 0.09276,1.165158 0.274843,1.704231 0.782855,2.317587 0.405187,0.489183 0.750335,0.694671 1.664806,0.991125 0.664076,0.215285 1.291862,0.229348 1.874568,0.04198 0.342144,-0.110026 0.225698,0.11372 -0.157202,0.302046 -0.540849,0.26602 -1.818421,0.164299 -2.661585,-0.211915 -0.843393,-0.376319 -1.577954,-1.11894 -1.96888,-1.990617 -0.281511,-0.627618 -0.293524,-0.702808 -0.293524,-1.836729 0,-1.127703 0.01288,-1.209707 0.278794,-1.773506 0.153328,-0.325144 0.372551,-0.790581 0.48715,-1.034296 0.11459,-0.243715 0.447169,-0.694077 0.739038,-1.000796 0.430831,-0.45273 0.662154,-0.607284 1.229211,-0.821255 1.560929,-0.589005 3.460653,-0.436277 4.627978,0.372072 1.067465,0.739199 2.003315,1.599171 2.359328,2.168082 0.654004,1.045074 1.126768,2.28055 1.195541,3.124266 0.03315,0.406439 0.09712,1.128016 0.142157,1.603657 0.0772,0.815224 0.06405,0.941933 -0.230261,2.216908 -0.459612,1.991138 -0.711012,2.520508 -1.60378,3.376536 -0.403647,0.387085 -0.885212,0.788568 -1.070143,0.892188 -0.184942,0.103621 -0.469484,0.31346 -0.63233,0.466303 -0.441544,0.414409 -1.279428,0.903237 -1.548207,0.903237 -0.130057,0 -0.490958,0.10578 -0.802015,0.235077 -0.614442,0.25541 -1.755004,0.560387 -2.023783,0.54118 -0.09226,-0.0066 -0.533599,-0.06604 -0.98071,-0.132102 z"
       style="color:#000000;opacity:0.50211;fill:none;stroke:#002568;stroke-width:1.49844;stroke-linejoin:round"
       sodipodi:nodetypes="ccscssccsccccccccccccccsscccccccsccsccscsccsccccccccsccscccccsscssccssscscssscccccscscsscsccccsccsccssssscc" />
    <path
       id="path2243"
       d="m 24.773051,47.249443 c -1.064595,-0.157277 -2.235459,-0.469068 -2.755131,-0.733628 -1.201186,-0.611499 -2.350528,-1.479921 -2.760106,-2.085452 -0.10732,-0.158665 -0.373689,-0.441921 -0.591945,-0.629465 -0.867641,-0.745573 -1.374505,-1.530521 -2.408684,-3.730527 -0.117507,-0.249954 -0.484635,-2.273769 -0.61977,-3.416599 -0.106785,-0.90306 -0.0982,-2.70726 0.01681,-3.533136 0.142721,-1.024698 0.434246,-2.37236 0.575475,-2.660102 0.118846,-0.242233 0.414169,-1.285554 0.505955,-1.78759 0.03468,-0.189672 0.112476,-0.411363 0.172889,-0.492646 0.06039,-0.08128 0.185056,-0.435995 0.277006,-0.788234 0.09196,-0.352239 0.306303,-0.947442 0.476342,-1.322696 0.380815,-0.840357 0.559788,-1.466463 0.561069,-1.962865 5.47e-4,-0.20842 0.06777,-0.629548 0.149398,-0.935819 0.199882,-0.749934 0.122825,-2.861667 -0.133567,-3.66094 -0.194727,-0.607065 -0.670275,-1.626609 -1.169908,-2.508197 -1.035231,-1.82661 -3.994386,-4.074087 -5.755416,-4.371114 -0.675048,-0.113887 -2.909321,0.01213 -3.869657,0.218258 -0.8222351,0.176474 -1.5967021,0.568964 -1.9937494,1.010384 -1.0183962,1.132189 -1.6136324,1.897137 -1.848073,2.375073 -0.3382602,0.689412 -0.5480133,1.746901 -0.6055761,3.053113 -0.065396,1.484407 -0.00853,1.794789 0.5950353,3.246645 0.5093703,1.225356 1.8791596,2.463231 3.3861411,3.060103 0.703427,0.278624 0.9712403,0.330299 1.9873408,0.383465 1.4011913,0.07331 1.9984363,-0.03748 2.6264813,-0.487242 0.244665,-0.175212 0.627776,-0.435745 0.851341,-0.578969 1.020501,-0.653742 1.553564,-1.886703 1.549164,-3.583422 -0.0027,-1.051751 -0.346305,-2.001989 -0.928637,-2.568083 -0.362106,-0.352041 -1.63965,-1.19051 -2.010871,-1.319775 -0.646773,-0.225165 -1.4811561,-0.08234 -2.3714757,0.405948 -0.4334329,0.237706 -0.8650772,0.547211 -0.9591882,0.687796 -0.094131,0.140585 -0.3073362,0.650477 -0.473769,1.133128 -0.1664423,0.48261 -0.3359932,0.877478 -0.3767884,0.877478 -0.1618415,0 -0.1203385,-0.765396 0.073357,-1.353265 0.2770914,-0.840879 0.5553784,-1.278355 1.1041951,-1.735946 0.6187281,-0.515829 1.225385,-0.770884 2.0454012,-0.859982 1.066221,-0.115848 1.233228,-0.08326 2.155399,0.420617 1.072917,0.586199 1.397174,0.931959 1.92689,2.05457 0.632281,1.340119 0.70973,1.708926 0.569553,2.711954 -0.159316,1.140014 -0.51751,2.291922 -0.934481,3.005122 -0.380184,0.650309 -1.088987,1.242674 -2.362389,1.974445 -0.913323,0.524842 -1.225193,0.616465 -2.4390041,0.716601 C 7.6818025,27.588037 6.907412,27.493949 5.893607,27.099815 5.446472,26.925969 4.8903284,26.724362 4.6578008,26.651811 4.347815,26.555087 3.9467887,26.25495 3.1550279,25.527029 1.7961142,24.277782 1.5778386,23.873816 1.3136505,22.120655 1.2156848,21.470366 1.1227311,20.619659 1.1070635,20.2303 1.0914045,19.840888 1.0532522,19.477538 1.0222651,19.422858 0.95745387,19.308481 1.1078498,17.32739 1.2587813,16.30746 1.3832041,15.466602 1.4401165,15.338756 2.3293073,13.902445 2.8570234,13.050079 3.2039974,12.608649 3.6971166,12.162116 5.2917144,10.718294 6.3334495,10.119648 8.1442185,9.606553 9.3997336,9.2507564 9.4030813,9.2503913 10.944497,9.2950549 c 1.63018,0.04724 2.497926,0.1582895 3.083884,0.3946909 3.962821,1.5986482 5.52595,2.9982352 7.556333,6.7655922 0.64926,1.204698 1.269098,2.065942 2.389458,3.319885 4.547727,5.632359 6.368166,0.705692 8.00399,1.694427 2.532169,1.530417 0.444767,5.603665 -1.623714,6.004188 -5.018234,0.638802 -7.519604,-1.508717 -10.409699,3.6624 -0.116053,0.243861 -0.283662,0.532062 -0.372465,0.64044 -0.294356,0.359271 -0.521891,1.096091 -0.537663,1.741163 -0.03884,1.588738 0.02103,4.406691 0.101198,4.76183 0.124308,0.550685 0.35586,1.129894 0.590798,1.477939 0.304649,0.451248 0.813828,1.465941 0.932598,1.85843 0.06377,0.210726 0.27798,0.507691 0.536573,0.743842 0.236736,0.216193 0.54698,0.576528 0.689433,0.800722 0.309603,0.487284 1.429122,1.1493 2.099827,1.24184 0.234909,0.03238 0.510039,0.115003 0.611401,0.1836 0.101361,0.0686 0.40623,0.174847 0.677496,0.236109 0.588177,0.132833 1.919811,-0.04936 2.68808,-0.367773 0.472334,-0.195755 1.586659,-0.906148 2.180077,-1.38978 0.44472,-0.362464 1.050631,-1.300891 1.228733,-1.903084 0.08412,-0.284424 0.202646,-0.605802 0.263375,-0.714191 0.312856,-0.55827 0.386354,-1.693797 0.236899,-3.660105 -0.05726,-0.753335 -0.131176,-1.117687 -0.299808,-1.477939 -0.123094,-0.262943 -0.317858,-0.691801 -0.432812,-0.953012 -0.35189,-0.799617 -2.046166,-2.1372 -2.726436,-2.152537 -0.113241,-0.0025 -0.478503,-0.06649 -0.811713,-0.142097 -0.639819,-0.145165 -1.573746,-0.07196 -1.960272,0.153667 -0.475184,0.277393 -1.0821,0.773242 -1.470634,1.201569 -0.34531,0.380648 -0.466165,0.61417 -0.654674,1.265105 -0.2164,0.74716 -0.226004,0.863404 -0.150105,1.816699 0.09276,1.165157 0.274844,1.70423 0.782856,2.317586 0.405187,0.489183 0.750334,0.694671 1.664805,0.991125 0.664077,0.215285 1.291863,0.229349 1.874569,0.04198 0.342143,-0.110026 0.225698,0.11372 -0.157203,0.302046 -0.540849,0.266021 -1.818421,0.164299 -2.661584,-0.211915 -0.843393,-0.376318 -1.577955,-1.118939 -1.968881,-1.990616 -0.28151,-0.627618 -0.293524,-0.702809 -0.293524,-1.83673 0,-1.127703 0.01288,-1.209706 0.278794,-1.773506 0.153329,-0.325144 0.372551,-0.790581 0.487151,-1.034296 0.11459,-0.243715 0.447168,-0.694076 0.739038,-1.000796 0.430831,-0.45273 0.662153,-0.607284 1.229211,-0.821255 1.560928,-0.589005 3.460653,-0.436276 4.627978,0.372073 1.067465,0.739198 2.003314,1.59917 2.359327,2.168081 0.654004,1.045074 1.126769,2.28055 1.195542,3.124266 0.03315,0.406439 0.09711,1.128016 0.142157,1.603657 0.0772,0.815224 0.06405,0.941933 -0.230261,2.216908 -0.459613,1.991138 -0.711012,2.520509 -1.60378,3.376536 -0.403648,0.387085 -0.885212,0.788568 -1.070144,0.892189 -0.184941,0.10362 -0.469484,0.313459 -0.632329,0.466303 -0.441545,0.414409 -1.279428,0.903237 -1.548208,0.903237 -0.130056,0 -0.490957,0.10578 -0.802014,0.235076 -0.614443,0.25541 -1.755005,0.560388 -2.023784,0.54118 -0.09226,-0.0066 -0.533599,-0.06604 -0.98071,-0.132102 z"
       style="color:#000000;fill:url(#linearGradient6349);stroke-width:0.998963"
       sodipodi:nodetypes="ccscssccscsccccccccccccsscccccccsccsccscsccsccccccccccscccccsscssccssscscssssccccscscsscsccccsccsccssssscc" />
    <path
       id="path4344"
       d="m 18.970232,25.27376 c 1.601695,3.134056 3.97937,2.666116 6.390856,2.639673 2.398188,-0.0263 6.086462,0.527386 8.862726,-0.966143 4.102333,-2.206905 7.499449,-7.221339 7.44541,-13.343694 h 6.022449 L 37.195971,0.6527667 26.188847,13.603596 h 6.517071 c 0.309959,8.244292 -5.831346,11.891007 -9.576187,4.659766 -1.302668,-2.067799 -4.963151,-1.395904 -3.310775,1.837356 z"
       style="color:#000000;display:block;fill:url(#linearGradient4360);stroke:url(#linearGradient6341);stroke-width:0.775491"
       sodipodi:nodetypes="csscccccccc" />
    <path
       id="path4346"
       d="m 46.058112,12.785691 h -4.386274 c -0.409697,0.0068 -0.740307,0.363482 -0.7466,0.8055 0.05579,6.306904 -3.495134,11.262501 -7.793011,13.013658 -2.286101,0.931503 -5.804004,0.343483 -8.295907,0.549514 -2.488669,0.205763 -2.832987,-3.61233 -4.419438,-6.716583 -0.349982,-0.684821 -0.385044,-1.180702 -0.326637,-1.510313 0.05841,-0.32961 0.221785,-0.537759 0.443293,-0.67964 0.44301,-0.28377 1.336769,-0.346852 1.774575,0.348037 1.196203,1.898725 2.290513,3.253675 3.638275,3.880838 1.347763,0.627162 2.74174,0.595925 3.91965,-0.02517 2.355747,-1.242162 3.755846,-4.554297 3.593013,-8.885471 -0.0185,-0.432166 -0.345654,-0.774093 -0.7466,-0.780328 H 27.906213 L 37.192424,1.8615403 46.058299,12.785731 Z"
       style="color:#000000;display:block;opacity:0.61798;fill:none;stroke:url(#linearGradient4362);stroke-width:0.775491"
       sodipodi:nodetypes="ccccsssccsscccccc" />
    <path
       id="path4348"
       d="M 37.160507,1.32987 C 39.497365,16.271895 35.55569,24.604793 29.368989,27.746242 38.808253,27.870096 41.553501,17.304546 41.264567,13.174748 L 46.86892,13.187337 37.16088,1.329572 Z"
       style="opacity:0.45;fill:url(#linearGradient4364);fill-rule:evenodd;stroke-width:0.775491" />
  </g>
</svg>
