<?xml version="1.0" encoding="UTF-8" standalone="no"?>
<!-- Created with Inkscape (http://www.inkscape.org/) -->

<svg
   width="48px"
   height="48px"
   id="svg3440"
   sodipodi:version="0.32"
   inkscape:version="1.2.2 (1:1.2.2+202305151914+b0a8486541)"
   sodipodi:docname="debuglogo.svg"
   inkscape:output_extension="org.inkscape.output.svg.inkscape"
   version="1.1"
   xmlns:inkscape="http://www.inkscape.org/namespaces/inkscape"
   xmlns:sodipodi="http://sodipodi.sourceforge.net/DTD/sodipodi-0.dtd"
   xmlns:xlink="http://www.w3.org/1999/xlink"
   xmlns="http://www.w3.org/2000/svg"
   xmlns:svg="http://www.w3.org/2000/svg"
   xmlns:rdf="http://www.w3.org/1999/02/22-rdf-syntax-ns#"
   xmlns:cc="http://creativecommons.org/ns#"
   xmlns:dc="http://purl.org/dc/elements/1.1/">
  <defs
     id="defs3">
    <inkscape:perspective
       sodipodi:type="inkscape:persp3d"
       inkscape:vp_x="0 : 24 : 1"
       inkscape:vp_y="0 : 1000 : 0"
       inkscape:vp_z="48 : 24 : 1"
       inkscape:persp3d-origin="24 : 16 : 1"
       id="perspective95" />
    <linearGradient
       id="linearGradient4126">
      <stop
         style="stop-color:#ffffff;stop-opacity:1.0000000;"
         offset="0.0000000"
         id="stop4128" />
      <stop
         style="stop-color:#ffffff;stop-opacity:0.16494845;"
         offset="1.0000000"
         id="stop4130" />
    </linearGradient>
    <linearGradient
       id="linearGradient3962">
      <stop
         style="stop-color:#4074ae;stop-opacity:1.0000000;"
         offset="0.5169307"
         id="stop4346" />
      <stop
         style="stop-color:#36486c;stop-opacity:1.0000000;"
         offset="1"
         id="stop3966" />
    </linearGradient>
    <radialGradient
       inkscape:collect="always"
       xlink:href="#linearGradient3962"
       id="radialGradient3968"
       gradientTransform="scale(0.999989,1.000011)"
       cx="18.247644"
       cy="15.716079"
       fx="18.247644"
       fy="15.716079"
       r="29.993349"
       gradientUnits="userSpaceOnUse" />
    <filter
       inkscape:collect="always"
       style="color-interpolation-filters:sRGB"
       id="filter20635"
       x="-0.022156335"
       y="-0.022156335"
       width="1.0443127"
       height="1.0443127">
      <feGaussianBlur
         inkscape:collect="always"
         stdDeviation="0.52150208"
         id="feGaussianBlur20637" />
    </filter>
    <filter
       inkscape:collect="always"
       style="color-interpolation-filters:sRGB"
       id="filter14700"
       x="-0.018287097"
       width="1.0365742"
       y="-0.011875705"
       height="1.0237514">
      <feGaussianBlur
         inkscape:collect="always"
         stdDeviation="0.55693538"
         id="feGaussianBlur14702" />
    </filter>
    <filter
       inkscape:collect="always"
       style="color-interpolation-filters:sRGB"
       id="filter14766"
       x="-0.088387634"
       width="1.1767753"
       y="-0.05739924"
       height="1.1147985">
      <feGaussianBlur
         inkscape:collect="always"
         stdDeviation="2.6918543"
         id="feGaussianBlur14768" />
    </filter>
    <radialGradient
       cx="17.81411"
       cy="24.149399"
       fx="17.81411"
       fy="24.149399"
       gradientTransform="matrix(24.354994,1.4099482,-1.3515248,23.345802,-171.73409,-605.07886)"
       gradientUnits="userSpaceOnUse"
       id="radialGradient4851-7-3"
       inkscape:collect="always"
       r="9.125"
       xlink:href="#linearGradient8215" />
    <linearGradient
       id="linearGradient8215">
      <stop
         style="stop-color:#ffffff;stop-opacity:1;"
         offset="0"
         id="stop8211" />
      <stop
         style="stop-color:#ffffff;stop-opacity:1;"
         offset="1"
         id="stop8213" />
    </linearGradient>
    <linearGradient
       inkscape:collect="always"
       xlink:href="#linearGradient7659"
       id="linearGradient5986"
       x1="13.578153"
       y1="40.471546"
       x2="13.578153"
       y2="17.33674"
       gradientUnits="userSpaceOnUse" />
    <linearGradient
       id="linearGradient7659"
       inkscape:collect="always">
      <stop
         id="stop7655"
         offset="0"
         style="stop-color:#204a87;stop-opacity:1" />
      <stop
         id="stop7657"
         offset="1"
         style="stop-color:#3f7ab9;stop-opacity:1" />
    </linearGradient>
    <clipPath
       clipPathUnits="userSpaceOnUse"
       id="clipPath5956-9-3-5">
      <path
         style="color:#000000;display:inline;overflow:visible;visibility:visible;fill:none;stroke:#000000;stroke-width:1;stroke-linecap:butt;stroke-linejoin:round;stroke-miterlimit:4;stroke-dasharray:none;stroke-dashoffset:0;stroke-opacity:1;marker:none"
         sodipodi:nodetypes="cccssccc"
         id="path5958-9-5-3"
         d="m 19.25,17.75 -17,16.5 7.75,0.25 c 0,0 -3.25,6.75 -3.25,6.75 -1,3 3.5,4.125 4.25,1.875 0,0 3,-6.75 3,-6.75 l 5.5,5.875 z"
         inkscape:connector-curvature="0" />
    </clipPath>
    <filter
       inkscape:collect="always"
       id="filter6010"
       x="-0.03390292"
       y="-0.022016684"
       width="1.0678063"
       height="1.0440404">
      <feGaussianBlur
         inkscape:collect="always"
         stdDeviation="0.21906419"
         id="feGaussianBlur6012" />
    </filter>
    <radialGradient
       inkscape:collect="always"
       xlink:href="#linearGradient9929"
       id="radialGradient6008"
       cx="83.5"
       cy="203.875"
       fx="83.5"
       fy="203.875"
       r="12.25"
       gradientTransform="matrix(4.5697141,0.26454693,-0.19648388,3.394011,-167.37113,-552.74825)"
       gradientUnits="userSpaceOnUse" />
    <linearGradient
       inkscape:collect="always"
       id="linearGradient9929">
      <stop
         style="stop-color:#ffffff;stop-opacity:1;"
         offset="0"
         id="stop9931" />
      <stop
         style="stop-color:#ffffff;stop-opacity:0;"
         offset="1"
         id="stop9933" />
    </linearGradient>
    <linearGradient
       id="linearGradient7683">
      <stop
         style="stop-color:#c7d9ec;stop-opacity:1"
         offset="0.0000000"
         id="stop7671" />
      <stop
         id="stop7673"
         offset="0"
         style="stop-color:#2f5d8d;stop-opacity:1;" />
      <stop
         style="stop-color:#4676ad;stop-opacity:1"
         offset="0"
         id="stop7675" />
      <stop
         id="stop7677"
         offset="0"
         style="stop-color:#3b689e;stop-opacity:1" />
      <stop
         id="stop7679"
         offset="0"
         style="stop-color:#6491c8;stop-opacity:1" />
      <stop
         style="stop-color:#2e5990;stop-opacity:1"
         offset="0.70435995"
         id="stop7681" />
    </linearGradient>
    <clipPath
       clipPathUnits="userSpaceOnUse"
       id="clipPath17064">
      <g
         id="g17068"
         transform="matrix(0.5122007,0,0,0.5122007,2.9304276,147.06372)">
        <path
           inkscape:connector-curvature="0"
           id="path17066"
           d="m 488.00205,15.59831 c 0,115.9172 -93.99926,209.88737 -209.93507,209.88737 -115.94645,0 -209.940381,-93.97123 -209.940381,-209.88737 0,-115.91186 93.993931,-209.87244 209.940381,-209.87244 115.93581,0 209.93507,93.96058 209.93507,209.87244 z"
           style="display:inline;fill:none;fill-opacity:1;fill-rule:nonzero;stroke:#edd400;stroke-width:1.95236;enable-background:new" />
      </g>
    </clipPath>
    <clipPath
       clipPathUnits="userSpaceOnUse"
       id="clipPath17058">
      <g
         id="g17062"
         transform="matrix(0.5122007,0,0,0.5122007,2.9304276,147.06372)">
        <path
           inkscape:connector-curvature="0"
           id="path17060"
           d="m 488.00205,15.59831 c 0,115.9172 -93.99926,209.88737 -209.93507,209.88737 -115.94645,0 -209.940381,-93.97123 -209.940381,-209.88737 0,-115.91186 93.993931,-209.87244 209.940381,-209.87244 115.93581,0 209.93507,93.96058 209.93507,209.87244 z"
           style="display:inline;fill:none;fill-opacity:1;fill-rule:nonzero;stroke:#edd400;stroke-width:1.95236;enable-background:new" />
      </g>
    </clipPath>
    <clipPath
       clipPathUnits="userSpaceOnUse"
       id="clipPath17052">
      <g
         id="g17056"
         transform="matrix(0.5122007,0,0,0.5122007,2.9304276,147.06372)">
        <path
           inkscape:connector-curvature="0"
           id="path17054"
           d="m 488.00205,15.59831 c 0,115.9172 -93.99926,209.88737 -209.93507,209.88737 -115.94645,0 -209.940381,-93.97123 -209.940381,-209.88737 0,-115.91186 93.993931,-209.87244 209.940381,-209.87244 115.93581,0 209.93507,93.96058 209.93507,209.87244 z"
           style="display:inline;fill:none;fill-opacity:1;fill-rule:nonzero;stroke:#edd400;stroke-width:1.95236;enable-background:new" />
      </g>
    </clipPath>
    <clipPath
       clipPathUnits="userSpaceOnUse"
       id="clipPath17040">
      <g
         id="g17044"
         transform="matrix(0.35830253,0,0,0.35830253,-663.38194,174.30822)">
        <path
           inkscape:connector-curvature="0"
           id="path17042"
           d="m 488.00205,15.59831 c 0,115.9172 -93.99926,209.88737 -209.93507,209.88737 -115.94645,0 -209.940381,-93.97123 -209.940381,-209.88737 0,-115.91186 93.993931,-209.87244 209.940381,-209.87244 115.93581,0 209.93507,93.96058 209.93507,209.87244 z"
           style="display:inline;fill:none;fill-opacity:1;fill-rule:nonzero;stroke:#edd400;stroke-width:1.95236;enable-background:new" />
      </g>
    </clipPath>
    <clipPath
       clipPathUnits="userSpaceOnUse"
       id="clipPath5956-9-3-5-0">
      <path
         style="color:#000000;display:inline;overflow:visible;visibility:visible;fill:none;stroke:#000000;stroke-width:1;stroke-linecap:butt;stroke-linejoin:round;stroke-miterlimit:4;stroke-dasharray:none;stroke-dashoffset:0;stroke-opacity:1;marker:none"
         sodipodi:nodetypes="cccssccc"
         id="path5958-9-5-3-9"
         d="m 19.25,17.75 -17,16.5 7.75,0.25 c 0,0 -3.25,6.75 -3.25,6.75 -1,3 3.5,4.125 4.25,1.875 0,0 3,-6.75 3,-6.75 l 5.5,5.875 z"
         inkscape:connector-curvature="0" />
    </clipPath>
    <clipPath
       clipPathUnits="userSpaceOnUse"
       id="clipPath12184">
      <g
         id="g12188"
         transform="matrix(11.746433,0,0,11.746433,-582.47389,-278.56321)">
        <path
           inkscape:connector-curvature="0"
           style="color:#000000;clip-rule:nonzero;display:inline;overflow:visible;visibility:visible;opacity:1;isolation:auto;mix-blend-mode:normal;color-interpolation:sRGB;color-interpolation-filters:linearRGB;solid-color:#000000;solid-opacity:1;fill:none;fill-opacity:1;fill-rule:nonzero;stroke:#edd400;stroke-width:0.170264;stroke-linecap:butt;stroke-linejoin:miter;stroke-miterlimit:4;stroke-dasharray:none;stroke-dashoffset:0;stroke-opacity:1;marker:none;color-rendering:auto;image-rendering:auto;shape-rendering:auto;text-rendering:auto;enable-background:new"
           d="m 73.184014,7.6375773 -2.029318,0.2246444 -2.501085,0.6889232 -0.479251,0.4642754 1.557563,1.0708167 v 0.61404 l -0.60655,0.606554 0.808737,1.609972 0.539153,-0.307014 0.681433,-1.070822 c 1.045538,-0.323159 1.986559,-0.686202 2.980335,-1.145709 l 0.80873,-2.06676 z m -4.80747,0.1497646 -0.868635,0.1272991 -0.411857,0.411857 -0.681434,0.097345 -0.60655,0.2845553 -0.29204,0.1422755 -0.17972,0.2396285 0.876127,0.1497604 0.336974,-0.3070192 0.681433,-0.1497603 C 67.694484,8.5578533 68.16166,8.403191 68.653611,8.2441257 Z m -2.77066,1.8346243 -0.614035,0.157252 -0.269579,0.5391578 -0.33697,-0.6889182 -0.134792,0.299525 0.0674,0.7712942 -0.539158,0.456787 -0.336972,0.846174 h 0.673944 l 0.336976,-0.771295 c 0.291863,-0.206345 0.586336,-0.415412 0.883615,-0.614038 l 0.673943,0.23214 c 0.45098,0.306306 0.904018,0.615213 1.35538,0.921056 l 0.673944,-0.614037 -0.741342,-0.307019 -0.336972,-0.688921 -1.287982,-0.149769 z m -2.845542,0.6140388 -0.336969,0.846174 c -3e-6,0 -0.565867,0.106354 -0.711387,0.14228 -1.858422,1.712011 -5.612475,5.408627 -6.484847,12.385602 0.03455,0.161762 0.629017,1.100775 0.629017,1.100775 l 1.42277,0.846174 1.422772,0.381899 0.606551,0.763805 0.95101,0.688923 0.539155,-0.07488 0.40437,0.17972 v 0.127299 l -0.539158,1.45273 -0.404367,0.614038 0.13479,0.307019 -0.336976,1.145702 1.213104,2.224019 1.220589,1.070822 0.539155,0.763802 -0.0674,1.60998 0.411857,0.921056 -0.411857,1.759745 c -0.0065,0.0052 -0.01643,0.03253 0.02246,0.164746 0.05233,0.176373 2.111659,1.440799 2.246189,1.340832 0.134067,-0.101825 0.247116,-0.194692 0.247116,-0.194692 l -0.134786,-0.374416 0.59935,-0.629451 0.202179,-0.539156 0.883622,-0.307019 0.673941,-1.684859 -0.202184,-0.456786 0.471766,-0.688921 1.0184,-0.232136 0.539155,-1.220591 -0.134785,-1.535093 0.808729,-1.145708 0.134794,-1.153194 c -1.111092,-0.55081 -2.207021,-1.117757 -3.309816,-1.684857 l -0.546643,-1.070826 -1.010922,-0.232134 -0.546643,-1.452727 -1.34789,0.157253 -1.153188,-0.846174 -1.220589,1.070821 v 0.172231 C 60.834087,26.843447 60.385344,26.829629 60.057064,26.627837 L 59.78749,25.864036 v -0.846174 l -0.816221,0.07488 c 0.06778,-0.536297 0.133941,-1.066289 0.202183,-1.602492 H 58.70169 l -0.471763,0.606548 -0.479244,0.232142 -0.673949,-0.381907 -0.06739,-0.846174 0.134791,-0.913572 1.018407,-0.763798 h 0.80873 l 0.134788,-0.464272 1.018407,0.232136 0.741338,0.921056 0.13479,-1.535096 1.28798,-1.070827 0.471762,-1.153191 0.951014,-0.381904 0.539151,-0.763799 1.220587,-0.232137 0.606555,-0.91357 H 64.2505 l 1.153199,-0.539156 h 0.808729 l 1.153196,-0.381904 0.134785,-0.456785 -0.404364,-0.389389 -0.479249,-0.149767 0.13479,-0.456779 -0.336974,-0.688922 -0.808734,0.299526 0.134792,-0.606546 -0.951012,-0.539155 -0.741339,1.302953 0.06739,0.456789 -0.741334,0.307019 -0.47925,0.995941 -0.202183,-0.921059 -1.287984,-0.531668 -0.202181,-0.688916 1.692348,-0.995944 0.748827,-0.688923 0.0674,-0.846172 -0.404372,-0.224649 -0.546642,-0.08237 z m 18.960307,0 -1.287985,0.30702 -0.808736,0.539154 v 0.456788 l -1.287979,0.846174 0.269578,1.220584 0.748829,-0.531661 0.471757,0.531661 0.539155,0.307022 0.34446,-0.913567 -0.209673,-0.539156 0.209673,-0.381904 0.741339,-0.688923 h 0.33697 l -0.33697,0.763808 v 0.688923 c 0.310967,-0.08461 0.625297,-0.110213 0.943525,-0.149768 l -0.87613,0.606546 -0.0674,0.389396 -1.018403,0.838683 -1.01092,-0.232137 v -0.606546 l -0.471758,0.307014 0.202184,0.531669 h -0.748824 l -0.40437,0.688922 -0.509203,0.576594 -0.913566,0.187209 0.539155,0.539158 0.142273,0.531663 h -0.681428 l -0.87613,0.464276 v 1.37784 h 0.404364 l 0.374417,0.419342 0.846174,-0.419342 0.336975,-0.846177 0.606543,-0.3819 0.134796,-0.307022 1.018398,-0.224643 0.539157,0.614041 0.614041,0.299524 -0.344459,0.688926 0.54664,-0.149767 0.269584,-0.688923 -0.681439,-0.763801 h 0.277067 l 0.673944,0.531665 0.134788,0.771294 0.606553,0.68892 0.134786,-0.995941 0.344466,-0.157255 c 0.334608,0.347263 0.594299,0.762376 0.876128,1.153196 l 1.018403,0.07488 0.606548,0.381904 -0.269575,0.3819 -0.606552,0.539156 h -0.883615 l -1.153193,-0.381901 -0.606554,0.07488 -0.441805,0.494227 -1.250544,-1.258029 -0.876127,-0.232136 -1.287979,0.149764 -1.153196,0.307022 c -0.645574,0.731659 -1.283502,1.46415 -1.894535,2.224012 l -0.741341,1.759749 0.336974,0.381901 -0.606546,0.921057 0.673944,1.609977 c 0.575463,0.650778 1.147673,1.295709 1.722302,1.946951 l 0.846174,-0.726362 0.374417,0.426836 0.913562,-0.576603 0.307022,0.344457 h 0.913572 l 0.524177,0.591583 -0.321993,1.055844 0.64399,0.726362 -0.03745,1.265515 0.47925,0.913572 -0.344464,0.771292 c -0.0337,0.563471 -0.06739,1.121292 -0.06739,1.684857 0.277353,0.763497 0.554317,1.522434 0.816224,2.291416 l 0.202179,1.228076 v 0.614035 h 0.471763 l 0.748825,-0.456779 h 0.876127 l 1.317935,-1.49766 -0.164741,-0.494223 0.876127,-0.771292 -0.643988,-0.726363 0.778777,-0.651483 0.748831,-0.456778 0.336974,-0.381907 -0.202188,-0.846174 v -2.141645 l 0.606551,-1.302956 0.748828,-0.838688 0.80873,-1.991883 v -0.539155 c -0.40338,0.0508 -0.795989,0.09893 -1.190633,0.127298 l 0.816218,-0.816216 1.115756,-0.763805 0.61404,-0.688923 v -0.771292 c -0.135466,-0.2554 -0.275465,-0.508407 -0.411854,-0.763802 l -0.539155,0.614038 -0.404372,-0.456787 -0.606549,-0.464275 v -0.995934 l 0.711389,0.808729 0.771289,-0.119812 c 0.354532,0.321763 0.707444,0.629601 1.018406,0.99594 l 0.509205,-0.569104 c 0,-0.608993 -0.696154,-3.611256 -2.179088,-6.155365 -1.482942,-2.543264 -4.081113,-4.867374 -4.08111,-4.867374 l -0.202184,0.33697 -0.681435,0.76381 -0.876126,-0.921059 h 0.876126 l 0.40437,-0.456786 -1.617468,-0.30702 z m -6.70949,0.995938 -0.539158,0.307024 -0.269581,-0.07489 -0.06739,0.456786 0.471758,0.307024 0.808732,-0.531671 z m -8.93351,0.157254 -0.539158,0.381904 0.673944,0.456789 h 0.539158 v -0.531671 z m 10.693249,1.759747 v 0.456781 l 0.269581,0.307021 v 0.688918 l -0.134793,0.921062 0.748831,-0.149767 0.539159,-0.539158 L 77.72191,14.37702 C 77.5628,13.953436 77.374411,13.555215 77.175268,13.148944 Z m -0.269574,0.921054 -0.471763,0.149768 0.134791,0.846176 0.606546,-0.30702 z m -9.337879,1.377844 0.202186,1.070826 0.404369,-0.61404 z m 17.672322,5.975644 0.778779,0.876128 0.913572,1.954436 0.539154,0.61404 -0.269572,0.68892 0.516689,0.584082 c -0.237502,0.01609 -0.474671,0.02996 -0.718873,0.02996 -0.430973,-0.905339 -0.757617,-1.816044 -1.085805,-2.763175 l -0.576594,-0.651478 -0.299531,-1.108266 z"
           id="path12186"
           sodipodi:nodetypes="cccccccccccccccccccccccccccccccccccccccccccccccccccccccccccccccccccccccccccccccccccccccccccccccccccccccccccccccccccccccccccccccccccccccccccccccccccccccccccccccccccccccccccccccccccccccccccccccccccccccccccccccccccccccccccccccccccccccccccccccccccccccccccccccccccccccccccccccccccccccccccccccccccccccccccccccc" />
      </g>
    </clipPath>
    <clipPath
       clipPathUnits="userSpaceOnUse"
       id="clipPath12190">
      <g
         id="g12194"
         transform="matrix(11.746433,0,0,11.746433,-582.47389,-278.56321)">
        <path
           inkscape:connector-curvature="0"
           style="color:#000000;clip-rule:nonzero;display:inline;overflow:visible;visibility:visible;opacity:1;isolation:auto;mix-blend-mode:normal;color-interpolation:sRGB;color-interpolation-filters:linearRGB;solid-color:#000000;solid-opacity:1;fill:none;fill-opacity:1;fill-rule:nonzero;stroke:#edd400;stroke-width:0.170264;stroke-linecap:butt;stroke-linejoin:miter;stroke-miterlimit:4;stroke-dasharray:none;stroke-dashoffset:0;stroke-opacity:1;marker:none;color-rendering:auto;image-rendering:auto;shape-rendering:auto;text-rendering:auto;enable-background:new"
           d="m 73.184014,7.6375773 -2.029318,0.2246444 -2.501085,0.6889232 -0.479251,0.4642754 1.557563,1.0708167 v 0.61404 l -0.60655,0.606554 0.808737,1.609972 0.539153,-0.307014 0.681433,-1.070822 c 1.045538,-0.323159 1.986559,-0.686202 2.980335,-1.145709 l 0.80873,-2.06676 z m -4.80747,0.1497646 -0.868635,0.1272991 -0.411857,0.411857 -0.681434,0.097345 -0.60655,0.2845553 -0.29204,0.1422755 -0.17972,0.2396285 0.876127,0.1497604 0.336974,-0.3070192 0.681433,-0.1497603 C 67.694484,8.5578533 68.16166,8.403191 68.653611,8.2441257 Z m -2.77066,1.8346243 -0.614035,0.157252 -0.269579,0.5391578 -0.33697,-0.6889182 -0.134792,0.299525 0.0674,0.7712942 -0.539158,0.456787 -0.336972,0.846174 h 0.673944 l 0.336976,-0.771295 c 0.291863,-0.206345 0.586336,-0.415412 0.883615,-0.614038 l 0.673943,0.23214 c 0.45098,0.306306 0.904018,0.615213 1.35538,0.921056 l 0.673944,-0.614037 -0.741342,-0.307019 -0.336972,-0.688921 -1.287982,-0.149769 z m -2.845542,0.6140388 -0.336969,0.846174 c -3e-6,0 -0.565867,0.106354 -0.711387,0.14228 -1.858422,1.712011 -5.612475,5.408627 -6.484847,12.385602 0.03455,0.161762 0.629017,1.100775 0.629017,1.100775 l 1.42277,0.846174 1.422772,0.381899 0.606551,0.763805 0.95101,0.688923 0.539155,-0.07488 0.40437,0.17972 v 0.127299 l -0.539158,1.45273 -0.404367,0.614038 0.13479,0.307019 -0.336976,1.145702 1.213104,2.224019 1.220589,1.070822 0.539155,0.763802 -0.0674,1.60998 0.411857,0.921056 -0.411857,1.759745 c -0.0065,0.0052 -0.01643,0.03253 0.02246,0.164746 0.05233,0.176373 2.111659,1.440799 2.246189,1.340832 0.134067,-0.101825 0.247116,-0.194692 0.247116,-0.194692 l -0.134786,-0.374416 0.59935,-0.629451 0.202179,-0.539156 0.883622,-0.307019 0.673941,-1.684859 -0.202184,-0.456786 0.471766,-0.688921 1.0184,-0.232136 0.539155,-1.220591 -0.134785,-1.535093 0.808729,-1.145708 0.134794,-1.153194 c -1.111092,-0.55081 -2.207021,-1.117757 -3.309816,-1.684857 l -0.546643,-1.070826 -1.010922,-0.232134 -0.546643,-1.452727 -1.34789,0.157253 -1.153188,-0.846174 -1.220589,1.070821 v 0.172231 C 60.834087,26.843447 60.385344,26.829629 60.057064,26.627837 L 59.78749,25.864036 v -0.846174 l -0.816221,0.07488 c 0.06778,-0.536297 0.133941,-1.066289 0.202183,-1.602492 H 58.70169 l -0.471763,0.606548 -0.479244,0.232142 -0.673949,-0.381907 -0.06739,-0.846174 0.134791,-0.913572 1.018407,-0.763798 h 0.80873 l 0.134788,-0.464272 1.018407,0.232136 0.741338,0.921056 0.13479,-1.535096 1.28798,-1.070827 0.471762,-1.153191 0.951014,-0.381904 0.539151,-0.763799 1.220587,-0.232137 0.606555,-0.91357 H 64.2505 l 1.153199,-0.539156 h 0.808729 l 1.153196,-0.381904 0.134785,-0.456785 -0.404364,-0.389389 -0.479249,-0.149767 0.13479,-0.456779 -0.336974,-0.688922 -0.808734,0.299526 0.134792,-0.606546 -0.951012,-0.539155 -0.741339,1.302953 0.06739,0.456789 -0.741334,0.307019 -0.47925,0.995941 -0.202183,-0.921059 -1.287984,-0.531668 -0.202181,-0.688916 1.692348,-0.995944 0.748827,-0.688923 0.0674,-0.846172 -0.404372,-0.224649 -0.546642,-0.08237 z m 18.960307,0 -1.287985,0.30702 -0.808736,0.539154 v 0.456788 l -1.287979,0.846174 0.269578,1.220584 0.748829,-0.531661 0.471757,0.531661 0.539155,0.307022 0.34446,-0.913567 -0.209673,-0.539156 0.209673,-0.381904 0.741339,-0.688923 h 0.33697 l -0.33697,0.763808 v 0.688923 c 0.310967,-0.08461 0.625297,-0.110213 0.943525,-0.149768 l -0.87613,0.606546 -0.0674,0.389396 -1.018403,0.838683 -1.01092,-0.232137 v -0.606546 l -0.471758,0.307014 0.202184,0.531669 h -0.748824 l -0.40437,0.688922 -0.509203,0.576594 -0.913566,0.187209 0.539155,0.539158 0.142273,0.531663 h -0.681428 l -0.87613,0.464276 v 1.37784 h 0.404364 l 0.374417,0.419342 0.846174,-0.419342 0.336975,-0.846177 0.606543,-0.3819 0.134796,-0.307022 1.018398,-0.224643 0.539157,0.614041 0.614041,0.299524 -0.344459,0.688926 0.54664,-0.149767 0.269584,-0.688923 -0.681439,-0.763801 h 0.277067 l 0.673944,0.531665 0.134788,0.771294 0.606553,0.68892 0.134786,-0.995941 0.344466,-0.157255 c 0.334608,0.347263 0.594299,0.762376 0.876128,1.153196 l 1.018403,0.07488 0.606548,0.381904 -0.269575,0.3819 -0.606552,0.539156 h -0.883615 l -1.153193,-0.381901 -0.606554,0.07488 -0.441805,0.494227 -1.250544,-1.258029 -0.876127,-0.232136 -1.287979,0.149764 -1.153196,0.307022 c -0.645574,0.731659 -1.283502,1.46415 -1.894535,2.224012 l -0.741341,1.759749 0.336974,0.381901 -0.606546,0.921057 0.673944,1.609977 c 0.575463,0.650778 1.147673,1.295709 1.722302,1.946951 l 0.846174,-0.726362 0.374417,0.426836 0.913562,-0.576603 0.307022,0.344457 h 0.913572 l 0.524177,0.591583 -0.321993,1.055844 0.64399,0.726362 -0.03745,1.265515 0.47925,0.913572 -0.344464,0.771292 c -0.0337,0.563471 -0.06739,1.121292 -0.06739,1.684857 0.277353,0.763497 0.554317,1.522434 0.816224,2.291416 l 0.202179,1.228076 v 0.614035 h 0.471763 l 0.748825,-0.456779 h 0.876127 l 1.317935,-1.49766 -0.164741,-0.494223 0.876127,-0.771292 -0.643988,-0.726363 0.778777,-0.651483 0.748831,-0.456778 0.336974,-0.381907 -0.202188,-0.846174 v -2.141645 l 0.606551,-1.302956 0.748828,-0.838688 0.80873,-1.991883 v -0.539155 c -0.40338,0.0508 -0.795989,0.09893 -1.190633,0.127298 l 0.816218,-0.816216 1.115756,-0.763805 0.61404,-0.688923 v -0.771292 c -0.135466,-0.2554 -0.275465,-0.508407 -0.411854,-0.763802 l -0.539155,0.614038 -0.404372,-0.456787 -0.606549,-0.464275 v -0.995934 l 0.711389,0.808729 0.771289,-0.119812 c 0.354532,0.321763 0.707444,0.629601 1.018406,0.99594 l 0.509205,-0.569104 c 0,-0.608993 -0.696154,-3.611256 -2.179088,-6.155365 -1.482942,-2.543264 -4.081113,-4.867374 -4.08111,-4.867374 l -0.202184,0.33697 -0.681435,0.76381 -0.876126,-0.921059 h 0.876126 l 0.40437,-0.456786 -1.617468,-0.30702 z m -6.70949,0.995938 -0.539158,0.307024 -0.269581,-0.07489 -0.06739,0.456786 0.471758,0.307024 0.808732,-0.531671 z m -8.93351,0.157254 -0.539158,0.381904 0.673944,0.456789 h 0.539158 v -0.531671 z m 10.693249,1.759747 v 0.456781 l 0.269581,0.307021 v 0.688918 l -0.134793,0.921062 0.748831,-0.149767 0.539159,-0.539158 L 77.72191,14.37702 C 77.5628,13.953436 77.374411,13.555215 77.175268,13.148944 Z m -0.269574,0.921054 -0.471763,0.149768 0.134791,0.846176 0.606546,-0.30702 z m -9.337879,1.377844 0.202186,1.070826 0.404369,-0.61404 z m 17.672322,5.975644 0.778779,0.876128 0.913572,1.954436 0.539154,0.61404 -0.269572,0.68892 0.516689,0.584082 c -0.237502,0.01609 -0.474671,0.02996 -0.718873,0.02996 -0.430973,-0.905339 -0.757617,-1.816044 -1.085805,-2.763175 l -0.576594,-0.651478 -0.299531,-1.108266 z"
           id="path12192"
           sodipodi:nodetypes="cccccccccccccccccccccccccccccccccccccccccccccccccccccccccccccccccccccccccccccccccccccccccccccccccccccccccccccccccccccccccccccccccccccccccccccccccccccccccccccccccccccccccccccccccccccccccccccccccccccccccccccccccccccccccccccccccccccccccccccccccccccccccccccccccccccccccccccccccccccccccccccccccccccccccccccccc" />
      </g>
    </clipPath>
  </defs>
  <sodipodi:namedview
     id="base"
     pagecolor="#ffffff"
     bordercolor="#666666"
     borderopacity="0.17254902"
     inkscape:pageopacity="0"
     inkscape:pageshadow="2"
     inkscape:zoom="4"
     inkscape:cx="38.5"
     inkscape:cy="33.25"
     inkscape:current-layer="layer1"
     showgrid="false"
     inkscape:grid-bbox="true"
     inkscape:document-units="px"
     inkscape:window-width="1254"
     inkscape:window-height="818"
     inkscape:window-x="572"
     inkscape:window-y="77"
     inkscape:showpageshadow="false"
     inkscape:pagecheckerboard="0"
     inkscape:deskcolor="#d1d1d1"
     inkscape:window-maximized="0" />
  <metadata
     id="metadata4">
    <rdf:RDF>
      <cc:Work
         rdf:about="">
        <dc:format>image/svg+xml</dc:format>
        <dc:type
           rdf:resource="http://purl.org/dc/dcmitype/StillImage" />
        <dc:title>Internet Category</dc:title>
        <dc:creator>
          <cc:Agent>
            <dc:title>Jakub Steiner</dc:title>
          </cc:Agent>
        </dc:creator>
        <dc:contributor>
          <cc:Agent>
            <dc:title>Tuomas Kuosmanen</dc:title>
          </cc:Agent>
        </dc:contributor>
        <cc:license
           rdf:resource="http://creativecommons.org/licenses/publicdomain/" />
        <dc:source>http://jimmac.musichall.cz</dc:source>
        <dc:subject>
          <rdf:Bag>
            <rdf:li>internet</rdf:li>
            <rdf:li>tools</rdf:li>
            <rdf:li>applications</rdf:li>
            <rdf:li>category</rdf:li>
          </rdf:Bag>
        </dc:subject>
      </cc:Work>
      <cc:License
         rdf:about="http://creativecommons.org/licenses/publicdomain/">
        <cc:permits
           rdf:resource="http://creativecommons.org/ns#Reproduction" />
        <cc:permits
           rdf:resource="http://creativecommons.org/ns#Distribution" />
        <cc:permits
           rdf:resource="http://creativecommons.org/ns#DerivativeWorks" />
      </cc:License>
    </rdf:RDF>
  </metadata>
  <g
     id="layer1"
     inkscape:label="Layer 1"
     inkscape:groupmode="layer"
     style="display:inline">
    <g
       id="g13874">
      <path
         style="fill:url(#radialGradient3968);fill-opacity:1;fill-rule:nonzero;stroke:none;stroke-miterlimit:4;stroke-opacity:1"
         d="m 43.959853,23.485499 c 0,10.709718 -8.682103,19.391723 -19.390348,19.391723 -10.709226,0 -19.3908387,-8.682103 -19.3908387,-19.391723 0,-10.709227 8.6816127,-19.3903473 19.3908387,-19.3903473 10.708245,0 19.390348,8.6811203 19.390348,19.3903473 z"
         id="path3214" />
      <g
         id="g4136"
         style="opacity:1;fill:#1d446f;fill-opacity:1;fill-rule:nonzero;stroke:none;stroke-miterlimit:4;stroke-opacity:1"
         transform="matrix(1.011756,0,0,1.011756,-0.7320157,-0.5363321)">
        <g
           id="g4138"
           style="fill:#1d446f;stroke:none;stroke-opacity:1;fill-opacity:1">
          <g
             id="g4142"
             style="fill:#1d446f;stroke:none;stroke-opacity:1;fill-opacity:1">
            <path
               d="m 44.0713,20.7144 c 0,0.2627 0,0 0,0 l -0.5449,0.6172 c -0.334,-0.3936 -0.709,-0.7246 -1.0898,-1.0703 l -0.8359,0.123 -0.7637,-0.8633 v 1.0684 l 0.6543,0.4951 0.4355,0.4932 0.582,-0.6582 c 0.1465,0.2744 0.291,0.5488 0.4365,0.8232 v 0.8223 l -0.6553,0.7402 -1.1992,0.8232 -0.9082,0.9063 -0.582,-0.6602 0.291,-0.7402 -0.5811,-0.6582 -0.9814,-2.0977 -0.8359,-0.9453 -0.2188,0.2461 0.3281,1.1934 0.6172,0.6992 c 0.3525,1.0176 0.7012,1.9902 1.1641,2.9629 0.7178,0 1.3945,-0.0762 2.1074,-0.166 v 0.5762 l -0.8721,2.1392 -0.7998,0.9043 -0.6543,1.4004 c 0,0.7676 0,1.5352 0,2.3027 l 0.2188,0.9063 -0.3633,0.4102 -0.8008,0.4941 -0.8359,0.6992 0.6914,0.7813 -0.9453,0.8242 0.1816,0.5332 -1.418,1.6055 h -0.9443 l -0.7998,0.4941 H 33.6396 V 38.2814 L 33.4228,36.963 c -0.2813,-0.8262 -0.5742,-1.6465 -0.8721,-2.4668 0,-0.6055 0.0361,-1.2051 0.0723,-1.8105 l 0.3643,-0.8223 -0.5098,-0.9883 0.0371,-1.3574 -0.6914,-0.7813 0.3457,-1.1309 -0.5625,-0.6382 H 30.624 l -0.3271,-0.3701 -0.9814,0.6177 -0.3994,-0.4536 -0.9092,0.7817 c -0.6172,-0.6997 -1.2354,-1.3989 -1.8535,-2.0981 l -0.7266,-1.7285 0.6543,-0.9863 -0.3633,-0.4111 0.7988,-1.8936 c 0.6563,-0.8164 1.3418,-1.5996 2.0352,-2.3857 l 1.2363,-0.3291 1.3809,-0.1641 0.9453,0.2471 1.3447,1.3564 0.4727,-0.5342 0.6533,-0.082 1.2363,0.4111 h 0.9453 l 0.6543,-0.5762 0.291,-0.4111 -0.6553,-0.4111 -1.0908,-0.082 c -0.3027,-0.4199 -0.584,-0.8613 -0.9434,-1.2344 l -0.3643,0.1641 -0.1455,1.0703 -0.6543,-0.7402 -0.1445,-0.8242 -0.7266,-0.5742 h -0.292 l 0.7275,0.8223 -0.291,0.7402 -0.5811,0.1641 0.3633,-0.7402 -0.6553,-0.3281 -0.5801,-0.6582 -1.0918,0.2461 -0.1445,0.3281 -0.6543,0.4121 -0.3633,0.9053 -0.9082,0.4521 -0.4004,-0.4521 h -0.4355 v -1.4814 l 0.9453,-0.4941 h 0.7266 l -0.1465,-0.5752 -0.5801,-0.5762 0.9805,-0.2061 0.5449,-0.6162 0.4355,-0.7412 h 0.8008 l -0.2188,-0.5752 0.5098,-0.3291 v 0.6582 l 1.0898,0.2461 1.0898,-0.9043 0.0732,-0.4121 0.9443,-0.6577 c -0.3418,0.0425 -0.6836,0.0737 -1.0176,0.1646 V 9.9766 L 34.2213,9.1538 H 33.858 l -0.7984,0.7402 -0.2188,0.4116 0.2188,0.5767 -0.3643,0.9863 -0.5811,-0.3291 -0.5078,-0.5752 -0.8008,0.5752 -0.291,-1.3159 1.3809,-0.9048 V 8.8247 l 0.873,-0.5757 1.3809,-0.3296 0.9453,0.3296 1.7441,0.3291 -0.4355,0.4932 H 35.458 l 0.9453,0.9873 0.7266,-0.8223 0.2207,-0.3618 c 0,0 2.7871,2.498 4.3799,5.2305 1.5928,2.7334 2.3408,5.9551 2.3408,6.6094 z"
               id="path4144"
               style="fill:#1d446f;stroke:none;stroke-opacity:1;fill-opacity:1" />
          </g>
        </g>
        <g
           id="g4146"
           style="fill:#1d446f;stroke:none;stroke-opacity:1;fill-opacity:1">
          <g
             id="g4150"
             style="fill:#1d446f;stroke:none;stroke-opacity:1;fill-opacity:1">
            <path
               d="m 26.0703,9.2363 -0.0732,0.4932 0.5098,0.3291 0.8711,-0.5757 -0.4355,-0.4937 -0.582,0.3296 -0.29,-0.0825"
               id="path4152"
               style="fill:#1d446f;stroke:none;stroke-opacity:1;fill-opacity:1" />
          </g>
        </g>
        <g
           id="g4154"
           style="fill:#1d446f;stroke:none;stroke-opacity:1;fill-opacity:1">
          <g
             id="g4158"
             style="fill:#1d446f;stroke:none;stroke-opacity:1;fill-opacity:1">
            <path
               d="m 26.8701,5.8633 -1.8906,-0.7407 -2.1797,0.2466 -2.6904,0.7402 -0.5088,0.4941 1.6719,1.1514 v 0.6582 l -0.6543,0.6582 0.873,1.729 0.5801,-0.3301 0.7285,-1.1514 c 1.123,-0.3472 2.1299,-0.7407 3.1973,-1.2344 l 0.873,-2.2212"
               id="path4160"
               style="fill:#1d446f;stroke:none;stroke-opacity:1;fill-opacity:1" />
          </g>
        </g>
        <g
           id="g4162"
           style="fill:#1d446f;stroke:none;stroke-opacity:1;fill-opacity:1">
          <g
             id="g4166"
             style="fill:#1d446f;stroke:none;stroke-opacity:1;fill-opacity:1">
            <path
               d="m 28.833,12.7749 -0.291,-0.7412 -0.5098,0.165 0.1465,0.9043 0.6543,-0.3281"
               id="path4168"
               style="fill:#1d446f;stroke:none;stroke-opacity:1;fill-opacity:1" />
          </g>
        </g>
        <g
           id="g4170"
           style="fill:#1d446f;stroke:none;stroke-opacity:1;fill-opacity:1">
          <g
             id="g4174"
             style="fill:#1d446f;stroke:none;stroke-opacity:1;fill-opacity:1">
            <path
               d="m 29.123,12.6089 -0.1455,0.9883 0.7998,-0.165 0.5811,-0.5752 -0.5088,-0.4941 C 29.6787,11.9078 29.4824,11.483 29.2685,11.0465 H 28.833 v 0.4932 l 0.29,0.3291 v 0.7402"
               id="path4176"
               style="fill:#1d446f;stroke:none;stroke-opacity:1;fill-opacity:1" />
          </g>
        </g>
        <g
           id="g4178"
           style="fill:#1d446f;stroke:none;stroke-opacity:1;fill-opacity:1">
          <g
             id="g4182"
             style="fill:#1d446f;stroke:none;stroke-opacity:1;fill-opacity:1">
            <path
               d="m 18.3652,28.2422 -0.582,-1.1523 -1.0903,-0.2466 -0.5815,-1.5625 -1.4536,0.1641 -1.2354,-0.9043 -1.3091,1.1514 v 0.1816 c -0.396,-0.1143 -0.8828,-0.1299 -1.2354,-0.3467 l -0.291,-0.8223 v -0.9053 l -0.8721,0.082 c 0.0728,-0.5762 0.145,-1.1514 0.2183,-1.7275 H 9.4238 L 8.9155,22.812 8.4062,23.0581 7.6791,22.6479 7.6063,21.7426 7.7518,20.7553 8.8426,19.933 h 0.8721 l 0.145,-0.4941 1.0903,0.2461 0.7998,0.9883 0.1455,-1.6465 1.3813,-1.1514 0.5088,-1.2344 1.0176,-0.4111 0.5815,-0.8223 1.3081,-0.248 0.6548,-0.9863 c -0.6543,0 -1.3086,0 -1.9629,0 l 1.2358,-0.5762 h 0.8716 l 1.2363,-0.4121 0.1455,-0.4922 -0.4365,-0.4121 -0.5088,-0.165 0.1455,-0.4932 -0.3633,-0.7402 -0.8726,0.3281 0.1455,-0.6577 -1.0176,-0.5762 -0.7993,1.3979 0.0723,0.4941 -0.7993,0.3301 -0.5093,1.0693 -0.2178,-0.9873 -1.3813,-0.5762 -0.2183,-0.7402 1.8174,-1.0703 0.7998,-0.7402 0.0728,-0.9048 -0.436,-0.2471 -0.5815,-0.0825 -0.3633,0.9053 c 0,0 -0.6079,0.1191 -0.7642,0.1577 -1.9961,1.8394 -6.0293,5.8101 -6.9663,13.3062 0.0371,0.1738 0.6792,1.1816 0.6792,1.1816 l 1.5264,0.9043 1.5264,0.4121 0.6548,0.8232 1.0171,0.7402 0.5815,-0.082 0.436,0.1963 v 0.1328 l -0.5811,1.563 -0.4365,0.6582 0.1455,0.3301 -0.3633,1.2324 1.3086,2.3867 1.3081,1.1523 0.582,0.8223 -0.0732,1.7285 0.4365,0.9863 -0.4365,1.8926 c 0,0 -0.0342,-0.0117 0.0215,0.1777 0.0562,0.1895 2.3291,1.4512 2.4736,1.3438 0.144,-0.1094 0.2671,-0.2051 0.2671,-0.2051 l -0.145,-0.4102 0.5811,-0.5762 0.2183,-0.5762 0.9453,-0.3301 0.7266,-1.8105 -0.2178,-0.4922 0.5078,-0.7402 1.0908,-0.248 0.582,-1.3164 -0.1455,-1.6445 0.8721,-1.2344 0.1455,-1.2344 C 20.7331,29.4607 19.5495,28.8513 18.365,28.242"
               id="path4184"
               style="fill:#1d446f;stroke:none;stroke-opacity:1;fill-opacity:1" />
          </g>
        </g>
        <g
           id="g4186"
           style="fill:#1d446f;stroke:none;stroke-opacity:1;fill-opacity:1">
          <g
             id="g4190"
             style="fill:#1d446f;stroke:none;stroke-opacity:1;fill-opacity:1">
            <path
               d="m 16.7656,9.5649 0.7266,0.4937 h 0.582 V 9.4829 l -0.7266,-0.3291 -0.582,0.4111"
               id="path4192"
               style="fill:#1d446f;stroke:none;stroke-opacity:1;fill-opacity:1" />
          </g>
        </g>
        <g
           id="g4194"
           style="fill:#1d446f;stroke:none;stroke-opacity:1;fill-opacity:1">
          <g
             id="g4198"
             style="fill:#1d446f;stroke:none;stroke-opacity:1;fill-opacity:1">
            <path
               d="M 14.876,8.9072 14.5122,9.812 h 0.7271 L 15.6031,8.9892 C 15.9166,8.7675 16.2286,8.5444 16.5479,8.331 l 0.7271,0.2471 c 0.4844,0.3291 0.9688,0.6582 1.4536,0.9868 L 19.4561,8.9072 18.6558,8.5781 18.292,7.8374 16.9111,7.6728 16.8383,7.2612 16.184,7.4262 15.8936,8.002 15.5298,7.2613 l -0.145,0.3291 0.0728,0.8228 -0.5816,0.494"
               id="path4200"
               style="fill:#1d446f;stroke:none;stroke-opacity:1;fill-opacity:1" />
          </g>
        </g>
        <g
           id="g4202"
           style="fill:#1d446f;stroke:none;stroke-opacity:1;fill-opacity:1">
          <g
             style="opacity:0.75;fill:#1d446f;stroke:none;stroke-opacity:1;fill-opacity:1"
             id="g4204">
            <path
               id="path4206"
               d=""
               style="fill:#1d446f;stroke:none;stroke-opacity:1;fill-opacity:1" />
          </g>
          <g
             id="g4208"
             style="fill:#1d446f;stroke:none;stroke-opacity:1;fill-opacity:1">
            <path
               id="path4210"
               d=""
               style="fill:#1d446f;stroke:none;stroke-opacity:1;fill-opacity:1" />
          </g>
        </g>
        <g
           id="g4212"
           style="fill:#1d446f;stroke:none;stroke-opacity:1;fill-opacity:1">
          <g
             style="opacity:0.75;fill:#1d446f;stroke:none;stroke-opacity:1;fill-opacity:1"
             id="g4214">
            <path
               id="path4216"
               d=""
               style="fill:#1d446f;stroke:none;stroke-opacity:1;fill-opacity:1" />
          </g>
          <g
             id="g4218"
             style="fill:#1d446f;stroke:none;stroke-opacity:1;fill-opacity:1">
            <path
               id="path4220"
               d=""
               style="fill:#1d446f;stroke:none;stroke-opacity:1;fill-opacity:1" />
          </g>
        </g>
        <g
           id="g4222"
           style="fill:#1d446f;stroke:none;stroke-opacity:1;fill-opacity:1">
          <g
             id="g4226"
             style="fill:#1d446f;stroke:none;stroke-opacity:1;fill-opacity:1">
            <path
               d="M 17.4922,6.8496 17.856,6.521 18.5831,6.3564 c 0.498,-0.2422 0.998,-0.4053 1.5264,-0.5762 l -0.29,-0.4937 -0.9385,0.1348 -0.4434,0.4419 -0.731,0.106 -0.6499,0.3052 -0.3159,0.1528 -0.1929,0.2583 0.9443,0.1641"
               id="path4228"
               style="fill:#1d446f;stroke:none;stroke-opacity:1;fill-opacity:1" />
          </g>
        </g>
        <g
           id="g4230"
           style="fill:#1d446f;stroke:none;stroke-opacity:1;fill-opacity:1">
          <g
             id="g4234"
             style="fill:#1d446f;stroke:none;stroke-opacity:1;fill-opacity:1">
            <path
               d="m 18.7285,14.6665 0.4365,-0.6582 -0.6548,-0.4932 0.2183,1.1514"
               id="path4236"
               style="fill:#1d446f;stroke:none;stroke-opacity:1;fill-opacity:1" />
          </g>
        </g>
      </g>
      <g
         id="g23236"
         inkscape:highlight-color="#2176f3"
         style="display:inline;enable-background:new"
         transform="matrix(0.09028811,0,0,0.09028811,-1.8723317,22.519088)">
        <g
           id="g5705"
           style="opacity:0.35;filter:url(#filter20635)"
           transform="matrix(2.2952152,0,0,2.2952152,-760.92143,-428.16917)">
          <circle
             r="18.159569"
             cy="169.90556"
             cx="438.60989"
             id="path3066-4"
             style="color:#000000;display:inline;overflow:visible;visibility:visible;opacity:1;fill:none;stroke:#ffffff;stroke-width:8.47447;stroke-linecap:butt;stroke-linejoin:round;stroke-miterlimit:4;stroke-dasharray:none;stroke-dashoffset:0;stroke-opacity:1;marker:none" />
          <circle
             r="35.766994"
             cy="169.90559"
             cx="438.60992"
             id="path3941-2"
             style="color:#000000;display:inline;overflow:visible;visibility:visible;opacity:1;fill:none;stroke:#ffffff;stroke-width:4.23723;stroke-linecap:butt;stroke-linejoin:round;stroke-miterlimit:4;stroke-dasharray:none;stroke-dashoffset:0;stroke-opacity:1;marker:none" />
          <circle
             r="52.150208"
             cy="169.90562"
             cx="438.60995"
             id="path3943-0"
             style="color:#000000;display:inline;overflow:visible;visibility:visible;opacity:1;fill:none;stroke:#ffffff;stroke-width:2.11862;stroke-linecap:butt;stroke-linejoin:round;stroke-miterlimit:4;stroke-dasharray:none;stroke-dashoffset:0;stroke-opacity:1;marker:none" />
        </g>
        <g
           id="g22342"
           transform="translate(4)">
          <path
             inkscape:connector-curvature="0"
             d="m 439.13952,164.08069 -72.03293,69.91431 32.83854,1.05931 c 0,0 -13.771,28.60131 -13.771,28.60131 -4.23723,12.71169 14.83031,17.47858 18.00823,7.94481 0,0 12.7117,-28.60131 12.7117,-28.60131 l 23.30477,24.89373 z"
             id="path14690"
             sodipodi:nodetypes="cccssccc"
             style="color:#000000;display:inline;overflow:visible;visibility:visible;opacity:0.438;fill:#0f0f0f;fill-opacity:1;fill-rule:evenodd;stroke:none;stroke-width:4.23723;marker:none;filter:url(#filter14700)"
             transform="matrix(2.1739416,0.12585284,-0.12585284,2.1739416,-693.07757,-446.25337)" />
          <path
             style="color:#000000;display:inline;overflow:visible;visibility:visible;opacity:0.438;fill:#0f0f0f;fill-opacity:1;fill-rule:evenodd;stroke:none;stroke-width:4.23723;marker:none;filter:url(#filter14766)"
             sodipodi:nodetypes="cccssccc"
             id="path14756"
             d="m 440.13952,169.08069 -72.03293,69.91431 32.83854,1.05931 c 0,0 -13.771,28.60131 -13.771,28.60131 -4.23723,12.71169 14.83031,17.47858 18.00823,7.94481 0,0 12.7117,-28.60131 12.7117,-28.60131 l 23.30477,24.89373 z"
             inkscape:connector-curvature="0"
             transform="matrix(2.1739416,0.12585284,-0.12585284,2.1739416,-693.07757,-446.25337)" />
          <path
             style="color:#000000;display:inline;overflow:visible;visibility:visible;fill:url(#radialGradient4851-7-3);fill-opacity:1;fill-rule:evenodd;stroke:none;stroke-width:9.22692;marker:none"
             sodipodi:nodetypes="cccssccc"
             id="path3970-7-1"
             d="M 241.06958,-36.590368 75.675284,106.33371 l 71.255756,6.4357 c 0,0 -33.53691,60.44446 -33.53691,60.44446 -10.8113,27.10121 30.0405,39.86386 38.14896,19.53795 0,0 31.23405,-60.57779 31.23405,-60.57779 l 47.53026,57.0505 z"
             inkscape:connector-curvature="0" />
          <path
             transform="matrix(9.2114933,0.53326757,-0.53326757,9.2114933,73.213839,-210.35978)"
             d="m 19.25,17.75 -17,16.5 7.75,0.25 c 0,0 -3.25,6.75 -3.25,6.75 -1,3 3.5,4.125 4.25,1.875 0,0 3,-6.75 3,-6.75 l 5.5,5.875 z"
             id="path5952"
             sodipodi:nodetypes="cccssccc"
             style="color:#000000;display:inline;overflow:visible;visibility:visible;fill:none;stroke:url(#linearGradient5986);stroke-width:0.118159;stroke-linecap:butt;stroke-linejoin:round;stroke-miterlimit:4;stroke-dasharray:none;stroke-dashoffset:0;stroke-opacity:1;marker:none;filter:url(#filter6010)"
             clip-path="url(#clipPath5956-9-3-5)"
             inkscape:connector-curvature="0" />
          <path
             style="color:#000000;display:inline;overflow:visible;visibility:visible;fill:url(#radialGradient6008);fill-opacity:1;stroke:none;stroke-width:4.35516;marker:none;enable-background:new"
             d="m 145.10414,201.33025 40.21196,-72.92443 16.41617,17.85487 -16.48772,-26.03861 z"
             id="path6000"
             inkscape:connector-curvature="0" />
        </g>
      </g>
    </g>
    <g
       id="g11419"
       transform="matrix(0.23738272,0,0,0.23738272,202.8641,-17.703142)"
       style="fill:#4e9a06" />
  </g>
</svg>
