<?xml version="1.0" encoding="UTF-8" standalone="no"?>
<svg
   version="1.1"
   id="aboutWordmark"
   x="0px"
   y="0px"
   width="130px"
   height="38px"
   viewBox="0 0 130 38"
   xml:space="preserve"
   inkscape:version="1.2 (1:1.2+202205241504+da316b6974)"
   sodipodi:docname="about-wordmark.svg"
   xmlns:inkscape="http://www.inkscape.org/namespaces/inkscape"
   xmlns:sodipodi="http://sodipodi.sourceforge.net/DTD/sodipodi-0.dtd"
   xmlns="http://www.w3.org/2000/svg"
   xmlns:svg="http://www.w3.org/2000/svg"
   xmlns:rdf="http://www.w3.org/1999/02/22-rdf-syntax-ns#"
   xmlns:cc="http://creativecommons.org/ns#"
   xmlns:dc="http://purl.org/dc/elements/1.1/"><metadata
   id="metadata9"><rdf:RDF><cc:Work
       rdf:about=""><dc:format>image/svg+xml</dc:format><dc:type
         rdf:resource="http://purl.org/dc/dcmitype/StillImage" /></cc:Work></rdf:RDF></metadata><defs
   id="defs7" /><sodipodi:namedview
   pagecolor="#ffffff"
   bordercolor="#666666"
   borderopacity="1"
   objecttolerance="10"
   gridtolerance="10"
   guidetolerance="10"
   inkscape:pageopacity="0"
   inkscape:pageshadow="2"
   inkscape:window-width="1918"
   inkscape:window-height="1008"
   id="namedview5"
   showgrid="false"
   inkscape:zoom="4.8940365"
   inkscape:cx="77.952014"
   inkscape:cy="4.9039275"
   inkscape:window-x="1366"
   inkscape:window-y="0"
   inkscape:window-maximized="1"
   inkscape:current-layer="aboutWordmark"
   inkscape:showpageshadow="2"
   inkscape:pagecheckerboard="0"
   inkscape:deskcolor="#d1d1d1" /><g
   aria-label="Abrowser"
   id="text2986"
   style="line-height:0%;letter-spacing:0px;word-spacing:0px;fill:#6f6f6f"><path
     d="M 10.419262,20.624147 4.9514648,37.289883 H 0.54685038 L 8.016745,17.186063 h 2.802936 z M 14.961952,37.289883 9.4803473,20.624147 9.0385051,17.186063 h 2.8305519 l 7.511317,20.10382 z M 14.713416,29.80618 v 3.244779 H 4.0953955 V 29.80618 Z"
     style="font-weight:bold;font-size:28.2779px;line-height:1.25;-inkscape-font-specification:'Sans Bold'"
     id="path166" /><path
     d="m 20.995859,16.081457 h 3.97658 v 17.784149 l -0.400419,3.424277 h -3.576161 z m 13.434765,13.586648 v 0.289959 q 0,1.670715 -0.358997,3.06528 -0.345189,1.394564 -1.076991,2.416324 -0.731801,1.007953 -1.822599,1.574063 -1.07699,0.552303 -2.540592,0.552303 -1.36695,0 -2.374902,-0.552303 -0.994145,-0.552302 -1.670716,-1.560255 -0.676571,-1.007952 -1.090798,-2.361094 -0.414227,-1.353142 -0.62134,-2.95482 v -0.635148 q 0.207113,-1.601678 0.62134,-2.95482 0.414227,-1.353142 1.090798,-2.361094 0.676571,-1.007953 1.670716,-1.560255 0.994145,-0.552303 2.347287,-0.552303 1.477409,0 2.568207,0.56611 1.104606,0.552303 1.822599,1.574063 0.731802,1.007953 1.076991,2.402517 0.358997,1.380757 0.358997,3.051473 z m -3.97658,0.289959 v -0.289959 q 0,-0.9113 -0.138076,-1.712139 -0.124268,-0.814646 -0.441842,-1.422179 -0.317574,-0.621341 -0.869877,-0.980338 -0.538495,-0.358997 -1.394564,-0.358997 -0.814647,0 -1.380757,0.276152 -0.566111,0.276151 -0.938915,0.773224 -0.358997,0.497072 -0.552303,1.187451 -0.179498,0.67657 -0.207113,1.491217 v 1.808792 q 0.04142,1.090797 0.358997,1.933059 0.331381,0.828454 0.994145,1.311719 0.67657,0.469458 1.753561,0.469458 0.842262,0 1.394564,-0.331382 0.552303,-0.331382 0.85607,-0.938915 0.317574,-0.607533 0.441842,-1.422179 0.124268,-0.828455 0.124268,-1.794984 z"
     style="font-weight:bold;font-size:28.2779px;line-height:1.25;-inkscape-font-specification:'Sans Bold'"
     id="path168" /><path
     d="m 40.878758,25.60868 v 11.681203 h -3.97658 v -14.93979 h 3.741851 z m 4.501267,-3.35524 -0.06904,3.686621 q -0.289959,-0.04142 -0.704186,-0.06904 -0.400419,-0.04142 -0.731801,-0.04142 -0.842262,0 -1.463602,0.220921 -0.607533,0.207113 -1.02176,0.62134 -0.40042,0.40042 -0.607533,1.007953 -0.193306,0.593725 -0.220921,1.353142 L 39.760345,28.78442 q 0,-1.449794 0.289959,-2.66486 0.289959,-1.228874 0.842261,-2.140174 0.566111,-0.911299 1.380757,-1.408372 0.814647,-0.497072 1.864022,-0.497072 0.331382,0 0.676571,0.05523 0.345189,0.04142 0.56611,0.124268 z"
     style="font-weight:bold;font-size:28.2779px;line-height:1.25;-inkscape-font-specification:'Sans Bold'"
     id="path170" /><path
     d="m 46.194673,29.971871 v -0.289959 q 0,-1.6431 0.469457,-3.023857 0.469457,-1.394565 1.366949,-2.416325 0.897492,-1.02176 2.209211,-1.58787 1.311719,-0.579918 3.01005,-0.579918 1.698331,0 3.023858,0.579918 1.325526,0.56611 2.223018,1.58787 0.9113,1.02176 1.380757,2.416325 0.469458,1.380757 0.469458,3.023857 v 0.289959 q 0,1.629293 -0.469458,3.023858 -0.469457,1.380757 -1.380757,2.416324 -0.897492,1.02176 -2.209211,1.587871 -1.311719,0.56611 -3.01005,0.56611 -1.698331,0 -3.023857,-0.56611 -1.311719,-0.566111 -2.223019,-1.587871 -0.897492,-1.035567 -1.366949,-2.416324 -0.469457,-1.394565 -0.469457,-3.023858 z m 3.976579,-0.289959 v 0.289959 q 0,0.938915 0.165691,1.753561 0.165691,0.814647 0.524688,1.435988 0.372804,0.607533 0.96653,0.952722 0.593725,0.345189 1.449794,0.345189 0.828454,0 1.42218,-0.345189 0.593725,-0.345189 0.952722,-0.952722 0.358997,-0.621341 0.524688,-1.435988 0.179498,-0.814646 0.179498,-1.753561 v -0.289959 q 0,-0.911299 -0.179498,-1.712138 -0.165691,-0.814647 -0.538495,-1.435987 -0.358997,-0.635149 -0.952723,-0.994145 -0.593725,-0.358997 -1.435987,-0.358997 -0.842261,0 -1.435987,0.358997 -0.579918,0.358996 -0.952722,0.994145 -0.358997,0.62134 -0.524688,1.435987 -0.165691,0.800839 -0.165691,1.712138 z"
     style="font-weight:bold;font-size:28.2779px;line-height:1.25;-inkscape-font-specification:'Sans Bold'"
     id="path172" /><path
     d="m 67.057907,33.423763 3.106703,-11.07367 h 2.526785 l -0.814646,4.349384 -3.106703,10.590406 h -2.112558 z m -1.574062,-11.07367 2.223018,11.059863 0.207114,3.879927 H 65.428614 L 61.64534,22.350093 Z m 10.05191,10.880364 2.167788,-10.880364 h 3.852311 l -3.783273,14.93979 h -2.471555 z m -2.49917,-10.880364 3.092895,10.990825 0.428035,3.948965 H 74.431149 L 71.324446,26.713285 70.537415,22.350093 Z"
     style="font-weight:bold;font-size:28.2779px;line-height:1.25;-inkscape-font-specification:'Sans Bold'"
     id="path174" /><path
     d="m 91.635383,33.16142 q 0,-0.428035 -0.248537,-0.773224 -0.248536,-0.345189 -0.925107,-0.635148 -0.662763,-0.303767 -1.919252,-0.552303 -1.13222,-0.248536 -2.112558,-0.621341 -0.96653,-0.386612 -1.684523,-0.925107 -0.704186,-0.538495 -1.104606,-1.270296 -0.400419,-0.745609 -0.400419,-1.698331 0,-0.938915 0.400419,-1.767369 0.414227,-0.828454 1.173644,-1.463602 0.773224,-0.648956 1.877829,-1.007953 1.118413,-0.372804 2.512978,-0.372804 1.946867,0 3.341431,0.621341 1.408372,0.62134 2.153981,1.712138 0.759416,1.07699 0.759416,2.457747 h -3.97658 q 0,-0.579918 -0.248536,-1.035567 -0.234729,-0.469458 -0.745609,-0.731802 -0.497072,-0.276151 -1.297911,-0.276151 -0.662763,0 -1.146028,0.234729 -0.483265,0.220921 -0.745609,0.607533 -0.248536,0.372804 -0.248536,0.828454 0,0.345189 0.138075,0.621341 0.151884,0.262343 0.483265,0.483264 0.331382,0.220922 0.85607,0.414227 0.538495,0.179499 1.325526,0.331382 1.615486,0.331382 2.885782,0.869877 1.270296,0.524688 2.015905,1.435987 0.745609,0.897492 0.745609,2.361094 0,0.994145 -0.441842,1.822599 -0.441843,0.828455 -1.270297,1.449795 -0.828454,0.607533 -1.98829,0.952722 -1.146028,0.331382 -2.582015,0.331382 -2.084943,0 -3.534738,-0.745609 -1.435987,-0.745608 -2.181595,-1.891637 -0.731802,-1.159835 -0.731802,-2.374901 h 3.769467 q 0.02761,0.814646 0.414227,1.311719 0.400419,0.497072 1.007952,0.717993 0.621341,0.220921 1.339334,0.220921 0.773224,0 1.284104,-0.207113 0.51088,-0.220921 0.773224,-0.579918 0.276152,-0.372804 0.276152,-0.856069 z"
     style="font-weight:bold;font-size:28.2779px;line-height:1.25;-inkscape-font-specification:'Sans Bold'"
     id="path176" /><path
     d="m 104.95968,37.566034 q -1.73975,0 -3.12051,-0.552303 -1.38075,-0.56611 -2.347285,-1.560255 -0.952722,-0.994145 -1.463602,-2.305864 -0.51088,-1.325527 -0.51088,-2.816744 v -0.552303 q 0,-1.698331 0.483265,-3.106703 0.483265,-1.408372 1.380757,-2.443939 0.911295,-1.035568 2.209215,-1.587871 1.29791,-0.56611 2.9272,-0.56611 1.58787,0 2.81674,0.524688 1.22888,0.524687 2.05733,1.491217 0.84226,0.96653 1.2703,2.319672 0.42803,1.339334 0.42803,2.982434 v 1.656909 H 99.215734 v -2.651054 h 7.966966 v -0.303766 q 0,-0.828454 -0.30377,-1.47741 -0.28995,-0.662763 -0.88368,-1.049375 -0.59373,-0.386612 -1.51883,-0.386612 -0.78703,0 -1.35314,0.345189 -0.56611,0.345189 -0.92511,0.96653 -0.34519,0.621341 -0.52469,1.463602 -0.16569,0.828454 -0.16569,1.822599 v 0.552303 q 0,0.897492 0.24854,1.656908 0.26234,0.759417 0.7318,1.311719 0.48326,0.552303 1.15983,0.85607 0.69038,0.303766 1.56026,0.303766 1.07699,0 2.0021,-0.414227 0.93891,-0.428035 1.61548,-1.284104 l 1.93306,2.098751 q -0.46946,0.67657 -1.2841,1.297911 -0.80084,0.621341 -1.93306,1.02176 -1.13222,0.386612 -2.58202,0.386612 z"
     style="font-weight:bold;font-size:28.2779px;line-height:1.25;-inkscape-font-specification:'Sans Bold'"
     id="path178" /><path
     d="m 117.33126,25.60868 v 11.681203 h -3.97658 v -14.93979 h 3.74186 z m 4.50127,-3.35524 -0.069,3.686621 q -0.28995,-0.04142 -0.70418,-0.06904 -0.40042,-0.04142 -0.7318,-0.04142 -0.84226,0 -1.46361,0.220921 -0.60753,0.207113 -1.02176,0.62134 -0.40041,0.40042 -0.60753,1.007953 -0.1933,0.593725 -0.22092,1.353142 l -0.80084,-0.248537 q 0,-1.449794 0.28996,-2.66486 0.28996,-1.228874 0.84226,-2.140174 0.56611,-0.911299 1.38076,-1.408372 0.81465,-0.497072 1.86402,-0.497072 0.33138,0 0.67657,0.05523 0.34519,0.04142 0.56611,0.124268 z"
     style="font-weight:bold;font-size:28.2779px;line-height:1.25;-inkscape-font-specification:'Sans Bold'"
     id="path180" /></g>
</svg>
