<?xml version="1.0" encoding="UTF-8" standalone="no"?>
<svg
   version="1.1"
   id="aboutWordmark"
   x="0px"
   y="0px"
   width="121.3271"
   height="21.484577"
   viewBox="0 0 121.3271 21.484577"
   xml:space="preserve"
   inkscape:version="1.2 (1:1.2+202205241504+da316b6974)"
   sodipodi:docname="firefox-wordmark.svg"
   xmlns:inkscape="http://www.inkscape.org/namespaces/inkscape"
   xmlns:sodipodi="http://sodipodi.sourceforge.net/DTD/sodipodi-0.dtd"
   xmlns="http://www.w3.org/2000/svg"
   xmlns:svg="http://www.w3.org/2000/svg"
   xmlns:rdf="http://www.w3.org/1999/02/22-rdf-syntax-ns#"
   xmlns:cc="http://creativecommons.org/ns#"
   xmlns:dc="http://purl.org/dc/elements/1.1/"><metadata
   id="metadata9"><rdf:RDF><cc:Work
       rdf:about=""><dc:format>image/svg+xml</dc:format><dc:type
         rdf:resource="http://purl.org/dc/dcmitype/StillImage" /><dc:title /></cc:Work></rdf:RDF></metadata><defs
   id="defs7" /><sodipodi:namedview
   pagecolor="#ffffff"
   bordercolor="#666666"
   borderopacity="1"
   objecttolerance="10"
   gridtolerance="10"
   guidetolerance="10"
   inkscape:pageopacity="0"
   inkscape:pageshadow="2"
   inkscape:window-width="1918"
   inkscape:window-height="1008"
   id="namedview5"
   showgrid="false"
   inkscape:zoom="3.4606064"
   inkscape:cx="27.885286"
   inkscape:cy="-18.493869"
   inkscape:window-x="1366"
   inkscape:window-y="0"
   inkscape:window-maximized="1"
   inkscape:current-layer="aboutWordmark"
   inkscape:document-rotation="0"
   fit-margin-top="0"
   fit-margin-left="0"
   fit-margin-right="0"
   fit-margin-bottom="0"
   inkscape:showpageshadow="2"
   inkscape:pagecheckerboard="0"
   inkscape:deskcolor="#d1d1d1" /><g
   aria-label="Abrowser"
   id="text2986"
   style="line-height:0%;letter-spacing:0px;word-spacing:0px;fill:#808080"><path
     d="M 9.8724116,4.5426901 4.4046144,21.208426 H 0 L 7.4698947,1.1046055 H 10.272831 Z M 14.415102,21.208426 8.9334969,4.5426901 8.4916547,1.1046055 h 2.8305513 l 7.511318,20.1038205 z m -0.248537,-7.483703 v 3.244779 H 3.5485452 v -3.244779 z"
     style="font-weight:bold;font-size:28.2779px;line-height:1.25;-inkscape-font-specification:'Sans Bold';fill:#808080"
     id="path202" /><path
     d="m 20.449009,0 h 3.97658 v 17.784148 l -0.40042,3.424278 h -3.57616 z m 13.434764,13.586648 v 0.289959 q 0,1.670715 -0.358997,3.06528 -0.345189,1.394564 -1.07699,2.416324 -0.731801,1.007953 -1.822599,1.574063 -1.07699,0.552303 -2.540593,0.552303 -1.366949,0 -2.374901,-0.552303 -0.994145,-0.552303 -1.670716,-1.560255 -0.676571,-1.007953 -1.090798,-2.361094 -0.414227,-1.353142 -0.621341,-2.95482 v -0.635148 q 0.207114,-1.601678 0.621341,-2.95482 0.414227,-1.3531417 1.090798,-2.3610942 0.676571,-1.0079525 1.670716,-1.5602552 0.994145,-0.5523028 2.347286,-0.5523028 1.47741,0 2.568208,0.5661103 1.104606,0.5523028 1.822599,1.5740629 0.731801,1.0079525 1.07699,2.402517 0.358997,1.380757 0.358997,3.051473 z m -3.97658,0.289959 v -0.289959 q 0,-0.9113 -0.138075,-1.712139 Q 29.64485,11.059863 29.327276,10.45233 29.009701,9.8309889 28.457399,9.4719921 27.918904,9.1129953 27.062834,9.1129953 q -0.814646,0 -1.380757,0.2761514 -0.56611,0.2761514 -0.938914,0.7732243 -0.358997,0.497072 -0.552303,1.18745 -0.179498,0.676571 -0.207114,1.491218 v 1.808791 q 0.04142,1.090798 0.358997,1.93306 0.331382,0.828454 0.994145,1.311719 0.676571,0.469457 1.753561,0.469457 0.842262,0 1.394565,-0.331381 0.552303,-0.331382 0.856069,-0.938915 0.317574,-0.607533 0.441842,-1.42218 0.124268,-0.828454 0.124268,-1.794983 z"
     style="font-weight:bold;font-size:28.2779px;line-height:1.25;-inkscape-font-specification:'Sans Bold';fill:#808080"
     id="path204" /><path
     d="M 40.331907,9.5272224 V 21.208426 H 36.355328 V 6.2686362 h 3.741851 z m 4.501268,-3.3552392 -0.06904,3.6866209 q -0.289959,-0.041423 -0.704186,-0.069038 -0.40042,-0.041423 -0.731801,-0.041423 -0.842262,0 -1.463603,0.2209211 -0.607533,0.2071134 -1.02176,0.6213404 -0.400419,0.40042 -0.607533,1.007953 -0.193306,0.593725 -0.220921,1.353141 l -0.800839,-0.248536 q 0,-1.449795 0.289959,-2.664861 0.289959,-1.2288732 0.842262,-2.1401727 0.56611,-0.9112995 1.380757,-1.408372 0.814646,-0.4970725 1.864022,-0.4970725 0.331381,0 0.67657,0.05523 0.34519,0.041423 0.566111,0.1242681 z"
     style="font-weight:bold;font-size:28.2779px;line-height:1.25;-inkscape-font-specification:'Sans Bold';fill:#808080"
     id="path206" /><path
     d="m 45.647822,13.890414 v -0.289959 q 0,-1.643101 0.469458,-3.023857 0.469457,-1.3945648 1.366949,-2.4163249 0.897492,-1.0217601 2.209211,-1.5878704 1.311719,-0.5799179 3.01005,-0.5799179 1.698331,0 3.023857,0.5799179 1.325527,0.5661103 2.223019,1.5878704 0.911299,1.0217601 1.380757,2.4163249 0.469457,1.380756 0.469457,3.023857 v 0.289959 q 0,1.629293 -0.469457,3.023858 -0.469458,1.380757 -1.380757,2.416324 -0.897492,1.02176 -2.209211,1.587871 -1.311719,0.56611 -3.01005,0.56611 -1.698331,0 -3.023858,-0.56611 -1.311719,-0.566111 -2.223018,-1.587871 -0.897492,-1.035567 -1.366949,-2.416324 -0.469458,-1.394565 -0.469458,-3.023858 z m 3.97658,-0.289959 v 0.289959 q 0,0.938915 0.165691,1.753561 0.165691,0.814647 0.524687,1.435987 0.372805,0.607534 0.96653,0.952723 0.593726,0.345189 1.449795,0.345189 0.828454,0 1.42218,-0.345189 0.593725,-0.345189 0.952722,-0.952723 0.358997,-0.62134 0.524687,-1.435987 0.179499,-0.814646 0.179499,-1.753561 v -0.289959 q 0,-0.911299 -0.179499,-1.712138 Q 55.465004,11.07367 55.092199,10.45233 54.733202,9.8171813 54.139477,9.4581846 53.545752,9.0991878 52.70349,9.0991878 q -0.842262,0 -1.435987,0.3589968 -0.579918,0.3589967 -0.952723,0.9941454 -0.358996,0.62134 -0.524687,1.435987 -0.165691,0.800839 -0.165691,1.712138 z"
     style="font-weight:bold;font-size:28.2779px;line-height:1.25;-inkscape-font-specification:'Sans Bold';fill:#808080"
     id="path208" /><path
     d="M 66.511057,17.342306 69.61776,6.2686362 h 2.526785 L 71.329898,10.61802 68.223195,21.208426 H 66.110637 Z M 64.936994,6.2686362 67.160013,17.328499 67.367126,21.208426 H 64.881764 L 61.09849,6.2686362 Z M 74.988904,17.149 77.156692,6.2686362 h 3.852312 L 77.22573,21.208426 H 74.754175 Z M 72.489734,6.2686362 75.58263,17.259461 76.010664,21.208426 H 73.884299 L 70.777596,10.631828 69.990564,6.2686362 Z"
     style="font-weight:bold;font-size:28.2779px;line-height:1.25;-inkscape-font-specification:'Sans Bold';fill:#808080"
     id="path210" /><path
     d="m 91.088532,17.079962 q 0,-0.428034 -0.248536,-0.773223 -0.248536,-0.34519 -0.925107,-0.635149 -0.662763,-0.303766 -1.919252,-0.552302 -1.132221,-0.248537 -2.112558,-0.621341 -0.96653,-0.386612 -1.684524,-0.925107 -0.704186,-0.538495 -1.104605,-1.270296 -0.40042,-0.745609 -0.40042,-1.698331 0,-0.9389149 0.40042,-1.767369 0.414227,-0.8284542 1.173643,-1.4636023 0.773224,-0.6489557 1.87783,-1.0079525 1.118413,-0.3728044 2.512977,-0.3728044 1.946867,0 3.341432,0.6213406 1.408372,0.6213406 2.15398,1.7121385 0.759417,1.0769904 0.759417,2.4577471 h -3.97658 q 0,-0.579918 -0.248536,-1.0355675 Q 90.453384,9.2786862 89.942504,9.0163424 89.445432,8.740191 88.644593,8.740191 q -0.662764,0 -1.146029,0.2347287 -0.483265,0.2209211 -0.745608,0.607533 -0.248537,0.3728043 -0.248537,0.8284543 0,0.345189 0.138076,0.62134 0.151883,0.262344 0.483265,0.483265 0.331382,0.220921 0.856069,0.414227 0.538495,0.179499 1.325527,0.331382 1.615485,0.331382 2.885782,0.869877 1.270296,0.524687 2.015905,1.435987 0.745608,0.897492 0.745608,2.361094 0,0.994145 -0.441842,1.822599 -0.441842,0.828454 -1.270296,1.449795 -0.828454,0.607533 -1.98829,0.952722 -1.146028,0.331382 -2.582015,0.331382 -2.084943,0 -3.534738,-0.745609 -1.435987,-0.745609 -2.181596,-1.891637 -0.731801,-1.159835 -0.731801,-2.374902 h 3.769466 q 0.02762,0.814647 0.414227,1.311719 0.40042,0.497073 1.007953,0.717994 0.621341,0.220921 1.339334,0.220921 0.773224,0 1.284104,-0.207113 0.51088,-0.220921 0.773224,-0.579918 0.276151,-0.372805 0.276151,-0.85607 z"
     style="font-weight:bold;font-size:28.2779px;line-height:1.25;-inkscape-font-specification:'Sans Bold';fill:#808080"
     id="path212" /><path
     d="m 104.41283,21.484577 q -1.73975,0 -3.12051,-0.552303 -1.380755,-0.56611 -2.347285,-1.560255 -0.952722,-0.994145 -1.463602,-2.305864 -0.51088,-1.325527 -0.51088,-2.816744 v -0.552303 q 0,-1.698331 0.483265,-3.106703 0.483264,-1.4083718 1.380756,-2.4439395 0.9113,-1.0355676 2.209216,-1.5878704 1.29791,-0.5661103 2.9272,-0.5661103 1.58787,0 2.81674,0.5246876 1.22888,0.5246876 2.05733,1.4912174 0.84226,0.9665299 1.2703,2.3196712 0.42803,1.339335 0.42803,2.982435 v 1.656908 H 98.668884 v -2.651053 h 7.966966 v -0.303766 q 0,-0.828454 -0.30377,-1.47741 -0.28995,-0.6627634 -0.88368,-1.0493753 -0.59373,-0.3866119 -1.51883,-0.3866119 -0.78703,0 -1.35314,0.3451892 -0.56611,0.3451892 -0.92511,0.96653 -0.34519,0.62134 -0.52469,1.463602 -0.16569,0.828454 -0.16569,1.822599 v 0.552303 q 0,0.897492 0.24854,1.656908 0.26234,0.759416 0.7318,1.311719 0.48326,0.552303 1.15983,0.856069 0.69038,0.303767 1.56026,0.303767 1.07699,0 2.0021,-0.414227 0.93891,-0.428035 1.61548,-1.284104 l 1.93306,2.09875 q -0.46946,0.676571 -1.2841,1.297912 -0.80084,0.62134 -1.93306,1.02176 -1.13222,0.386612 -2.58202,0.386612 z"
     style="font-weight:bold;font-size:28.2779px;line-height:1.25;-inkscape-font-specification:'Sans Bold';fill:#808080"
     id="path214" /><path
     d="M 116.78441,9.5272224 V 21.208426 h -3.97658 V 6.2686362 h 3.74186 z m 4.50127,-3.3552392 -0.069,3.6866209 q -0.28996,-0.041423 -0.70418,-0.069038 -0.40042,-0.041423 -0.7318,-0.041423 -0.84226,0 -1.46361,0.2209211 -0.60753,0.2071134 -1.02176,0.6213404 -0.40042,0.40042 -0.60753,1.007953 -0.1933,0.593725 -0.22092,1.353141 L 115.666,12.702963 q 0,-1.449795 0.28996,-2.664861 0.28996,-1.2288732 0.84226,-2.1401727 0.56611,-0.9112995 1.38076,-1.408372 0.81465,-0.4970725 1.86402,-0.4970725 0.33138,0 0.67657,0.05523 0.34519,0.041423 0.56611,0.1242681 z"
     style="font-weight:bold;font-size:28.2779px;line-height:1.25;-inkscape-font-specification:'Sans Bold';fill:#808080"
     id="path216" /></g>
</svg>
